# Blender v3.6.1 OBJ File: ''
# www.blender.org
mtllib jammy_preserves.mtl
o cube.398
v 0.720277 0.521940 0.503202
v 0.404005 0.521940 0.301715
v 0.398462 0.583583 0.310415
v 0.714734 0.583583 0.511902
v 0.521553 0.460047 0.815137
v 0.516010 0.521690 0.823837
v 0.205281 0.460047 0.613649
v 0.199738 0.521690 0.622349
vt 0.375000 0.687500
vt 0.468750 0.687500
vt 0.468750 0.703125
vt 0.375000 0.703125
vt 0.281250 0.687500
vt 0.281250 0.703125
vt 0.562500 0.687500
vt 0.656250 0.687500
vt 0.656250 0.703125
vt 0.562500 0.703125
vt 0.468750 0.796875
vt 0.375000 0.796875
vt 0.562500 0.703125
vt 0.468750 0.703125
vt 0.468750 0.796875
vt 0.562500 0.796875
vn 0.5299 0.1650 -0.8318
vn 0.8434 -0.0000 0.5373
vn -0.5299 -0.1650 0.8318
vn -0.8434 -0.0000 -0.5373
vn -0.0887 0.9863 0.1392
vn 0.0887 -0.9863 -0.1392
usemtl m_f3033627-dba7-5f1e-6d2a-66aa604ec563
s 1
f 1/1/1 2/2/1 3/3/1 4/4/1
f 5/5/2 1/1/2 4/4/2 6/6/2
f 7/7/3 5/8/3 6/9/3 8/10/3
f 2/2/4 7/7/4 8/10/4 3/3/4
f 8/11/5 6/12/5 4/4/5 3/3/5
f 2/13/6 1/14/6 5/15/6 7/16/6
o cube.399
v 0.636193 0.483895 0.518864
v 0.425345 0.483895 0.384539
v 0.419803 0.545538 0.393239
v 0.630651 0.545538 0.527564
v 0.503711 0.442633 0.726820
v 0.498168 0.504276 0.735520
v 0.292863 0.442633 0.592496
v 0.287320 0.504276 0.601196
vt 0.500000 0.828125
vt 0.562500 0.828125
vt 0.562500 0.843750
vt 0.500000 0.843750
vt 0.437500 0.828125
vt 0.437500 0.843750
vt 0.625000 0.828125
vt 0.687500 0.828125
vt 0.687500 0.843750
vt 0.625000 0.843750
vt 0.562500 0.906250
vt 0.500000 0.906250
vt 0.625000 0.843750
vt 0.562500 0.843750
vt 0.562500 0.906250
vt 0.625000 0.906250
vn 0.5299 0.1650 -0.8318
vn 0.8434 0.0000 0.5373
vn -0.5299 -0.1650 0.8318
vn -0.8434 -0.0000 -0.5373
vn -0.0887 0.9863 0.1392
vn 0.0887 -0.9863 -0.1392
usemtl m_f3033627-dba7-5f1e-6d2a-66aa604ec563
s 1
f 9/17/7 10/18/7 11/19/7 12/20/7
f 13/21/8 9/17/8 12/20/8 14/22/8
f 15/23/9 13/24/9 14/25/9 16/26/9
f 10/18/10 15/23/10 16/26/10 11/19/10
f 16/27/11 14/28/11 12/20/11 11/19/11
f 10/29/12 9/30/12 13/31/12 15/32/12
o cube.400
v 0.750000 0.006250 0.250000
v 0.250000 0.006250 0.250000
v 0.250000 0.068750 0.250000
v 0.750000 0.068750 0.250000
v 0.750000 0.006250 0.750000
v 0.750000 0.068750 0.750000
v 0.250000 0.006250 0.750000
v 0.250000 0.068750 0.750000
vt 0.125000 0.859375
vt 0.250000 0.859375
vt 0.250000 0.875000
vt 0.125000 0.875000
vt 0.000000 0.859375
vt 0.000000 0.875000
vt 0.375000 0.859375
vt 0.500000 0.859375
vt 0.500000 0.875000
vt 0.375000 0.875000
vt 0.250000 1.000000
vt 0.125000 1.000000
vt 0.375000 0.875000
vt 0.250000 0.875000
vt 0.250000 1.000000
vt 0.375000 1.000000
vn 0.0000 0.0000 -1.0000
vn 1.0000 0.0000 0.0000
vn 0.0000 0.0000 1.0000
vn -1.0000 0.0000 0.0000
vn 0.0000 1.0000 -0.0000
vn 0.0000 -1.0000 0.0000
usemtl m_f3033627-dba7-5f1e-6d2a-66aa604ec563
s 1
f 17/33/13 18/34/13 19/35/13 20/36/13
f 21/37/14 17/33/14 20/36/14 22/38/14
f 23/39/15 21/40/15 22/41/15 24/42/15
f 18/34/16 23/39/16 24/42/16 19/35/16
f 24/43/17 22/44/17 20/36/17 19/35/17
f 18/45/18 17/46/18 21/47/18 23/48/18
o cube.401
v 0.687500 0.068750 0.250000
v 0.250000 0.068750 0.250000
v 0.250000 0.381250 0.250000
v 0.687500 0.381250 0.250000
v 0.687500 0.068750 0.312500
v 0.687500 0.381250 0.312500
v 0.250000 0.068750 0.312500
v 0.250000 0.381250 0.312500
vt 0.406250 0.593750
vt 0.515625 0.593750
vt 0.515625 0.671875
vt 0.406250 0.671875
vt 0.390625 0.593750
vt 0.390625 0.671875
vt 0.531250 0.593750
vt 0.640625 0.593750
vt 0.640625 0.671875
vt 0.531250 0.671875
vt 0.515625 0.687500
vt 0.406250 0.687500
vt 0.625000 0.671875
vt 0.515625 0.671875
vt 0.515625 0.687500
vt 0.625000 0.687500
vn 0.0000 -0.0000 -1.0000
vn 1.0000 0.0000 0.0000
vn 0.0000 0.0000 1.0000
vn -1.0000 0.0000 0.0000
vn 0.0000 1.0000 -0.0000
vn 0.0000 -1.0000 0.0000
usemtl m_f3033627-dba7-5f1e-6d2a-66aa604ec563
s 1
f 25/49/19 26/50/19 27/51/19 28/52/19
f 29/53/20 25/49/20 28/52/20 30/54/20
f 31/55/21 29/56/21 30/57/21 32/58/21
f 26/50/22 31/55/22 32/58/22 27/51/22
f 32/59/23 30/60/23 28/52/23 27/51/23
f 26/61/24 25/62/24 29/63/24 31/64/24
o cube.402
v 0.750000 0.068750 0.687500
v 0.312500 0.068750 0.687500
v 0.312500 0.381250 0.687500
v 0.750000 0.381250 0.687500
v 0.750000 0.068750 0.750000
v 0.750000 0.381250 0.750000
v 0.312500 0.068750 0.750000
v 0.312500 0.381250 0.750000
vt 0.390625 0.906250
vt 0.500000 0.906250
vt 0.500000 0.984375
vt 0.390625 0.984375
vt 0.375000 0.906250
vt 0.375000 0.984375
vt 0.515625 0.906250
vt 0.625000 0.906250
vt 0.625000 0.984375
vt 0.515625 0.984375
vt 0.500000 1.000000
vt 0.390625 1.000000
vt 0.609375 0.984375
vt 0.500000 0.984375
vt 0.500000 1.000000
vt 0.609375 1.000000
vn 0.0000 0.0000 -1.0000
vn 1.0000 0.0000 0.0000
vn 0.0000 0.0000 1.0000
vn -1.0000 0.0000 0.0000
vn 0.0000 1.0000 -0.0000
vn 0.0000 -1.0000 0.0000
usemtl m_f3033627-dba7-5f1e-6d2a-66aa604ec563
s 1
f 33/65/25 34/66/25 35/67/25 36/68/25
f 37/69/26 33/65/26 36/68/26 38/70/26
f 39/71/27 37/72/27 38/73/27 40/74/27
f 34/66/28 39/71/28 40/74/28 35/67/28
f 40/75/29 38/76/29 36/68/29 35/67/29
f 34/77/30 33/78/30 37/79/30 39/80/30
o cube.403
v 0.750000 0.068750 0.250000
v 0.687500 0.068750 0.250000
v 0.687500 0.381250 0.250000
v 0.750000 0.381250 0.250000
v 0.750000 0.068750 0.687500
v 0.750000 0.381250 0.687500
v 0.687500 0.068750 0.687500
v 0.687500 0.381250 0.687500
vt 0.359375 0.500000
vt 0.375000 0.500000
vt 0.375000 0.578125
vt 0.359375 0.578125
vt 0.250000 0.500000
vt 0.250000 0.578125
vt 0.484375 0.500000
vt 0.500000 0.500000
vt 0.500000 0.578125
vt 0.484375 0.578125
vt 0.375000 0.687500
vt 0.359375 0.687500
vt 0.390625 0.578125
vt 0.375000 0.578125
vt 0.375000 0.687500
vt 0.390625 0.687500
vn 0.0000 -0.0000 -1.0000
vn 1.0000 0.0000 0.0000
vn 0.0000 0.0000 1.0000
vn -1.0000 0.0000 0.0000
vn 0.0000 1.0000 -0.0000
vn 0.0000 -1.0000 0.0000
usemtl m_f3033627-dba7-5f1e-6d2a-66aa604ec563
s 1
f 41/81/31 42/82/31 43/83/31 44/84/31
f 45/85/32 41/81/32 44/84/32 46/86/32
f 47/87/33 45/88/33 46/89/33 48/90/33
f 42/82/34 47/87/34 48/90/34 43/83/34
f 48/91/35 46/92/35 44/84/35 43/83/35
f 42/93/36 41/94/36 45/95/36 47/96/36
o cube.404
v 0.312500 0.068750 0.312500
v 0.250000 0.068750 0.312500
v 0.250000 0.381250 0.312500
v 0.312500 0.381250 0.312500
v 0.312500 0.068750 0.750000
v 0.312500 0.381250 0.750000
v 0.250000 0.068750 0.750000
v 0.250000 0.381250 0.750000
vt 0.109375 0.515625
vt 0.125000 0.515625
vt 0.125000 0.593750
vt 0.109375 0.593750
vt 0.000000 0.515625
vt 0.000000 0.593750
vt 0.234375 0.515625
vt 0.250000 0.515625
vt 0.250000 0.593750
vt 0.234375 0.593750
vt 0.125000 0.703125
vt 0.109375 0.703125
vt 0.140625 0.593750
vt 0.125000 0.593750
vt 0.125000 0.703125
vt 0.140625 0.703125
vn 0.0000 -0.0000 -1.0000
vn 1.0000 0.0000 0.0000
vn 0.0000 0.0000 1.0000
vn -1.0000 0.0000 0.0000
vn 0.0000 1.0000 -0.0000
vn 0.0000 -1.0000 0.0000
usemtl m_f3033627-dba7-5f1e-6d2a-66aa604ec563
s 1
f 49/97/37 50/98/37 51/99/37 52/100/37
f 53/101/38 49/97/38 52/100/38 54/102/38
f 55/103/39 53/104/39 54/105/39 56/106/39
f 50/98/40 55/103/40 56/106/40 51/99/40
f 56/107/41 54/108/41 52/100/41 51/99/41
f 50/109/42 49/110/42 53/111/42 55/112/42
o cube.405
v 0.687500 0.381250 0.312500
v 0.312500 0.381250 0.312500
v 0.312500 0.443750 0.312500
v 0.687500 0.443750 0.312500
v 0.687500 0.381250 0.375000
v 0.687500 0.443750 0.375000
v 0.312500 0.381250 0.375000
v 0.312500 0.443750 0.375000
vt 0.156250 0.656250
vt 0.250000 0.656250
vt 0.250000 0.671875
vt 0.156250 0.671875
vt 0.140625 0.656250
vt 0.140625 0.671875
vt 0.265625 0.656250
vt 0.359375 0.656250
vt 0.359375 0.671875
vt 0.265625 0.671875
vt 0.250000 0.687500
vt 0.156250 0.687500
vt 0.343750 0.671875
vt 0.250000 0.671875
vt 0.250000 0.687500
vt 0.343750 0.687500
vn 0.0000 0.0000 -1.0000
vn 1.0000 0.0000 0.0000
vn 0.0000 0.0000 1.0000
vn -1.0000 0.0000 0.0000
vn 0.0000 1.0000 0.0000
vn 0.0000 -1.0000 0.0000
usemtl m_f3033627-dba7-5f1e-6d2a-66aa604ec563
s 1
f 57/113/43 58/114/43 59/115/43 60/116/43
f 61/117/44 57/113/44 60/116/44 62/118/44
f 63/119/45 61/120/45 62/121/45 64/122/45
f 58/114/46 63/119/46 64/122/46 59/115/46
f 64/123/47 62/124/47 60/116/47 59/115/47
f 58/125/48 57/126/48 61/127/48 63/128/48
o cube.406
v 0.687500 0.381250 0.625000
v 0.312500 0.381250 0.625000
v 0.312500 0.443750 0.625000
v 0.687500 0.443750 0.625000
v 0.687500 0.381250 0.687500
v 0.687500 0.443750 0.687500
v 0.312500 0.381250 0.687500
v 0.312500 0.443750 0.687500
vt 0.296875 0.796875
vt 0.390625 0.796875
vt 0.390625 0.812500
vt 0.296875 0.812500
vt 0.281250 0.796875
vt 0.281250 0.812500
vt 0.406250 0.796875
vt 0.500000 0.796875
vt 0.500000 0.812500
vt 0.406250 0.812500
vt 0.390625 0.828125
vt 0.296875 0.828125
vt 0.484375 0.812500
vt 0.390625 0.812500
vt 0.390625 0.828125
vt 0.484375 0.828125
vn 0.0000 0.0000 -1.0000
vn 1.0000 0.0000 0.0000
vn 0.0000 0.0000 1.0000
vn -1.0000 0.0000 0.0000
vn 0.0000 1.0000 0.0000
vn 0.0000 -1.0000 0.0000
usemtl m_f3033627-dba7-5f1e-6d2a-66aa604ec563
s 1
f 65/129/49 66/130/49 67/131/49 68/132/49
f 69/133/50 65/129/50 68/132/50 70/134/50
f 71/135/51 69/136/51 70/137/51 72/138/51
f 66/130/52 71/135/52 72/138/52 67/131/52
f 72/139/53 70/140/53 68/132/53 67/131/53
f 66/141/54 65/142/54 69/143/54 71/144/54
o cube.407
v 0.687500 0.381250 0.375000
v 0.625000 0.381250 0.375000
v 0.625000 0.443750 0.375000
v 0.687500 0.443750 0.375000
v 0.687500 0.381250 0.625000
v 0.687500 0.443750 0.625000
v 0.625000 0.381250 0.625000
v 0.625000 0.443750 0.625000
vt 0.218750 0.437500
vt 0.234375 0.437500
vt 0.234375 0.453125
vt 0.218750 0.453125
vt 0.156250 0.437500
vt 0.156250 0.453125
vt 0.296875 0.437500
vt 0.312500 0.437500
vt 0.312500 0.453125
vt 0.296875 0.453125
vt 0.234375 0.515625
vt 0.218750 0.515625
vt 0.250000 0.453125
vt 0.234375 0.453125
vt 0.234375 0.515625
vt 0.250000 0.515625
vn 0.0000 0.0000 -1.0000
vn 1.0000 0.0000 0.0000
vn 0.0000 0.0000 1.0000
vn -1.0000 0.0000 0.0000
vn 0.0000 1.0000 0.0000
vn 0.0000 -1.0000 0.0000
usemtl m_f3033627-dba7-5f1e-6d2a-66aa604ec563
s 1
f 73/145/55 74/146/55 75/147/55 76/148/55
f 77/149/56 73/145/56 76/148/56 78/150/56
f 79/151/57 77/152/57 78/153/57 80/154/57
f 74/146/58 79/151/58 80/154/58 75/147/58
f 80/155/59 78/156/59 76/148/59 75/147/59
f 74/157/60 73/158/60 77/159/60 79/160/60
o cube.408
v 0.375000 0.381250 0.375000
v 0.312500 0.381250 0.375000
v 0.312500 0.443750 0.375000
v 0.375000 0.443750 0.375000
v 0.375000 0.381250 0.625000
v 0.375000 0.443750 0.625000
v 0.312500 0.381250 0.625000
v 0.312500 0.443750 0.625000
vt 0.062500 0.437500
vt 0.078125 0.437500
vt 0.078125 0.453125
vt 0.062500 0.453125
vt 0.000000 0.437500
vt 0.000000 0.453125
vt 0.140625 0.437500
vt 0.156250 0.437500
vt 0.156250 0.453125
vt 0.140625 0.453125
vt 0.078125 0.515625
vt 0.062500 0.515625
vt 0.093750 0.453125
vt 0.078125 0.453125
vt 0.078125 0.515625
vt 0.093750 0.515625
vn 0.0000 0.0000 -1.0000
vn 1.0000 0.0000 0.0000
vn 0.0000 0.0000 1.0000
vn -1.0000 0.0000 0.0000
vn 0.0000 1.0000 0.0000
vn 0.0000 -1.0000 0.0000
usemtl m_f3033627-dba7-5f1e-6d2a-66aa604ec563
s 1
f 81/161/61 82/162/61 83/163/61 84/164/61
f 85/165/62 81/161/62 84/164/62 86/166/62
f 87/167/63 85/168/63 86/169/63 88/170/63
f 82/162/64 87/167/64 88/170/64 83/163/64
f 88/171/65 86/172/65 84/164/65 83/163/65
f 82/173/66 81/174/66 85/175/66 87/176/66
o cube.409
v 0.687500 0.068750 0.312500
v 0.312500 0.068750 0.312500
v 0.312500 0.318750 0.312500
v 0.687500 0.318750 0.312500
v 0.687500 0.068750 0.687500
v 0.687500 0.318750 0.687500
v 0.312500 0.068750 0.687500
v 0.312500 0.318750 0.687500
vt 0.093750 0.703125
vt 0.187500 0.703125
vt 0.187500 0.765625
vt 0.093750 0.765625
vt 0.000000 0.703125
vt 0.000000 0.765625
vt 0.281250 0.703125
vt 0.375000 0.703125
vt 0.375000 0.765625
vt 0.281250 0.765625
vt 0.187500 0.859375
vt 0.093750 0.859375
vt 0.281250 0.765625
vt 0.187500 0.765625
vt 0.187500 0.859375
vt 0.281250 0.859375
vn 0.0000 -0.0000 -1.0000
vn 1.0000 0.0000 0.0000
vn 0.0000 0.0000 1.0000
vn -1.0000 0.0000 0.0000
vn 0.0000 1.0000 0.0000
vn 0.0000 -1.0000 0.0000
usemtl m_f3033627-dba7-5f1e-6d2a-66aa604ec563
s 1
f 89/177/67 90/178/67 91/179/67 92/180/67
f 93/181/68 89/177/68 92/180/68 94/182/68
f 95/183/69 93/184/69 94/185/69 96/186/69
f 90/178/70 95/183/70 96/186/70 91/179/70
f 96/187/71 94/188/71 92/180/71 91/179/71
f 90/189/72 89/190/72 93/191/72 95/192/72
o cube.410
v 0.374610 0.240329 0.537001
v 0.346203 0.288207 0.565409
v 0.684750 0.689949 0.226862
v 0.713157 0.642071 0.198454
v 0.462999 0.240329 0.625390
v 0.801546 0.642071 0.286843
v 0.434591 0.288207 0.653797
v 0.773138 0.689949 0.315250
vt 0.500000 0.343750
vt 0.515625 0.343750
vt 0.515625 0.500000
vt 0.500000 0.500000
vt 0.468750 0.343750
vt 0.468750 0.500000
vt 0.546875 0.343750
vt 0.562500 0.343750
vt 0.562500 0.500000
vt 0.546875 0.500000
vt 0.515625 0.531250
vt 0.500000 0.531250
vt 0.531250 0.500000
vt 0.515625 0.500000
vt 0.515625 0.531250
vt 0.531250 0.531250
vn -0.7071 0.0000 -0.7071
vn 0.4545 -0.7660 -0.4545
vn 0.7071 0.0000 0.7071
vn -0.4545 0.7660 0.4545
vn 0.5417 0.6428 -0.5417
vn -0.5417 -0.6428 0.5417
usemtl m_f3033627-dba7-5f1e-6d2a-66aa604ec563
s 1
f 97/193/73 98/194/73 99/195/73 100/196/73
f 101/197/74 97/193/74 100/196/74 102/198/74
f 103/199/75 101/200/75 102/201/75 104/202/75
f 98/194/76 103/199/76 104/202/76 99/195/76
f 104/203/77 102/204/77 100/196/77 99/195/77
f 98/205/78 97/206/78 101/207/78 103/208/78
