# Made in Blockbench 4.6.4
mtllib pow_cake.mtl

o cube
v 0.4375 0.0625 0.4375
v 0.4375 0.0625 -0.4375
v 0.4375 0 0.4375
v 0.4375 0 -0.4375
v -0.4375 0.0625 -0.4375
v -0.4375 0.0625 0.4375
v -0.4375 0 -0.4375
v -0.4375 0 0.4375
vt 0.21875 0.78125
vt 0.4375 0.78125
vt 0.4375 0.765625
vt 0.21875 0.765625
vt 0 0.78125
vt 0.21875 0.78125
vt 0.21875 0.765625
vt 0 0.765625
vt 0.65625 0.78125
vt 0.875 0.78125
vt 0.875 0.765625
vt 0.65625 0.765625
vt 0.4375 0.78125
vt 0.65625 0.78125
vt 0.65625 0.765625
vt 0.4375 0.765625
vt 0.4375 0.78125
vt 0.21875 0.78125
vt 0.21875 1
vt 0.4375 1
vt 0.65625 1
vt 0.4375 1
vt 0.4375 0.78125
vt 0.65625 0.78125
vn 0 0 -1
vn 1 0 0
vn 0 0 1
vn -1 0 0
vn 0 1 0
vn 0 -1 0
usemtl m_e6a203da-19ab-8c85-82b3-841be45c857c
f 4/4/1 7/3/1 5/2/1 2/1/1
f 3/8/2 4/7/2 2/6/2 1/5/2
f 8/12/3 3/11/3 1/10/3 6/9/3
f 7/16/4 8/15/4 6/14/4 5/13/4
f 6/20/5 1/19/5 2/18/5 5/17/5
f 7/24/6 4/23/6 3/22/6 8/21/6
o cube
v -0.0625 0.3125 0.1875
v -0.0625 0.3125 -0.3125
v -0.0625 0.0625 0.1875
v -0.0625 0.0625 -0.3125
v -0.3125 0.3125 -0.3125
v -0.3125 0.3125 0.1875
v -0.3125 0.0625 -0.3125
v -0.3125 0.0625 0.1875
vt 0.375 0.578125
vt 0.4375 0.578125
vt 0.4375 0.515625
vt 0.375 0.515625
vt 0.25 0.578125
vt 0.375 0.578125
vt 0.375 0.515625
vt 0.25 0.515625
vt 0.5625 0.578125
vt 0.625 0.578125
vt 0.625 0.515625
vt 0.5625 0.515625
vt 0.4375 0.578125
vt 0.5625 0.578125
vt 0.5625 0.515625
vt 0.4375 0.515625
vt 0.4375 0.578125
vt 0.375 0.578125
vt 0.375 0.703125
vt 0.4375 0.703125
vt 0.5 0.703125
vt 0.4375 0.703125
vt 0.4375 0.578125
vt 0.5 0.578125
vn 0 0 -1
vn 1 0 0
vn 0 0 1
vn -1 0 0
vn 0 1 0
vn 0 -1 0
usemtl m_e6a203da-19ab-8c85-82b3-841be45c857c
f 12/28/7 15/27/7 13/26/7 10/25/7
f 11/32/8 12/31/8 10/30/8 9/29/8
f 16/36/9 11/35/9 9/34/9 14/33/9
f 15/40/10 16/39/10 14/38/10 13/37/10
f 14/44/11 9/43/11 10/42/11 13/41/11
f 15/48/12 12/47/12 11/46/12 16/45/12
o cube
v 0.06643107414945626 0.5754353363851532 0.06584410268469565
v 0.4061759340207123 0.2540415315418836 -0.11101587695859988
v -0.07610881915671741 0.38392422560540873 0.1400456745290508
v 0.2636360407145386 0.0625304207621391 -0.03681430511424466
v 0.29073878071195414 0.2540415315418836 -0.33276858525315545
v -0.049006079159301885 0.5754353363851532 -0.15590860560985997
v 0.14819888740578036 0.0625304207621391 -0.2585670134088002
v -0.19154597246547567 0.38392422560540873 -0.0817070337655047
vt 0.125 0.640625
vt 0.1875 0.640625
vt 0.1875 0.578125
vt 0.125 0.578125
vt 0 0.640625
vt 0.125 0.640625
vt 0.125 0.578125
vt 0 0.578125
vt 0.3125 0.640625
vt 0.375 0.640625
vt 0.375 0.578125
vt 0.3125 0.578125
vt 0.1875 0.640625
vt 0.3125 0.640625
vt 0.3125 0.578125
vt 0.1875 0.578125
vt 0.1875 0.640625
vt 0.125 0.640625
vt 0.125 0.765625
vt 0.1875 0.765625
vt 0.25 0.765625
vt 0.1875 0.765625
vt 0.1875 0.640625
vt 0.25 0.640625
vn 0.679489719742512 -0.6427876096865393 -0.35371995928659106
vn 0.4617486132350327 8.326672684688674e-17 0.8870108331782224
vn -0.679489719742512 0.6427876096865393 0.35371995928659106
vn -0.4617486132350327 -8.326672684688674e-17 -0.8870108331782224
vn 0.5701595732246951 0.7660444431189781 -0.2968062873774211
vn -0.5701595732246951 -0.7660444431189781 0.2968062873774211
usemtl m_e6a203da-19ab-8c85-82b3-841be45c857c
f 20/52/13 23/51/13 21/50/13 18/49/13
f 19/56/14 20/55/14 18/54/14 17/53/14
f 24/60/15 19/59/15 17/58/15 22/57/15
f 23/64/16 24/63/16 22/62/16 21/61/16
f 22/68/17 17/67/17 18/66/17 21/65/17
f 23/72/18 20/71/18 19/70/18 24/69/18
o cube
v 0.3125 0.06874999999999998 0.3125
v 0.3125 0.06874999999999998 0.0625
v 0.3125 0.06874999999999998 0.3125
v 0.3125 0.06874999999999998 0.0625
v 0 0.06874999999999998 0.0625
v 0 0.06874999999999998 0.3125
v 0 0.06874999999999998 0.0625
v 0 0.06874999999999998 0.3125
vt 0.0625 0.9375
vt 0.140625 0.9375
vt 0.140625 0.9375
vt 0.0625 0.9375
vt 0 0.9375
vt 0.0625 0.9375
vt 0.0625 0.9375
vt 0 0.9375
vt 0.203125 0.9375
vt 0.28125 0.9375
vt 0.28125 0.9375
vt 0.203125 0.9375
vt 0.140625 0.9375
vt 0.203125 0.9375
vt 0.203125 0.9375
vt 0.140625 0.9375
vt 0.140625 0.9375
vt 0.0625 0.9375
vt 0.0625 1
vt 0.140625 1
vt 0.21875 1
vt 0.140625 1
vt 0.140625 0.9375
vt 0.21875 0.9375
vn 0 0 -1
vn 1 0 0
vn 0 0 1
vn -1 0 0
vn 0 1 0
vn 0 -1 0
usemtl m_e6a203da-19ab-8c85-82b3-841be45c857c
f 28/76/19 31/75/19 29/74/19 26/73/19
f 27/80/20 28/79/20 26/78/20 25/77/20
f 32/84/21 27/83/21 25/82/21 30/81/21
f 31/88/22 32/87/22 30/86/22 29/85/22
f 30/92/23 25/91/23 26/90/23 29/89/23
f 31/96/24 28/95/24 27/94/24 32/93/24