# Blender v3.6.1 OBJ File: ''
# www.blender.org
mtllib monster_lasagna.mtl
o cube.460
v 0.959279 0.006250 0.234835
v 0.234835 0.006250 0.040721
v 0.234835 0.006250 0.040721
v 0.959279 0.006250 0.234835
v 0.765165 0.006250 0.959279
v 0.765165 0.006250 0.959279
v 0.040721 0.006250 0.765165
v 0.040721 0.006250 0.765165
vt 0.187500 0.812500
vt 0.375000 0.812500
vt 0.375000 0.812500
vt 0.187500 0.812500
vt 0.000000 0.812500
vt 0.000000 0.812500
vt 0.562500 0.812500
vt 0.750000 0.812500
vt 0.750000 0.812500
vt 0.562500 0.812500
vt 0.375000 1.000000
vt 0.187500 1.000000
vt 0.562500 0.812500
vt 0.375000 0.812500
vt 0.375000 1.000000
vt 0.562500 1.000000
vn 0.2588 -0.0000 -0.9659
vn 0.0000 0.0000 -0.9659
vn 0.9659 -0.0000 0.2588
vn 0.0000 0.0000 0.2588
vn -0.2588 0.0000 0.9659
vn 0.0000 0.0000 0.9659
vn -0.9659 0.0000 -0.2588
vn 0.0000 0.0000 -0.2588
vn 0.0000 1.0000 -0.0000
vn -0.0000 -1.0000 0.0000
usemtl m_04e047cc-2256-7c6c-9181-62a5cdc00661
s 1
f 1/1/1 2/2/2 3/3/1 4/4/2
f 5/5/3 1/1/4 4/4/3 6/6/4
f 7/7/5 5/8/6 6/9/5 8/10/6
f 2/2/7 7/7/8 8/10/7 3/3/8
f 8/11/9 6/12/9 4/4/9 3/3/9
f 2/13/10 1/14/10 5/15/10 7/16/10
o cube.461
v 0.306250 -0.018750 0.187500
v 0.306250 -0.018750 0.187500
v 0.306250 0.481250 0.187500
v 0.306250 0.481250 0.187500
v 0.306250 -0.018750 0.812500
v 0.306250 0.481250 0.812500
v 0.306250 -0.018750 0.812500
v 0.306250 0.481250 0.812500
vt 0.468750 0.421875
vt 0.468750 0.421875
vt 0.468750 0.546875
vt 0.468750 0.546875
vt 0.312500 0.421875
vt 0.312500 0.546875
vt 0.625000 0.421875
vt 0.625000 0.421875
vt 0.625000 0.546875
vt 0.625000 0.546875
vt 0.468750 0.703125
vt 0.468750 0.703125
vt 0.468750 0.546875
vt 0.468750 0.546875
vt 0.468750 0.703125
vt 0.468750 0.703125
vn 0.0000 0.0000 -1.0000
vn 1.0000 0.0000 0.0000
vn 0.0000 0.0000 1.0000
vn -1.0000 -0.0000 0.0000
vn 0.0000 1.0000 -0.0000
vn -0.0000 -1.0000 0.0000
usemtl m_04e047cc-2256-7c6c-9181-62a5cdc00661
s 1
f 9/17/11 10/18/11 11/19/11 12/20/11
f 13/21/12 9/17/12 12/20/12 14/22/12
f 15/23/13 13/24/13 14/25/13 16/26/13
f 10/18/14 15/23/14 16/26/14 11/19/14
f 16/27/15 14/28/15 12/20/15 11/19/15
f 10/29/16 9/30/16 13/31/16 15/32/16
o cube.462
v 0.693750 -0.018750 0.187500
v 0.693750 -0.018750 0.187500
v 0.693750 0.481250 0.187500
v 0.693750 0.481250 0.187500
v 0.693750 -0.018750 0.812500
v 0.693750 0.481250 0.812500
v 0.693750 -0.018750 0.812500
v 0.693750 0.481250 0.812500
vt 0.156250 0.421875
vt 0.156250 0.421875
vt 0.156250 0.546875
vt 0.156250 0.546875
vt 0.000000 0.421875
vt 0.000000 0.546875
vt 0.312500 0.421875
vt 0.312500 0.421875
vt 0.312500 0.546875
vt 0.312500 0.546875
vt 0.156250 0.703125
vt 0.156250 0.703125
vt 0.156250 0.546875
vt 0.156250 0.546875
vt 0.156250 0.703125
vt 0.156250 0.703125
vn 0.0000 0.0000 -1.0000
vn 1.0000 0.0000 0.0000
vn 0.0000 0.0000 1.0000
vn -1.0000 -0.0000 0.0000
vn 0.0000 0.0000 0.0000
usemtl m_04e047cc-2256-7c6c-9181-62a5cdc00661
s 1
f 17/33/17 18/34/17 19/35/17 20/36/17
f 21/37/18 17/33/18 20/36/18 22/38/18
f 23/39/19 21/40/19 22/41/19 24/42/19
f 18/34/20 23/39/20 24/42/20 19/35/20
f 24/43/21 22/44/21 20/36/21 19/35/21
f 18/45/21 17/46/21 21/47/21 23/48/21
o cube.463
v 0.687500 -0.018750 0.181250
v 0.312500 -0.018750 0.181250
v 0.312500 0.481250 0.181250
v 0.687500 0.481250 0.181250
v 0.687500 -0.018750 0.181250
v 0.687500 0.481250 0.181250
v 0.312500 -0.018750 0.181250
v 0.312500 0.481250 0.181250
vt 0.531250 0.562500
vt 0.625000 0.562500
vt 0.625000 0.687500
vt 0.531250 0.687500
vt 0.531250 0.562500
vt 0.531250 0.687500
vt 0.625000 0.562500
vt 0.718750 0.562500
vt 0.718750 0.687500
vt 0.625000 0.687500
vt 0.718750 0.687500
vt 0.625000 0.687500
vt 0.625000 0.687500
vt 0.718750 0.687500
vn 0.0000 -0.0000 -1.0000
vn 0.0000 0.0000 -0.0000
vn 1.0000 0.0000 -0.0000
vn 0.0000 0.0000 1.0000
vn -1.0000 -0.0000 -0.0000
vn -0.0000 1.0000 -0.0000
vn 0.0000 -1.0000 -0.0000
usemtl m_04e047cc-2256-7c6c-9181-62a5cdc00661
s 1
f 25/49/22 26/50/22 27/51/22 28/52/22
f 29/53/23 25/49/24 28/52/23 30/54/24
f 31/55/25 29/56/25 30/57/25 32/58/25
f 26/50/23 31/55/26 32/58/23 27/51/26
f 32/58/27 30/54/23 28/52/27 27/51/23
f 26/59/28 25/60/23 29/61/28 31/62/23
o cube.464
v 0.687500 -0.018750 0.818750
v 0.312500 -0.018750 0.818750
v 0.312500 0.481250 0.818750
v 0.687500 0.481250 0.818750
v 0.687500 -0.018750 0.818750
v 0.687500 0.481250 0.818750
v 0.312500 -0.018750 0.818750
v 0.312500 0.481250 0.818750
vt 0.531250 0.687500
vt 0.625000 0.687500
vt 0.625000 0.812500
vt 0.531250 0.812500
vt 0.531250 0.687500
vt 0.531250 0.812500
vt 0.625000 0.687500
vt 0.718750 0.687500
vt 0.718750 0.812500
vt 0.625000 0.812500
vt 0.718750 0.812500
vt 0.625000 0.812500
vt 0.625000 0.812500
vt 0.718750 0.812500
vn 0.0000 -0.0000 -1.0000
vn 0.0000 0.0000 -0.0000
vn 1.0000 0.0000 -0.0000
vn 0.0000 0.0000 1.0000
vn -1.0000 -0.0000 -0.0000
vn -0.0000 1.0000 -0.0000
vn 0.0000 -1.0000 -0.0000
usemtl m_04e047cc-2256-7c6c-9181-62a5cdc00661
s 1
f 33/63/29 34/64/29 35/65/29 36/66/29
f 37/67/30 33/63/31 36/66/30 38/68/31
f 39/69/32 37/70/32 38/71/32 40/72/32
f 34/64/30 39/69/33 40/72/30 35/65/33
f 40/72/34 38/68/30 36/66/34 35/65/30
f 34/73/35 33/74/30 37/75/35 39/76/30
o cube.465
v 0.687500 0.456250 0.187500
v 0.312500 0.456250 0.187500
v 0.312500 0.456250 0.187500
v 0.687500 0.456250 0.187500
v 0.687500 0.456250 0.812500
v 0.687500 0.456250 0.812500
v 0.312500 0.456250 0.812500
v 0.312500 0.456250 0.812500
vt 0.343750 0.656250
vt 0.437500 0.656250
vt 0.437500 0.656250
vt 0.343750 0.656250
vt 0.187500 0.656250
vt 0.187500 0.656250
vt 0.593750 0.656250
vt 0.687500 0.656250
vt 0.687500 0.656250
vt 0.593750 0.656250
vt 0.437500 0.812500
vt 0.343750 0.812500
vt 0.531250 0.656250
vt 0.437500 0.656250
vt 0.437500 0.812500
vt 0.531250 0.812500
vn 0.0000 -0.0000 -1.0000
vn 0.0000 0.0000 1.0000
vn 0.0000 1.0000 -0.0000
vn 0.0000 -1.0000 0.0000
usemtl m_04e047cc-2256-7c6c-9181-62a5cdc00661
s 1
f 41/77/36 42/78/36 43/79/36 44/80/36
f 45/81/37 41/77/37 44/80/37 46/82/37
f 47/83/37 45/84/37 46/85/37 48/86/37
f 42/78/37 47/83/37 48/86/37 43/79/37
f 48/87/38 46/88/38 44/80/38 43/79/38
f 42/89/39 41/90/39 45/91/39 47/92/39
o cube.466
v 0.540582 0.456250 0.316944
v 0.540582 0.456250 0.316944
v 0.540582 0.643750 0.316944
v 0.540582 0.643750 0.316944
v 0.459418 0.456250 0.683055
v 0.459418 0.643750 0.683055
v 0.459418 0.456250 0.683055
v 0.459418 0.643750 0.683055
vt 0.093750 0.812500
vt 0.093750 0.812500
vt 0.093750 0.859375
vt 0.093750 0.859375
vt 0.000000 0.812500
vt 0.000000 0.859375
vt 0.187500 0.812500
vt 0.187500 0.812500
vt 0.187500 0.859375
vt 0.187500 0.859375
vt 0.093750 0.953125
vt 0.093750 0.953125
vt 0.093750 0.859375
vt 0.093750 0.859375
vt 0.093750 0.953125
vt 0.093750 0.953125
vn 0.0000 0.0000 -0.9763
vn 0.2165 0.0000 -0.9763
vn 0.9763 0.0000 0.2164
vn 0.0000 0.0000 0.9763
vn -0.2164 -0.0000 0.9763
vn -0.9763 0.0000 -0.2164
vn 0.0000 0.0000 0.0000
vn -0.0000 1.0000 0.0000
vn 0.0000 0.0000 0.0001
vn -0.0000 1.0000 0.0001
vn 0.0000 -1.0000 0.0001
vn 0.0000 -1.0000 0.0000
usemtl m_04e047cc-2256-7c6c-9181-62a5cdc00661
s 1
f 49/93/40 50/94/41 51/95/40 52/96/41
f 53/97/42 49/93/42 52/96/42 54/98/42
f 55/99/43 53/100/44 54/101/43 56/102/44
f 50/94/45 55/99/45 56/102/45 51/95/45
f 56/103/46 54/104/47 52/96/48 51/95/49
f 50/105/48 49/106/50 53/107/46 55/108/51
o cube.467
v 0.459418 0.456250 0.316944
v 0.459418 0.456250 0.316944
v 0.459418 0.643750 0.316944
v 0.459418 0.643750 0.316944
v 0.540582 0.456250 0.683055
v 0.540582 0.643750 0.683055
v 0.540582 0.456250 0.683055
v 0.540582 0.643750 0.683055
vt 0.093750 0.859375
vt 0.093750 0.859375
vt 0.093750 0.906250
vt 0.093750 0.906250
vt 0.000000 0.859375
vt 0.000000 0.906250
vt 0.187500 0.859375
vt 0.187500 0.859375
vt 0.187500 0.906250
vt 0.187500 0.906250
vt 0.093750 1.000000
vt 0.093750 1.000000
vt 0.093750 0.906250
vt 0.093750 0.906250
vt 0.093750 1.000000
vt 0.093750 1.000000
vn 0.0000 0.0000 -0.9763
vn -0.2165 -0.0000 -0.9763
vn 0.9763 0.0000 -0.2164
vn 0.0000 0.0000 0.9763
vn 0.2164 0.0000 0.9763
vn -0.9763 0.0000 0.2164
vn 0.0000 0.0000 0.0000
vn -0.0000 1.0000 0.0000
vn 0.0000 0.0000 0.0001
vn -0.0000 1.0000 0.0001
vn 0.0000 -1.0000 0.0001
vn 0.0000 -1.0000 0.0000
usemtl m_04e047cc-2256-7c6c-9181-62a5cdc00661
s 1
f 57/109/52 58/110/53 59/111/52 60/112/53
f 61/113/54 57/109/54 60/112/54 62/114/54
f 63/115/55 61/116/56 62/117/55 64/118/56
f 58/110/57 63/115/57 64/118/57 59/111/57
f 64/119/58 62/120/59 60/112/60 59/111/61
f 58/121/60 57/122/62 61/123/58 63/124/63
o cube.468
v 0.687500 0.012500 0.187500
v 0.312500 0.012500 0.187500
v 0.312500 0.450000 0.187500
v 0.687500 0.450000 0.187500
v 0.687500 0.012500 0.812500
v 0.687500 0.450000 0.812500
v 0.312500 0.012500 0.812500
v 0.312500 0.450000 0.812500
vt 0.156250 0.546875
vt 0.250000 0.546875
vt 0.250000 0.656250
vt 0.156250 0.656250
vt 0.000000 0.546875
vt 0.000000 0.656250
vt 0.406250 0.546875
vt 0.500000 0.546875
vt 0.500000 0.656250
vt 0.406250 0.656250
vt 0.250000 0.812500
vt 0.156250 0.812500
vt 0.343750 0.656250
vt 0.250000 0.656250
vt 0.250000 0.812500
vt 0.343750 0.812500
vn 0.0000 -0.0000 -1.0000
vn 1.0000 0.0000 0.0000
vn 0.0000 0.0000 1.0000
vn -1.0000 -0.0000 0.0000
vn 0.0000 1.0000 -0.0000
vn 0.0000 -1.0000 0.0000
usemtl m_04e047cc-2256-7c6c-9181-62a5cdc00661
s 1
f 65/125/64 66/126/64 67/127/64 68/128/64
f 69/129/65 65/125/65 68/128/65 70/130/65
f 71/131/66 69/132/66 70/133/66 72/134/66
f 66/126/67 71/131/67 72/134/67 67/127/67
f 72/135/68 70/136/68 68/128/68 67/127/68
f 66/137/69 65/138/69 69/139/69 71/140/69
