# Blender v3.6.1 OBJ File: ''
# www.blender.org
mtllib plain_omelette.mtl
o cube.550
v 0.812500 -0.000000 0.187500
v 0.187500 -0.000000 0.187500
v 0.187500 0.062500 0.187500
v 0.812500 0.062500 0.187500
v 0.812500 0.000000 0.812500
v 0.812500 0.062500 0.812500
v 0.187500 0.000000 0.812500
v 0.187500 0.062500 0.812500
vt 0.156250 0.828125
vt 0.312500 0.828125
vt 0.312500 0.843750
vt 0.156250 0.843750
vt 0.000000 0.828125
vt 0.000000 0.843750
vt 0.468750 0.828125
vt 0.625000 0.828125
vt 0.625000 0.843750
vt 0.468750 0.843750
vt 0.312500 1.000000
vt 0.156250 1.000000
vt 0.468750 0.843750
vt 0.312500 0.843750
vt 0.312500 1.000000
vt 0.468750 1.000000
vn 0.0000 0.0000 -1.0000
vn 1.0000 0.0000 0.0000
vn 0.0000 0.0000 1.0000
vn -1.0000 0.0000 0.0000
vn 0.0000 1.0000 -0.0000
vn 0.0000 -1.0000 0.0000
usemtl m_999e5d61-5cf1-64a9-8b38-feaacbbd0a62
s 1
f 1/1/1 2/2/1 3/3/1 4/4/1
f 5/5/2 1/1/2 4/4/2 6/6/2
f 7/7/3 5/8/3 6/9/3 8/10/3
f 2/2/4 7/7/4 8/10/4 3/3/4
f 8/11/5 6/12/5 4/4/5 3/3/5
f 2/13/6 1/14/6 5/15/6 7/16/6
o cube.551
v 0.461259 0.124417 0.455128
v 0.247063 0.059712 0.566632
v 0.218366 0.180453 0.581570
v 0.432563 0.245158 0.470067
v 0.547837 0.124417 0.621442
v 0.519140 0.245158 0.636381
v 0.333641 0.059712 0.732946
v 0.304944 0.180453 0.747885
vt 0.281250 0.609375
vt 0.343750 0.609375
vt 0.343750 0.640625
vt 0.281250 0.640625
vt 0.234375 0.609375
vt 0.234375 0.640625
vt 0.390625 0.609375
vt 0.453125 0.609375
vt 0.453125 0.640625
vt 0.390625 0.640625
vt 0.343750 0.687500
vt 0.281250 0.687500
vt 0.406250 0.640625
vt 0.343750 0.640625
vt 0.343750 0.687500
vt 0.406250 0.687500
vn -0.4617 0.0000 -0.8870
vn 0.8568 0.2588 -0.4460
vn 0.4617 0.0000 0.8870
vn -0.8568 -0.2588 0.4460
vn -0.2296 0.9659 0.1195
vn 0.2296 -0.9659 -0.1195
usemtl m_999e5d61-5cf1-64a9-8b38-feaacbbd0a62
s 1
f 9/17/7 10/18/7 11/19/7 12/20/7
f 13/21/8 9/17/8 12/20/8 14/22/8
f 15/23/9 13/24/9 14/25/9 16/26/9
f 10/18/10 15/23/10 16/26/10 11/19/10
f 16/27/11 14/28/11 12/20/11 11/19/11
f 10/29/12 9/30/12 13/31/12 15/32/12
o cube.552
v 0.443853 0.062500 0.440346
v 0.222100 0.062500 0.555783
v 0.222100 0.125000 0.555783
v 0.443853 0.125000 0.440346
v 0.559290 0.062500 0.662099
v 0.559290 0.125000 0.662099
v 0.337537 0.062500 0.777536
v 0.337537 0.125000 0.777536
vt 0.265625 0.703125
vt 0.328125 0.703125
vt 0.328125 0.718750
vt 0.265625 0.718750
vt 0.203125 0.703125
vt 0.203125 0.718750
vt 0.390625 0.703125
vt 0.453125 0.703125
vt 0.453125 0.718750
vt 0.390625 0.718750
vt 0.328125 0.781250
vt 0.265625 0.781250
vt 0.390625 0.718750
vt 0.328125 0.718750
vt 0.328125 0.781250
vt 0.390625 0.781250
vn -0.4617 -0.0000 -0.8870
vn 0.8870 0.0000 -0.4617
vn 0.4617 0.0000 0.8870
vn -0.8870 0.0000 0.4617
vn -0.0000 1.0000 -0.0000
vn -0.0000 -1.0000 0.0000
usemtl m_999e5d61-5cf1-64a9-8b38-feaacbbd0a62
s 1
f 17/33/13 18/34/13 19/35/13 20/36/13
f 21/37/14 17/33/14 20/36/14 22/38/14
f 23/39/15 21/40/15 22/41/15 24/42/15
f 18/34/16 23/39/16 24/42/16 19/35/16
f 24/43/17 22/44/17 20/36/17 19/35/17
f 18/45/18 17/46/18 21/47/18 23/48/18
o cube.553
v 0.677360 0.062500 0.557175
v 0.783014 0.062500 0.330598
v 0.783014 0.125000 0.330598
v 0.677360 0.125000 0.557175
v 0.450783 0.062500 0.451520
v 0.450783 0.125000 0.451520
v 0.556437 0.062500 0.224943
v 0.556437 0.125000 0.224943
vt 0.062500 0.734375
vt 0.125000 0.734375
vt 0.125000 0.750000
vt 0.062500 0.750000
vt 0.000000 0.734375
vt 0.000000 0.750000
vt 0.187500 0.734375
vt 0.250000 0.734375
vt 0.250000 0.750000
vt 0.187500 0.750000
vt 0.125000 0.812500
vt 0.062500 0.812500
vt 0.187500 0.750000
vt 0.125000 0.750000
vt 0.125000 0.812500
vt 0.187500 0.812500
vn 0.9063 0.0000 0.4226
vn -0.4226 0.0000 0.9063
vn -0.9063 0.0000 -0.4226
vn 0.4226 -0.0000 -0.9063
vn 0.0000 1.0000 -0.0000
vn 0.0000 -1.0000 0.0000
usemtl m_999e5d61-5cf1-64a9-8b38-feaacbbd0a62
s 1
f 25/49/19 26/50/19 27/51/19 28/52/19
f 29/53/20 25/49/20 28/52/20 30/54/20
f 31/55/21 29/56/21 30/57/21 32/58/21
f 26/50/22 31/55/22 32/58/22 27/51/22
f 32/59/23 30/60/23 28/52/23 27/51/23
f 26/61/24 25/62/24 29/63/24 31/64/24
o cube.554
v 0.643232 0.083082 0.553873
v 0.747281 0.039670 0.330738
v 0.756455 0.162771 0.311066
v 0.652405 0.206183 0.534200
v 0.473299 0.083082 0.474632
v 0.482473 0.206183 0.454960
v 0.577349 0.039670 0.251497
v 0.586522 0.162771 0.231825
vt 0.046875 0.640625
vt 0.109375 0.640625
vt 0.109375 0.671875
vt 0.046875 0.671875
vt 0.000000 0.640625
vt 0.000000 0.671875
vt 0.156250 0.640625
vt 0.218750 0.640625
vt 0.218750 0.671875
vt 0.156250 0.671875
vt 0.109375 0.718750
vt 0.046875 0.718750
vt 0.171875 0.671875
vt 0.109375 0.671875
vt 0.109375 0.718750
vt 0.171875 0.718750
vn 0.9063 0.0000 0.4226
vn -0.4162 0.1736 0.8925
vn -0.9063 0.0000 -0.4226
vn 0.4162 -0.1736 -0.8925
vn 0.0734 0.9848 -0.1574
vn -0.0734 -0.9848 0.1574
usemtl m_999e5d61-5cf1-64a9-8b38-feaacbbd0a62
s 1
f 33/65/25 34/66/25 35/67/25 36/68/25
f 37/69/26 33/65/26 36/68/26 38/70/26
f 39/71/27 37/72/27 38/73/27 40/74/27
f 34/66/28 39/71/28 40/74/28 35/67/28
f 40/75/29 38/76/29 36/68/29 35/67/29
f 34/77/30 33/78/30 37/79/30 39/80/30
