# Blender v3.6.1 OBJ File: ''
# www.blender.org
mtllib scotch_egg.mtl
o cube.652
v 0.937500 -0.000000 0.062500
v 0.062500 -0.000000 0.062500
v 0.062500 0.062500 0.062500
v 0.937500 0.062500 0.062500
v 0.937500 0.000000 0.937500
v 0.937500 0.062500 0.937500
v 0.062500 0.000000 0.937500
v 0.062500 0.062500 0.937500
vt 0.218750 0.765625
vt 0.437500 0.765625
vt 0.437500 0.781250
vt 0.218750 0.781250
vt 0.000000 0.765625
vt 0.000000 0.781250
vt 0.656250 0.765625
vt 0.875000 0.765625
vt 0.875000 0.781250
vt 0.656250 0.781250
vt 0.437500 1.000000
vt 0.218750 1.000000
vt 0.656250 0.781250
vt 0.437500 0.781250
vt 0.437500 1.000000
vt 0.656250 1.000000
vn 0.0000 0.0000 -1.0000
vn 1.0000 0.0000 0.0000
vn 0.0000 0.0000 1.0000
vn -1.0000 0.0000 0.0000
vn 0.0000 1.0000 -0.0000
vn 0.0000 -1.0000 0.0000
usemtl m_a085eca0-2f46-2a7a-af9c-d767f7f5245e
s 1
f 1/1/1 2/2/1 3/3/1 4/4/1
f 5/5/2 1/1/2 4/4/2 6/6/2
f 7/7/3 5/8/3 6/9/3 8/10/3
f 2/2/4 7/7/4 8/10/4 3/3/4
f 8/11/5 6/12/5 4/4/5 3/3/5
f 2/13/6 1/14/6 5/15/6 7/16/6
o cube.653
v 0.125000 0.062500 0.062500
v 0.062500 0.062500 0.062500
v 0.062500 0.125000 0.062500
v 0.125000 0.125000 0.062500
v 0.125000 0.062500 0.937500
v 0.125000 0.125000 0.937500
v 0.062500 0.062500 0.937500
v 0.062500 0.125000 0.937500
vt 0.484375 0.484375
vt 0.500000 0.484375
vt 0.500000 0.500000
vt 0.484375 0.500000
vt 0.265625 0.484375
vt 0.265625 0.500000
vt 0.718750 0.484375
vt 0.734375 0.484375
vt 0.734375 0.500000
vt 0.718750 0.500000
vt 0.500000 0.718750
vt 0.484375 0.718750
vt 0.515625 0.500000
vt 0.500000 0.500000
vt 0.500000 0.718750
vt 0.515625 0.718750
vn 0.0000 0.0000 -1.0000
vn 1.0000 0.0000 0.0000
vn 0.0000 0.0000 1.0000
vn -1.0000 0.0000 0.0000
vn 0.0000 1.0000 -0.0000
vn 0.0000 -1.0000 0.0000
usemtl m_a085eca0-2f46-2a7a-af9c-d767f7f5245e
s 1
f 9/17/7 10/18/7 11/19/7 12/20/7
f 13/21/8 9/17/8 12/20/8 14/22/8
f 15/23/9 13/24/9 14/25/9 16/26/9
f 10/18/10 15/23/10 16/26/10 11/19/10
f 16/27/11 14/28/11 12/20/11 11/19/11
f 10/29/12 9/30/12 13/31/12 15/32/12
o cube.654
v 0.937500 0.062500 0.062500
v 0.875000 0.062500 0.062500
v 0.875000 0.125000 0.062500
v 0.937500 0.125000 0.062500
v 0.937500 0.062500 0.937500
v 0.937500 0.125000 0.937500
v 0.875000 0.062500 0.937500
v 0.875000 0.125000 0.937500
vt 0.218750 0.515625
vt 0.234375 0.515625
vt 0.234375 0.531250
vt 0.218750 0.531250
vt 0.000000 0.515625
vt 0.000000 0.531250
vt 0.453125 0.515625
vt 0.468750 0.515625
vt 0.468750 0.531250
vt 0.453125 0.531250
vt 0.234375 0.750000
vt 0.218750 0.750000
vt 0.250000 0.531250
vt 0.234375 0.531250
vt 0.234375 0.750000
vt 0.250000 0.750000
vn 0.0000 0.0000 -1.0000
vn 1.0000 0.0000 0.0000
vn 0.0000 0.0000 1.0000
vn -1.0000 0.0000 0.0000
vn 0.0000 1.0000 -0.0000
vn 0.0000 -1.0000 0.0000
usemtl m_a085eca0-2f46-2a7a-af9c-d767f7f5245e
s 1
f 17/33/13 18/34/13 19/35/13 20/36/13
f 21/37/14 17/33/14 20/36/14 22/38/14
f 23/39/15 21/40/15 22/41/15 24/42/15
f 18/34/16 23/39/16 24/42/16 19/35/16
f 24/43/17 22/44/17 20/36/17 19/35/17
f 18/45/18 17/46/18 21/47/18 23/48/18
o cube.655
v 0.875000 0.062500 0.875000
v 0.125000 0.062500 0.875000
v 0.125000 0.125000 0.875000
v 0.875000 0.125000 0.875000
v 0.875000 0.062500 0.937500
v 0.875000 0.125000 0.937500
v 0.125000 0.062500 0.937500
v 0.125000 0.125000 0.937500
vt 0.546875 0.546875
vt 0.734375 0.546875
vt 0.734375 0.562500
vt 0.546875 0.562500
vt 0.531250 0.546875
vt 0.531250 0.562500
vt 0.750000 0.546875
vt 0.937500 0.546875
vt 0.937500 0.562500
vt 0.750000 0.562500
vt 0.734375 0.578125
vt 0.546875 0.578125
vt 0.921875 0.562500
vt 0.734375 0.562500
vt 0.734375 0.578125
vt 0.921875 0.578125
vn 0.0000 0.0000 -1.0000
vn 1.0000 0.0000 0.0000
vn 0.0000 0.0000 1.0000
vn -1.0000 0.0000 0.0000
vn 0.0000 1.0000 0.0000
vn 0.0000 -1.0000 0.0000
usemtl m_a085eca0-2f46-2a7a-af9c-d767f7f5245e
s 1
f 25/49/19 26/50/19 27/51/19 28/52/19
f 29/53/20 25/49/20 28/52/20 30/54/20
f 31/55/21 29/56/21 30/57/21 32/58/21
f 26/50/22 31/55/22 32/58/22 27/51/22
f 32/59/23 30/60/23 28/52/23 27/51/23
f 26/61/24 25/62/24 29/63/24 31/64/24
o cube.656
v 0.875000 0.062500 0.062500
v 0.125000 0.062500 0.062500
v 0.125000 0.125000 0.062500
v 0.875000 0.125000 0.062500
v 0.875000 0.062500 0.125000
v 0.875000 0.125000 0.125000
v 0.125000 0.062500 0.125000
v 0.125000 0.125000 0.125000
vt 0.296875 0.437500
vt 0.484375 0.437500
vt 0.484375 0.453125
vt 0.296875 0.453125
vt 0.281250 0.437500
vt 0.281250 0.453125
vt 0.500000 0.437500
vt 0.687500 0.437500
vt 0.687500 0.453125
vt 0.500000 0.453125
vt 0.484375 0.468750
vt 0.296875 0.468750
vt 0.671875 0.453125
vt 0.484375 0.453125
vt 0.484375 0.468750
vt 0.671875 0.468750
vn 0.0000 0.0000 -1.0000
vn 1.0000 0.0000 0.0000
vn 0.0000 0.0000 1.0000
vn -1.0000 0.0000 0.0000
vn 0.0000 1.0000 0.0000
vn 0.0000 -1.0000 0.0000
usemtl m_a085eca0-2f46-2a7a-af9c-d767f7f5245e
s 1
f 33/65/25 34/66/25 35/67/25 36/68/25
f 37/69/26 33/65/26 36/68/26 38/70/26
f 39/71/27 37/72/27 38/73/27 40/74/27
f 34/66/28 39/71/28 40/74/28 35/67/28
f 40/75/29 38/76/29 36/68/29 35/67/29
f 34/77/30 33/78/30 37/79/30 39/80/30
o shattered
v 0.875000 0.062500 0.562500
v 0.562500 0.062500 0.562500
v 0.562500 0.062500 0.562500
v 0.875000 0.062500 0.562500
v 0.875000 0.062500 0.875000
v 0.875000 0.062500 0.875000
v 0.562500 0.062500 0.875000
v 0.562500 0.062500 0.875000
vt 0.718750 0.390625
vt 0.796875 0.390625
vt 0.796875 0.390625
vt 0.718750 0.390625
vt 0.640625 0.390625
vt 0.640625 0.390625
vt 0.875000 0.390625
vt 0.953125 0.390625
vt 0.953125 0.390625
vt 0.875000 0.390625
vt 0.796875 0.468750
vt 0.718750 0.468750
vt 0.875000 0.390625
vt 0.796875 0.390625
vt 0.796875 0.468750
vt 0.875000 0.468750
vn 0.0000 -0.0000 -1.0000
vn 1.0000 0.0000 0.0000
vn 0.0000 0.0000 1.0000
vn -1.0000 0.0000 0.0000
vn 0.0000 1.0000 -0.0000
vn 0.0000 -1.0000 0.0000
usemtl m_a085eca0-2f46-2a7a-af9c-d767f7f5245e
s 1
f 41/81/31 42/82/31 43/83/31 44/84/31
f 45/85/32 41/81/32 44/84/32 46/86/32
f 47/87/33 45/88/33 46/89/33 48/90/33
f 42/82/34 47/87/34 48/90/34 43/83/34
f 48/91/35 46/92/35 44/84/35 43/83/35
f 42/93/36 41/94/36 45/95/36 47/96/36
o shattered.000
v 0.437500 0.062500 0.125000
v 0.125000 0.062500 0.125000
v 0.125000 0.062500 0.125000
v 0.437500 0.062500 0.125000
v 0.437500 0.062500 0.437500
v 0.437500 0.062500 0.437500
v 0.125000 0.062500 0.437500
v 0.125000 0.062500 0.437500
vt 0.468750 0.343750
vt 0.546875 0.343750
vt 0.546875 0.343750
vt 0.468750 0.343750
vt 0.390625 0.343750
vt 0.390625 0.343750
vt 0.625000 0.343750
vt 0.703125 0.343750
vt 0.703125 0.343750
vt 0.625000 0.343750
vt 0.546875 0.421875
vt 0.468750 0.421875
vt 0.625000 0.343750
vt 0.546875 0.343750
vt 0.546875 0.421875
vt 0.625000 0.421875
vn 0.0000 -0.0000 -1.0000
vn 1.0000 0.0000 0.0000
vn 0.0000 0.0000 1.0000
vn -1.0000 0.0000 0.0000
vn 0.0000 1.0000 -0.0000
vn 0.0000 -1.0000 0.0000
usemtl m_a085eca0-2f46-2a7a-af9c-d767f7f5245e
s 1
f 49/97/37 50/98/37 51/99/37 52/100/37
f 53/101/38 49/97/38 52/100/38 54/102/38
f 55/103/39 53/104/39 54/105/39 56/106/39
f 50/98/40 55/103/40 56/106/40 51/99/40
f 56/107/41 54/108/41 52/100/41 51/99/41
f 50/109/42 49/110/42 53/111/42 55/112/42
o cube.657
v 0.356672 0.043706 0.399897
v 0.072430 0.137676 0.489518
v 0.126202 0.316498 0.472563
v 0.410445 0.222528 0.382942
v 0.488231 0.043706 0.817148
v 0.542004 0.222528 0.800193
v 0.203988 0.137676 0.906769
v 0.257761 0.316498 0.889814
vt 0.640625 0.593750
vt 0.718750 0.593750
vt 0.718750 0.640625
vt 0.640625 0.640625
vt 0.531250 0.593750
vt 0.531250 0.640625
vt 0.828125 0.593750
vt 0.906250 0.593750
vt 0.906250 0.640625
vt 0.828125 0.640625
vt 0.718750 0.750000
vt 0.640625 0.750000
vt 0.796875 0.640625
vt 0.718750 0.640625
vt 0.718750 0.750000
vt 0.796875 0.750000
vn -0.3007 -0.0000 -0.9537
vn 0.9096 -0.3007 -0.2868
vn 0.3007 0.0000 0.9537
vn -0.9096 0.3007 0.2868
vn 0.2868 0.9537 -0.0904
vn -0.2868 -0.9537 0.0904
usemtl m_a085eca0-2f46-2a7a-af9c-d767f7f5245e
s 1
f 57/113/43 58/114/43 59/115/43 60/116/43
f 61/117/44 57/113/44 60/116/44 62/118/44
f 63/119/45 61/120/45 62/121/45 64/122/45
f 58/114/46 63/119/46 64/122/46 59/115/46
f 64/123/47 62/124/47 60/116/47 59/115/47
f 58/125/48 57/126/48 61/127/48 63/128/48
o cube.658
v 0.362357 0.041826 0.398104
v 0.362357 0.041826 0.398104
v 0.416130 0.220648 0.381150
v 0.416130 0.220648 0.381150
v 0.493916 0.041826 0.815355
v 0.547688 0.220648 0.798401
v 0.493916 0.041826 0.815355
v 0.547688 0.220648 0.798401
vt 0.781250 0.843750
vt 0.781250 0.843750
vt 0.781250 0.890625
vt 0.781250 0.890625
vt 0.671875 0.843750
vt 0.671875 0.890625
vt 0.890625 0.843750
vt 0.890625 0.843750
vt 0.890625 0.890625
vt 0.890625 0.890625
vt 0.781250 1.000000
vt 0.781250 1.000000
vt 0.781250 0.890625
vt 0.781250 0.890625
vt 0.781250 1.000000
vt 0.781250 1.000000
vn 0.0000 0.0000 -0.9537
vn -0.3007 0.0000 -0.9537
vn 0.9096 -0.3007 -0.2868
vn 0.0000 0.0000 0.9537
vn 0.3007 0.0000 0.9537
vn -0.9096 0.3007 0.2868
vn 0.0000 0.0000 -0.0904
vn 0.2867 0.9537 -0.0904
vn 0.0000 0.0000 -0.0905
vn 0.2868 0.9537 -0.0905
vn 0.0000 0.0000 0.0905
vn -0.2867 -0.9537 0.0905
vn 0.0000 0.0000 0.0904
vn -0.2868 -0.9537 0.0904
usemtl m_a085eca0-2f46-2a7a-af9c-d767f7f5245e
s 1
f 65/129/49 66/130/50 67/131/49 68/132/50
f 69/133/51 65/129/51 68/132/51 70/134/51
f 71/135/52 69/136/53 70/137/52 72/138/53
f 66/130/54 71/135/54 72/138/54 67/131/54
f 72/139/55 70/140/56 68/132/57 67/131/58
f 66/141/59 65/142/60 69/143/61 71/144/62
o cube.659
v 0.490110 0.043706 0.823108
v 0.205868 0.137676 0.912730
v 0.259641 0.316498 0.895775
v 0.543883 0.222528 0.806154
v 0.490110 0.043706 0.823108
v 0.543883 0.222528 0.806154
v 0.205868 0.137676 0.912730
v 0.259641 0.316498 0.895775
vt 0.000000 0.890625
vt 0.078125 0.890625
vt 0.078125 0.937500
vt 0.000000 0.937500
vt 0.000000 0.890625
vt 0.000000 0.937500
vt 0.078125 0.890625
vt 0.156250 0.890625
vt 0.156250 0.937500
vt 0.078125 0.937500
vt 0.156250 0.937500
vt 0.078125 0.937500
vt 0.078125 0.937500
vt 0.156250 0.937500
vn -0.3007 -0.0000 -0.9537
vn 0.0000 0.0000 -0.2867
vn 0.9096 -0.3007 -0.2867
vn 0.0000 0.0000 -0.2868
vn 0.9096 -0.3007 -0.2868
vn 0.3007 0.0000 0.9537
vn 0.0000 0.0000 0.2868
vn -0.9096 0.3007 0.2868
vn 0.2868 0.9537 -0.0904
vn 0.0000 0.0000 -0.0905
vn 0.2867 0.9537 -0.0905
vn 0.0000 0.0000 -0.0904
vn -0.2867 -0.9537 0.0904
vn 0.0000 0.0000 0.0905
vn -0.2868 -0.9537 0.0905
vn 0.0000 0.0000 0.0904
usemtl m_a085eca0-2f46-2a7a-af9c-d767f7f5245e
s 1
f 73/145/63 74/146/63 75/147/63 76/148/63
f 77/149/64 73/145/65 76/148/66 78/150/67
f 79/151/68 77/152/68 78/153/68 80/154/68
f 74/146/69 79/151/70 80/154/69 75/147/70
f 80/154/71 78/150/72 76/148/73 75/147/74
f 74/155/75 73/156/76 77/157/77 79/158/78
o cube.660
v 0.354793 0.043706 0.393936
v 0.070550 0.137676 0.483557
v 0.124323 0.316498 0.466603
v 0.408565 0.222528 0.376981
v 0.354793 0.043706 0.393936
v 0.408565 0.222528 0.376981
v 0.070550 0.137676 0.483557
v 0.124323 0.316498 0.466603
vt 0.000000 0.953125
vt 0.078125 0.953125
vt 0.078125 1.000000
vt 0.000000 1.000000
vt 0.000000 0.953125
vt 0.000000 1.000000
vt 0.078125 0.953125
vt 0.156250 0.953125
vt 0.156250 1.000000
vt 0.078125 1.000000
vt 0.156250 1.000000
vt 0.078125 1.000000
vt 0.078125 1.000000
vt 0.156250 1.000000
vn -0.3007 -0.0000 -0.9537
vn 0.0000 0.0000 -0.2867
vn 0.9096 -0.3007 -0.2867
vn 0.0000 0.0000 -0.2868
vn 0.9096 -0.3007 -0.2868
vn 0.3007 0.0000 0.9537
vn 0.0000 0.0000 0.2868
vn -0.9096 0.3007 0.2868
vn 0.2868 0.9537 -0.0904
vn 0.0000 0.0000 -0.0905
vn 0.2867 0.9537 -0.0905
vn 0.0000 0.0000 -0.0904
vn -0.2867 -0.9537 0.0904
vn 0.0000 0.0000 0.0905
vn -0.2868 -0.9537 0.0905
vn 0.0000 0.0000 0.0904
usemtl m_a085eca0-2f46-2a7a-af9c-d767f7f5245e
s 1
f 81/159/79 82/160/79 83/161/79 84/162/79
f 85/163/80 81/159/81 84/162/82 86/164/83
f 87/165/84 85/166/84 86/167/84 88/168/84
f 82/160/85 87/165/86 88/168/85 83/161/86
f 88/168/87 86/164/88 84/162/89 83/161/90
f 82/169/91 81/170/92 85/171/93 87/172/94
o cube.661
v 0.066745 0.139556 0.491310
v 0.066745 0.139556 0.491310
v 0.120517 0.318378 0.474356
v 0.120517 0.318378 0.474356
v 0.198303 0.139556 0.908561
v 0.252076 0.318378 0.891607
v 0.198303 0.139556 0.908561
v 0.252076 0.318378 0.891607
vt 0.718750 0.218750
vt 0.718750 0.218750
vt 0.718750 0.265625
vt 0.718750 0.265625
vt 0.609375 0.218750
vt 0.609375 0.265625
vt 0.828125 0.218750
vt 0.828125 0.218750
vt 0.828125 0.265625
vt 0.828125 0.265625
vt 0.718750 0.375000
vt 0.718750 0.375000
vt 0.718750 0.265625
vt 0.718750 0.265625
vt 0.718750 0.375000
vt 0.718750 0.375000
vn 0.0000 0.0000 -0.9537
vn -0.3007 0.0000 -0.9537
vn 0.9096 -0.3007 -0.2868
vn 0.0000 0.0000 0.9537
vn 0.3007 0.0000 0.9537
vn -0.9096 0.3007 0.2868
vn 0.0000 0.0000 -0.0904
vn 0.2867 0.9537 -0.0904
vn 0.0000 0.0000 -0.0905
vn 0.2868 0.9537 -0.0905
vn 0.0000 0.0000 0.0905
vn -0.2867 -0.9537 0.0905
vn 0.0000 0.0000 0.0904
vn -0.2868 -0.9537 0.0904
usemtl m_a085eca0-2f46-2a7a-af9c-d767f7f5245e
s 1
f 89/173/95 90/174/96 91/175/95 92/176/96
f 93/177/97 89/173/97 92/176/97 94/178/97
f 95/179/98 93/180/99 94/181/98 96/182/99
f 90/174/100 95/179/100 96/182/100 91/175/100
f 96/183/101 94/184/102 92/176/103 91/175/104
f 90/185/105 89/186/106 93/187/107 95/188/108
o yolk
v 0.339024 0.203033 0.503761
v 0.225327 0.240621 0.539609
v 0.243251 0.300229 0.533958
v 0.356948 0.262640 0.498109
v 0.376612 0.203033 0.622975
v 0.394536 0.262640 0.617324
v 0.262915 0.240621 0.658824
v 0.280839 0.300229 0.653172
vt 0.703125 0.328125
vt 0.734375 0.328125
vt 0.734375 0.343750
vt 0.703125 0.343750
vt 0.671875 0.328125
vt 0.671875 0.343750
vt 0.765625 0.328125
vt 0.796875 0.328125
vt 0.796875 0.343750
vt 0.765625 0.343750
vt 0.734375 0.375000
vt 0.703125 0.375000
vt 0.765625 0.343750
vt 0.734375 0.343750
vt 0.734375 0.375000
vt 0.765625 0.375000
vn -0.3007 0.0000 -0.9537
vn 0.9096 -0.3007 -0.2868
vn 0.3007 0.0000 0.9537
vn -0.9096 0.3007 0.2868
vn 0.2868 0.9537 -0.0904
vn -0.2868 -0.9537 0.0904
usemtl m_a085eca0-2f46-2a7a-af9c-d767f7f5245e
s 1
f 97/189/109 98/190/109 99/191/109 100/192/109
f 101/193/110 97/189/110 100/192/110 102/194/110
f 103/195/111 101/196/111 102/197/111 104/198/111
f 98/190/112 103/195/112 104/198/112 99/191/112
f 104/199/113 102/200/113 100/192/113 99/191/113
f 98/201/114 97/202/114 101/203/114 103/204/114
o cube.662
v 0.910020 0.140259 0.172310
v 0.612783 0.111312 0.080286
v 0.587344 0.295491 0.104517
v 0.884581 0.324438 0.196542
v 0.788705 0.069000 0.586570
v 0.763266 0.253179 0.610802
v 0.491468 0.040053 0.494545
v 0.466029 0.224232 0.518777
vt 0.109375 0.312500
vt 0.187500 0.312500
vt 0.187500 0.359375
vt 0.109375 0.359375
vt 0.000000 0.312500
vt 0.000000 0.359375
vt 0.296875 0.312500
vt 0.375000 0.312500
vt 0.375000 0.359375
vt 0.296875 0.359375
vt 0.187500 0.468750
vt 0.109375 0.468750
vt 0.265625 0.359375
vt 0.187500 0.359375
vt 0.187500 0.468750
vt 0.265625 0.468750
vn 0.2773 0.1629 -0.9469
vn 0.9512 0.0926 0.2945
vn -0.2773 -0.1629 0.9469
vn -0.9512 -0.0926 -0.2945
vn -0.1357 0.9823 0.1292
vn 0.1357 -0.9823 -0.1292
usemtl m_a085eca0-2f46-2a7a-af9c-d767f7f5245e
s 1
f 105/205/115 106/206/115 107/207/115 108/208/115
f 109/209/116 105/205/116 108/208/116 110/210/116
f 111/211/117 109/212/117 110/213/117 112/214/117
f 106/206/118 111/211/118 112/214/118 107/207/118
f 112/215/119 110/216/119 108/208/119 107/207/119
f 106/217/120 105/218/120 109/219/120 111/220/120
o cube.663
v 0.915965 0.140838 0.174151
v 0.915965 0.140838 0.174151
v 0.890526 0.325017 0.198382
v 0.890526 0.325017 0.198382
v 0.794650 0.069579 0.588410
v 0.769211 0.253758 0.612642
v 0.794650 0.069579 0.588410
v 0.769211 0.253758 0.612642
vt 0.109375 0.140625
vt 0.109375 0.140625
vt 0.109375 0.187500
vt 0.109375 0.187500
vt 0.000000 0.140625
vt 0.000000 0.187500
vt 0.218750 0.140625
vt 0.218750 0.140625
vt 0.218750 0.187500
vt 0.218750 0.187500
vt 0.109375 0.296875
vt 0.109375 0.296875
vt 0.109375 0.187500
vt 0.109375 0.187500
vt 0.109375 0.296875
vt 0.109375 0.296875
vn 0.0000 0.0000 -0.9469
vn 0.2773 0.1629 -0.9469
vn 0.9512 0.0926 0.2945
vn 0.0000 0.0000 0.9469
vn -0.2773 -0.1629 0.9469
vn -0.9512 -0.0926 -0.2945
vn 0.0000 0.0000 0.1292
vn -0.1357 0.9823 0.1292
vn 0.0000 0.0000 -0.1292
vn 0.1357 -0.9823 -0.1292
vn 0.0000 0.0000 -0.1293
vn 0.1357 -0.9823 -0.1293
usemtl m_a085eca0-2f46-2a7a-af9c-d767f7f5245e
s 1
f 113/221/121 114/222/122 115/223/121 116/224/122
f 117/225/123 113/221/123 116/224/123 118/226/123
f 119/227/124 117/228/125 118/229/124 120/230/125
f 114/222/126 119/227/126 120/230/126 115/223/126
f 120/231/127 118/232/128 116/224/127 115/223/128
f 114/233/129 113/234/130 117/235/131 119/236/132
o cube.664
v 0.606839 0.110733 0.078445
v 0.606839 0.110733 0.078445
v 0.581400 0.294912 0.102677
v 0.581400 0.294912 0.102677
v 0.485524 0.039474 0.492705
v 0.460085 0.223653 0.516937
v 0.485524 0.039474 0.492705
v 0.460085 0.223653 0.516937
vt 0.390625 0.171875
vt 0.390625 0.171875
vt 0.390625 0.218750
vt 0.390625 0.218750
vt 0.281250 0.171875
vt 0.281250 0.218750
vt 0.500000 0.171875
vt 0.500000 0.171875
vt 0.500000 0.218750
vt 0.500000 0.218750
vt 0.390625 0.328125
vt 0.390625 0.328125
vt 0.390625 0.218750
vt 0.390625 0.218750
vt 0.390625 0.328125
vt 0.390625 0.328125
vn 0.0000 0.0000 -0.9469
vn 0.2773 0.1629 -0.9469
vn 0.9512 0.0926 0.2945
vn 0.0000 0.0000 0.9469
vn -0.2773 -0.1629 0.9469
vn -0.9512 -0.0926 -0.2945
vn 0.0000 0.0000 0.1292
vn -0.1357 0.9823 0.1292
vn 0.0000 0.0000 -0.1292
vn 0.1357 -0.9823 -0.1292
vn 0.0000 0.0000 -0.1293
vn 0.1357 -0.9823 -0.1293
usemtl m_a085eca0-2f46-2a7a-af9c-d767f7f5245e
s 1
f 121/237/133 122/238/134 123/239/133 124/240/134
f 125/241/135 121/237/135 124/240/135 126/242/135
f 127/243/136 125/244/137 126/245/136 128/246/137
f 122/238/138 127/243/138 128/246/138 123/239/138
f 128/247/139 126/248/140 124/240/139 123/239/140
f 122/249/141 121/250/142 125/251/143 127/252/144
o cube.665
v 0.786972 0.067982 0.592488
v 0.489735 0.039035 0.500463
v 0.464296 0.223214 0.524695
v 0.761533 0.252161 0.616720
v 0.786972 0.067982 0.592488
v 0.761533 0.252161 0.616720
v 0.489735 0.039035 0.500463
v 0.464296 0.223214 0.524695
vt 0.000000 0.703125
vt 0.078125 0.703125
vt 0.078125 0.750000
vt 0.000000 0.750000
vt 0.000000 0.703125
vt 0.000000 0.750000
vt 0.078125 0.703125
vt 0.156250 0.703125
vt 0.156250 0.750000
vt 0.078125 0.750000
vt 0.156250 0.750000
vt 0.078125 0.750000
vt 0.078125 0.750000
vt 0.156250 0.750000
vn 0.2773 0.1629 -0.9469
vn 0.0000 0.0000 0.2945
vn 0.9512 0.0926 0.2945
vn -0.2773 -0.1629 0.9469
vn 0.0000 0.0000 -0.2945
vn -0.9511 -0.0926 -0.2945
vn -0.1356 0.9823 0.1292
vn 0.0000 0.0000 0.1292
vn -0.1357 0.9823 0.1292
vn 0.1357 -0.9823 -0.1293
vn 0.0000 0.0000 -0.1292
vn 0.1356 -0.9823 -0.1292
vn 0.0000 0.0000 -0.1293
usemtl m_a085eca0-2f46-2a7a-af9c-d767f7f5245e
s 1
f 129/253/145 130/254/145 131/255/145 132/256/145
f 133/257/146 129/253/147 132/256/146 134/258/147
f 135/259/148 133/260/148 134/261/148 136/262/148
f 130/254/149 135/259/150 136/262/149 131/255/150
f 136/262/151 134/258/152 132/256/153 131/255/152
f 130/263/154 129/264/155 133/265/156 135/266/157
o cube.666
v 0.911753 0.141277 0.166392
v 0.614516 0.112330 0.074368
v 0.589078 0.296509 0.098599
v 0.886315 0.325456 0.190624
v 0.911753 0.141277 0.166392
v 0.886315 0.325456 0.190624
v 0.614516 0.112330 0.074368
v 0.589078 0.296509 0.098599
vt 0.000000 0.828125
vt 0.078125 0.828125
vt 0.078125 0.875000
vt 0.000000 0.875000
vt 0.000000 0.828125
vt 0.000000 0.875000
vt 0.078125 0.828125
vt 0.156250 0.828125
vt 0.156250 0.875000
vt 0.078125 0.875000
vt 0.156250 0.875000
vt 0.078125 0.875000
vt 0.078125 0.875000
vt 0.156250 0.875000
vn 0.2773 0.1629 -0.9469
vn 0.0000 0.0000 0.2945
vn 0.9512 0.0926 0.2945
vn -0.2773 -0.1629 0.9469
vn 0.0000 0.0000 -0.2945
vn -0.9511 -0.0926 -0.2945
vn -0.1356 0.9823 0.1292
vn 0.0000 0.0000 0.1292
vn -0.1357 0.9823 0.1292
vn 0.1357 -0.9823 -0.1293
vn 0.0000 0.0000 -0.1292
vn 0.1356 -0.9823 -0.1292
vn 0.0000 0.0000 -0.1293
usemtl m_a085eca0-2f46-2a7a-af9c-d767f7f5245e
s 1
f 137/267/158 138/268/158 139/269/158 140/270/158
f 141/271/159 137/267/160 140/270/159 142/272/160
f 143/273/161 141/274/161 142/275/161 144/276/161
f 138/268/162 143/273/163 144/276/162 139/269/163
f 144/276/164 142/272/165 140/270/166 139/269/165
f 138/277/167 137/278/168 141/279/169 143/280/170
o yolk.000
v 0.776198 0.251370 0.251243
v 0.657303 0.239791 0.214433
v 0.648824 0.301184 0.222510
v 0.767718 0.312763 0.259320
v 0.741537 0.231010 0.369603
v 0.733057 0.292403 0.377680
v 0.622642 0.219431 0.332793
v 0.614162 0.280824 0.340870
vt 0.703125 0.281250
vt 0.734375 0.281250
vt 0.734375 0.296875
vt 0.703125 0.296875
vt 0.671875 0.281250
vt 0.671875 0.296875
vt 0.765625 0.281250
vt 0.796875 0.281250
vt 0.796875 0.296875
vt 0.765625 0.296875
vt 0.734375 0.328125
vt 0.703125 0.328125
vt 0.765625 0.296875
vt 0.734375 0.296875
vt 0.734375 0.328125
vt 0.765625 0.328125
vn 0.2773 0.1629 -0.9469
vn 0.9512 0.0926 0.2945
vn -0.2773 -0.1629 0.9469
vn -0.9512 -0.0926 -0.2945
vn -0.1357 0.9823 0.1292
vn 0.1357 -0.9823 -0.1292
usemtl m_a085eca0-2f46-2a7a-af9c-d767f7f5245e
s 1
f 145/281/171 146/282/171 147/283/171 148/284/171
f 149/285/172 145/281/172 148/284/172 150/286/172
f 151/287/173 149/288/173 150/289/173 152/290/173
f 146/282/174 151/287/174 152/290/174 147/283/174
f 152/291/175 150/292/175 148/284/175 147/283/175
f 146/293/176 145/294/176 149/295/176 151/296/176
