# Blender v3.6.1 OBJ File: ''
# www.blender.org
mtllib scotch_egg.mtl
o cube.020
v 0.937500 -0.000000 0.062500
v 0.062500 -0.000000 0.062500
v 0.062500 0.062500 0.062500
v 0.937500 0.062500 0.062500
v 0.937500 0.000000 0.937500
v 0.937500 0.062500 0.937500
v 0.062500 0.000000 0.937500
v 0.062500 0.062500 0.937500
vt 0.218750 0.765625
vt 0.437500 0.765625
vt 0.437500 0.781250
vt 0.218750 0.781250
vt 0.000000 0.765625
vt 0.000000 0.781250
vt 0.656250 0.765625
vt 0.875000 0.765625
vt 0.875000 0.781250
vt 0.656250 0.781250
vt 0.437500 1.000000
vt 0.218750 1.000000
vt 0.656250 0.781250
vt 0.437500 0.781250
vt 0.437500 1.000000
vt 0.656250 1.000000
vn 0.0000 0.0000 -1.0000
vn 1.0000 0.0000 0.0000
vn 0.0000 0.0000 1.0000
vn -1.0000 0.0000 0.0000
vn 0.0000 1.0000 -0.0000
vn 0.0000 -1.0000 0.0000
usemtl m_a085eca0-2f46-2a7a-af9c-d767f7f5245e
s 1
f 1/1/1 2/2/1 3/3/1 4/4/1
f 5/5/2 1/1/2 4/4/2 6/6/2
f 7/7/3 5/8/3 6/9/3 8/10/3
f 2/2/4 7/7/4 8/10/4 3/3/4
f 8/11/5 6/12/5 4/4/5 3/3/5
f 2/13/6 1/14/6 5/15/6 7/16/6
o cube.021
v 0.125000 0.062500 0.062500
v 0.062500 0.062500 0.062500
v 0.062500 0.125000 0.062500
v 0.125000 0.125000 0.062500
v 0.125000 0.062500 0.937500
v 0.125000 0.125000 0.937500
v 0.062500 0.062500 0.937500
v 0.062500 0.125000 0.937500
vt 0.484375 0.484375
vt 0.500000 0.484375
vt 0.500000 0.500000
vt 0.484375 0.500000
vt 0.265625 0.484375
vt 0.265625 0.500000
vt 0.718750 0.484375
vt 0.734375 0.484375
vt 0.734375 0.500000
vt 0.718750 0.500000
vt 0.500000 0.718750
vt 0.484375 0.718750
vt 0.515625 0.500000
vt 0.500000 0.500000
vt 0.500000 0.718750
vt 0.515625 0.718750
vn 0.0000 0.0000 -1.0000
vn 1.0000 0.0000 0.0000
vn 0.0000 0.0000 1.0000
vn -1.0000 0.0000 0.0000
vn 0.0000 1.0000 -0.0000
vn 0.0000 -1.0000 0.0000
usemtl m_a085eca0-2f46-2a7a-af9c-d767f7f5245e
s 1
f 9/17/7 10/18/7 11/19/7 12/20/7
f 13/21/8 9/17/8 12/20/8 14/22/8
f 15/23/9 13/24/9 14/25/9 16/26/9
f 10/18/10 15/23/10 16/26/10 11/19/10
f 16/27/11 14/28/11 12/20/11 11/19/11
f 10/29/12 9/30/12 13/31/12 15/32/12
o cube.022
v 0.937500 0.062500 0.062500
v 0.875000 0.062500 0.062500
v 0.875000 0.125000 0.062500
v 0.937500 0.125000 0.062500
v 0.937500 0.062500 0.937500
v 0.937500 0.125000 0.937500
v 0.875000 0.062500 0.937500
v 0.875000 0.125000 0.937500
vt 0.218750 0.515625
vt 0.234375 0.515625
vt 0.234375 0.531250
vt 0.218750 0.531250
vt 0.000000 0.515625
vt 0.000000 0.531250
vt 0.453125 0.515625
vt 0.468750 0.515625
vt 0.468750 0.531250
vt 0.453125 0.531250
vt 0.234375 0.750000
vt 0.218750 0.750000
vt 0.250000 0.531250
vt 0.234375 0.531250
vt 0.234375 0.750000
vt 0.250000 0.750000
vn 0.0000 0.0000 -1.0000
vn 1.0000 0.0000 0.0000
vn 0.0000 0.0000 1.0000
vn -1.0000 0.0000 0.0000
vn 0.0000 1.0000 -0.0000
vn 0.0000 -1.0000 0.0000
usemtl m_a085eca0-2f46-2a7a-af9c-d767f7f5245e
s 1
f 17/33/13 18/34/13 19/35/13 20/36/13
f 21/37/14 17/33/14 20/36/14 22/38/14
f 23/39/15 21/40/15 22/41/15 24/42/15
f 18/34/16 23/39/16 24/42/16 19/35/16
f 24/43/17 22/44/17 20/36/17 19/35/17
f 18/45/18 17/46/18 21/47/18 23/48/18
o cube.023
v 0.875000 0.062500 0.875000
v 0.125000 0.062500 0.875000
v 0.125000 0.125000 0.875000
v 0.875000 0.125000 0.875000
v 0.875000 0.062500 0.937500
v 0.875000 0.125000 0.937500
v 0.125000 0.062500 0.937500
v 0.125000 0.125000 0.937500
vt 0.546875 0.546875
vt 0.734375 0.546875
vt 0.734375 0.562500
vt 0.546875 0.562500
vt 0.531250 0.546875
vt 0.531250 0.562500
vt 0.750000 0.546875
vt 0.937500 0.546875
vt 0.937500 0.562500
vt 0.750000 0.562500
vt 0.734375 0.578125
vt 0.546875 0.578125
vt 0.921875 0.562500
vt 0.734375 0.562500
vt 0.734375 0.578125
vt 0.921875 0.578125
vn 0.0000 0.0000 -1.0000
vn 1.0000 0.0000 0.0000
vn 0.0000 0.0000 1.0000
vn -1.0000 0.0000 0.0000
vn 0.0000 1.0000 0.0000
vn 0.0000 -1.0000 0.0000
usemtl m_a085eca0-2f46-2a7a-af9c-d767f7f5245e
s 1
f 25/49/19 26/50/19 27/51/19 28/52/19
f 29/53/20 25/49/20 28/52/20 30/54/20
f 31/55/21 29/56/21 30/57/21 32/58/21
f 26/50/22 31/55/22 32/58/22 27/51/22
f 32/59/23 30/60/23 28/52/23 27/51/23
f 26/61/24 25/62/24 29/63/24 31/64/24
o cube.024
v 0.875000 0.062500 0.062500
v 0.125000 0.062500 0.062500
v 0.125000 0.125000 0.062500
v 0.875000 0.125000 0.062500
v 0.875000 0.062500 0.125000
v 0.875000 0.125000 0.125000
v 0.125000 0.062500 0.125000
v 0.125000 0.125000 0.125000
vt 0.296875 0.437500
vt 0.484375 0.437500
vt 0.484375 0.453125
vt 0.296875 0.453125
vt 0.281250 0.437500
vt 0.281250 0.453125
vt 0.500000 0.437500
vt 0.687500 0.437500
vt 0.687500 0.453125
vt 0.500000 0.453125
vt 0.484375 0.468750
vt 0.296875 0.468750
vt 0.671875 0.453125
vt 0.484375 0.453125
vt 0.484375 0.468750
vt 0.671875 0.468750
vn 0.0000 0.0000 -1.0000
vn 1.0000 0.0000 0.0000
vn 0.0000 0.0000 1.0000
vn -1.0000 0.0000 0.0000
vn 0.0000 1.0000 0.0000
vn 0.0000 -1.0000 0.0000
usemtl m_a085eca0-2f46-2a7a-af9c-d767f7f5245e
s 1
f 33/65/25 34/66/25 35/67/25 36/68/25
f 37/69/26 33/65/26 36/68/26 38/70/26
f 39/71/27 37/72/27 38/73/27 40/74/27
f 34/66/28 39/71/28 40/74/28 35/67/28
f 40/75/29 38/76/29 36/68/29 35/67/29
f 34/77/30 33/78/30 37/79/30 39/80/30
o cube.025
v 0.356672 0.043706 0.399897
v 0.072430 0.137676 0.489518
v 0.126202 0.316498 0.472563
v 0.410445 0.222528 0.382942
v 0.488231 0.043706 0.817148
v 0.542004 0.222528 0.800193
v 0.203988 0.137676 0.906769
v 0.257761 0.316498 0.889814
vt 0.640625 0.593750
vt 0.718750 0.593750
vt 0.718750 0.640625
vt 0.640625 0.640625
vt 0.531250 0.593750
vt 0.531250 0.640625
vt 0.828125 0.593750
vt 0.906250 0.593750
vt 0.906250 0.640625
vt 0.828125 0.640625
vt 0.718750 0.750000
vt 0.640625 0.750000
vt 0.796875 0.640625
vt 0.718750 0.640625
vt 0.718750 0.750000
vt 0.796875 0.750000
vn -0.3007 -0.0000 -0.9537
vn 0.9096 -0.3007 -0.2868
vn 0.3007 0.0000 0.9537
vn -0.9096 0.3007 0.2868
vn 0.2868 0.9537 -0.0904
vn -0.2868 -0.9537 0.0904
usemtl m_a085eca0-2f46-2a7a-af9c-d767f7f5245e
s 1
f 41/81/31 42/82/31 43/83/31 44/84/31
f 45/85/32 41/81/32 44/84/32 46/86/32
f 47/87/33 45/88/33 46/89/33 48/90/33
f 42/82/34 47/87/34 48/90/34 43/83/34
f 48/91/35 46/92/35 44/84/35 43/83/35
f 42/93/36 41/94/36 45/95/36 47/96/36
o cube.026
v 0.362357 0.041826 0.398104
v 0.362357 0.041826 0.398104
v 0.416130 0.220648 0.381150
v 0.416130 0.220648 0.381150
v 0.493916 0.041826 0.815355
v 0.547688 0.220648 0.798401
v 0.493916 0.041826 0.815355
v 0.547688 0.220648 0.798401
vt 0.781250 0.843750
vt 0.781250 0.843750
vt 0.781250 0.890625
vt 0.781250 0.890625
vt 0.671875 0.843750
vt 0.671875 0.890625
vt 0.890625 0.843750
vt 0.890625 0.843750
vt 0.890625 0.890625
vt 0.890625 0.890625
vt 0.781250 1.000000
vt 0.781250 1.000000
vt 0.781250 0.890625
vt 0.781250 0.890625
vt 0.781250 1.000000
vt 0.781250 1.000000
vn 0.0000 0.0000 -0.9537
vn -0.3007 0.0000 -0.9537
vn 0.9096 -0.3007 -0.2868
vn 0.0000 0.0000 0.9537
vn 0.3007 0.0000 0.9537
vn -0.9096 0.3007 0.2868
vn 0.0000 0.0000 -0.0904
vn 0.2867 0.9537 -0.0904
vn 0.0000 0.0000 -0.0905
vn 0.2868 0.9537 -0.0905
vn 0.0000 0.0000 0.0905
vn -0.2867 -0.9537 0.0905
vn 0.0000 0.0000 0.0904
vn -0.2868 -0.9537 0.0904
usemtl m_a085eca0-2f46-2a7a-af9c-d767f7f5245e
s 1
f 49/97/37 50/98/38 51/99/37 52/100/38
f 53/101/39 49/97/39 52/100/39 54/102/39
f 55/103/40 53/104/41 54/105/40 56/106/41
f 50/98/42 55/103/42 56/106/42 51/99/42
f 56/107/43 54/108/44 52/100/45 51/99/46
f 50/109/47 49/110/48 53/111/49 55/112/50
o cube.027
v 0.490110 0.043706 0.823108
v 0.205868 0.137676 0.912730
v 0.259641 0.316498 0.895775
v 0.543883 0.222528 0.806154
v 0.490110 0.043706 0.823108
v 0.543883 0.222528 0.806154
v 0.205868 0.137676 0.912730
v 0.259641 0.316498 0.895775
vt 0.000000 0.890625
vt 0.078125 0.890625
vt 0.078125 0.937500
vt 0.000000 0.937500
vt 0.000000 0.890625
vt 0.000000 0.937500
vt 0.078125 0.890625
vt 0.156250 0.890625
vt 0.156250 0.937500
vt 0.078125 0.937500
vt 0.156250 0.937500
vt 0.078125 0.937500
vt 0.078125 0.937500
vt 0.156250 0.937500
vn -0.3007 -0.0000 -0.9537
vn 0.0000 0.0000 -0.2867
vn 0.9096 -0.3007 -0.2867
vn 0.0000 0.0000 -0.2868
vn 0.9096 -0.3007 -0.2868
vn 0.3007 0.0000 0.9537
vn 0.0000 0.0000 0.2868
vn -0.9096 0.3007 0.2868
vn 0.2868 0.9537 -0.0904
vn 0.0000 0.0000 -0.0905
vn 0.2867 0.9537 -0.0905
vn 0.0000 0.0000 -0.0904
vn -0.2867 -0.9537 0.0904
vn 0.0000 0.0000 0.0905
vn -0.2868 -0.9537 0.0905
vn 0.0000 0.0000 0.0904
usemtl m_a085eca0-2f46-2a7a-af9c-d767f7f5245e
s 1
f 57/113/51 58/114/51 59/115/51 60/116/51
f 61/117/52 57/113/53 60/116/54 62/118/55
f 63/119/56 61/120/56 62/121/56 64/122/56
f 58/114/57 63/119/58 64/122/57 59/115/58
f 64/122/59 62/118/60 60/116/61 59/115/62
f 58/123/63 57/124/64 61/125/65 63/126/66
o cube.028
v 0.354793 0.043706 0.393936
v 0.070550 0.137676 0.483557
v 0.124323 0.316498 0.466603
v 0.408565 0.222528 0.376981
v 0.354793 0.043706 0.393936
v 0.408565 0.222528 0.376981
v 0.070550 0.137676 0.483557
v 0.124323 0.316498 0.466603
vt 0.000000 0.953125
vt 0.078125 0.953125
vt 0.078125 1.000000
vt 0.000000 1.000000
vt 0.000000 0.953125
vt 0.000000 1.000000
vt 0.078125 0.953125
vt 0.156250 0.953125
vt 0.156250 1.000000
vt 0.078125 1.000000
vt 0.156250 1.000000
vt 0.078125 1.000000
vt 0.078125 1.000000
vt 0.156250 1.000000
vn -0.3007 -0.0000 -0.9537
vn 0.0000 0.0000 -0.2867
vn 0.9096 -0.3007 -0.2867
vn 0.0000 0.0000 -0.2868
vn 0.9096 -0.3007 -0.2868
vn 0.3007 0.0000 0.9537
vn 0.0000 0.0000 0.2868
vn -0.9096 0.3007 0.2868
vn 0.2868 0.9537 -0.0904
vn 0.0000 0.0000 -0.0905
vn 0.2867 0.9537 -0.0905
vn 0.0000 0.0000 -0.0904
vn -0.2867 -0.9537 0.0904
vn 0.0000 0.0000 0.0905
vn -0.2868 -0.9537 0.0905
vn 0.0000 0.0000 0.0904
usemtl m_a085eca0-2f46-2a7a-af9c-d767f7f5245e
s 1
f 65/127/67 66/128/67 67/129/67 68/130/67
f 69/131/68 65/127/69 68/130/70 70/132/71
f 71/133/72 69/134/72 70/135/72 72/136/72
f 66/128/73 71/133/74 72/136/73 67/129/74
f 72/136/75 70/132/76 68/130/77 67/129/78
f 66/137/79 65/138/80 69/139/81 71/140/82
o cube.029
v 0.066745 0.139556 0.491310
v 0.066745 0.139556 0.491310
v 0.120517 0.318378 0.474356
v 0.120517 0.318378 0.474356
v 0.198303 0.139556 0.908561
v 0.252076 0.318378 0.891607
v 0.198303 0.139556 0.908561
v 0.252076 0.318378 0.891607
vt 0.718750 0.218750
vt 0.718750 0.218750
vt 0.718750 0.265625
vt 0.718750 0.265625
vt 0.609375 0.218750
vt 0.609375 0.265625
vt 0.828125 0.218750
vt 0.828125 0.218750
vt 0.828125 0.265625
vt 0.828125 0.265625
vt 0.718750 0.375000
vt 0.718750 0.375000
vt 0.718750 0.265625
vt 0.718750 0.265625
vt 0.718750 0.375000
vt 0.718750 0.375000
vn 0.0000 0.0000 -0.9537
vn -0.3007 0.0000 -0.9537
vn 0.9096 -0.3007 -0.2868
vn 0.0000 0.0000 0.9537
vn 0.3007 0.0000 0.9537
vn -0.9096 0.3007 0.2868
vn 0.0000 0.0000 -0.0904
vn 0.2867 0.9537 -0.0904
vn 0.0000 0.0000 -0.0905
vn 0.2868 0.9537 -0.0905
vn 0.0000 0.0000 0.0905
vn -0.2867 -0.9537 0.0905
vn 0.0000 0.0000 0.0904
vn -0.2868 -0.9537 0.0904
usemtl m_a085eca0-2f46-2a7a-af9c-d767f7f5245e
s 1
f 73/141/83 74/142/84 75/143/83 76/144/84
f 77/145/85 73/141/85 76/144/85 78/146/85
f 79/147/86 77/148/87 78/149/86 80/150/87
f 74/142/88 79/147/88 80/150/88 75/143/88
f 80/151/89 78/152/90 76/144/91 75/143/92
f 74/153/93 73/154/94 77/155/95 79/156/96
o yolk
v 0.339024 0.203033 0.503761
v 0.225327 0.240621 0.539609
v 0.243251 0.300229 0.533958
v 0.356948 0.262640 0.498109
v 0.376612 0.203033 0.622975
v 0.394536 0.262640 0.617324
v 0.262915 0.240621 0.658824
v 0.280839 0.300229 0.653172
vt 0.703125 0.328125
vt 0.734375 0.328125
vt 0.734375 0.343750
vt 0.703125 0.343750
vt 0.671875 0.328125
vt 0.671875 0.343750
vt 0.765625 0.328125
vt 0.796875 0.328125
vt 0.796875 0.343750
vt 0.765625 0.343750
vt 0.734375 0.375000
vt 0.703125 0.375000
vt 0.765625 0.343750
vt 0.734375 0.343750
vt 0.734375 0.375000
vt 0.765625 0.375000
vn -0.3007 0.0000 -0.9537
vn 0.9096 -0.3007 -0.2868
vn 0.3007 0.0000 0.9537
vn -0.9096 0.3007 0.2868
vn 0.2868 0.9537 -0.0904
vn -0.2868 -0.9537 0.0904
usemtl m_a085eca0-2f46-2a7a-af9c-d767f7f5245e
s 1
f 81/157/97 82/158/97 83/159/97 84/160/97
f 85/161/98 81/157/98 84/160/98 86/162/98
f 87/163/99 85/164/99 86/165/99 88/166/99
f 82/158/100 87/163/100 88/166/100 83/159/100
f 88/167/101 86/168/101 84/160/101 83/159/101
f 82/169/102 81/170/102 85/171/102 87/172/102
o cube.030
v 0.910020 0.140259 0.172310
v 0.612783 0.111312 0.080286
v 0.587344 0.295491 0.104517
v 0.884581 0.324438 0.196542
v 0.788705 0.069000 0.586570
v 0.763266 0.253179 0.610802
v 0.491468 0.040053 0.494545
v 0.466029 0.224232 0.518777
vt 0.109375 0.312500
vt 0.187500 0.312500
vt 0.187500 0.359375
vt 0.109375 0.359375
vt 0.000000 0.312500
vt 0.000000 0.359375
vt 0.296875 0.312500
vt 0.375000 0.312500
vt 0.375000 0.359375
vt 0.296875 0.359375
vt 0.187500 0.468750
vt 0.109375 0.468750
vt 0.265625 0.359375
vt 0.187500 0.359375
vt 0.187500 0.468750
vt 0.265625 0.468750
vn 0.2773 0.1629 -0.9469
vn 0.9512 0.0926 0.2945
vn -0.2773 -0.1629 0.9469
vn -0.9512 -0.0926 -0.2945
vn -0.1357 0.9823 0.1292
vn 0.1357 -0.9823 -0.1292
usemtl m_a085eca0-2f46-2a7a-af9c-d767f7f5245e
s 1
f 89/173/103 90/174/103 91/175/103 92/176/103
f 93/177/104 89/173/104 92/176/104 94/178/104
f 95/179/105 93/180/105 94/181/105 96/182/105
f 90/174/106 95/179/106 96/182/106 91/175/106
f 96/183/107 94/184/107 92/176/107 91/175/107
f 90/185/108 89/186/108 93/187/108 95/188/108
o cube.031
v 0.915965 0.140838 0.174151
v 0.915965 0.140838 0.174151
v 0.890526 0.325017 0.198382
v 0.890526 0.325017 0.198382
v 0.794650 0.069579 0.588410
v 0.769211 0.253758 0.612642
v 0.794650 0.069579 0.588410
v 0.769211 0.253758 0.612642
vt 0.109375 0.140625
vt 0.109375 0.140625
vt 0.109375 0.187500
vt 0.109375 0.187500
vt 0.000000 0.140625
vt 0.000000 0.187500
vt 0.218750 0.140625
vt 0.218750 0.140625
vt 0.218750 0.187500
vt 0.218750 0.187500
vt 0.109375 0.296875
vt 0.109375 0.296875
vt 0.109375 0.187500
vt 0.109375 0.187500
vt 0.109375 0.296875
vt 0.109375 0.296875
vn 0.0000 0.0000 -0.9469
vn 0.2773 0.1629 -0.9469
vn 0.9512 0.0926 0.2945
vn 0.0000 0.0000 0.9469
vn -0.2773 -0.1629 0.9469
vn -0.9512 -0.0926 -0.2945
vn 0.0000 0.0000 0.1292
vn -0.1357 0.9823 0.1292
vn 0.0000 0.0000 -0.1292
vn 0.1357 -0.9823 -0.1292
vn 0.0000 0.0000 -0.1293
vn 0.1357 -0.9823 -0.1293
usemtl m_a085eca0-2f46-2a7a-af9c-d767f7f5245e
s 1
f 97/189/109 98/190/110 99/191/109 100/192/110
f 101/193/111 97/189/111 100/192/111 102/194/111
f 103/195/112 101/196/113 102/197/112 104/198/113
f 98/190/114 103/195/114 104/198/114 99/191/114
f 104/199/115 102/200/116 100/192/115 99/191/116
f 98/201/117 97/202/118 101/203/119 103/204/120
o cube.032
v 0.606839 0.110733 0.078445
v 0.606839 0.110733 0.078445
v 0.581400 0.294912 0.102677
v 0.581400 0.294912 0.102677
v 0.485524 0.039474 0.492705
v 0.460085 0.223653 0.516937
v 0.485524 0.039474 0.492705
v 0.460085 0.223653 0.516937
vt 0.390625 0.171875
vt 0.390625 0.171875
vt 0.390625 0.218750
vt 0.390625 0.218750
vt 0.281250 0.171875
vt 0.281250 0.218750
vt 0.500000 0.171875
vt 0.500000 0.171875
vt 0.500000 0.218750
vt 0.500000 0.218750
vt 0.390625 0.328125
vt 0.390625 0.328125
vt 0.390625 0.218750
vt 0.390625 0.218750
vt 0.390625 0.328125
vt 0.390625 0.328125
vn 0.0000 0.0000 -0.9469
vn 0.2773 0.1629 -0.9469
vn 0.9512 0.0926 0.2945
vn 0.0000 0.0000 0.9469
vn -0.2773 -0.1629 0.9469
vn -0.9512 -0.0926 -0.2945
vn 0.0000 0.0000 0.1292
vn -0.1357 0.9823 0.1292
vn 0.0000 0.0000 -0.1292
vn 0.1357 -0.9823 -0.1292
vn 0.0000 0.0000 -0.1293
vn 0.1357 -0.9823 -0.1293
usemtl m_a085eca0-2f46-2a7a-af9c-d767f7f5245e
s 1
f 105/205/121 106/206/122 107/207/121 108/208/122
f 109/209/123 105/205/123 108/208/123 110/210/123
f 111/211/124 109/212/125 110/213/124 112/214/125
f 106/206/126 111/211/126 112/214/126 107/207/126
f 112/215/127 110/216/128 108/208/127 107/207/128
f 106/217/129 105/218/130 109/219/131 111/220/132
o cube.033
v 0.786972 0.067982 0.592488
v 0.489735 0.039035 0.500463
v 0.464296 0.223214 0.524695
v 0.761533 0.252161 0.616720
v 0.786972 0.067982 0.592488
v 0.761533 0.252161 0.616720
v 0.489735 0.039035 0.500463
v 0.464296 0.223214 0.524695
vt 0.000000 0.703125
vt 0.078125 0.703125
vt 0.078125 0.750000
vt 0.000000 0.750000
vt 0.000000 0.703125
vt 0.000000 0.750000
vt 0.078125 0.703125
vt 0.156250 0.703125
vt 0.156250 0.750000
vt 0.078125 0.750000
vt 0.156250 0.750000
vt 0.078125 0.750000
vt 0.078125 0.750000
vt 0.156250 0.750000
vn 0.2773 0.1629 -0.9469
vn 0.0000 0.0000 0.2945
vn 0.9512 0.0926 0.2945
vn -0.2773 -0.1629 0.9469
vn 0.0000 0.0000 -0.2945
vn -0.9511 -0.0926 -0.2945
vn -0.1356 0.9823 0.1292
vn 0.0000 0.0000 0.1292
vn -0.1357 0.9823 0.1292
vn 0.1357 -0.9823 -0.1293
vn 0.0000 0.0000 -0.1292
vn 0.1356 -0.9823 -0.1292
vn 0.0000 0.0000 -0.1293
usemtl m_a085eca0-2f46-2a7a-af9c-d767f7f5245e
s 1
f 113/221/133 114/222/133 115/223/133 116/224/133
f 117/225/134 113/221/135 116/224/134 118/226/135
f 119/227/136 117/228/136 118/229/136 120/230/136
f 114/222/137 119/227/138 120/230/137 115/223/138
f 120/230/139 118/226/140 116/224/141 115/223/140
f 114/231/142 113/232/143 117/233/144 119/234/145
o cube.034
v 0.911753 0.141277 0.166392
v 0.614516 0.112330 0.074368
v 0.589078 0.296509 0.098599
v 0.886315 0.325456 0.190624
v 0.911753 0.141277 0.166392
v 0.886315 0.325456 0.190624
v 0.614516 0.112330 0.074368
v 0.589078 0.296509 0.098599
vt 0.000000 0.828125
vt 0.078125 0.828125
vt 0.078125 0.875000
vt 0.000000 0.875000
vt 0.000000 0.828125
vt 0.000000 0.875000
vt 0.078125 0.828125
vt 0.156250 0.828125
vt 0.156250 0.875000
vt 0.078125 0.875000
vt 0.156250 0.875000
vt 0.078125 0.875000
vt 0.078125 0.875000
vt 0.156250 0.875000
vn 0.2773 0.1629 -0.9469
vn 0.0000 0.0000 0.2945
vn 0.9512 0.0926 0.2945
vn -0.2773 -0.1629 0.9469
vn 0.0000 0.0000 -0.2945
vn -0.9511 -0.0926 -0.2945
vn -0.1356 0.9823 0.1292
vn 0.0000 0.0000 0.1292
vn -0.1357 0.9823 0.1292
vn 0.1357 -0.9823 -0.1293
vn 0.0000 0.0000 -0.1292
vn 0.1356 -0.9823 -0.1292
vn 0.0000 0.0000 -0.1293
usemtl m_a085eca0-2f46-2a7a-af9c-d767f7f5245e
s 1
f 121/235/146 122/236/146 123/237/146 124/238/146
f 125/239/147 121/235/148 124/238/147 126/240/148
f 127/241/149 125/242/149 126/243/149 128/244/149
f 122/236/150 127/241/151 128/244/150 123/237/151
f 128/244/152 126/240/153 124/238/154 123/237/153
f 122/245/155 121/246/156 125/247/157 127/248/158
o yolk.000
v 0.776198 0.251370 0.251243
v 0.657303 0.239791 0.214433
v 0.648824 0.301184 0.222510
v 0.767718 0.312763 0.259320
v 0.741537 0.231010 0.369603
v 0.733057 0.292403 0.377680
v 0.622642 0.219431 0.332793
v 0.614162 0.280824 0.340870
vt 0.703125 0.281250
vt 0.734375 0.281250
vt 0.734375 0.296875
vt 0.703125 0.296875
vt 0.671875 0.281250
vt 0.671875 0.296875
vt 0.765625 0.281250
vt 0.796875 0.281250
vt 0.796875 0.296875
vt 0.765625 0.296875
vt 0.734375 0.328125
vt 0.703125 0.328125
vt 0.765625 0.296875
vt 0.734375 0.296875
vt 0.734375 0.328125
vt 0.765625 0.328125
vn 0.2773 0.1629 -0.9469
vn 0.9512 0.0926 0.2945
vn -0.2773 -0.1629 0.9469
vn -0.9512 -0.0926 -0.2945
vn -0.1357 0.9823 0.1292
vn 0.1357 -0.9823 -0.1292
usemtl m_a085eca0-2f46-2a7a-af9c-d767f7f5245e
s 1
f 129/249/159 130/250/159 131/251/159 132/252/159
f 133/253/160 129/249/160 132/252/160 134/254/160
f 135/255/161 133/256/161 134/257/161 136/258/161
f 130/250/162 135/255/162 136/258/162 131/251/162
f 136/259/163 134/260/163 132/252/163 131/251/163
f 130/261/164 129/262/164 133/263/164 135/264/164
o shattered
v 0.437500 0.065625 0.125000
v 0.125000 0.065625 0.125000
v 0.125000 0.065625 0.125000
v 0.437500 0.065625 0.125000
v 0.437500 0.065625 0.437500
v 0.437500 0.065625 0.437500
v 0.125000 0.065625 0.437500
v 0.125000 0.065625 0.437500
vt 0.468750 0.343750
vt 0.546875 0.343750
vt 0.546875 0.343750
vt 0.468750 0.343750
vt 0.390625 0.343750
vt 0.390625 0.343750
vt 0.625000 0.343750
vt 0.703125 0.343750
vt 0.703125 0.343750
vt 0.625000 0.343750
vt 0.546875 0.421875
vt 0.468750 0.421875
vt 0.625000 0.343750
vt 0.546875 0.343750
vt 0.546875 0.421875
vt 0.625000 0.421875
vn 0.0000 -0.0000 -1.0000
vn 0.9096 -0.3007 -0.2868
vn 0.0000 0.0000 1.0000
vn -0.9096 0.3007 0.2868
vn 0.0000 1.0000 -0.0000
vn 0.0000 -1.0000 0.0000
usemtl m_a085eca0-2f46-2a7a-af9c-d767f7f5245e
s 1
f 137/265/165 138/266/165 139/267/165 140/268/165
f 141/269/166 137/265/166 140/268/166 142/270/166
f 143/271/167 141/272/167 142/273/167 144/274/167
f 138/266/168 143/271/168 144/274/168 139/267/168
f 144/275/169 142/276/169 140/268/169 139/267/169
f 138/277/170 137/278/170 141/279/170 143/280/170
o shattered.000
v 0.875000 0.065625 0.562500
v 0.562500 0.065625 0.562500
v 0.562500 0.065625 0.562500
v 0.875000 0.065625 0.562500
v 0.875000 0.065625 0.875000
v 0.875000 0.065625 0.875000
v 0.562500 0.065625 0.875000
v 0.562500 0.065625 0.875000
vt 0.718750 0.390625
vt 0.796875 0.390625
vt 0.796875 0.390625
vt 0.718750 0.390625
vt 0.640625 0.390625
vt 0.640625 0.390625
vt 0.875000 0.390625
vt 0.953125 0.390625
vt 0.953125 0.390625
vt 0.875000 0.390625
vt 0.796875 0.468750
vt 0.718750 0.468750
vt 0.875000 0.390625
vt 0.796875 0.390625
vt 0.796875 0.468750
vt 0.875000 0.468750
vn 0.0000 -0.0000 -1.0000
vn 0.0000 0.0000 0.0000
vn 0.0000 0.0000 1.0000
vn 0.0000 1.0000 -0.0000
vn 0.0000 -1.0000 0.0000
usemtl m_a085eca0-2f46-2a7a-af9c-d767f7f5245e
s 1
f 145/281/171 146/282/171 147/283/171 148/284/171
f 149/285/172 145/281/172 148/284/172 150/286/172
f 151/287/173 149/288/173 150/289/173 152/290/173
f 146/282/172 151/287/172 152/290/172 147/283/172
f 152/291/174 150/292/174 148/284/174 147/283/174
f 146/293/175 145/294/175 149/295/175 151/296/175
