# Blender v3.6.1 OBJ File: ''
# www.blender.org
mtllib perogies.mtl
o cube
v 0.812500 0.006250 0.187500
v 0.187500 0.006250 0.187500
v 0.187500 0.006250 0.187500
v 0.812500 0.006250 0.187500
v 0.812500 0.006250 0.812500
v 0.812500 0.006250 0.812500
v 0.187500 0.006250 0.812500
v 0.187500 0.006250 0.812500
vt 0.156250 0.843750
vt 0.312500 0.843750
vt 0.312500 0.843750
vt 0.156250 0.843750
vt 0.000000 0.843750
vt 0.000000 0.843750
vt 0.468750 0.843750
vt 0.625000 0.843750
vt 0.625000 0.843750
vt 0.468750 0.843750
vt 0.312500 1.000000
vt 0.156250 1.000000
vt 0.468750 0.843750
vt 0.312500 0.843750
vt 0.312500 1.000000
vt 0.468750 1.000000
vn 0.0000 -0.0000 -1.0000
vn 0.0000 0.0000 0.0000
vn 0.0000 0.0000 1.0000
vn 0.0000 1.0000 -0.0000
vn 0.0000 -1.0000 0.0000
usemtl m_9b8e1c94-63e6-3a99-a3c2-cdca3414a776
s 1
f 1/1/1 2/2/1 3/3/1 4/4/1
f 5/5/2 1/1/2 4/4/2 6/6/2
f 7/7/3 5/8/3 6/9/3 8/10/3
f 2/2/2 7/7/2 8/10/2 3/3/2
f 8/11/4 6/12/4 4/4/4 3/3/4
f 2/13/5 1/14/5 5/15/5 7/16/5
o cube.000
v 0.322195 0.007138 0.414112
v 0.281365 0.051333 0.431024
v 0.363025 0.139721 0.397199
v 0.403855 0.095527 0.380287
v 0.417866 0.007138 0.645082
v 0.499526 0.095527 0.611257
v 0.377036 0.051333 0.661994
v 0.458696 0.139721 0.628169
vt 0.250000 0.718750
vt 0.265625 0.718750
vt 0.265625 0.750000
vt 0.250000 0.750000
vt 0.187500 0.718750
vt 0.187500 0.750000
vt 0.328125 0.718750
vt 0.343750 0.718750
vt 0.343750 0.750000
vt 0.328125 0.750000
vt 0.265625 0.812500
vt 0.250000 0.812500
vt 0.281250 0.750000
vt 0.265625 0.750000
vt 0.265625 0.812500
vt 0.281250 0.812500
vn -0.3827 -0.0000 -0.9239
vn 0.6533 -0.7071 -0.2706
vn 0.3827 0.0000 0.9239
vn -0.6533 0.7071 0.2706
vn 0.6533 0.7071 -0.2706
vn -0.6533 -0.7071 0.2706
usemtl m_9b8e1c94-63e6-3a99-a3c2-cdca3414a776
s 1
f 9/17/6 10/18/6 11/19/6 12/20/6
f 13/21/7 9/17/7 12/20/7 14/22/7
f 15/23/8 13/24/8 14/25/8 16/26/8
f 10/18/9 15/23/9 16/26/9 11/19/9
f 16/27/10 14/28/10 12/20/10 11/19/10
f 10/29/11 9/30/11 13/31/11 15/32/11
o cube.001
v 0.289821 0.029235 0.393697
v 0.289821 0.029235 0.393697
v 0.371481 0.117624 0.359872
v 0.371481 0.117624 0.359872
v 0.409410 0.029235 0.682409
v 0.491070 0.117624 0.648584
v 0.409410 0.029235 0.682409
v 0.491070 0.117624 0.648584
vt 0.078125 0.828125
vt 0.078125 0.828125
vt 0.078125 0.859375
vt 0.078125 0.859375
vt 0.000000 0.828125
vt 0.000000 0.859375
vt 0.156250 0.828125
vt 0.156250 0.828125
vt 0.156250 0.859375
vt 0.156250 0.859375
vt 0.078125 0.937500
vt 0.078125 0.937500
vt 0.078125 0.859375
vt 0.078125 0.859375
vt 0.078125 0.937500
vt 0.078125 0.937500
vn 0.0000 0.0000 -0.9239
vn -0.3827 0.0000 -0.9239
vn 0.6533 -0.7071 -0.2706
vn 0.0000 0.0000 0.9239
vn 0.3827 0.0000 0.9239
vn -0.6533 0.7071 0.2706
vn 0.0000 0.0000 -0.2706
vn 0.6533 0.7071 -0.2706
vn 0.0000 0.0000 -0.2705
vn 0.6533 0.7071 -0.2705
vn 0.0000 0.0000 0.2706
vn -0.6533 -0.7071 0.2706
usemtl m_9b8e1c94-63e6-3a99-a3c2-cdca3414a776
s 1
f 17/33/12 18/34/13 19/35/12 20/36/13
f 21/37/14 17/33/14 20/36/14 22/38/14
f 23/39/15 21/40/16 22/41/15 24/42/16
f 18/34/17 23/39/17 24/42/17 19/35/17
f 24/43/18 22/44/19 20/36/20 19/35/21
f 18/45/22 17/46/23 21/47/22 23/48/23
o cube.002
v 0.373233 0.106575 0.392971
v 0.373233 0.106575 0.392971
v 0.414063 0.150769 0.376059
v 0.414063 0.150769 0.376059
v 0.468904 0.106575 0.623941
v 0.509734 0.150769 0.607029
v 0.468904 0.106575 0.623941
v 0.509734 0.150769 0.607029
vt 0.250000 0.828125
vt 0.250000 0.828125
vt 0.250000 0.843750
vt 0.250000 0.843750
vt 0.187500 0.828125
vt 0.187500 0.843750
vt 0.312500 0.828125
vt 0.312500 0.828125
vt 0.312500 0.843750
vt 0.312500 0.843750
vt 0.250000 0.906250
vt 0.250000 0.906250
vt 0.250000 0.843750
vt 0.250000 0.843750
vt 0.250000 0.906250
vt 0.250000 0.906250
vn 0.0000 0.0000 -0.9239
vn -0.3827 0.0000 -0.9239
vn 0.6533 -0.7071 -0.2706
vn 0.0000 0.0000 0.9239
vn 0.3827 0.0000 0.9239
vn -0.6533 0.7071 0.2706
vn 0.0000 0.0000 -0.2706
vn 0.6533 0.7071 -0.2706
vn 0.0000 0.0000 -0.2705
vn 0.6533 0.7071 -0.2705
vn 0.0000 0.0000 0.2706
vn -0.6533 -0.7071 0.2706
usemtl m_9b8e1c94-63e6-3a99-a3c2-cdca3414a776
s 1
f 25/49/24 26/50/25 27/51/24 28/52/25
f 29/53/26 25/49/26 28/52/26 30/54/26
f 31/55/27 29/56/28 30/57/27 32/58/28
f 26/50/29 31/55/29 32/58/29 27/51/29
f 32/59/30 30/60/31 28/52/32 27/51/33
f 26/61/34 25/62/35 29/63/34 31/64/35
o cube.003
v 0.416437 0.007138 0.408900
v 0.375607 0.051333 0.425813
v 0.457267 0.139721 0.391988
v 0.498097 0.095527 0.375075
v 0.512108 0.007138 0.639870
v 0.593768 0.095527 0.606045
v 0.471278 0.051333 0.656783
v 0.552938 0.139721 0.622958
vt 0.062500 0.718750
vt 0.078125 0.718750
vt 0.078125 0.750000
vt 0.062500 0.750000
vt 0.000000 0.718750
vt 0.000000 0.750000
vt 0.140625 0.718750
vt 0.156250 0.718750
vt 0.156250 0.750000
vt 0.140625 0.750000
vt 0.078125 0.812500
vt 0.062500 0.812500
vt 0.093750 0.750000
vt 0.078125 0.750000
vt 0.078125 0.812500
vt 0.093750 0.812500
vn -0.3827 0.0000 -0.9239
vn 0.6533 -0.7071 -0.2706
vn 0.3827 0.0000 0.9239
vn -0.6533 0.7071 0.2706
vn 0.6533 0.7071 -0.2706
vn -0.6533 -0.7071 0.2706
usemtl m_9b8e1c94-63e6-3a99-a3c2-cdca3414a776
s 1
f 33/65/36 34/66/36 35/67/36 36/68/36
f 37/69/37 33/65/37 36/68/37 38/70/37
f 39/71/38 37/72/38 38/73/38 40/74/38
f 34/66/39 39/71/39 40/74/39 35/67/39
f 40/75/40 38/76/40 36/68/40 35/67/40
f 34/77/41 33/78/41 37/79/41 39/80/41
o cube.004
v 0.384063 0.029235 0.388485
v 0.384063 0.029235 0.388485
v 0.465723 0.117624 0.354660
v 0.465723 0.117624 0.354660
v 0.503652 0.029235 0.677198
v 0.585312 0.117624 0.643373
v 0.503652 0.029235 0.677198
v 0.585312 0.117624 0.643373
vt 0.078125 0.859375
vt 0.078125 0.859375
vt 0.078125 0.890625
vt 0.078125 0.890625
vt 0.000000 0.859375
vt 0.000000 0.890625
vt 0.156250 0.859375
vt 0.156250 0.859375
vt 0.156250 0.890625
vt 0.156250 0.890625
vt 0.078125 0.968750
vt 0.078125 0.968750
vt 0.078125 0.890625
vt 0.078125 0.890625
vt 0.078125 0.968750
vt 0.078125 0.968750
vn 0.0000 0.0000 -0.9239
vn -0.3827 0.0000 -0.9239
vn 0.6533 -0.7071 -0.2706
vn 0.0000 0.0000 0.9239
vn 0.3827 0.0000 0.9239
vn -0.6533 0.7071 0.2706
vn 0.0000 0.0000 -0.2706
vn 0.6533 0.7071 -0.2706
vn 0.0000 0.0000 -0.2705
vn 0.6533 0.7071 -0.2705
vn 0.0000 0.0000 0.2706
vn -0.6533 -0.7071 0.2706
usemtl m_9b8e1c94-63e6-3a99-a3c2-cdca3414a776
s 1
f 41/81/42 42/82/43 43/83/42 44/84/43
f 45/85/44 41/81/44 44/84/44 46/86/44
f 47/87/45 45/88/46 46/89/45 48/90/46
f 42/82/47 47/87/47 48/90/47 43/83/47
f 48/91/48 46/92/49 44/84/50 43/83/51
f 42/93/52 41/94/53 45/95/52 47/96/53
o cube.005
v 0.467475 0.106575 0.387760
v 0.467475 0.106575 0.387760
v 0.508305 0.150769 0.370847
v 0.508305 0.150769 0.370847
v 0.563146 0.106575 0.618730
v 0.603976 0.150769 0.601817
v 0.563146 0.106575 0.618730
v 0.603976 0.150769 0.601817
vt 0.062500 0.812500
vt 0.062500 0.812500
vt 0.062500 0.828125
vt 0.062500 0.828125
vt 0.000000 0.812500
vt 0.000000 0.828125
vt 0.125000 0.812500
vt 0.125000 0.812500
vt 0.125000 0.828125
vt 0.125000 0.828125
vt 0.062500 0.890625
vt 0.062500 0.890625
vt 0.062500 0.828125
vt 0.062500 0.828125
vt 0.062500 0.890625
vt 0.062500 0.890625
vn 0.0000 0.0000 -0.9239
vn -0.3827 0.0000 -0.9239
vn 0.6533 -0.7071 -0.2706
vn 0.0000 0.0000 0.9239
vn 0.3827 0.0000 0.9239
vn -0.6533 0.7071 0.2706
vn 0.0000 0.0000 -0.2706
vn 0.6533 0.7071 -0.2706
vn 0.0000 0.0000 -0.2705
vn 0.6533 0.7071 -0.2705
vn 0.0000 0.0000 0.2706
vn -0.6533 -0.7071 0.2706
usemtl m_9b8e1c94-63e6-3a99-a3c2-cdca3414a776
s 1
f 49/97/54 50/98/55 51/99/54 52/100/55
f 53/101/56 49/97/56 52/100/56 54/102/56
f 55/103/57 53/104/58 54/105/57 56/106/58
f 50/98/59 55/103/59 56/106/59 51/99/59
f 56/107/60 54/108/61 52/100/62 51/99/63
f 50/109/64 49/110/65 53/111/64 55/112/65
o cube.006
v 0.497309 0.007337 0.426139
v 0.492276 0.069599 0.428224
v 0.607322 0.080493 0.380570
v 0.612355 0.018231 0.378486
v 0.592980 0.007337 0.657109
v 0.708025 0.018231 0.609456
v 0.587947 0.069599 0.659194
v 0.702993 0.080493 0.611540
vt 0.156250 0.750000
vt 0.171875 0.750000
vt 0.171875 0.781250
vt 0.156250 0.781250
vt 0.093750 0.750000
vt 0.093750 0.781250
vt 0.234375 0.750000
vt 0.250000 0.750000
vt 0.250000 0.781250
vt 0.234375 0.781250
vt 0.171875 0.843750
vt 0.156250 0.843750
vt 0.187500 0.781250
vt 0.171875 0.781250
vt 0.171875 0.843750
vt 0.187500 0.843750
vn -0.3827 0.0000 -0.9239
vn 0.0805 -0.9962 -0.0334
vn 0.3827 -0.0000 0.9239
vn -0.0805 0.9962 0.0334
vn 0.9204 0.0872 -0.3812
vn -0.9204 -0.0872 0.3812
usemtl m_9b8e1c94-63e6-3a99-a3c2-cdca3414a776
s 1
f 57/113/66 58/114/66 59/115/66 60/116/66
f 61/117/67 57/113/67 60/116/67 62/118/67
f 63/119/68 61/120/68 62/121/68 64/122/68
f 58/114/69 63/119/69 64/122/69 59/115/69
f 64/123/70 62/124/70 60/116/70 59/115/70
f 58/125/71 57/126/71 61/127/71 63/128/71
o cube.007
v 0.482834 0.038468 0.398310
v 0.482834 0.038468 0.398310
v 0.597879 0.049362 0.350657
v 0.597879 0.049362 0.350657
v 0.602422 0.038468 0.687023
v 0.717468 0.049362 0.639369
v 0.602422 0.038468 0.687023
v 0.717468 0.049362 0.639369
vt 0.078125 0.890625
vt 0.078125 0.890625
vt 0.078125 0.921875
vt 0.078125 0.921875
vt 0.000000 0.890625
vt 0.000000 0.921875
vt 0.156250 0.890625
vt 0.156250 0.890625
vt 0.156250 0.921875
vt 0.156250 0.921875
vt 0.078125 1.000000
vt 0.078125 1.000000
vt 0.078125 0.921875
vt 0.078125 0.921875
vt 0.078125 1.000000
vt 0.078125 1.000000
vn 0.0000 0.0000 -0.9239
vn -0.3826 -0.0000 -0.9239
vn -0.3827 0.0000 -0.9239
vn 0.0805 -0.9962 -0.0334
vn 0.0000 0.0000 0.9239
vn 0.3827 -0.0000 0.9239
vn -0.0805 0.9962 0.0334
vn 0.0000 0.0000 -0.3812
vn 0.9204 0.0872 -0.3812
vn 0.0000 0.0000 0.3813
vn -0.9203 -0.0872 0.3813
vn 0.0000 0.0000 0.3812
vn -0.9204 -0.0872 0.3812
usemtl m_9b8e1c94-63e6-3a99-a3c2-cdca3414a776
s 1
f 65/129/72 66/130/73 67/131/72 68/132/74
f 69/133/75 65/129/75 68/132/75 70/134/75
f 71/135/76 69/136/77 70/137/76 72/138/77
f 66/130/78 71/135/78 72/138/78 67/131/78
f 72/139/79 70/140/80 68/132/79 67/131/80
f 66/141/81 65/142/82 69/143/83 71/144/84
o cube.008
v 0.595457 0.048001 0.385485
v 0.595457 0.048001 0.385485
v 0.652980 0.053448 0.361658
v 0.652980 0.053448 0.361658
v 0.691128 0.048001 0.616455
v 0.748651 0.053448 0.592628
v 0.691128 0.048001 0.616455
v 0.748651 0.053448 0.592628
vt 0.062500 0.921875
vt 0.062500 0.921875
vt 0.062500 0.937500
vt 0.062500 0.937500
vt 0.000000 0.921875
vt 0.000000 0.937500
vt 0.125000 0.921875
vt 0.125000 0.921875
vt 0.125000 0.937500
vt 0.125000 0.937500
vt 0.062500 1.000000
vt 0.062500 1.000000
vt 0.062500 0.937500
vt 0.062500 0.937500
vt 0.062500 1.000000
vt 0.062500 1.000000
vn 0.0000 0.0000 -0.9239
vn -0.3826 -0.0000 -0.9239
vn -0.3827 0.0000 -0.9239
vn 0.0805 -0.9962 -0.0334
vn 0.0000 0.0000 0.9239
vn 0.3827 -0.0000 0.9239
vn -0.0805 0.9962 0.0334
vn 0.0000 0.0000 -0.3812
vn 0.9204 0.0872 -0.3812
vn 0.0000 0.0000 0.3813
vn -0.9203 -0.0872 0.3813
vn 0.0000 0.0000 0.3812
vn -0.9204 -0.0872 0.3812
usemtl m_9b8e1c94-63e6-3a99-a3c2-cdca3414a776
s 1
f 73/145/85 74/146/86 75/147/85 76/148/87
f 77/149/88 73/145/88 76/148/88 78/150/88
f 79/151/89 77/152/90 78/153/89 80/154/90
f 74/146/91 79/151/91 80/154/91 75/147/91
f 80/155/92 78/156/93 76/148/92 75/147/93
f 74/157/94 73/158/95 77/159/96 79/160/97
o cube.009
v 0.425502 0.104371 0.438970
v 0.369793 0.087932 0.462046
v 0.354605 0.148231 0.468337
v 0.410314 0.164670 0.445261
v 0.473338 0.104371 0.554455
v 0.458150 0.164670 0.560746
v 0.417628 0.087932 0.577531
v 0.402440 0.148231 0.583822
vt 0.156250 0.703125
vt 0.171875 0.703125
vt 0.171875 0.718750
vt 0.156250 0.718750
vt 0.125000 0.703125
vt 0.125000 0.718750
vt 0.203125 0.703125
vt 0.218750 0.703125
vt 0.218750 0.718750
vt 0.203125 0.718750
vt 0.171875 0.750000
vt 0.156250 0.750000
vt 0.187500 0.718750
vt 0.171875 0.718750
vt 0.171875 0.750000
vt 0.187500 0.750000
vn -0.3827 -0.0000 -0.9239
vn 0.8913 0.2630 -0.3692
vn 0.3827 0.0000 0.9239
vn -0.8913 -0.2630 0.3692
vn -0.2430 0.9648 0.1007
vn 0.2430 -0.9648 -0.1007
usemtl m_9b8e1c94-63e6-3a99-a3c2-cdca3414a776
s 1
f 81/161/98 82/162/98 83/163/98 84/164/98
f 85/165/99 81/161/99 84/164/99 86/166/99
f 87/167/100 85/168/100 86/169/100 88/170/100
f 82/162/101 87/167/101 88/170/101 83/163/101
f 88/171/102 86/172/102 84/164/102 83/163/102
f 82/173/103 81/174/103 85/175/103 87/176/103
o cube.010
v 0.509670 0.085180 0.437931
v 0.455410 0.106556 0.460407
v 0.475159 0.165287 0.452226
v 0.529419 0.143911 0.429751
v 0.557506 0.085180 0.553416
v 0.577255 0.143911 0.545236
v 0.503245 0.106556 0.575892
v 0.522995 0.165287 0.567711
vt 0.093750 0.937500
vt 0.109375 0.937500
vt 0.109375 0.953125
vt 0.093750 0.953125
vt 0.062500 0.937500
vt 0.062500 0.953125
vt 0.140625 0.937500
vt 0.156250 0.937500
vt 0.156250 0.953125
vt 0.140625 0.953125
vt 0.109375 0.984375
vt 0.093750 0.984375
vt 0.125000 0.953125
vt 0.109375 0.953125
vt 0.109375 0.984375
vt 0.125000 0.984375
vn -0.3827 -0.0000 -0.9239
vn 0.8682 -0.3420 -0.3596
vn 0.3827 0.0000 0.9239
vn -0.8682 0.3420 0.3596
vn 0.3160 0.9397 -0.1309
vn -0.3160 -0.9397 0.1309
usemtl m_9b8e1c94-63e6-3a99-a3c2-cdca3414a776
s 1
f 89/177/104 90/178/104 91/179/104 92/180/104
f 93/181/105 89/177/105 92/180/105 94/182/105
f 95/183/106 93/184/106 94/185/106 96/186/106
f 90/178/107 95/183/107 96/186/107 91/179/107
f 96/187/108 94/188/108 92/180/108 91/179/108
f 90/189/109 89/190/109 93/191/109 95/192/109
o cube.011
v 0.665748 0.037500 0.440931
v 0.608006 0.037500 0.464849
v 0.608006 0.100000 0.464849
v 0.665748 0.100000 0.440931
v 0.713584 0.037500 0.556416
v 0.713584 0.100000 0.556416
v 0.655841 0.037500 0.580334
v 0.655841 0.100000 0.580334
vt 0.031250 0.953125
vt 0.046875 0.953125
vt 0.046875 0.968750
vt 0.031250 0.968750
vt 0.000000 0.953125
vt 0.000000 0.968750
vt 0.078125 0.953125
vt 0.093750 0.953125
vt 0.093750 0.968750
vt 0.078125 0.968750
vt 0.046875 1.000000
vt 0.031250 1.000000
vt 0.062500 0.968750
vt 0.046875 0.968750
vt 0.046875 1.000000
vt 0.062500 1.000000
vn -0.3827 0.0000 -0.9239
vn 0.9239 0.0000 -0.3827
vn 0.3827 0.0000 0.9239
vn -0.9239 -0.0000 0.3827
vn 0.0000 1.0000 -0.0000
vn 0.0000 -1.0000 0.0000
usemtl m_9b8e1c94-63e6-3a99-a3c2-cdca3414a776
s 1
f 97/193/110 98/194/110 99/195/110 100/196/110
f 101/197/111 97/193/111 100/196/111 102/198/111
f 103/199/112 101/200/112 102/201/112 104/202/112
f 98/194/113 103/199/113 104/202/113 99/195/113
f 104/203/114 102/204/114 100/196/114 99/195/114
f 98/205/115 97/206/115 101/207/115 103/208/115
