# Blender v3.6.1 OBJ File: ''
# www.blender.org
mtllib stuffed_eggplant.mtl
o cube.685
v 0.718750 -0.000000 0.281250
v 0.281250 -0.000000 0.281250
v 0.281250 0.187500 0.281250
v 0.718750 0.187500 0.281250
v 0.718750 0.000000 0.718750
v 0.718750 0.187500 0.718750
v 0.281250 0.000000 0.718750
v 0.281250 0.187500 0.718750
vt 0.109375 0.843750
vt 0.218750 0.843750
vt 0.218750 0.890625
vt 0.109375 0.890625
vt 0.000000 0.843750
vt 0.000000 0.890625
vt 0.328125 0.843750
vt 0.437500 0.843750
vt 0.437500 0.890625
vt 0.328125 0.890625
vt 0.218750 1.000000
vt 0.109375 1.000000
vt 0.328125 0.890625
vt 0.218750 0.890625
vt 0.218750 1.000000
vt 0.328125 1.000000
vn 0.0000 0.0000 -1.0000
vn 1.0000 0.0000 0.0000
vn 0.0000 0.0000 1.0000
vn -1.0000 0.0000 0.0000
vn 0.0000 1.0000 -0.0000
vn 0.0000 -1.0000 0.0000
usemtl m_628dfc48-a4be-889c-11b8-87d4c88a84ed
s 1
f 1/1/1 2/2/1 3/3/1 4/4/1
f 5/5/2 1/1/2 4/4/2 6/6/2
f 7/7/3 5/8/3 6/9/3 8/10/3
f 2/2/4 7/7/4 8/10/4 3/3/4
f 8/11/5 6/12/5 4/4/5 3/3/5
f 2/13/6 1/14/6 5/15/6 7/16/6
o cube.686
v 0.687500 0.187500 0.312500
v 0.312500 0.187500 0.312500
v 0.312500 0.312500 0.312500
v 0.687500 0.312500 0.312500
v 0.687500 0.187500 0.687500
v 0.687500 0.312500 0.687500
v 0.312500 0.187500 0.687500
v 0.312500 0.312500 0.687500
vt 0.093750 0.718750
vt 0.187500 0.718750
vt 0.187500 0.750000
vt 0.093750 0.750000
vt 0.000000 0.718750
vt 0.000000 0.750000
vt 0.281250 0.718750
vt 0.375000 0.718750
vt 0.375000 0.750000
vt 0.281250 0.750000
vt 0.187500 0.843750
vt 0.093750 0.843750
vt 0.281250 0.750000
vt 0.187500 0.750000
vt 0.187500 0.843750
vt 0.281250 0.843750
vn 0.0000 -0.0000 -1.0000
vn 1.0000 0.0000 0.0000
vn 0.0000 0.0000 1.0000
vn -1.0000 0.0000 0.0000
vn 0.0000 1.0000 0.0000
vn 0.0000 -1.0000 0.0000
usemtl m_628dfc48-a4be-889c-11b8-87d4c88a84ed
s 1
f 9/17/7 10/18/7 11/19/7 12/20/7
f 13/21/8 9/17/8 12/20/8 14/22/8
f 15/23/9 13/24/9 14/25/9 16/26/9
f 10/18/10 15/23/10 16/26/10 11/19/10
f 16/27/11 14/28/11 12/20/11 11/19/11
f 10/29/12 9/30/12 13/31/12 15/32/12
o cube.687
v 0.656250 0.312500 0.343750
v 0.343750 0.312500 0.343750
v 0.343750 0.437500 0.343750
v 0.656250 0.437500 0.343750
v 0.656250 0.312500 0.656250
v 0.656250 0.437500 0.656250
v 0.343750 0.312500 0.656250
v 0.343750 0.437500 0.656250
vt 0.078125 0.609375
vt 0.156250 0.609375
vt 0.156250 0.640625
vt 0.078125 0.640625
vt 0.000000 0.609375
vt 0.000000 0.640625
vt 0.234375 0.609375
vt 0.312500 0.609375
vt 0.312500 0.640625
vt 0.234375 0.640625
vt 0.156250 0.718750
vt 0.078125 0.718750
vt 0.234375 0.640625
vt 0.156250 0.640625
vt 0.156250 0.718750
vt 0.234375 0.718750
vn 0.0000 0.0000 -1.0000
vn 1.0000 0.0000 0.0000
vn 0.0000 0.0000 1.0000
vn -1.0000 0.0000 0.0000
vn 0.0000 1.0000 0.0000
vn 0.0000 -1.0000 0.0000
usemtl m_628dfc48-a4be-889c-11b8-87d4c88a84ed
s 1
f 17/33/13 18/34/13 19/35/13 20/36/13
f 21/37/14 17/33/14 20/36/14 22/38/14
f 23/39/15 21/40/15 22/41/15 24/42/15
f 18/34/16 23/39/16 24/42/16 19/35/16
f 24/43/17 22/44/17 20/36/17 19/35/17
f 18/45/18 17/46/18 21/47/18 23/48/18
o cube.688
v 0.625000 0.437500 0.375000
v 0.375000 0.437500 0.375000
v 0.375000 0.562500 0.375000
v 0.625000 0.562500 0.375000
v 0.625000 0.437500 0.625000
v 0.625000 0.562500 0.625000
v 0.375000 0.437500 0.625000
v 0.375000 0.562500 0.625000
vt 0.375000 0.671875
vt 0.437500 0.671875
vt 0.437500 0.703125
vt 0.375000 0.703125
vt 0.312500 0.671875
vt 0.312500 0.703125
vt 0.500000 0.671875
vt 0.562500 0.671875
vt 0.562500 0.703125
vt 0.500000 0.703125
vt 0.437500 0.765625
vt 0.375000 0.765625
vt 0.500000 0.703125
vt 0.437500 0.703125
vt 0.437500 0.765625
vt 0.500000 0.765625
vn 0.0000 -0.0000 -1.0000
vn 1.0000 -0.0000 0.0000
vn 0.0000 0.0000 1.0000
vn -1.0000 -0.0000 0.0000
vn 0.0000 1.0000 0.0000
vn 0.0000 -1.0000 0.0000
usemtl m_628dfc48-a4be-889c-11b8-87d4c88a84ed
s 1
f 25/49/19 26/50/19 27/51/19 28/52/19
f 29/53/20 25/49/20 28/52/20 30/54/20
f 31/55/21 29/56/21 30/57/21 32/58/21
f 26/50/22 31/55/22 32/58/22 27/51/22
f 32/59/23 30/60/23 28/52/23 27/51/23
f 26/61/24 25/62/24 29/63/24 31/64/24
o cube.689
v 0.656250 0.562500 0.343750
v 0.343750 0.562500 0.343750
v 0.343750 0.562500 0.343750
v 0.656250 0.562500 0.343750
v 0.656250 0.562500 0.656250
v 0.656250 0.562500 0.656250
v 0.343750 0.562500 0.656250
v 0.343750 0.562500 0.656250
vt 0.281250 0.765625
vt 0.359375 0.765625
vt 0.359375 0.765625
vt 0.281250 0.765625
vt 0.203125 0.765625
vt 0.203125 0.765625
vt 0.437500 0.765625
vt 0.515625 0.765625
vt 0.515625 0.765625
vt 0.437500 0.765625
vt 0.359375 0.843750
vt 0.281250 0.843750
vt 0.437500 0.765625
vt 0.359375 0.765625
vt 0.359375 0.843750
vt 0.437500 0.843750
vn 0.0000 -0.0000 -1.0000
vn 1.0000 -0.0000 0.0000
vn 0.0000 0.0000 1.0000
vn -1.0000 -0.0000 0.0000
vn 0.0000 1.0000 0.0000
vn 0.0000 -1.0000 0.0000
usemtl m_628dfc48-a4be-889c-11b8-87d4c88a84ed
s 1
f 33/65/25 34/66/25 35/67/25 36/68/25
f 37/69/26 33/65/26 36/68/26 38/70/26
f 39/71/27 37/72/27 38/73/27 40/74/27
f 34/66/28 39/71/28 40/74/28 35/67/28
f 40/75/29 38/76/29 36/68/29 35/67/29
f 34/77/30 33/78/30 37/79/30 39/80/30
o cube.690
v 0.593750 0.562500 0.406250
v 0.406250 0.562500 0.406250
v 0.406250 0.625000 0.406250
v 0.593750 0.625000 0.406250
v 0.593750 0.562500 0.593750
v 0.593750 0.625000 0.593750
v 0.406250 0.562500 0.593750
v 0.406250 0.625000 0.593750
vt 0.375000 0.937500
vt 0.421875 0.937500
vt 0.421875 0.953125
vt 0.375000 0.953125
vt 0.328125 0.937500
vt 0.328125 0.953125
vt 0.468750 0.937500
vt 0.515625 0.937500
vt 0.515625 0.953125
vt 0.468750 0.953125
vt 0.421875 1.000000
vt 0.375000 1.000000
vt 0.468750 0.953125
vt 0.421875 0.953125
vt 0.421875 1.000000
vt 0.468750 1.000000
vn 0.0000 0.0000 -1.0000
vn 1.0000 0.0000 0.0000
vn 0.0000 0.0000 1.0000
vn -1.0000 0.0000 0.0000
vn 0.0000 1.0000 0.0000
vn 0.0000 -1.0000 0.0000
usemtl m_628dfc48-a4be-889c-11b8-87d4c88a84ed
s 1
f 41/81/31 42/82/31 43/83/31 44/84/31
f 45/85/32 41/81/32 44/84/32 46/86/32
f 47/87/33 45/88/33 46/89/33 48/90/33
f 42/82/34 47/87/34 48/90/34 43/83/34
f 48/91/35 46/92/35 44/84/35 43/83/35
f 42/93/36 41/94/36 45/95/36 47/96/36
o cube.691
v 0.500000 0.625000 0.406250
v 0.500000 0.625000 0.406250
v 0.500000 0.750000 0.406250
v 0.500000 0.750000 0.406250
v 0.500000 0.625000 0.593750
v 0.500000 0.750000 0.593750
v 0.500000 0.625000 0.593750
v 0.500000 0.750000 0.593750
vt 0.046875 0.921875
vt 0.046875 0.921875
vt 0.046875 0.953125
vt 0.046875 0.953125
vt 0.000000 0.921875
vt 0.000000 0.953125
vt 0.093750 0.921875
vt 0.093750 0.921875
vt 0.093750 0.953125
vt 0.093750 0.953125
vt 0.046875 1.000000
vt 0.046875 1.000000
vt 0.046875 0.953125
vt 0.046875 0.953125
vt 0.046875 1.000000
vt 0.046875 1.000000
vn 0.0000 0.0000 -1.0000
vn 1.0000 0.0000 0.0000
vn 0.0000 0.0000 1.0000
vn -1.0000 0.0000 0.0000
vn 0.0000 1.0000 0.0000
vn 0.0000 -1.0000 0.0000
usemtl m_628dfc48-a4be-889c-11b8-87d4c88a84ed
s 1
f 49/97/37 50/98/37 51/99/37 52/100/37
f 53/101/38 49/97/38 52/100/38 54/102/38
f 55/103/39 53/104/39 54/105/39 56/106/39
f 50/98/40 55/103/40 56/106/40 51/99/40
f 56/107/41 54/108/41 52/100/41 51/99/41
f 50/109/42 49/110/42 53/111/42 55/112/42
