# Blender v3.6.1 OBJ File: ''
# www.blender.org
mtllib bone_soup.mtl
o cube.047
v 0.250000 -0.000000 0.250000
v 0.130411 0.288712 0.250000
v 0.188154 0.312630 0.250000
v 0.307742 0.023918 0.250000
v 0.250000 0.000000 0.750000
v 0.307742 0.023918 0.750000
v 0.130411 0.288712 0.750000
v 0.188154 0.312630 0.750000
vt 0.406250 0.546875
vt 0.484375 0.546875
vt 0.484375 0.562500
vt 0.406250 0.562500
vt 0.281250 0.546875
vt 0.281250 0.562500
vt 0.609375 0.546875
vt 0.687500 0.546875
vt 0.687500 0.562500
vt 0.609375 0.562500
vt 0.484375 0.687500
vt 0.406250 0.687500
vt 0.562500 0.562500
vt 0.484375 0.562500
vt 0.484375 0.687500
vt 0.562500 0.687500
vn -0.0000 -0.0000 -1.0000
vn 0.3827 -0.9239 0.0000
vn 0.0000 0.0000 1.0000
vn -0.3827 0.9239 -0.0000
vn 0.9239 0.3827 -0.0000
vn -0.9239 -0.3827 0.0000
usemtl m_483af306-a7dc-7de1-5480-6c300712da85
s 1
f 1/1/1 2/2/1 3/3/1 4/4/1
f 5/5/2 1/1/2 4/4/2 6/6/2
f 7/7/3 5/8/3 6/9/3 8/10/3
f 2/2/4 7/7/4 8/10/4 3/3/4
f 8/11/5 6/12/5 4/4/5 3/3/5
f 2/13/6 1/14/6 5/15/6 7/16/6
o cube.048
v 0.692258 0.023918 0.250000
v 0.811846 0.312630 0.250000
v 0.869589 0.288712 0.250000
v 0.750000 -0.000000 0.250000
v 0.692258 0.023918 0.750000
v 0.750000 0.000000 0.750000
v 0.811846 0.312630 0.750000
v 0.869589 0.288712 0.750000
vt 0.125000 0.562500
vt 0.203125 0.562500
vt 0.203125 0.578125
vt 0.125000 0.578125
vt 0.000000 0.562500
vt 0.000000 0.578125
vt 0.328125 0.562500
vt 0.406250 0.562500
vt 0.406250 0.578125
vt 0.328125 0.578125
vt 0.203125 0.703125
vt 0.125000 0.703125
vt 0.281250 0.578125
vt 0.203125 0.578125
vt 0.203125 0.703125
vt 0.281250 0.703125
vn 0.0000 -0.0000 -1.0000
vn -0.3827 -0.9239 0.0000
vn 0.0000 0.0000 1.0000
vn 0.3827 0.9239 -0.0000
vn 0.9239 -0.3827 0.0000
vn -0.9239 0.3827 -0.0000
usemtl m_483af306-a7dc-7de1-5480-6c300712da85
s 1
f 9/17/7 10/18/7 11/19/7 12/20/7
f 13/21/8 9/17/8 12/20/8 14/22/8
f 15/23/9 13/24/9 14/25/9 16/26/9
f 10/18/10 15/23/10 16/26/10 11/19/10
f 16/27/11 14/28/11 12/20/11 11/19/11
f 10/29/12 9/30/12 13/31/12 15/32/12
o cube.049
v 0.750000 0.288712 0.130411
v 0.250000 0.288712 0.130411
v 0.250000 0.312630 0.188154
v 0.750000 0.312630 0.188154
v 0.750000 -0.000000 0.250000
v 0.750000 0.023918 0.307742
v 0.250000 -0.000000 0.250000
v 0.250000 0.023918 0.307742
vt 0.078125 0.453125
vt 0.203125 0.453125
vt 0.203125 0.468750
vt 0.078125 0.468750
vt 0.000000 0.453125
vt 0.000000 0.468750
vt 0.281250 0.453125
vt 0.406250 0.453125
vt 0.406250 0.468750
vt 0.281250 0.468750
vt 0.203125 0.546875
vt 0.078125 0.546875
vt 0.328125 0.468750
vt 0.203125 0.468750
vt 0.203125 0.546875
vt 0.328125 0.546875
vn 0.0000 0.9239 -0.3827
vn 1.0000 0.0000 0.0000
vn 0.0000 -0.9239 0.3827
vn -1.0000 0.0000 0.0000
vn 0.0000 0.3827 0.9239
vn 0.0000 -0.3827 -0.9239
usemtl m_483af306-a7dc-7de1-5480-6c300712da85
s 1
f 17/33/13 18/34/13 19/35/13 20/36/13
f 21/37/14 17/33/14 20/36/14 22/38/14
f 23/39/15 21/40/15 22/41/15 24/42/15
f 18/34/16 23/39/16 24/42/16 19/35/16
f 24/43/17 22/44/17 20/36/17 19/35/17
f 18/45/18 17/46/18 21/47/18 23/48/18
o cube.050
v 0.750000 0.312630 0.811846
v 0.250000 0.312630 0.811846
v 0.250000 0.288712 0.869589
v 0.750000 0.288712 0.869589
v 0.750000 0.023918 0.692258
v 0.750000 0.000000 0.750000
v 0.250000 0.023918 0.692258
v 0.250000 0.000000 0.750000
vt 0.453125 0.750000
vt 0.578125 0.750000
vt 0.578125 0.765625
vt 0.453125 0.765625
vt 0.375000 0.750000
vt 0.375000 0.765625
vt 0.656250 0.750000
vt 0.781250 0.750000
vt 0.781250 0.765625
vt 0.656250 0.765625
vt 0.578125 0.843750
vt 0.453125 0.843750
vt 0.703125 0.765625
vt 0.578125 0.765625
vt 0.578125 0.843750
vt 0.703125 0.843750
vn 0.0000 0.9239 0.3827
vn 1.0000 0.0000 0.0000
vn 0.0000 -0.9239 -0.3827
vn -1.0000 0.0000 0.0000
vn 0.0000 -0.3827 0.9239
vn 0.0000 0.3827 -0.9239
usemtl m_483af306-a7dc-7de1-5480-6c300712da85
s 1
f 25/49/19 26/50/19 27/51/19 28/52/19
f 29/53/20 25/49/20 28/52/20 30/54/20
f 31/55/21 29/56/21 30/57/21 32/58/21
f 26/50/22 31/55/22 32/58/22 27/51/22
f 32/59/23 30/60/23 28/52/23 27/51/23
f 26/61/24 25/62/24 29/63/24 31/64/24
o cube.051
v 0.812500 0.288712 0.130411
v 0.750000 0.288712 0.130411
v 0.750000 0.312630 0.188154
v 0.812500 0.312630 0.188154
v 0.812500 0.115485 0.202165
v 0.812500 0.139403 0.259907
v 0.750000 0.115485 0.202165
v 0.750000 0.139403 0.259907
vt 0.046875 0.578125
vt 0.062500 0.578125
vt 0.062500 0.593750
vt 0.046875 0.593750
vt 0.000000 0.578125
vt 0.000000 0.593750
vt 0.109375 0.578125
vt 0.125000 0.578125
vt 0.125000 0.593750
vt 0.109375 0.593750
vt 0.062500 0.640625
vt 0.046875 0.640625
vt 0.078125 0.593750
vt 0.062500 0.593750
vt 0.062500 0.640625
vt 0.078125 0.640625
vn 0.0000 0.9239 -0.3827
vn 1.0000 0.0000 0.0000
vn 0.0000 -0.9239 0.3827
vn -1.0000 0.0000 0.0000
vn 0.0000 0.3827 0.9239
vn 0.0000 -0.3827 -0.9239
usemtl m_483af306-a7dc-7de1-5480-6c300712da85
s 1
f 33/65/25 34/66/25 35/67/25 36/68/25
f 37/69/26 33/65/26 36/68/26 38/70/26
f 39/71/27 37/72/27 38/73/27 40/74/27
f 34/66/28 39/71/28 40/74/28 35/67/28
f 40/75/29 38/76/29 36/68/29 35/67/29
f 34/77/30 33/78/30 37/79/30 39/80/30
o cube.052
v 0.740093 0.139403 0.187500
v 0.811846 0.312630 0.187500
v 0.869589 0.288712 0.187500
v 0.797835 0.115485 0.187500
v 0.740093 0.139403 0.250000
v 0.797835 0.115485 0.250000
v 0.811846 0.312630 0.250000
v 0.869589 0.288712 0.250000
vt 0.484375 0.937500
vt 0.531250 0.937500
vt 0.531250 0.953125
vt 0.484375 0.953125
vt 0.468750 0.937500
vt 0.468750 0.953125
vt 0.546875 0.937500
vt 0.593750 0.937500
vt 0.593750 0.953125
vt 0.546875 0.953125
vt 0.531250 0.968750
vt 0.484375 0.968750
vt 0.578125 0.953125
vt 0.531250 0.953125
vt 0.531250 0.968750
vt 0.578125 0.968750
vn -0.0000 -0.0000 -1.0000
vn -0.3827 -0.9239 0.0000
vn 0.0000 0.0000 1.0000
vn 0.3827 0.9239 0.0000
vn 0.9239 -0.3827 0.0000
vn -0.9239 0.3827 0.0000
usemtl m_483af306-a7dc-7de1-5480-6c300712da85
s 1
f 41/81/31 42/82/31 43/83/31 44/84/31
f 45/85/32 41/81/32 44/84/32 46/86/32
f 47/87/33 45/88/33 46/89/33 48/90/33
f 42/82/34 47/87/34 48/90/34 43/83/34
f 48/91/35 46/92/35 44/84/35 43/83/35
f 42/93/36 41/94/36 45/95/36 47/96/36
o cube.053
v 0.250000 0.288712 0.130411
v 0.187500 0.288712 0.130411
v 0.187500 0.312630 0.188154
v 0.250000 0.312630 0.188154
v 0.250000 0.115485 0.202165
v 0.250000 0.139403 0.259907
v 0.187500 0.115485 0.202165
v 0.187500 0.139403 0.259907
vt 0.328125 0.640625
vt 0.343750 0.640625
vt 0.343750 0.656250
vt 0.328125 0.656250
vt 0.281250 0.640625
vt 0.281250 0.656250
vt 0.390625 0.640625
vt 0.406250 0.640625
vt 0.406250 0.656250
vt 0.390625 0.656250
vt 0.343750 0.703125
vt 0.328125 0.703125
vt 0.359375 0.656250
vt 0.343750 0.656250
vt 0.343750 0.703125
vt 0.359375 0.703125
vn 0.0000 0.9239 -0.3827
vn 1.0000 0.0000 0.0000
vn 0.0000 -0.9239 0.3827
vn -1.0000 0.0000 0.0000
vn 0.0000 0.3827 0.9239
vn 0.0000 -0.3827 -0.9239
usemtl m_483af306-a7dc-7de1-5480-6c300712da85
s 1
f 49/97/37 50/98/37 51/99/37 52/100/37
f 53/101/38 49/97/38 52/100/38 54/102/38
f 55/103/39 53/104/39 54/105/39 56/106/39
f 50/98/40 55/103/40 56/106/40 51/99/40
f 56/107/41 54/108/41 52/100/41 51/99/41
f 50/109/42 49/110/42 53/111/42 55/112/42
o cube.054
v 0.202165 0.115485 0.187500
v 0.130411 0.288712 0.187500
v 0.188154 0.312630 0.187500
v 0.259907 0.139403 0.187500
v 0.202165 0.115485 0.250000
v 0.259907 0.139403 0.250000
v 0.130411 0.288712 0.250000
v 0.188154 0.312630 0.250000
vt 0.484375 0.968750
vt 0.531250 0.968750
vt 0.531250 0.984375
vt 0.484375 0.984375
vt 0.468750 0.968750
vt 0.468750 0.984375
vt 0.546875 0.968750
vt 0.593750 0.968750
vt 0.593750 0.984375
vt 0.546875 0.984375
vt 0.531250 1.000000
vt 0.484375 1.000000
vt 0.578125 0.984375
vt 0.531250 0.984375
vt 0.531250 1.000000
vt 0.578125 1.000000
vn 0.0000 -0.0000 -1.0000
vn 0.3827 -0.9239 0.0000
vn 0.0000 0.0000 1.0000
vn -0.3827 0.9239 0.0000
vn 0.9239 0.3827 0.0000
vn -0.9239 -0.3827 0.0000
usemtl m_483af306-a7dc-7de1-5480-6c300712da85
s 1
f 57/113/43 58/114/43 59/115/43 60/116/43
f 61/117/44 57/113/44 60/116/44 62/118/44
f 63/119/45 61/120/45 62/121/45 64/122/45
f 58/114/46 63/119/46 64/122/46 59/115/46
f 64/123/47 62/124/47 60/116/47 59/115/47
f 58/125/48 57/126/48 61/127/48 63/128/48
o cube.055
v 0.202165 0.115485 0.750000
v 0.130411 0.288712 0.750000
v 0.188154 0.312630 0.750000
v 0.259907 0.139403 0.750000
v 0.202165 0.115485 0.812500
v 0.259907 0.139403 0.812500
v 0.130411 0.288712 0.812500
v 0.188154 0.312630 0.812500
vt 0.390625 0.718750
vt 0.437500 0.718750
vt 0.437500 0.734375
vt 0.390625 0.734375
vt 0.375000 0.718750
vt 0.375000 0.734375
vt 0.453125 0.718750
vt 0.500000 0.718750
vt 0.500000 0.734375
vt 0.453125 0.734375
vt 0.437500 0.750000
vt 0.390625 0.750000
vt 0.484375 0.734375
vt 0.437500 0.734375
vt 0.437500 0.750000
vt 0.484375 0.750000
vn -0.0000 0.0000 -1.0000
vn 0.3827 -0.9239 0.0000
vn 0.0000 0.0000 1.0000
vn -0.3827 0.9239 0.0000
vn 0.9239 0.3827 -0.0000
vn -0.9239 -0.3827 0.0000
usemtl m_483af306-a7dc-7de1-5480-6c300712da85
s 1
f 65/129/49 66/130/49 67/131/49 68/132/49
f 69/133/50 65/129/50 68/132/50 70/134/50
f 71/135/51 69/136/51 70/137/51 72/138/51
f 66/130/52 71/135/52 72/138/52 67/131/52
f 72/139/53 70/140/53 68/132/53 67/131/53
f 66/141/54 65/142/54 69/143/54 71/144/54
o cube.056
v 0.740093 0.139403 0.750000
v 0.811846 0.312630 0.750000
v 0.869589 0.288712 0.750000
v 0.797835 0.115485 0.750000
v 0.740093 0.139403 0.812500
v 0.797835 0.115485 0.812500
v 0.811846 0.312630 0.812500
v 0.869589 0.288712 0.812500
vt 0.015625 0.968750
vt 0.062500 0.968750
vt 0.062500 0.984375
vt 0.015625 0.984375
vt 0.000000 0.968750
vt 0.000000 0.984375
vt 0.078125 0.968750
vt 0.125000 0.968750
vt 0.125000 0.984375
vt 0.078125 0.984375
vt 0.062500 1.000000
vt 0.015625 1.000000
vt 0.109375 0.984375
vt 0.062500 0.984375
vt 0.062500 1.000000
vt 0.109375 1.000000
vn 0.0000 0.0000 -1.0000
vn -0.3827 -0.9239 0.0000
vn 0.0000 0.0000 1.0000
vn 0.3827 0.9239 0.0000
vn 0.9239 -0.3827 0.0000
vn -0.9239 0.3827 -0.0000
usemtl m_483af306-a7dc-7de1-5480-6c300712da85
s 1
f 73/145/55 74/146/55 75/147/55 76/148/55
f 77/149/56 73/145/56 76/148/56 78/150/56
f 79/151/57 77/152/57 78/153/57 80/154/57
f 74/146/58 79/151/58 80/154/58 75/147/58
f 80/155/59 78/156/59 76/148/59 75/147/59
f 74/157/60 73/158/60 77/159/60 79/160/60
o cube.057
v 0.250000 0.312630 0.811846
v 0.187500 0.312630 0.811846
v 0.187500 0.288712 0.869589
v 0.250000 0.288712 0.869589
v 0.250000 0.139403 0.740093
v 0.250000 0.115485 0.797835
v 0.187500 0.139403 0.740093
v 0.187500 0.115485 0.797835
vt 0.046875 0.640625
vt 0.062500 0.640625
vt 0.062500 0.656250
vt 0.046875 0.656250
vt 0.000000 0.640625
vt 0.000000 0.656250
vt 0.109375 0.640625
vt 0.125000 0.640625
vt 0.125000 0.656250
vt 0.109375 0.656250
vt 0.062500 0.703125
vt 0.046875 0.703125
vt 0.078125 0.656250
vt 0.062500 0.656250
vt 0.062500 0.703125
vt 0.078125 0.703125
vn 0.0000 0.9239 0.3827
vn 1.0000 0.0000 0.0000
vn 0.0000 -0.9239 -0.3827
vn -1.0000 0.0000 0.0000
vn 0.0000 -0.3827 0.9239
vn 0.0000 0.3827 -0.9239
usemtl m_483af306-a7dc-7de1-5480-6c300712da85
s 1
f 81/161/61 82/162/61 83/163/61 84/164/61
f 85/165/62 81/161/62 84/164/62 86/166/62
f 87/167/63 85/168/63 86/169/63 88/170/63
f 82/162/64 87/167/64 88/170/64 83/163/64
f 88/171/65 86/172/65 84/164/65 83/163/65
f 82/173/66 81/174/66 85/175/66 87/176/66
o cube.058
v 0.812500 0.312630 0.811846
v 0.750000 0.312630 0.811846
v 0.750000 0.288712 0.869589
v 0.812500 0.288712 0.869589
v 0.812500 0.139403 0.740093
v 0.812500 0.115485 0.797835
v 0.750000 0.139403 0.740093
v 0.750000 0.115485 0.797835
vt 0.046875 0.765625
vt 0.062500 0.765625
vt 0.062500 0.781250
vt 0.046875 0.781250
vt 0.000000 0.765625
vt 0.000000 0.781250
vt 0.109375 0.765625
vt 0.125000 0.765625
vt 0.125000 0.781250
vt 0.109375 0.781250
vt 0.062500 0.828125
vt 0.046875 0.828125
vt 0.078125 0.781250
vt 0.062500 0.781250
vt 0.062500 0.828125
vt 0.078125 0.828125
vn 0.0000 0.9239 0.3827
vn 1.0000 0.0000 0.0000
vn 0.0000 -0.9239 -0.3827
vn -1.0000 0.0000 0.0000
vn 0.0000 -0.3827 0.9239
vn 0.0000 0.3827 -0.9239
usemtl m_483af306-a7dc-7de1-5480-6c300712da85
s 1
f 89/177/67 90/178/67 91/179/67 92/180/67
f 93/181/68 89/177/68 92/180/68 94/182/68
f 95/183/69 93/184/69 94/185/69 96/186/69
f 90/178/70 95/183/70 96/186/70 91/179/70
f 96/187/71 94/188/71 92/180/71 91/179/71
f 90/189/72 89/190/72 93/191/72 95/192/72
o buttom
v 0.750000 -0.000000 0.250000
v 0.250000 -0.000000 0.250000
v 0.250000 0.062500 0.250000
v 0.750000 0.062500 0.250000
v 0.750000 0.000000 0.750000
v 0.750000 0.062500 0.750000
v 0.250000 0.000000 0.750000
v 0.250000 0.062500 0.750000
vt 0.125000 0.703125
vt 0.250000 0.703125
vt 0.250000 0.718750
vt 0.125000 0.718750
vt 0.000000 0.703125
vt 0.000000 0.718750
vt 0.375000 0.703125
vt 0.500000 0.703125
vt 0.500000 0.718750
vt 0.375000 0.718750
vt 0.250000 0.843750
vt 0.125000 0.843750
vt 0.375000 0.718750
vt 0.250000 0.718750
vt 0.250000 0.843750
vt 0.375000 0.843750
vn 0.0000 0.0000 -1.0000
vn 1.0000 0.0000 0.0000
vn 0.0000 0.0000 1.0000
vn -1.0000 0.0000 0.0000
vn 0.0000 1.0000 -0.0000
vn 0.0000 -1.0000 0.0000
usemtl m_483af306-a7dc-7de1-5480-6c300712da85
s 1
f 97/193/73 98/194/73 99/195/73 100/196/73
f 101/197/74 97/193/74 100/196/74 102/198/74
f 103/199/75 101/200/75 102/201/75 104/202/75
f 98/194/76 103/199/76 104/202/76 99/195/76
f 104/203/77 102/204/77 100/196/77 99/195/77
f 98/205/78 97/206/78 101/207/78 103/208/78
o cube.059
v 0.812500 0.265625 0.187500
v 0.187500 0.265625 0.187500
v 0.187500 0.265625 0.187500
v 0.812500 0.265625 0.187500
v 0.812500 0.265625 0.812500
v 0.812500 0.265625 0.812500
v 0.187500 0.265625 0.812500
v 0.187500 0.265625 0.812500
vt 0.156250 0.843750
vt 0.312500 0.843750
vt 0.312500 0.843750
vt 0.156250 0.843750
vt 0.000000 0.843750
vt 0.000000 0.843750
vt 0.468750 0.843750
vt 0.625000 0.843750
vt 0.625000 0.843750
vt 0.468750 0.843750
vt 0.312500 1.000000
vt 0.156250 1.000000
vt 0.468750 0.843750
vt 0.312500 0.843750
vt 0.312500 1.000000
vt 0.468750 1.000000
vn 0.0000 -0.0000 -1.0000
vn 1.0000 0.0000 0.0000
vn 0.0000 0.0000 1.0000
vn -1.0000 0.0000 0.0000
vn 0.0000 1.0000 -0.0000
vn 0.0000 -1.0000 0.0000
usemtl m_483af306-a7dc-7de1-5480-6c300712da85
s 1
f 105/209/79 106/210/79 107/211/79 108/212/79
f 109/213/80 105/209/80 108/212/80 110/214/80
f 111/215/81 109/216/81 110/217/81 112/218/81
f 106/210/82 111/215/82 112/218/82 107/211/82
f 112/219/83 110/220/83 108/212/83 107/211/83
f 106/221/84 105/222/84 109/223/84 111/224/84
o cube.060
v 0.415628 0.166937 0.577227
v 0.229820 0.190831 0.585000
v 0.253459 0.376726 0.578666
v 0.439268 0.352833 0.570893
v 0.415628 0.166937 0.577227
v 0.439268 0.352833 0.570893
v 0.229820 0.190831 0.585000
v 0.253459 0.376726 0.578666
vt 0.468750 0.890625
vt 0.515625 0.890625
vt 0.515625 0.937500
vt 0.468750 0.937500
vt 0.468750 0.890625
vt 0.468750 0.937500
vt 0.515625 0.890625
vt 0.562500 0.890625
vt 0.562500 0.937500
vt 0.515625 0.937500
vt 0.562500 0.937500
vt 0.515625 0.937500
vt 0.515625 0.937500
vt 0.562500 0.937500
vn -0.0454 -0.0283 -0.9986
vn 0.0000 0.0000 -0.0414
vn 0.9910 -0.1274 -0.0414
vn 0.0454 0.0283 0.9986
vn 0.0000 0.0000 0.0415
vn -0.9910 0.1274 0.0415
vn 0.0000 0.0000 0.0414
vn -0.9910 0.1274 0.0414
vn 0.1260 0.9915 -0.0338
vn 0.0000 0.0000 -0.0337
vn 0.1261 0.9914 -0.0337
vn 0.0000 0.0000 -0.0338
vn -0.1261 -0.9914 0.0338
vn 0.0000 0.0000 0.0338
vn -0.1260 -0.9914 0.0338
usemtl m_483af306-a7dc-7de1-5480-6c300712da85
s 1
f 113/225/85 114/226/85 115/227/85 116/228/85
f 117/229/86 113/225/87 116/228/86 118/230/87
f 119/231/88 117/232/88 118/233/88 120/234/88
f 114/226/89 119/231/90 120/234/91 115/227/92
f 120/234/93 118/230/94 116/228/95 115/227/96
f 114/235/97 113/236/98 117/237/99 119/238/98
o cube.061
v 0.303766 0.240123 0.473273
v 0.303766 0.240123 0.473273
v 0.319526 0.364053 0.469050
v 0.319526 0.364053 0.469050
v 0.390009 0.234826 0.639678
v 0.405768 0.358756 0.635455
v 0.390009 0.234826 0.639678
v 0.405768 0.358756 0.635455
vt 0.046875 0.734375
vt 0.046875 0.734375
vt 0.046875 0.765625
vt 0.046875 0.765625
vt 0.000000 0.734375
vt 0.000000 0.765625
vt 0.093750 0.734375
vt 0.093750 0.734375
vt 0.093750 0.765625
vt 0.093750 0.765625
vt 0.046875 0.812500
vt 0.046875 0.812500
vt 0.046875 0.765625
vt 0.046875 0.765625
vt 0.046875 0.812500
vt 0.046875 0.812500
vn 0.0000 0.0000 -0.8875
vn -0.4599 0.0282 -0.8875
vn -0.4600 0.0282 -0.8875
vn 0.8789 -0.1274 -0.4596
vn 0.0000 0.0000 0.8875
vn 0.4600 -0.0282 0.8875
vn -0.8789 0.1274 0.4596
vn 0.0000 0.0000 -0.0338
vn 0.1260 0.9915 -0.0338
vn 0.0000 0.0000 -0.0339
vn 0.1261 0.9914 -0.0339
vn 0.0000 0.0000 0.0338
vn -0.1260 -0.9914 0.0338
vn -0.1261 -0.9914 0.0338
usemtl m_483af306-a7dc-7de1-5480-6c300712da85
s 1
f 121/239/100 122/240/101 123/241/100 124/242/102
f 125/243/103 121/239/103 124/242/103 126/244/103
f 127/245/104 125/246/105 126/247/104 128/248/105
f 122/240/106 127/245/106 128/248/106 123/241/106
f 128/249/107 126/250/108 124/242/109 123/241/110
f 122/251/111 121/252/112 125/253/111 127/254/113
o cube.062
v 0.396612 0.356591 0.515788
v 0.296706 0.415976 0.469775
v 0.296706 0.415976 0.469775
v 0.396612 0.356591 0.515788
v 0.373009 0.361558 0.573446
v 0.373009 0.361558 0.573446
v 0.273103 0.420943 0.527433
v 0.273103 0.420943 0.527433
vt 0.015625 0.953125
vt 0.046875 0.953125
vt 0.046875 0.953125
vt 0.015625 0.953125
vt 0.000000 0.953125
vt 0.000000 0.953125
vt 0.062500 0.953125
vt 0.093750 0.953125
vt 0.093750 0.953125
vt 0.062500 0.953125
vt 0.046875 0.968750
vt 0.015625 0.968750
vt 0.078125 0.953125
vt 0.046875 0.953125
vt 0.046875 0.968750
vt 0.078125 0.968750
vn 0.3777 -0.0795 -0.9225
vn 0.0000 0.0000 -0.9225
vn 0.7992 -0.4751 0.3681
vn 0.0000 0.0000 0.3682
vn 0.7992 -0.4751 0.3682
vn 0.0000 0.0000 0.3681
vn -0.3777 0.0795 0.9225
vn 0.0000 0.0000 0.9225
vn -0.3776 0.0795 0.9225
vn -0.7992 0.4751 -0.3681
vn 0.0000 0.0000 -0.3681
vn 0.4675 0.8763 0.1159
vn -0.4675 -0.8763 -0.1159
usemtl m_483af306-a7dc-7de1-5480-6c300712da85
s 1
f 129/255/114 130/256/115 131/257/114 132/258/115
f 133/259/116 129/255/117 132/258/118 134/260/119
f 135/261/120 133/262/121 134/263/122 136/264/121
f 130/256/123 135/261/124 136/264/123 131/257/124
f 136/265/125 134/266/125 132/258/125 131/257/125
f 130/267/126 129/268/126 133/269/126 135/270/126
o cube.063
v 0.705087 0.130453 0.315637
v 0.705087 0.130453 0.315637
v 0.767588 0.371934 0.298891
v 0.767588 0.371934 0.298891
v 0.753616 0.130453 0.496749
v 0.816116 0.371934 0.480002
v 0.753616 0.130453 0.496749
v 0.816116 0.371934 0.480002
vt 0.046875 0.828125
vt 0.046875 0.828125
vt 0.046875 0.890625
vt 0.046875 0.890625
vt 0.000000 0.828125
vt 0.000000 0.890625
vt 0.093750 0.828125
vt 0.093750 0.828125
vt 0.093750 0.890625
vt 0.093750 0.890625
vt 0.046875 0.937500
vt 0.046875 0.937500
vt 0.046875 0.890625
vt 0.046875 0.890625
vt 0.046875 0.937500
vt 0.046875 0.937500
vn 0.0000 0.0000 -0.9659
vn -0.2589 0.0000 -0.9659
vn -0.2588 -0.0000 -0.9659
vn 0.9330 -0.2588 -0.2500
vn 0.0000 0.0000 0.9659
vn 0.2588 0.0000 0.9659
vn -0.9330 0.2588 0.2500
vn 0.0000 0.0000 -0.0670
vn 0.2499 0.9659 -0.0670
vn 0.0000 0.0000 -0.0669
vn 0.2500 0.9659 -0.0669
vn 0.0000 0.0000 0.0669
vn -0.2500 -0.9659 0.0669
vn 0.0000 0.0000 0.0670
vn -0.2500 -0.9659 0.0670
usemtl m_483af306-a7dc-7de1-5480-6c300712da85
s 1
f 137/271/127 138/272/128 139/273/127 140/274/129
f 141/275/130 137/271/130 140/274/130 142/276/130
f 143/277/131 141/278/132 142/279/131 144/280/132
f 138/272/133 143/277/133 144/280/133 139/273/133
f 144/281/134 142/282/135 140/274/136 139/273/137
f 138/283/138 137/284/139 141/285/140 143/286/141
o cube.064
v 0.753558 0.130469 0.496764
v 0.578618 0.178998 0.543639
v 0.641118 0.420479 0.526892
v 0.816058 0.371951 0.480017
v 0.753558 0.130469 0.496764
v 0.816058 0.371951 0.480017
v 0.578618 0.178998 0.543639
v 0.641118 0.420479 0.526892
vt 0.421875 0.484375
vt 0.468750 0.484375
vt 0.468750 0.546875
vt 0.421875 0.546875
vt 0.421875 0.484375
vt 0.421875 0.546875
vt 0.468750 0.484375
vt 0.515625 0.484375
vt 0.515625 0.546875
vt 0.468750 0.546875
vt 0.515625 0.546875
vt 0.468750 0.546875
vt 0.468750 0.546875
vt 0.515625 0.546875
vn -0.2588 -0.0000 -0.9659
vn 0.0000 0.0000 -0.2500
vn 0.9330 -0.2588 -0.2500
vn 0.2588 0.0000 0.9659
vn 0.0000 0.0000 0.2500
vn -0.9330 0.2588 0.2500
vn 0.2499 0.9659 -0.0670
vn 0.0000 0.0000 -0.0671
vn 0.2500 0.9659 -0.0671
vn 0.0000 0.0000 -0.0670
vn -0.2500 -0.9659 0.0670
vn 0.0000 0.0000 0.0669
vn -0.2499 -0.9659 0.0669
vn 0.0000 0.0000 0.0670
usemtl m_483af306-a7dc-7de1-5480-6c300712da85
s 1
f 145/287/142 146/288/142 147/289/142 148/290/142
f 149/291/143 145/287/144 148/290/143 150/292/144
f 151/293/145 149/294/145 150/295/145 152/296/145
f 146/288/146 151/293/147 152/296/146 147/289/147
f 152/296/148 150/292/149 148/290/150 147/289/151
f 146/297/152 145/298/153 149/299/154 151/300/155
o cube.065
v 0.530089 0.178998 0.362528
v 0.530089 0.178998 0.362528
v 0.592589 0.420479 0.345781
v 0.592589 0.420479 0.345781
v 0.578618 0.178998 0.543639
v 0.641118 0.420479 0.526892
v 0.578618 0.178998 0.543639
v 0.641118 0.420479 0.526892
vt 0.046875 0.890625
vt 0.046875 0.890625
vt 0.046875 0.953125
vt 0.046875 0.953125
vt 0.000000 0.890625
vt 0.000000 0.953125
vt 0.093750 0.890625
vt 0.093750 0.890625
vt 0.093750 0.953125
vt 0.093750 0.953125
vt 0.046875 1.000000
vt 0.046875 1.000000
vt 0.046875 0.953125
vt 0.046875 0.953125
vt 0.046875 1.000000
vt 0.046875 1.000000
vn 0.0000 0.0000 -0.9659
vn -0.2589 0.0000 -0.9659
vn -0.2588 -0.0000 -0.9659
vn 0.9330 -0.2588 -0.2500
vn 0.0000 0.0000 0.9659
vn 0.2588 0.0000 0.9659
vn -0.9330 0.2588 0.2500
vn 0.0000 0.0000 -0.0670
vn 0.2500 0.9659 -0.0670
vn 0.0000 0.0000 -0.0669
vn 0.2500 0.9659 -0.0669
vn 0.0000 0.0000 0.0669
vn -0.2500 -0.9659 0.0669
vn 0.0000 0.0000 0.0670
vn -0.2500 -0.9659 0.0670
usemtl m_483af306-a7dc-7de1-5480-6c300712da85
s 1
f 153/301/156 154/302/157 155/303/156 156/304/158
f 157/305/159 153/301/159 156/304/159 158/306/159
f 159/307/160 157/308/161 158/309/160 160/310/161
f 154/302/162 159/307/162 160/310/162 155/303/162
f 160/311/163 158/312/164 156/304/165 155/303/166
f 154/313/167 153/314/168 157/315/169 159/316/170
o cube.066
v 0.705087 0.130453 0.315637
v 0.530148 0.178981 0.362512
v 0.592648 0.420463 0.345766
v 0.767588 0.371934 0.298891
v 0.705087 0.130453 0.315637
v 0.767588 0.371934 0.298891
v 0.530148 0.178981 0.362512
v 0.592648 0.420463 0.345766
vt 0.328125 0.484375
vt 0.375000 0.484375
vt 0.375000 0.546875
vt 0.328125 0.546875
vt 0.328125 0.484375
vt 0.328125 0.546875
vt 0.375000 0.484375
vt 0.421875 0.484375
vt 0.421875 0.546875
vt 0.375000 0.546875
vt 0.421875 0.546875
vt 0.375000 0.546875
vt 0.375000 0.546875
vt 0.421875 0.546875
vn -0.2588 0.0000 -0.9659
vn 0.0000 0.0000 -0.2500
vn 0.9330 -0.2588 -0.2500
vn 0.2588 0.0000 0.9659
vn 0.0000 0.0000 0.2500
vn -0.9330 0.2588 0.2500
vn 0.2499 0.9659 -0.0670
vn 0.0000 0.0000 -0.0671
vn 0.2500 0.9659 -0.0671
vn 0.0000 0.0000 -0.0670
vn -0.2500 -0.9659 0.0670
vn 0.0000 0.0000 0.0669
vn -0.2499 -0.9659 0.0669
vn 0.0000 0.0000 0.0670
usemtl m_483af306-a7dc-7de1-5480-6c300712da85
s 1
f 161/317/171 162/318/171 163/319/171 164/320/171
f 165/321/172 161/317/173 164/320/172 166/322/173
f 167/323/174 165/324/174 166/325/174 168/326/174
f 162/318/175 167/323/176 168/326/175 163/319/176
f 168/326/177 166/322/178 164/320/179 163/319/180
f 162/327/181 161/328/182 165/329/183 167/330/184
