# Blender v3.6.1 OBJ File: ''
# www.blender.org
mtllib bone_stew.mtl
o cube.067
v 0.812500 -0.000000 0.187500
v 0.187500 -0.000000 0.187500
v 0.187500 0.062500 0.187500
v 0.812500 0.062500 0.187500
v 0.812500 0.000000 0.812500
v 0.812500 0.062500 0.812500
v 0.187500 0.000000 0.812500
v 0.187500 0.062500 0.812500
vt 0.156250 0.828125
vt 0.312500 0.828125
vt 0.312500 0.843750
vt 0.156250 0.843750
vt 0.000000 0.828125
vt 0.000000 0.843750
vt 0.468750 0.828125
vt 0.625000 0.828125
vt 0.625000 0.843750
vt 0.468750 0.843750
vt 0.312500 1.000000
vt 0.156250 1.000000
vt 0.468750 0.843750
vt 0.312500 0.843750
vt 0.312500 1.000000
vt 0.468750 1.000000
vn 0.0000 0.0000 -1.0000
vn 1.0000 0.0000 0.0000
vn 0.0000 0.0000 1.0000
vn -1.0000 0.0000 0.0000
vn 0.0000 1.0000 -0.0000
vn 0.0000 -1.0000 0.0000
usemtl m_0077fcda-1675-7599-3330-c493bf41763c
s 1
f 1/1/1 2/2/1 3/3/1 4/4/1
f 5/5/2 1/1/2 4/4/2 6/6/2
f 7/7/3 5/8/3 6/9/3 8/10/3
f 2/2/4 7/7/4 8/10/4 3/3/4
f 8/11/5 6/12/5 4/4/5 3/3/5
f 2/13/6 1/14/6 5/15/6 7/16/6
o cube.068
v 0.187500 -0.000000 0.187500
v 0.125000 -0.000000 0.187500
v 0.125000 0.500000 0.187500
v 0.187500 0.500000 0.187500
v 0.187500 0.000000 0.875000
v 0.187500 0.500000 0.875000
v 0.125000 0.000000 0.875000
v 0.125000 0.500000 0.875000
vt 0.171875 0.375000
vt 0.187500 0.375000
vt 0.187500 0.500000
vt 0.171875 0.500000
vt 0.000000 0.375000
vt 0.000000 0.500000
vt 0.359375 0.375000
vt 0.375000 0.375000
vt 0.375000 0.500000
vt 0.359375 0.500000
vt 0.187500 0.671875
vt 0.171875 0.671875
vt 0.203125 0.500000
vt 0.187500 0.500000
vt 0.187500 0.671875
vt 0.203125 0.671875
vn 0.0000 -0.0000 -1.0000
vn 1.0000 0.0000 0.0000
vn 0.0000 0.0000 1.0000
vn -1.0000 0.0000 0.0000
vn 0.0000 1.0000 -0.0000
vn 0.0000 -1.0000 0.0000
usemtl m_0077fcda-1675-7599-3330-c493bf41763c
s 1
f 9/17/7 10/18/7 11/19/7 12/20/7
f 13/21/8 9/17/8 12/20/8 14/22/8
f 15/23/9 13/24/9 14/25/9 16/26/9
f 10/18/10 15/23/10 16/26/10 11/19/10
f 16/27/11 14/28/11 12/20/11 11/19/11
f 10/29/12 9/30/12 13/31/12 15/32/12
o cube.069
v 0.875000 -0.000000 0.125000
v 0.812500 -0.000000 0.125000
v 0.812500 0.500000 0.125000
v 0.875000 0.500000 0.125000
v 0.875000 0.000000 0.812500
v 0.875000 0.500000 0.812500
v 0.812500 0.000000 0.812500
v 0.812500 0.500000 0.812500
vt 0.468750 0.531250
vt 0.484375 0.531250
vt 0.484375 0.656250
vt 0.468750 0.656250
vt 0.296875 0.531250
vt 0.296875 0.656250
vt 0.656250 0.531250
vt 0.671875 0.531250
vt 0.671875 0.656250
vt 0.656250 0.656250
vt 0.484375 0.828125
vt 0.468750 0.828125
vt 0.500000 0.656250
vt 0.484375 0.656250
vt 0.484375 0.828125
vt 0.500000 0.828125
vn 0.0000 -0.0000 -1.0000
vn 1.0000 0.0000 0.0000
vn 0.0000 0.0000 1.0000
vn -1.0000 0.0000 0.0000
vn 0.0000 1.0000 -0.0000
vn 0.0000 -1.0000 0.0000
usemtl m_0077fcda-1675-7599-3330-c493bf41763c
s 1
f 17/33/13 18/34/13 19/35/13 20/36/13
f 21/37/14 17/33/14 20/36/14 22/38/14
f 23/39/15 21/40/15 22/41/15 24/42/15
f 18/34/16 23/39/16 24/42/16 19/35/16
f 24/43/17 22/44/17 20/36/17 19/35/17
f 18/45/18 17/46/18 21/47/18 23/48/18
o cube.070
v 0.812500 -0.000000 0.125000
v 0.125000 -0.000000 0.125000
v 0.125000 0.500000 0.125000
v 0.812500 0.500000 0.125000
v 0.812500 -0.000000 0.187500
v 0.812500 0.500000 0.187500
v 0.125000 -0.000000 0.187500
v 0.125000 0.500000 0.187500
vt 0.390625 0.390625
vt 0.562500 0.390625
vt 0.562500 0.515625
vt 0.390625 0.515625
vt 0.375000 0.390625
vt 0.375000 0.515625
vt 0.578125 0.390625
vt 0.750000 0.390625
vt 0.750000 0.515625
vt 0.578125 0.515625
vt 0.562500 0.531250
vt 0.390625 0.531250
vt 0.734375 0.515625
vt 0.562500 0.515625
vt 0.562500 0.531250
vt 0.734375 0.531250
vn 0.0000 -0.0000 -1.0000
vn 1.0000 0.0000 0.0000
vn 0.0000 0.0000 1.0000
vn -1.0000 0.0000 0.0000
vn 0.0000 1.0000 0.0000
vn 0.0000 -1.0000 0.0000
usemtl m_0077fcda-1675-7599-3330-c493bf41763c
s 1
f 25/49/19 26/50/19 27/51/19 28/52/19
f 29/53/20 25/49/20 28/52/20 30/54/20
f 31/55/21 29/56/21 30/57/21 32/58/21
f 26/50/22 31/55/22 32/58/22 27/51/22
f 32/59/23 30/60/23 28/52/23 27/51/23
f 26/61/24 25/62/24 29/63/24 31/64/24
o cube.071
v 0.625000 0.375000 0.906250
v 0.375000 0.375000 0.906250
v 0.375000 0.437500 0.906250
v 0.625000 0.437500 0.906250
v 0.625000 0.375000 0.968750
v 0.625000 0.437500 0.968750
v 0.375000 0.375000 0.968750
v 0.375000 0.437500 0.968750
vt 0.015625 0.625000
vt 0.078125 0.625000
vt 0.078125 0.640625
vt 0.015625 0.640625
vt 0.000000 0.625000
vt 0.000000 0.640625
vt 0.093750 0.625000
vt 0.156250 0.625000
vt 0.156250 0.640625
vt 0.093750 0.640625
vt 0.078125 0.656250
vt 0.015625 0.656250
vt 0.140625 0.640625
vt 0.078125 0.640625
vt 0.078125 0.656250
vt 0.140625 0.656250
vn 0.0000 0.0000 -1.0000
vn 1.0000 0.0000 0.0000
vn 0.0000 0.0000 1.0000
vn -1.0000 0.0000 0.0000
vn 0.0000 1.0000 0.0000
vn 0.0000 -1.0000 0.0000
usemtl m_0077fcda-1675-7599-3330-c493bf41763c
s 1
f 33/65/25 34/66/25 35/67/25 36/68/25
f 37/69/26 33/65/26 36/68/26 38/70/26
f 39/71/27 37/72/27 38/73/27 40/74/27
f 34/66/28 39/71/28 40/74/28 35/67/28
f 40/75/29 38/76/29 36/68/29 35/67/29
f 34/77/30 33/78/30 37/79/30 39/80/30
o cube.072
v 0.875000 0.000000 0.812500
v 0.187500 0.000000 0.812500
v 0.187500 0.500000 0.812500
v 0.875000 0.500000 0.812500
v 0.875000 0.000000 0.875000
v 0.875000 0.500000 0.875000
v 0.187500 0.000000 0.875000
v 0.187500 0.500000 0.875000
vt 0.484375 0.859375
vt 0.656250 0.859375
vt 0.656250 0.984375
vt 0.484375 0.984375
vt 0.468750 0.859375
vt 0.468750 0.984375
vt 0.671875 0.859375
vt 0.843750 0.859375
vt 0.843750 0.984375
vt 0.671875 0.984375
vt 0.656250 1.000000
vt 0.484375 1.000000
vt 0.828125 0.984375
vt 0.656250 0.984375
vt 0.656250 1.000000
vt 0.828125 1.000000
vn 0.0000 0.0000 -1.0000
vn 1.0000 0.0000 0.0000
vn 0.0000 0.0000 1.0000
vn -1.0000 0.0000 0.0000
vn 0.0000 1.0000 0.0000
vn 0.0000 -1.0000 0.0000
usemtl m_0077fcda-1675-7599-3330-c493bf41763c
s 1
f 41/81/31 42/82/31 43/83/31 44/84/31
f 45/85/32 41/81/32 44/84/32 46/86/32
f 47/87/33 45/88/33 46/89/33 48/90/33
f 42/82/34 47/87/34 48/90/34 43/83/34
f 48/91/35 46/92/35 44/84/35 43/83/35
f 42/93/36 41/94/36 45/95/36 47/96/36
o cube.073
v 0.625000 0.375000 0.843750
v 0.562500 0.375000 0.843750
v 0.562500 0.437500 0.843750
v 0.625000 0.437500 0.843750
v 0.625000 0.375000 0.906250
v 0.625000 0.437500 0.906250
v 0.562500 0.375000 0.906250
v 0.562500 0.437500 0.906250
vt 0.218750 0.609375
vt 0.234375 0.609375
vt 0.234375 0.625000
vt 0.218750 0.625000
vt 0.203125 0.609375
vt 0.203125 0.625000
vt 0.250000 0.609375
vt 0.265625 0.609375
vt 0.265625 0.625000
vt 0.250000 0.625000
vt 0.234375 0.640625
vt 0.218750 0.640625
vt 0.250000 0.625000
vt 0.234375 0.625000
vt 0.234375 0.640625
vt 0.250000 0.640625
vn 0.0000 0.0000 -1.0000
vn 1.0000 0.0000 0.0000
vn 0.0000 0.0000 1.0000
vn -1.0000 0.0000 0.0000
vn 0.0000 1.0000 0.0000
vn 0.0000 -1.0000 0.0000
usemtl m_0077fcda-1675-7599-3330-c493bf41763c
s 1
f 49/97/37 50/98/37 51/99/37 52/100/37
f 53/101/38 49/97/38 52/100/38 54/102/38
f 55/103/39 53/104/39 54/105/39 56/106/39
f 50/98/40 55/103/40 56/106/40 51/99/40
f 56/107/41 54/108/41 52/100/41 51/99/41
f 50/109/42 49/110/42 53/111/42 55/112/42
o cube.074
v 0.437500 0.375000 0.843750
v 0.375000 0.375000 0.843750
v 0.375000 0.437500 0.843750
v 0.437500 0.437500 0.843750
v 0.437500 0.375000 0.906250
v 0.437500 0.437500 0.906250
v 0.375000 0.375000 0.906250
v 0.375000 0.437500 0.906250
vt 0.109375 0.687500
vt 0.125000 0.687500
vt 0.125000 0.703125
vt 0.109375 0.703125
vt 0.093750 0.687500
vt 0.093750 0.703125
vt 0.140625 0.687500
vt 0.156250 0.687500
vt 0.156250 0.703125
vt 0.140625 0.703125
vt 0.125000 0.718750
vt 0.109375 0.718750
vt 0.140625 0.703125
vt 0.125000 0.703125
vt 0.125000 0.718750
vt 0.140625 0.718750
vn 0.0000 0.0000 -1.0000
vn 1.0000 0.0000 0.0000
vn 0.0000 0.0000 1.0000
vn -1.0000 0.0000 0.0000
vn 0.0000 1.0000 0.0000
vn 0.0000 -1.0000 0.0000
usemtl m_0077fcda-1675-7599-3330-c493bf41763c
s 1
f 57/113/43 58/114/43 59/115/43 60/116/43
f 61/117/44 57/113/44 60/116/44 62/118/44
f 63/119/45 61/120/45 62/121/45 64/122/45
f 58/114/46 63/119/46 64/122/46 59/115/46
f 64/123/47 62/124/47 60/116/47 59/115/47
f 58/125/48 57/126/48 61/127/48 63/128/48
o cube.075
v 0.437500 0.375000 0.093750
v 0.375000 0.375000 0.093750
v 0.375000 0.437500 0.093750
v 0.437500 0.437500 0.093750
v 0.437500 0.375000 0.156250
v 0.437500 0.437500 0.156250
v 0.375000 0.375000 0.156250
v 0.375000 0.437500 0.156250
vt 0.109375 0.750000
vt 0.125000 0.750000
vt 0.125000 0.765625
vt 0.109375 0.765625
vt 0.093750 0.750000
vt 0.093750 0.765625
vt 0.140625 0.750000
vt 0.156250 0.750000
vt 0.156250 0.765625
vt 0.140625 0.765625
vt 0.125000 0.781250
vt 0.109375 0.781250
vt 0.140625 0.765625
vt 0.125000 0.765625
vt 0.125000 0.781250
vt 0.140625 0.781250
vn 0.0000 0.0000 -1.0000
vn 1.0000 0.0000 0.0000
vn 0.0000 0.0000 1.0000
vn -1.0000 0.0000 0.0000
vn 0.0000 1.0000 0.0000
vn 0.0000 -1.0000 0.0000
usemtl m_0077fcda-1675-7599-3330-c493bf41763c
s 1
f 65/129/49 66/130/49 67/131/49 68/132/49
f 69/133/50 65/129/50 68/132/50 70/134/50
f 71/135/51 69/136/51 70/137/51 72/138/51
f 66/130/52 71/135/52 72/138/52 67/131/52
f 72/139/53 70/140/53 68/132/53 67/131/53
f 66/141/54 65/142/54 69/143/54 71/144/54
o cube.076
v 0.625000 0.375000 0.031250
v 0.375000 0.375000 0.031250
v 0.375000 0.437500 0.031250
v 0.625000 0.437500 0.031250
v 0.625000 0.375000 0.093750
v 0.625000 0.437500 0.093750
v 0.375000 0.375000 0.093750
v 0.375000 0.437500 0.093750
vt 0.015625 0.843750
vt 0.078125 0.843750
vt 0.078125 0.859375
vt 0.015625 0.859375
vt 0.000000 0.843750
vt 0.000000 0.859375
vt 0.093750 0.843750
vt 0.156250 0.843750
vt 0.156250 0.859375
vt 0.093750 0.859375
vt 0.078125 0.875000
vt 0.015625 0.875000
vt 0.140625 0.859375
vt 0.078125 0.859375
vt 0.078125 0.875000
vt 0.140625 0.875000
vn 0.0000 0.0000 -1.0000
vn 1.0000 0.0000 0.0000
vn 0.0000 0.0000 1.0000
vn -1.0000 0.0000 0.0000
vn 0.0000 1.0000 0.0000
vn 0.0000 -1.0000 0.0000
usemtl m_0077fcda-1675-7599-3330-c493bf41763c
s 1
f 73/145/55 74/146/55 75/147/55 76/148/55
f 77/149/56 73/145/56 76/148/56 78/150/56
f 79/151/57 77/152/57 78/153/57 80/154/57
f 74/146/58 79/151/58 80/154/58 75/147/58
f 80/155/59 78/156/59 76/148/59 75/147/59
f 74/157/60 73/158/60 77/159/60 79/160/60
o cube.077
v 0.625000 0.375000 0.093750
v 0.562500 0.375000 0.093750
v 0.562500 0.437500 0.093750
v 0.625000 0.437500 0.093750
v 0.625000 0.375000 0.156250
v 0.625000 0.437500 0.156250
v 0.562500 0.375000 0.156250
v 0.562500 0.437500 0.156250
vt 0.109375 0.968750
vt 0.125000 0.968750
vt 0.125000 0.984375
vt 0.109375 0.984375
vt 0.093750 0.968750
vt 0.093750 0.984375
vt 0.140625 0.968750
vt 0.156250 0.968750
vt 0.156250 0.984375
vt 0.140625 0.984375
vt 0.125000 1.000000
vt 0.109375 1.000000
vt 0.140625 0.984375
vt 0.125000 0.984375
vt 0.125000 1.000000
vt 0.140625 1.000000
vn 0.0000 0.0000 -1.0000
vn 1.0000 0.0000 0.0000
vn 0.0000 0.0000 1.0000
vn -1.0000 0.0000 0.0000
vn 0.0000 1.0000 0.0000
vn 0.0000 -1.0000 0.0000
usemtl m_0077fcda-1675-7599-3330-c493bf41763c
s 1
f 81/161/61 82/162/61 83/163/61 84/164/61
f 85/165/62 81/161/62 84/164/62 86/166/62
f 87/167/63 85/168/63 86/169/63 88/170/63
f 82/162/64 87/167/64 88/170/64 83/163/64
f 88/171/65 86/172/65 84/164/65 83/163/65
f 82/173/66 81/174/66 85/175/66 87/176/66
o cube.078
v 0.578401 0.304794 0.344342
v 0.459187 0.285999 0.311790
v 0.459187 0.610759 0.124290
v 0.578401 0.629553 0.156842
v 0.540813 0.364401 0.447585
v 0.540813 0.689160 0.260085
v 0.421599 0.345607 0.415033
v 0.421599 0.670366 0.227533
vt 0.031250 0.875000
vt 0.062500 0.875000
vt 0.062500 0.968750
vt 0.031250 0.968750
vt 0.000000 0.875000
vt 0.000000 0.968750
vt 0.093750 0.875000
vt 0.125000 0.875000
vt 0.125000 0.968750
vt 0.093750 0.968750
vt 0.062500 1.000000
vt 0.031250 1.000000
vt 0.093750 0.968750
vt 0.062500 0.968750
vt 0.062500 1.000000
vt 0.093750 1.000000
vn 0.3007 -0.4769 -0.8259
vn 0.9537 0.1504 0.2604
vn -0.3007 0.4769 0.8259
vn -0.9537 -0.1504 -0.2604
vn 0.0000 0.8660 -0.5000
vn -0.0000 -0.8660 0.5000
usemtl m_0077fcda-1675-7599-3330-c493bf41763c
s 1
f 89/177/67 90/178/67 91/179/67 92/180/67
f 93/181/68 89/177/68 92/180/68 94/182/68
f 95/183/69 93/184/69 94/185/69 96/186/69
f 90/178/70 95/183/70 96/186/70 91/179/70
f 96/187/71 94/188/71 92/180/71 91/179/71
f 90/189/72 89/190/72 93/191/72 95/192/72
o cube.079
v 0.568860 0.617134 0.216957
v 0.449645 0.598339 0.184405
v 0.438342 0.719507 0.155843
v 0.557557 0.738301 0.188396
v 0.533011 0.641430 0.334216
v 0.521708 0.762597 0.305654
v 0.413796 0.622636 0.301664
v 0.402493 0.743803 0.273102
vt 0.031250 0.656250
vt 0.062500 0.656250
vt 0.062500 0.687500
vt 0.031250 0.687500
vt 0.000000 0.656250
vt 0.000000 0.687500
vt 0.093750 0.656250
vt 0.125000 0.656250
vt 0.125000 0.687500
vt 0.093750 0.687500
vt 0.062500 0.718750
vt 0.031250 0.718750
vt 0.093750 0.687500
vt 0.062500 0.687500
vt 0.062500 0.718750
vt 0.093750 0.718750
vn 0.2868 -0.1944 -0.9381
vn 0.9537 0.1504 0.2604
vn -0.2868 0.1944 0.9381
vn -0.9537 -0.1504 -0.2604
vn -0.0904 0.9693 -0.2285
vn 0.0904 -0.9693 0.2285
usemtl m_0077fcda-1675-7599-3330-c493bf41763c
s 1
f 97/193/73 98/194/73 99/195/73 100/196/73
f 101/197/74 97/193/74 100/196/74 102/198/74
f 103/199/75 101/200/75 102/201/75 104/202/75
f 98/194/76 103/199/76 104/202/76 99/195/76
f 104/203/77 102/204/77 100/196/77 99/195/77
f 98/205/78 97/206/78 101/207/78 103/208/78
o cube.080
v 0.581360 0.518686 0.168017
v 0.462145 0.499892 0.135464
v 0.470281 0.592678 0.052100
v 0.589496 0.611472 0.084652
v 0.544663 0.600311 0.255285
v 0.552798 0.693097 0.171920
v 0.425448 0.581517 0.222733
v 0.433584 0.674302 0.139368
vt 0.031250 0.718750
vt 0.062500 0.718750
vt 0.062500 0.750000
vt 0.031250 0.750000
vt 0.000000 0.718750
vt 0.000000 0.750000
vt 0.093750 0.718750
vt 0.125000 0.718750
vt 0.125000 0.750000
vt 0.093750 0.750000
vt 0.062500 0.781250
vt 0.031250 0.781250
vt 0.093750 0.750000
vt 0.062500 0.750000
vt 0.062500 0.781250
vt 0.093750 0.781250
vn 0.2936 -0.6530 -0.6981
vn 0.9537 0.1504 0.2604
vn -0.2936 0.6530 0.6981
vn -0.9537 -0.1504 -0.2604
vn 0.0651 0.7423 -0.6669
vn -0.0651 -0.7423 0.6669
usemtl m_0077fcda-1675-7599-3330-c493bf41763c
s 1
f 105/209/79 106/210/79 107/211/79 108/212/79
f 109/213/80 105/209/80 108/212/80 110/214/80
f 111/215/81 109/216/81 110/217/81 112/218/81
f 106/210/82 111/215/82 112/218/82 107/211/82
f 112/219/83 110/220/83 108/212/83 107/211/83
f 106/221/84 105/222/84 109/223/84 111/224/84
o cube.081
v 0.473114 0.361232 0.373192
v 0.235528 0.332835 0.300757
v 0.203453 0.434432 0.366135
v 0.441038 0.462829 0.438569
v 0.462108 0.325520 0.423289
v 0.430033 0.427117 0.488667
v 0.224523 0.297123 0.350854
v 0.192447 0.398720 0.416232
vt 0.015625 0.781250
vt 0.078125 0.781250
vt 0.078125 0.812500
vt 0.015625 0.812500
vt 0.000000 0.781250
vt 0.000000 0.812500
vt 0.093750 0.781250
vt 0.156250 0.781250
vt 0.156250 0.812500
vt 0.093750 0.812500
vt 0.078125 0.828125
vt 0.015625 0.828125
vt 0.140625 0.812500
vt 0.078125 0.812500
vt 0.078125 0.828125
vt 0.140625 0.828125
vn 0.1761 0.5714 -0.8016
vn 0.9503 0.1136 0.2897
vn -0.1761 -0.5714 0.8016
vn -0.9503 -0.1136 -0.2897
vn -0.2566 0.8128 0.5230
vn 0.2566 -0.8128 -0.5230
usemtl m_0077fcda-1675-7599-3330-c493bf41763c
s 1
f 113/225/85 114/226/85 115/227/85 116/228/85
f 117/229/86 113/225/86 116/228/86 118/230/86
f 119/231/87 117/232/87 118/233/87 120/234/87
f 114/226/88 119/231/88 120/234/88 115/227/88
f 120/235/89 118/236/89 116/228/89 115/227/89
f 114/237/90 113/238/90 117/239/90 119/240/90
o cube.082
v 0.591906 0.375431 0.471909
v 0.235528 0.332835 0.363257
v 0.219490 0.383634 0.395946
v 0.575868 0.426229 0.504598
v 0.580901 0.339719 0.522007
v 0.564863 0.390517 0.554695
v 0.224523 0.297123 0.413354
v 0.208485 0.347921 0.446043
vt 0.515625 0.656250
vt 0.609375 0.656250
vt 0.609375 0.671875
vt 0.515625 0.671875
vt 0.500000 0.656250
vt 0.500000 0.671875
vt 0.625000 0.656250
vt 0.718750 0.656250
vt 0.718750 0.671875
vt 0.625000 0.671875
vt 0.609375 0.687500
vt 0.515625 0.687500
vt 0.703125 0.671875
vt 0.609375 0.671875
vt 0.609375 0.687500
vt 0.703125 0.687500
vn 0.1761 0.5714 -0.8016
vn 0.9503 0.1136 0.2897
vn -0.1761 -0.5714 0.8016
vn -0.9503 -0.1136 -0.2897
vn -0.2566 0.8128 0.5230
vn 0.2566 -0.8128 -0.5230
usemtl m_0077fcda-1675-7599-3330-c493bf41763c
s 1
f 121/241/91 122/242/91 123/243/91 124/244/91
f 125/245/92 121/241/92 124/244/92 126/246/92
f 127/247/93 125/248/93 126/249/93 128/250/93
f 122/242/94 127/247/94 128/250/94 123/243/94
f 128/251/95 126/252/95 124/244/95 123/243/95
f 122/253/96 121/254/96 125/255/96 127/256/96
o cube.083
v 0.651303 0.382530 0.590018
v 0.235528 0.332835 0.463257
v 0.203453 0.434432 0.528635
v 0.619227 0.484127 0.655396
v 0.640297 0.346818 0.640115
v 0.608222 0.448415 0.705493
v 0.224523 0.297123 0.513354
v 0.192447 0.398720 0.578732
vt 0.515625 0.781250
vt 0.625000 0.781250
vt 0.625000 0.812500
vt 0.515625 0.812500
vt 0.500000 0.781250
vt 0.500000 0.812500
vt 0.640625 0.781250
vt 0.750000 0.781250
vt 0.750000 0.812500
vt 0.640625 0.812500
vt 0.625000 0.828125
vt 0.515625 0.828125
vt 0.734375 0.812500
vt 0.625000 0.812500
vt 0.625000 0.828125
vt 0.734375 0.828125
vn 0.1761 0.5714 -0.8016
vn 0.9503 0.1136 0.2897
vn -0.1761 -0.5714 0.8016
vn -0.9503 -0.1136 -0.2897
vn -0.2566 0.8128 0.5230
vn 0.2566 -0.8128 -0.5230
usemtl m_0077fcda-1675-7599-3330-c493bf41763c
s 1
f 129/257/97 130/258/97 131/259/97 132/260/97
f 133/261/98 129/257/98 132/260/98 134/262/98
f 135/263/99 133/264/99 134/265/99 136/266/99
f 130/258/100 135/263/100 136/266/100 131/259/100
f 136/267/101 134/268/101 132/260/101 131/259/101
f 130/269/102 129/270/102 133/271/102 135/272/102
o cube.084
v 0.591906 0.375431 0.634409
v 0.235528 0.332835 0.525757
v 0.203453 0.434432 0.591135
v 0.559831 0.477028 0.699787
v 0.580901 0.339719 0.684507
v 0.548825 0.441315 0.749884
v 0.224523 0.297123 0.575854
v 0.192447 0.398720 0.641232
vt 0.515625 0.687500
vt 0.609375 0.687500
vt 0.609375 0.718750
vt 0.515625 0.718750
vt 0.500000 0.687500
vt 0.500000 0.718750
vt 0.625000 0.687500
vt 0.718750 0.687500
vt 0.718750 0.718750
vt 0.625000 0.718750
vt 0.609375 0.734375
vt 0.515625 0.734375
vt 0.703125 0.718750
vt 0.609375 0.718750
vt 0.609375 0.734375
vt 0.703125 0.734375
vn 0.1761 0.5714 -0.8016
vn 0.9503 0.1136 0.2897
vn -0.1761 -0.5714 0.8016
vn -0.9503 -0.1136 -0.2897
vn -0.2566 0.8128 0.5230
vn 0.2566 -0.8128 -0.5230
usemtl m_0077fcda-1675-7599-3330-c493bf41763c
s 1
f 137/273/103 138/274/103 139/275/103 140/276/103
f 141/277/104 137/273/104 140/276/104 142/278/104
f 143/279/105 141/280/105 142/281/105 144/282/105
f 138/274/106 143/279/106 144/282/106 139/275/106
f 144/283/107 142/284/107 140/276/107 139/275/107
f 138/285/108 137/286/108 141/287/108 143/288/108
o cube.085
v 0.767746 0.317905 0.422123
v 0.675045 0.295310 0.260716
v 0.712925 0.408349 0.223136
v 0.805626 0.430944 0.384543
v 0.716828 0.343500 0.447784
v 0.754708 0.456539 0.410204
v 0.624126 0.320904 0.286378
v 0.662006 0.433943 0.248797
vt 0.015625 0.531250
vt 0.062500 0.531250
vt 0.062500 0.562500
vt 0.015625 0.562500
vt 0.000000 0.531250
vt 0.000000 0.562500
vt 0.078125 0.531250
vt 0.125000 0.531250
vt 0.125000 0.562500
vt 0.078125 0.562500
vt 0.062500 0.578125
vt 0.015625 0.578125
vt 0.109375 0.562500
vt 0.062500 0.562500
vt 0.062500 0.578125
vt 0.109375 0.578125
vn 0.8147 -0.4095 -0.4106
vn 0.4944 0.1205 0.8608
vn -0.8147 0.4095 0.4106
vn -0.4944 -0.1205 -0.8608
vn 0.3030 0.9043 -0.3006
vn -0.3030 -0.9043 0.3006
usemtl m_0077fcda-1675-7599-3330-c493bf41763c
s 1
f 145/289/109 146/290/109 147/291/109 148/292/109
f 149/293/110 145/289/110 148/292/110 150/294/110
f 151/295/111 149/296/111 150/297/111 152/298/111
f 146/290/112 151/295/112 152/298/112 147/291/112
f 152/299/113 150/300/113 148/292/113 147/291/113
f 146/301/114 145/302/114 149/303/114 151/304/114
o cube.086
v 0.591906 0.375431 0.696909
v 0.235528 0.332835 0.588257
v 0.203453 0.434432 0.653635
v 0.559831 0.477028 0.762287
v 0.580901 0.339719 0.747007
v 0.548825 0.441315 0.812384
v 0.224523 0.297123 0.638354
v 0.192447 0.398720 0.703732
vt 0.515625 0.734375
vt 0.609375 0.734375
vt 0.609375 0.765625
vt 0.515625 0.765625
vt 0.500000 0.734375
vt 0.500000 0.765625
vt 0.625000 0.734375
vt 0.718750 0.734375
vt 0.718750 0.765625
vt 0.625000 0.765625
vt 0.609375 0.781250
vt 0.515625 0.781250
vt 0.703125 0.765625
vt 0.609375 0.765625
vt 0.609375 0.781250
vt 0.703125 0.781250
vn 0.1761 0.5714 -0.8016
vn 0.9503 0.1136 0.2897
vn -0.1761 -0.5714 0.8016
vn -0.9503 -0.1136 -0.2897
vn -0.2566 0.8128 0.5230
vn 0.2566 -0.8128 -0.5230
usemtl m_0077fcda-1675-7599-3330-c493bf41763c
s 1
f 153/305/115 154/306/115 155/307/115 156/308/115
f 157/309/116 153/305/116 156/308/116 158/310/116
f 159/311/117 157/312/117 158/313/117 160/314/117
f 154/306/118 159/311/118 160/314/118 155/307/118
f 160/315/119 158/316/119 156/308/119 155/307/119
f 154/317/120 153/318/120 157/319/120 159/320/120
o cube.087
v 0.777595 0.374132 0.677036
v 0.658802 0.359933 0.640819
v 0.642764 0.410731 0.673508
v 0.761557 0.424930 0.709725
v 0.766590 0.338419 0.727134
v 0.750552 0.389218 0.759822
v 0.647797 0.324221 0.690916
v 0.631759 0.375019 0.723605
vt 0.218750 0.640625
vt 0.250000 0.640625
vt 0.250000 0.656250
vt 0.218750 0.656250
vt 0.203125 0.640625
vt 0.203125 0.656250
vt 0.265625 0.640625
vt 0.296875 0.640625
vt 0.296875 0.656250
vt 0.265625 0.656250
vt 0.250000 0.671875
vt 0.218750 0.671875
vt 0.281250 0.656250
vt 0.250000 0.656250
vt 0.250000 0.671875
vt 0.281250 0.671875
vn 0.1761 0.5714 -0.8016
vn 0.9503 0.1136 0.2897
vn -0.1761 -0.5714 0.8016
vn -0.9503 -0.1136 -0.2897
vn -0.2566 0.8128 0.5230
vn 0.2566 -0.8128 -0.5230
usemtl m_0077fcda-1675-7599-3330-c493bf41763c
s 1
f 161/321/121 162/322/121 163/323/121 164/324/121
f 165/325/122 161/321/122 164/324/122 166/326/122
f 167/327/123 165/328/123 166/329/123 168/330/123
f 162/322/124 167/327/124 168/330/124 163/323/124
f 168/331/125 166/332/125 164/324/125 163/323/125
f 162/333/126 161/334/126 165/335/126 167/336/126
o cube.088
v 0.752121 0.317905 0.531498
v 0.659420 0.295310 0.370091
v 0.697300 0.408349 0.332511
v 0.790001 0.430944 0.493918
v 0.701203 0.343500 0.557159
v 0.739083 0.456539 0.519579
v 0.608501 0.320904 0.395753
v 0.646381 0.433943 0.358172
vt 0.015625 0.578125
vt 0.062500 0.578125
vt 0.062500 0.609375
vt 0.015625 0.609375
vt 0.000000 0.578125
vt 0.000000 0.609375
vt 0.078125 0.578125
vt 0.125000 0.578125
vt 0.125000 0.609375
vt 0.078125 0.609375
vt 0.062500 0.625000
vt 0.015625 0.625000
vt 0.109375 0.609375
vt 0.062500 0.609375
vt 0.062500 0.625000
vt 0.109375 0.625000
vn 0.8147 -0.4095 -0.4106
vn 0.4944 0.1205 0.8608
vn -0.8147 0.4095 0.4106
vn -0.4944 -0.1205 -0.8608
vn 0.3030 0.9043 -0.3006
vn -0.3030 -0.9043 0.3006
usemtl m_0077fcda-1675-7599-3330-c493bf41763c
s 1
f 169/337/127 170/338/127 171/339/127 172/340/127
f 173/341/128 169/337/128 172/340/128 174/342/128
f 175/343/129 173/344/129 174/345/129 176/346/129
f 170/338/130 175/343/130 176/346/130 171/339/130
f 176/347/131 174/348/131 172/340/131 171/339/131
f 170/349/132 169/350/132 173/351/132 175/352/132
o liquid.003
v 0.812500 0.375000 0.187500
v 0.187500 0.375000 0.187500
v 0.187500 0.375000 0.187500
v 0.812500 0.375000 0.187500
v 0.812500 0.375000 0.812500
v 0.812500 0.375000 0.812500
v 0.187500 0.375000 0.812500
v 0.187500 0.375000 0.812500
vt 0.156250 0.671875
vt 0.312500 0.671875
vt 0.312500 0.671875
vt 0.156250 0.671875
vt 0.000000 0.671875
vt 0.000000 0.671875
vt 0.468750 0.671875
vt 0.625000 0.671875
vt 0.625000 0.671875
vt 0.468750 0.671875
vt 0.312500 0.828125
vt 0.156250 0.828125
vt 0.468750 0.671875
vt 0.312500 0.671875
vt 0.312500 0.828125
vt 0.468750 0.828125
vn 0.0000 -0.0000 -1.0000
vn 0.4944 0.1205 0.8608
vn 0.0000 0.0000 1.0000
vn -0.4944 -0.1205 -0.8608
vn 0.0000 1.0000 -0.0000
vn 0.0000 -1.0000 0.0000
usemtl m_0077fcda-1675-7599-3330-c493bf41763c
s 1
f 177/353/133 178/354/133 179/355/133 180/356/133
f 181/357/134 177/353/134 180/356/134 182/358/134
f 183/359/135 181/360/135 182/361/135 184/362/135
f 178/354/136 183/359/136 184/362/136 179/355/136
f 184/363/137 182/364/137 180/356/137 179/355/137
f 178/365/138 177/366/138 181/367/138 183/368/138
