# Blender v3.6.1 OBJ File: ''
# www.blender.org
mtllib mushy_cake.mtl
o cube.509
v 0.937500 -0.000000 0.062500
v 0.062500 -0.000000 0.062500
v 0.062500 0.062500 0.062500
v 0.937500 0.062500 0.062500
v 0.937500 0.000000 0.937500
v 0.937500 0.062500 0.937500
v 0.062500 0.000000 0.937500
v 0.062500 0.062500 0.937500
vt 0.218750 0.765625
vt 0.437500 0.765625
vt 0.437500 0.781250
vt 0.218750 0.781250
vt 0.000000 0.765625
vt 0.000000 0.781250
vt 0.656250 0.765625
vt 0.875000 0.765625
vt 0.875000 0.781250
vt 0.656250 0.781250
vt 0.437500 1.000000
vt 0.218750 1.000000
vt 0.656250 0.781250
vt 0.437500 0.781250
vt 0.437500 1.000000
vt 0.656250 1.000000
vn 0.0000 0.0000 -1.0000
vn 1.0000 0.0000 0.0000
vn 0.0000 0.0000 1.0000
vn -1.0000 0.0000 0.0000
vn 0.0000 1.0000 -0.0000
vn 0.0000 -1.0000 0.0000
usemtl m_d386809a-4a53-628d-34bf-a9186dae7ab3
s 1
f 1/1/1 2/2/1 3/3/1 4/4/1
f 5/5/2 1/1/2 4/4/2 6/6/2
f 7/7/3 5/8/3 6/9/3 8/10/3
f 2/2/4 7/7/4 8/10/4 3/3/4
f 8/11/5 6/12/5 4/4/5 3/3/5
f 2/13/6 1/14/6 5/15/6 7/16/6
o cube.510
v 0.656250 0.562500 0.343750
v 0.343750 0.562500 0.343750
v 0.343750 0.750000 0.343750
v 0.656250 0.750000 0.343750
v 0.656250 0.562500 0.656250
v 0.656250 0.750000 0.656250
v 0.343750 0.562500 0.656250
v 0.343750 0.750000 0.656250
vt 0.500000 0.359375
vt 0.578125 0.359375
vt 0.578125 0.406250
vt 0.500000 0.406250
vt 0.421875 0.359375
vt 0.421875 0.406250
vt 0.656250 0.359375
vt 0.734375 0.359375
vt 0.734375 0.406250
vt 0.656250 0.406250
vt 0.578125 0.484375
vt 0.500000 0.484375
vt 0.656250 0.406250
vt 0.578125 0.406250
vt 0.578125 0.484375
vt 0.656250 0.484375
vn 0.0000 0.0000 -1.0000
vn 1.0000 0.0000 0.0000
vn 0.0000 0.0000 1.0000
vn -1.0000 0.0000 0.0000
vn 0.0000 1.0000 0.0000
vn 0.0000 -1.0000 0.0000
usemtl m_d386809a-4a53-628d-34bf-a9186dae7ab3
s 1
f 9/17/7 10/18/7 11/19/7 12/20/7
f 13/21/8 9/17/8 12/20/8 14/22/8
f 15/23/9 13/24/9 14/25/9 16/26/9
f 10/18/10 15/23/10 16/26/10 11/19/10
f 16/27/11 14/28/11 12/20/11 11/19/11
f 10/29/12 9/30/12 13/31/12 15/32/12
o cube.511
v 0.625000 0.750000 0.375000
v 0.375000 0.750000 0.375000
v 0.375000 0.812500 0.375000
v 0.625000 0.812500 0.375000
v 0.625000 0.750000 0.625000
v 0.625000 0.812500 0.625000
v 0.375000 0.750000 0.625000
v 0.375000 0.812500 0.625000
vt 0.593750 0.281250
vt 0.656250 0.281250
vt 0.656250 0.296875
vt 0.593750 0.296875
vt 0.531250 0.281250
vt 0.531250 0.296875
vt 0.718750 0.281250
vt 0.781250 0.281250
vt 0.781250 0.296875
vt 0.718750 0.296875
vt 0.656250 0.359375
vt 0.593750 0.359375
vt 0.718750 0.296875
vt 0.656250 0.296875
vt 0.656250 0.359375
vt 0.718750 0.359375
vn 0.0000 0.0000 -1.0000
vn 1.0000 0.0000 0.0000
vn 0.0000 0.0000 1.0000
vn -1.0000 0.0000 0.0000
vn 0.0000 1.0000 0.0000
vn 0.0000 -1.0000 0.0000
usemtl m_d386809a-4a53-628d-34bf-a9186dae7ab3
s 1
f 17/33/13 18/34/13 19/35/13 20/36/13
f 21/37/14 17/33/14 20/36/14 22/38/14
f 23/39/15 21/40/15 22/41/15 24/42/15
f 18/34/16 23/39/16 24/42/16 19/35/16
f 24/43/17 22/44/17 20/36/17 19/35/17
f 18/45/18 17/46/18 21/47/18 23/48/18
o cube.512
v 0.656250 0.500000 0.337500
v 0.343750 0.500000 0.337500
v 0.343750 0.625000 0.337500
v 0.656250 0.625000 0.337500
v 0.656250 0.500000 0.337500
v 0.656250 0.625000 0.337500
v 0.343750 0.500000 0.337500
v 0.343750 0.625000 0.337500
vt 0.000000 0.937500
vt 0.078125 0.937500
vt 0.078125 0.968750
vt 0.000000 0.968750
vt 0.000000 0.937500
vt 0.000000 0.968750
vt 0.078125 0.937500
vt 0.156250 0.937500
vt 0.156250 0.968750
vt 0.078125 0.968750
vt 0.156250 0.968750
vt 0.078125 0.968750
vt 0.078125 0.968750
vt 0.156250 0.968750
vn 0.0000 0.0000 -1.0000
vn 0.0000 0.0000 -0.0000
vn 1.0000 0.0000 -0.0000
vn 0.0000 0.0000 1.0000
vn -1.0000 -0.0000 -0.0000
vn -0.0000 1.0000 -0.0000
vn 0.0000 -1.0000 -0.0000
usemtl m_d386809a-4a53-628d-34bf-a9186dae7ab3
s 1
f 25/49/19 26/50/19 27/51/19 28/52/19
f 29/53/20 25/49/21 28/52/20 30/54/21
f 31/55/22 29/56/22 30/57/22 32/58/22
f 26/50/20 31/55/23 32/58/20 27/51/23
f 32/58/24 30/54/20 28/52/24 27/51/20
f 26/59/25 25/60/20 29/61/25 31/62/20
o cube.513
v 0.656250 0.500000 0.662500
v 0.343750 0.500000 0.662500
v 0.343750 0.625000 0.662500
v 0.656250 0.625000 0.662500
v 0.656250 0.500000 0.662500
v 0.656250 0.625000 0.662500
v 0.343750 0.500000 0.662500
v 0.343750 0.625000 0.662500
vt 0.000000 0.968750
vt 0.078125 0.968750
vt 0.078125 1.000000
vt 0.000000 1.000000
vt 0.000000 0.968750
vt 0.000000 1.000000
vt 0.078125 0.968750
vt 0.156250 0.968750
vt 0.156250 1.000000
vt 0.078125 1.000000
vt 0.156250 1.000000
vt 0.078125 1.000000
vt 0.078125 1.000000
vt 0.156250 1.000000
vn 0.0000 0.0000 -1.0000
vn 0.0000 0.0000 -0.0000
vn 1.0000 0.0000 -0.0000
vn 0.0000 0.0000 1.0000
vn -1.0000 -0.0000 -0.0000
vn -0.0000 1.0000 -0.0000
vn 0.0000 -1.0000 -0.0000
usemtl m_d386809a-4a53-628d-34bf-a9186dae7ab3
s 1
f 33/63/26 34/64/26 35/65/26 36/66/26
f 37/67/27 33/63/28 36/66/27 38/68/28
f 39/69/29 37/70/29 38/71/29 40/72/29
f 34/64/27 39/69/30 40/72/27 35/65/30
f 40/72/31 38/68/27 36/66/31 35/65/27
f 34/73/32 33/74/27 37/75/32 39/76/27
o cube.514
v 0.662500 0.500000 0.343750
v 0.662500 0.500000 0.343750
v 0.662500 0.625000 0.343750
v 0.662500 0.625000 0.343750
v 0.662500 0.500000 0.656250
v 0.662500 0.625000 0.656250
v 0.662500 0.500000 0.656250
v 0.662500 0.625000 0.656250
vt 0.078125 0.859375
vt 0.078125 0.859375
vt 0.078125 0.890625
vt 0.078125 0.890625
vt 0.000000 0.859375
vt 0.000000 0.890625
vt 0.156250 0.859375
vt 0.156250 0.859375
vt 0.156250 0.890625
vt 0.156250 0.890625
vt 0.078125 0.968750
vt 0.078125 0.968750
vt 0.078125 0.890625
vt 0.078125 0.890625
vt 0.078125 0.968750
vt 0.078125 0.968750
vn 0.0000 0.0000 -1.0000
vn 1.0000 0.0000 0.0000
vn 0.0000 0.0000 1.0000
vn -1.0000 0.0000 0.0000
usemtl m_d386809a-4a53-628d-34bf-a9186dae7ab3
s 1
f 41/77/33 42/78/33 43/79/33 44/80/33
f 45/81/34 41/77/34 44/80/34 46/82/34
f 47/83/35 45/84/35 46/85/35 48/86/35
f 42/78/36 47/83/36 48/86/36 43/79/36
f 48/87/35 46/88/35 44/80/35 43/79/35
f 42/89/35 41/90/35 45/91/35 47/92/35
o cube.515
v 0.337500 0.500000 0.343750
v 0.337500 0.500000 0.343750
v 0.337500 0.625000 0.343750
v 0.337500 0.625000 0.343750
v 0.337500 0.500000 0.656250
v 0.337500 0.625000 0.656250
v 0.337500 0.500000 0.656250
v 0.337500 0.625000 0.656250
vt 0.078125 0.890625
vt 0.078125 0.890625
vt 0.078125 0.921875
vt 0.078125 0.921875
vt 0.000000 0.890625
vt 0.000000 0.921875
vt 0.156250 0.890625
vt 0.156250 0.890625
vt 0.156250 0.921875
vt 0.156250 0.921875
vt 0.078125 1.000000
vt 0.078125 1.000000
vt 0.078125 0.921875
vt 0.078125 0.921875
vt 0.078125 1.000000
vt 0.078125 1.000000
vn 0.0000 0.0000 -1.0000
vn 1.0000 0.0000 0.0000
vn 0.0000 0.0000 1.0000
vn -1.0000 0.0000 0.0000
usemtl m_d386809a-4a53-628d-34bf-a9186dae7ab3
s 1
f 49/93/37 50/94/37 51/95/37 52/96/37
f 53/97/38 49/93/38 52/96/38 54/98/38
f 55/99/39 53/100/39 54/101/39 56/102/39
f 50/94/40 55/99/40 56/102/40 51/95/40
f 56/103/39 54/104/39 52/96/39 51/95/39
f 50/105/39 49/106/39 53/107/39 55/108/39
o cube.516
v 0.687500 0.375000 0.312500
v 0.312500 0.375000 0.312500
v 0.312500 0.500000 0.312500
v 0.687500 0.500000 0.312500
v 0.687500 0.375000 0.687500
v 0.687500 0.500000 0.687500
v 0.312500 0.375000 0.687500
v 0.312500 0.500000 0.687500
vt 0.515625 0.640625
vt 0.609375 0.640625
vt 0.609375 0.671875
vt 0.515625 0.671875
vt 0.421875 0.640625
vt 0.421875 0.671875
vt 0.703125 0.640625
vt 0.796875 0.640625
vt 0.796875 0.671875
vt 0.703125 0.671875
vt 0.609375 0.765625
vt 0.515625 0.765625
vt 0.703125 0.671875
vt 0.609375 0.671875
vt 0.609375 0.765625
vt 0.703125 0.765625
vn 0.0000 -0.0000 -1.0000
vn 1.0000 0.0000 0.0000
vn 0.0000 0.0000 1.0000
vn -1.0000 0.0000 0.0000
vn 0.0000 1.0000 0.0000
vn 0.0000 -1.0000 0.0000
usemtl m_d386809a-4a53-628d-34bf-a9186dae7ab3
s 1
f 57/109/41 58/110/41 59/111/41 60/112/41
f 61/113/42 57/109/42 60/112/42 62/114/42
f 63/115/43 61/116/43 62/117/43 64/118/43
f 58/110/44 63/115/44 64/118/44 59/111/44
f 64/119/45 62/120/45 60/112/45 59/111/45
f 58/121/46 57/122/46 61/123/46 63/124/46
o cube.517
v 0.656250 0.500000 0.343750
v 0.343750 0.500000 0.343750
v 0.343750 0.562500 0.343750
v 0.656250 0.562500 0.343750
v 0.656250 0.500000 0.656250
v 0.656250 0.562500 0.656250
v 0.343750 0.500000 0.656250
v 0.343750 0.562500 0.656250
vt 0.078125 0.328125
vt 0.156250 0.328125
vt 0.156250 0.343750
vt 0.078125 0.343750
vt 0.000000 0.328125
vt 0.000000 0.343750
vt 0.234375 0.328125
vt 0.312500 0.328125
vt 0.312500 0.343750
vt 0.234375 0.343750
vt 0.156250 0.421875
vt 0.078125 0.421875
vt 0.234375 0.343750
vt 0.156250 0.343750
vt 0.156250 0.421875
vt 0.234375 0.421875
vn 0.0000 0.0000 -1.0000
vn 1.0000 0.0000 0.0000
vn 0.0000 0.0000 1.0000
vn -1.0000 0.0000 0.0000
vn 0.0000 1.0000 0.0000
vn 0.0000 -1.0000 0.0000
usemtl m_d386809a-4a53-628d-34bf-a9186dae7ab3
s 1
f 65/125/47 66/126/47 67/127/47 68/128/47
f 69/129/48 65/125/48 68/128/48 70/130/48
f 71/131/49 69/132/49 70/133/49 72/134/49
f 66/126/50 71/131/50 72/134/50 67/127/50
f 72/135/51 70/136/51 68/128/51 67/127/51
f 66/137/52 65/138/52 69/139/52 71/140/52
o cube.518
v 0.750000 0.250000 0.250000
v 0.250000 0.250000 0.250000
v 0.250000 0.375000 0.250000
v 0.750000 0.375000 0.250000
v 0.750000 0.250000 0.750000
v 0.750000 0.375000 0.750000
v 0.250000 0.250000 0.750000
v 0.250000 0.375000 0.750000
vt 0.125000 0.421875
vt 0.250000 0.421875
vt 0.250000 0.453125
vt 0.125000 0.453125
vt 0.000000 0.421875
vt 0.000000 0.453125
vt 0.375000 0.421875
vt 0.500000 0.421875
vt 0.500000 0.453125
vt 0.375000 0.453125
vt 0.250000 0.578125
vt 0.125000 0.578125
vt 0.375000 0.453125
vt 0.250000 0.453125
vt 0.250000 0.578125
vt 0.375000 0.578125
vn 0.0000 0.0000 -1.0000
vn 1.0000 0.0000 0.0000
vn 0.0000 0.0000 1.0000
vn -1.0000 0.0000 0.0000
vn 0.0000 1.0000 -0.0000
vn 0.0000 -1.0000 0.0000
usemtl m_d386809a-4a53-628d-34bf-a9186dae7ab3
s 1
f 73/141/53 74/142/53 75/143/53 76/144/53
f 77/145/54 73/141/54 76/144/54 78/146/54
f 79/147/55 77/148/55 78/149/55 80/150/55
f 74/142/56 79/147/56 80/150/56 75/143/56
f 80/151/57 78/152/57 76/144/57 75/143/57
f 74/153/58 73/154/58 77/155/58 79/156/58
o cube.519
v 0.212500 0.062500 0.218750
v 0.212500 0.062500 0.218750
v 0.212500 0.250000 0.218750
v 0.212500 0.250000 0.218750
v 0.212500 0.062500 0.781250
v 0.212500 0.250000 0.781250
v 0.212500 0.062500 0.781250
v 0.212500 0.250000 0.781250
vt 0.515625 0.484375
vt 0.515625 0.484375
vt 0.515625 0.531250
vt 0.515625 0.531250
vt 0.375000 0.484375
vt 0.375000 0.531250
vt 0.656250 0.484375
vt 0.656250 0.484375
vt 0.656250 0.531250
vt 0.656250 0.531250
vt 0.515625 0.671875
vt 0.515625 0.671875
vt 0.515625 0.531250
vt 0.515625 0.531250
vt 0.515625 0.671875
vt 0.515625 0.671875
vn 0.0000 0.0000 -1.0000
vn 1.0000 0.0000 0.0000
vn 0.0000 0.0000 1.0000
vn -1.0000 -0.0000 0.0000
vn 0.0000 1.0000 0.0000
vn 0.0000 -1.0000 0.0000
usemtl m_d386809a-4a53-628d-34bf-a9186dae7ab3
s 1
f 81/157/59 82/158/59 83/159/59 84/160/59
f 85/161/60 81/157/60 84/160/60 86/162/60
f 87/163/61 85/164/61 86/165/61 88/166/61
f 82/158/62 87/163/62 88/166/62 83/159/62
f 88/167/63 86/168/63 84/160/63 83/159/63
f 82/169/64 81/170/64 85/171/64 87/172/64
o cube.520
v 0.787500 0.062500 0.218750
v 0.787500 0.062500 0.218750
v 0.787500 0.250000 0.218750
v 0.787500 0.250000 0.218750
v 0.787500 0.062500 0.781250
v 0.787500 0.250000 0.781250
v 0.787500 0.062500 0.781250
v 0.787500 0.250000 0.781250
vt 0.515625 0.531250
vt 0.515625 0.531250
vt 0.515625 0.578125
vt 0.515625 0.578125
vt 0.375000 0.531250
vt 0.375000 0.578125
vt 0.656250 0.531250
vt 0.656250 0.531250
vt 0.656250 0.578125
vt 0.656250 0.578125
vt 0.515625 0.718750
vt 0.515625 0.718750
vt 0.515625 0.578125
vt 0.515625 0.578125
vt 0.515625 0.718750
vt 0.515625 0.718750
vn 0.0000 0.0000 -1.0000
vn 1.0000 0.0000 0.0000
vn 0.0000 0.0000 1.0000
vn -1.0000 -0.0000 0.0000
vn 0.0000 1.0000 0.0000
vn 0.0000 -1.0000 0.0000
usemtl m_d386809a-4a53-628d-34bf-a9186dae7ab3
s 1
f 89/173/65 90/174/65 91/175/65 92/176/65
f 93/177/66 89/173/66 92/176/66 94/178/66
f 95/179/67 93/180/67 94/181/67 96/182/67
f 90/174/68 95/179/68 96/182/68 91/175/68
f 96/183/69 94/184/69 92/176/69 91/175/69
f 90/185/70 89/186/70 93/187/70 95/188/70
o cube.521
v 0.781250 0.062500 0.787500
v 0.218750 0.062500 0.787500
v 0.218750 0.250000 0.787500
v 0.781250 0.250000 0.787500
v 0.781250 0.062500 0.787500
v 0.781250 0.250000 0.787500
v 0.218750 0.062500 0.787500
v 0.218750 0.250000 0.787500
vt 0.312500 0.312500
vt 0.453125 0.312500
vt 0.453125 0.359375
vt 0.312500 0.359375
vt 0.312500 0.312500
vt 0.312500 0.359375
vt 0.453125 0.312500
vt 0.593750 0.312500
vt 0.593750 0.359375
vt 0.453125 0.359375
vt 0.593750 0.359375
vt 0.453125 0.359375
vt 0.453125 0.359375
vt 0.593750 0.359375
vn 0.0000 -0.0000 -1.0000
vn 0.0000 0.0000 -0.0000
vn 1.0000 0.0000 -0.0000
vn 0.0000 0.0000 1.0000
vn -1.0000 -0.0000 -0.0000
vn -0.0000 1.0000 -0.0000
vn 0.0000 -1.0000 -0.0000
usemtl m_d386809a-4a53-628d-34bf-a9186dae7ab3
s 1
f 97/189/71 98/190/71 99/191/71 100/192/71
f 101/193/72 97/189/73 100/192/72 102/194/73
f 103/195/74 101/196/74 102/197/74 104/198/74
f 98/190/72 103/195/75 104/198/72 99/191/75
f 104/198/76 102/194/72 100/192/76 99/191/72
f 98/199/77 97/200/72 101/201/77 103/202/72
o cube.522
v 0.781250 0.062500 0.212500
v 0.218750 0.062500 0.212500
v 0.218750 0.250000 0.212500
v 0.781250 0.250000 0.212500
v 0.781250 0.062500 0.212500
v 0.781250 0.250000 0.212500
v 0.218750 0.062500 0.212500
v 0.218750 0.250000 0.212500
vt 0.562500 0.593750
vt 0.703125 0.593750
vt 0.703125 0.640625
vt 0.562500 0.640625
vt 0.562500 0.593750
vt 0.562500 0.640625
vt 0.703125 0.593750
vt 0.843750 0.593750
vt 0.843750 0.640625
vt 0.703125 0.640625
vt 0.843750 0.640625
vt 0.703125 0.640625
vt 0.703125 0.640625
vt 0.843750 0.640625
vn 0.0000 -0.0000 -1.0000
vn 0.0000 0.0000 -0.0000
vn 1.0000 0.0000 -0.0000
vn 0.0000 0.0000 1.0000
vn -1.0000 -0.0000 -0.0000
vn -0.0000 1.0000 -0.0000
vn 0.0000 -1.0000 -0.0000
usemtl m_d386809a-4a53-628d-34bf-a9186dae7ab3
s 1
f 105/203/78 106/204/78 107/205/78 108/206/78
f 109/207/79 105/203/80 108/206/79 110/208/80
f 111/209/81 109/210/81 110/211/81 112/212/81
f 106/204/79 111/209/82 112/212/79 107/205/82
f 112/212/83 110/208/79 108/206/83 107/205/79
f 106/213/84 105/214/79 109/215/84 111/216/79
o cube.523
v 0.781250 0.062500 0.218750
v 0.218750 0.062500 0.218750
v 0.218750 0.250000 0.218750
v 0.781250 0.250000 0.218750
v 0.781250 0.062500 0.781250
v 0.781250 0.250000 0.781250
v 0.218750 0.062500 0.781250
v 0.218750 0.250000 0.781250
vt 0.140625 0.578125
vt 0.281250 0.578125
vt 0.281250 0.625000
vt 0.140625 0.625000
vt 0.000000 0.578125
vt 0.000000 0.625000
vt 0.421875 0.578125
vt 0.562500 0.578125
vt 0.562500 0.625000
vt 0.421875 0.625000
vt 0.281250 0.765625
vt 0.140625 0.765625
vt 0.421875 0.625000
vt 0.281250 0.625000
vt 0.281250 0.765625
vt 0.421875 0.765625
vn 0.0000 -0.0000 -1.0000
vn 1.0000 0.0000 0.0000
vn 0.0000 0.0000 1.0000
vn -1.0000 -0.0000 0.0000
vn 0.0000 1.0000 -0.0000
vn 0.0000 -1.0000 0.0000
usemtl m_d386809a-4a53-628d-34bf-a9186dae7ab3
s 1
f 113/217/85 114/218/85 115/219/85 116/220/85
f 117/221/86 113/217/86 116/220/86 118/222/86
f 119/223/87 117/224/87 118/225/87 120/226/87
f 114/218/88 119/223/88 120/226/88 115/219/88
f 120/227/89 118/228/89 116/220/89 115/219/89
f 114/229/90 113/230/90 117/231/90 119/232/90
