# Blender v3.6.1 OBJ File: ''
# www.blender.org
mtllib pumpkin_cookie.mtl
o cube.588
v 0.750000 -0.000000 0.250000
v 0.250000 -0.000000 0.250000
v 0.250000 -0.000000 0.250000
v 0.750000 -0.000000 0.250000
v 0.750000 0.000000 0.750000
v 0.750000 0.000000 0.750000
v 0.250000 0.000000 0.750000
v 0.250000 0.000000 0.750000
vt 0.125000 0.875000
vt 0.250000 0.875000
vt 0.250000 0.875000
vt 0.125000 0.875000
vt 0.000000 0.875000
vt 0.000000 0.875000
vt 0.375000 0.875000
vt 0.500000 0.875000
vt 0.500000 0.875000
vt 0.375000 0.875000
vt 0.250000 1.000000
vt 0.125000 1.000000
vt 0.375000 0.875000
vt 0.250000 0.875000
vt 0.250000 1.000000
vt 0.375000 1.000000
vn 0.0000 -0.0000 -1.0000
vn 0.0000 0.0000 0.0000
vn 0.0000 0.0000 1.0000
vn 0.0000 1.0000 -0.0000
vn 0.0000 -1.0000 0.0000
usemtl m_1ed17bfe-f003-224e-7710-10e50a214035
s 1
f 1/1/1 2/2/1 3/3/1 4/4/1
f 5/5/2 1/1/2 4/4/2 6/6/2
f 7/7/3 5/8/3 6/9/3 8/10/3
f 2/2/2 7/7/2 8/10/2 3/3/2
f 8/11/4 6/12/4 4/4/4 3/3/4
f 2/13/5 1/14/5 5/15/5 7/16/5
o cube.589
v 0.812500 0.000063 0.750000
v 0.187500 0.000063 0.750000
v 0.187500 0.162442 0.843750
v 0.812500 0.162442 0.843750
v 0.812500 0.000063 0.750000
v 0.812500 0.162442 0.843750
v 0.187500 0.000063 0.750000
v 0.187500 0.162442 0.843750
vt 0.000000 0.609375
vt 0.156250 0.609375
vt 0.156250 0.656250
vt 0.000000 0.656250
vt 0.000000 0.609375
vt 0.000000 0.656250
vt 0.156250 0.609375
vt 0.312500 0.609375
vt 0.312500 0.656250
vt 0.156250 0.656250
vt 0.312500 0.656250
vt 0.156250 0.656250
vt 0.156250 0.656250
vt 0.312500 0.656250
vn 0.0000 0.5000 -0.8660
vn 0.0000 0.0000 -0.0001
vn 1.0000 0.0000 -0.0001
vn 0.0000 0.0000 -0.0000
vn 1.0000 0.0000 -0.0000
vn 0.0000 -0.5000 0.8660
vn -1.0000 -0.0000 -0.0001
vn -1.0000 -0.0000 -0.0000
vn -0.0000 0.8660 0.5000
vn 0.0000 0.0000 0.5000
vn 0.0000 -0.8660 -0.5000
vn 0.0000 0.0000 -0.5000
usemtl m_1ed17bfe-f003-224e-7710-10e50a214035
s 1
f 9/17/6 10/18/6 11/19/6 12/20/6
f 13/21/7 9/17/8 12/20/9 14/22/10
f 15/23/11 13/24/11 14/25/11 16/26/11
f 10/18/7 15/23/12 16/26/9 11/19/13
f 16/26/14 14/22/15 12/20/14 11/19/15
f 10/27/16 9/28/17 13/29/16 15/30/17
o cube.590
v 0.812500 0.000062 0.250000
v 0.187500 0.000062 0.250000
v 0.187500 0.162442 0.156250
v 0.812500 0.162442 0.156250
v 0.812500 0.000062 0.250000
v 0.812500 0.162442 0.156250
v 0.187500 0.000062 0.250000
v 0.187500 0.162442 0.156250
vt 0.312500 0.828125
vt 0.468750 0.828125
vt 0.468750 0.875000
vt 0.312500 0.875000
vt 0.312500 0.828125
vt 0.312500 0.875000
vt 0.468750 0.828125
vt 0.625000 0.828125
vt 0.625000 0.875000
vt 0.468750 0.875000
vt 0.625000 0.875000
vt 0.468750 0.875000
vt 0.468750 0.875000
vt 0.625000 0.875000
vn 0.0000 -0.5000 -0.8660
vn 0.0000 0.0000 -0.0000
vn 1.0000 0.0000 -0.0000
vn 0.0000 0.0000 -0.0001
vn 1.0000 0.0000 -0.0001
vn 0.0000 0.5000 0.8660
vn -1.0000 -0.0000 -0.0000
vn -1.0000 -0.0000 -0.0001
vn -0.0000 0.8660 -0.5000
vn 0.0000 0.0000 -0.5000
vn 0.0000 -0.8660 0.5000
vn 0.0000 0.0000 0.5000
usemtl m_1ed17bfe-f003-224e-7710-10e50a214035
s 1
f 17/31/18 18/32/18 19/33/18 20/34/18
f 21/35/19 17/31/20 20/34/21 22/36/22
f 23/37/23 21/38/23 22/39/23 24/40/23
f 18/32/19 23/37/24 24/40/21 19/33/25
f 24/40/26 22/36/27 20/34/26 19/33/27
f 18/41/28 17/42/29 21/43/28 23/44/29
o cube.591
v 0.249946 0.000031 0.187500
v 0.249946 0.000031 0.187500
v 0.156196 0.162411 0.187500
v 0.156196 0.162411 0.187500
v 0.249946 0.000031 0.812500
v 0.156196 0.162411 0.812500
v 0.249946 0.000031 0.812500
v 0.156196 0.162411 0.812500
vt 0.156250 0.750000
vt 0.156250 0.750000
vt 0.156250 0.796875
vt 0.156250 0.796875
vt 0.000000 0.750000
vt 0.000000 0.796875
vt 0.312500 0.750000
vt 0.312500 0.750000
vt 0.312500 0.796875
vt 0.312500 0.796875
vt 0.156250 0.953125
vt 0.156250 0.953125
vt 0.156250 0.796875
vt 0.156250 0.796875
vt 0.156250 0.953125
vt 0.156250 0.953125
vn 0.0000 0.0000 -1.0000
vn 0.8660 0.5000 -0.0000
vn 0.0000 0.0000 1.0000
vn -0.8660 -0.5000 0.0000
vn 0.0000 0.0000 0.0000
usemtl m_1ed17bfe-f003-224e-7710-10e50a214035
s 1
f 25/45/30 26/46/30 27/47/30 28/48/30
f 29/49/31 25/45/31 28/48/31 30/50/31
f 31/51/32 29/52/32 30/53/32 32/54/32
f 26/46/33 31/51/33 32/54/33 27/47/33
f 32/55/34 30/56/34 28/48/34 27/47/34
f 26/57/34 25/58/34 29/59/34 31/60/34
o cube.592
v 0.750054 0.000031 0.187500
v 0.750054 0.000031 0.187500
v 0.843804 0.162411 0.187500
v 0.843804 0.162411 0.187500
v 0.750054 0.000031 0.812500
v 0.843804 0.162411 0.812500
v 0.750054 0.000031 0.812500
v 0.843804 0.162411 0.812500
vt 0.156250 0.796875
vt 0.156250 0.796875
vt 0.156250 0.843750
vt 0.156250 0.843750
vt 0.000000 0.796875
vt 0.000000 0.843750
vt 0.312500 0.796875
vt 0.312500 0.796875
vt 0.312500 0.843750
vt 0.312500 0.843750
vt 0.156250 1.000000
vt 0.156250 1.000000
vt 0.156250 0.843750
vt 0.156250 0.843750
vt 0.156250 1.000000
vt 0.156250 1.000000
vn 0.0000 0.0000 -1.0000
vn 0.8660 -0.5000 0.0000
vn 0.0000 0.0000 1.0000
vn -0.8660 0.5000 -0.0000
vn 0.0000 0.0000 0.0000
usemtl m_1ed17bfe-f003-224e-7710-10e50a214035
s 1
f 33/61/35 34/62/35 35/63/35 36/64/35
f 37/65/36 33/61/36 36/64/36 38/66/36
f 39/67/37 37/68/37 38/69/37 40/70/37
f 34/62/38 39/67/38 40/70/38 35/63/38
f 40/71/39 38/72/39 36/64/39 35/63/39
f 34/73/39 33/74/39 37/75/39 39/76/39
o cube.593
v 0.403400 0.006250 0.269464
v 0.417031 0.006250 0.581667
v 0.417031 0.068750 0.581667
v 0.403400 0.068750 0.269464
v 0.715603 0.006250 0.255833
v 0.715603 0.068750 0.255833
v 0.729234 0.006250 0.568036
v 0.729234 0.068750 0.568036
vt 0.078125 0.656250
vt 0.156250 0.656250
vt 0.156250 0.671875
vt 0.078125 0.671875
vt 0.000000 0.656250
vt 0.000000 0.671875
vt 0.234375 0.656250
vt 0.312500 0.656250
vt 0.312500 0.671875
vt 0.234375 0.671875
vt 0.156250 0.750000
vt 0.078125 0.750000
vt 0.234375 0.671875
vt 0.156250 0.671875
vt 0.156250 0.750000
vt 0.234375 0.750000
vn -0.9990 0.0000 0.0436
vn -0.0436 0.0000 -0.9990
vn 0.9990 0.0000 -0.0436
vn 0.0436 0.0000 0.9990
vn -0.0000 1.0000 -0.0000
vn -0.0000 -1.0000 0.0000
usemtl m_1ed17bfe-f003-224e-7710-10e50a214035
s 1
f 41/77/40 42/78/40 43/79/40 44/80/40
f 45/81/41 41/77/41 44/80/41 46/82/41
f 47/83/42 45/84/42 46/85/42 48/86/42
f 42/78/43 47/83/43 48/86/43 43/79/43
f 48/87/44 46/88/44 44/80/44 43/79/44
f 42/89/45 41/90/45 45/91/45 47/92/45
o cube.594
v 0.403400 0.075000 0.269464
v 0.417031 0.075000 0.581667
v 0.417031 0.075000 0.581667
v 0.403400 0.075000 0.269464
v 0.715603 0.075000 0.255833
v 0.715603 0.075000 0.255833
v 0.729234 0.075000 0.568036
v 0.729234 0.075000 0.568036
vt 0.375000 0.921875
vt 0.453125 0.921875
vt 0.453125 0.921875
vt 0.375000 0.921875
vt 0.296875 0.921875
vt 0.296875 0.921875
vt 0.531250 0.921875
vt 0.609375 0.921875
vt 0.609375 0.921875
vt 0.531250 0.921875
vt 0.453125 1.000000
vt 0.375000 1.000000
vt 0.531250 0.921875
vt 0.453125 0.921875
vt 0.453125 1.000000
vt 0.531250 1.000000
vn -0.9990 0.0000 0.0436
vn 0.0000 0.0000 0.0436
vn -0.0436 0.0000 -0.9990
vn 0.0000 0.0000 -0.9990
vn 0.9990 -0.0000 -0.0436
vn 0.0000 0.0000 -0.0436
vn 0.0436 0.0000 0.9990
vn 0.0000 0.0000 0.9990
vn -0.0000 1.0000 -0.0000
vn 0.0000 -1.0000 0.0000
usemtl m_1ed17bfe-f003-224e-7710-10e50a214035
s 1
f 49/93/46 50/94/47 51/95/46 52/96/47
f 53/97/48 49/93/49 52/96/48 54/98/49
f 55/99/50 53/100/51 54/101/50 56/102/51
f 50/94/52 55/99/53 56/102/52 51/95/53
f 56/103/54 54/104/54 52/96/54 51/95/54
f 50/105/55 49/106/55 53/107/55 55/108/55
o cube.595
v 0.372276 0.140369 0.332221
v 0.244985 0.009317 0.585754
v 0.233014 0.066056 0.609071
v 0.360305 0.197107 0.355539
v 0.651329 0.141439 0.472879
v 0.639358 0.198177 0.496197
v 0.524038 0.010387 0.726411
v 0.512067 0.067125 0.749729
vt 0.312500 0.734375
vt 0.390625 0.734375
vt 0.390625 0.750000
vt 0.312500 0.750000
vt 0.234375 0.734375
vt 0.234375 0.750000
vt 0.468750 0.734375
vt 0.546875 0.734375
vt 0.546875 0.750000
vt 0.468750 0.750000
vt 0.390625 0.828125
vt 0.312500 0.828125
vt 0.468750 0.750000
vt 0.390625 0.750000
vt 0.390625 0.828125
vt 0.468750 0.828125
vn -0.8930 -0.0034 -0.4501
vn 0.4073 0.4194 -0.8113
vn 0.8930 0.0034 0.4501
vn -0.4073 -0.4194 0.8113
vn -0.1915 0.9078 0.3731
vn 0.1915 -0.9078 -0.3731
usemtl m_1ed17bfe-f003-224e-7710-10e50a214035
s 1
f 57/109/56 58/110/56 59/111/56 60/112/56
f 61/113/57 57/109/57 60/112/57 62/114/57
f 63/115/58 61/116/58 62/117/58 64/118/58
f 58/110/59 63/115/59 64/118/59 59/111/59
f 64/119/60 62/120/60 60/112/60 59/111/60
f 58/121/61 57/122/61 61/123/61 63/124/61
o cube.596
v 0.359108 0.202781 0.357871
v 0.231817 0.071730 0.611403
v 0.231817 0.071730 0.611403
v 0.359108 0.202781 0.357871
v 0.638161 0.203851 0.498529
v 0.638161 0.203851 0.498529
v 0.510870 0.072799 0.752061
v 0.510870 0.072799 0.752061
vt 0.312500 0.656250
vt 0.390625 0.656250
vt 0.390625 0.656250
vt 0.312500 0.656250
vt 0.234375 0.656250
vt 0.234375 0.656250
vt 0.468750 0.656250
vt 0.546875 0.656250
vt 0.546875 0.656250
vt 0.468750 0.656250
vt 0.390625 0.734375
vt 0.312500 0.734375
vt 0.468750 0.656250
vt 0.390625 0.656250
vt 0.390625 0.734375
vt 0.468750 0.734375
vn -0.8930 -0.0034 -0.4501
vn 0.0000 0.0000 -0.4501
vn -0.8930 -0.0035 -0.4501
vn 0.4073 0.4193 -0.8113
vn 0.0000 0.0000 -0.8113
vn 0.8930 0.0034 0.4501
vn 0.0000 0.0000 0.4501
vn 0.8930 0.0035 0.4501
vn -0.4073 -0.4194 0.8113
vn 0.0000 0.0000 0.8113
vn -0.1915 0.9078 0.3731
vn 0.1915 -0.9078 -0.3731
usemtl m_1ed17bfe-f003-224e-7710-10e50a214035
s 1
f 65/125/62 66/126/63 67/127/64 68/128/63
f 69/129/65 65/125/66 68/128/65 70/130/66
f 71/131/67 69/132/68 70/133/69 72/134/68
f 66/126/70 71/131/71 72/134/70 67/127/71
f 72/135/72 70/136/72 68/128/72 67/127/72
f 66/137/73 65/138/73 69/139/73 71/140/73
