# Blender 3.6.1
# www.blender.org
mtllib pumpkin_cookie.mtl
o cube
v 0.750000 0.006250 0.750000
v 0.750000 0.006250 0.250000
v 0.750000 0.006250 0.750000
v 0.750000 0.006250 0.250000
v 0.250000 0.006250 0.250000
v 0.250000 0.006250 0.750000
v 0.250000 0.006250 0.250000
v 0.250000 0.006250 0.750000
vn -0.0000 -0.0000 -1.0000
vn -0.0000 -0.0000 -0.0000
vn -0.0000 -0.0000 1.0000
vn -0.0000 1.0000 -0.0000
vn -0.0000 -1.0000 -0.0000
vt 0.125000 0.875000
vt 0.250000 0.875000
vt 0.000000 0.875000
vt 0.375000 0.875000
vt 0.500000 0.875000
vt 0.250000 1.000000
vt 0.125000 1.000000
vt 0.375000 1.000000
s 0
usemtl m_1ed17bfe-f003-224e-7710-10e50a214035
f 4/1/1 7/2/1 5/2/1 2/1/1
f 3/3/2 4/1/2 2/1/2 1/3/2
f 8/4/3 3/5/3 1/5/3 6/4/3
f 7/2/2 8/4/2 6/4/2 5/2/4
f 6/6/4 1/7/4 2/1/4 5/2/4
f 7/4/5 4/2/5 3/6/5 8/8/5
o cube.001
v 0.156196 0.168661 0.812500
v 0.156196 0.168661 0.187500
v 0.249946 0.006281 0.812500
v 0.249946 0.006281 0.187500
v 0.156196 0.168661 0.187500
v 0.156196 0.168661 0.812500
v 0.249946 0.006281 0.187500
v 0.249946 0.006281 0.812500
vn -0.0000 -0.0000 -1.0000
vn 0.8660 0.5000 -0.0000
vn -0.0000 -0.0000 1.0000
vn -0.8660 -0.5000 -0.0000
vn -0.0000 1.0000 -0.0000
vn -0.0000 -1.0000 -0.0000
vt 0.156250 0.750000
vt 0.156250 0.796875
vt 0.000000 0.750000
vt 0.000000 0.796875
vt 0.312500 0.750000
vt 0.312500 0.796875
vt 0.156250 0.953125
s 0
usemtl m_1ed17bfe-f003-224e-7710-10e50a214035
f 12/9/6 15/9/6 13/10/6 10/10/6
f 11/11/7 12/9/7 10/10/7 9/12/7
f 16/13/8 11/13/8 9/14/8 14/14/8
f 15/9/9 16/13/9 14/14/9 13/10/9
f 14/15/10 9/15/10 10/10/10 13/10/10
f 15/10/11 12/10/11 11/15/11 16/15/11
o cube.002
v 0.843804 0.168661 0.812500
v 0.843804 0.168661 0.187500
v 0.750054 0.006281 0.812500
v 0.750054 0.006281 0.187500
v 0.843804 0.168661 0.187500
v 0.843804 0.168661 0.812500
v 0.750054 0.006281 0.187500
v 0.750054 0.006281 0.812500
vn -0.0000 -0.0000 -1.0000
vn 0.8660 -0.5000 -0.0000
vn -0.0000 -0.0000 1.0000
vn -0.8660 0.5000 -0.0000
vn -0.0000 1.0000 -0.0000
vn -0.0000 -1.0000 -0.0000
vt 0.156250 0.796875
vt 0.156250 0.843750
vt 0.000000 0.796875
vt 0.000000 0.843750
vt 0.312500 0.796875
vt 0.312500 0.843750
vt 0.156250 1.000000
s 0
usemtl m_1ed17bfe-f003-224e-7710-10e50a214035
f 20/16/12 23/16/12 21/17/12 18/17/12
f 19/18/13 20/16/13 18/17/13 17/19/13
f 24/20/14 19/20/14 17/21/14 22/21/14
f 23/16/15 24/20/15 22/21/15 21/17/15
f 22/22/16 17/22/16 18/17/16 21/17/16
f 23/17/17 20/17/17 19/22/17 24/22/17
o cube.003
v 0.812500 0.168692 0.843750
v 0.812500 0.168692 0.843750
v 0.812500 0.006313 0.750000
v 0.812500 0.006313 0.750000
v 0.187500 0.168692 0.843750
v 0.187500 0.168692 0.843750
v 0.187500 0.006313 0.750000
v 0.187500 0.006313 0.750000
vn -0.0000 0.5000 -0.8660
vn -0.0000 -0.0000 -1.0000
vn 1.0000 -0.0000 -0.0001
vn 1.0000 -0.0000 -0.0000
vn -0.0000 -0.5000 0.8660
vn -1.0000 -0.0000 -0.0001
vn -1.0000 -0.0000 -0.0000
vn -0.0000 0.8660 0.5000
vn -0.0000 -0.0000 1.0000
vn -0.0000 -0.8660 -0.5000
vt 0.000000 0.609375
vt 0.156250 0.609375
vt 0.156250 0.656250
vt 0.000000 0.656250
vt 0.312500 0.609375
vt 0.312500 0.656250
s 0
usemtl m_1ed17bfe-f003-224e-7710-10e50a214035
f 28/23/18 31/24/18 29/25/18 26/26/18
f 27/23/19 28/23/20 26/26/19 25/26/21
f 32/24/22 27/27/22 25/28/22 30/25/22
f 31/24/19 32/24/23 30/25/19 29/25/24
f 30/25/25 25/26/26 26/26/25 29/25/26
f 31/28/27 28/25/19 27/25/27 32/28/19
o cube.004
v 0.812500 0.168692 0.156250
v 0.812500 0.168692 0.156250
v 0.812500 0.006312 0.250000
v 0.812500 0.006312 0.250000
v 0.187500 0.168692 0.156250
v 0.187500 0.168692 0.156250
v 0.187500 0.006312 0.250000
v 0.187500 0.006312 0.250000
vn -0.0000 -0.5000 -0.8660
vn -0.0000 -0.0000 -1.0000
vn 1.0000 -0.0000 -0.0000
vn 1.0000 -0.0000 -0.0001
vn -0.0000 0.5000 0.8660
vn -1.0000 -0.0000 -0.0000
vn -1.0000 -0.0000 -0.0001
vn -0.0000 0.8660 -0.5000
vn -0.0000 -0.8660 0.5000
vn -0.0000 -0.0000 1.0000
vt 0.312500 0.828125
vt 0.468750 0.828125
vt 0.468750 0.875000
vt 0.312500 0.875000
vt 0.625000 0.828125
vt 0.625000 0.875000
s 0
usemtl m_1ed17bfe-f003-224e-7710-10e50a214035
f 36/29/28 39/30/28 37/31/28 34/32/28
f 35/29/29 36/29/30 34/32/29 33/32/31
f 40/30/32 35/33/32 33/34/32 38/31/32
f 39/30/29 40/30/33 38/31/29 37/31/34
f 38/31/35 33/32/29 34/32/35 37/31/29
f 39/34/36 36/31/37 35/31/36 40/34/37
o cube.005
v 0.715603 0.075000 0.255833
v 0.403400 0.075000 0.269464
v 0.715603 0.012500 0.255833
v 0.403400 0.012500 0.269464
v 0.417031 0.075000 0.581667
v 0.729234 0.075000 0.568036
v 0.417031 0.012500 0.581667
v 0.729234 0.012500 0.568036
vn -0.9990 -0.0000 0.0436
vn -0.0436 -0.0000 -0.9990
vn 0.9990 -0.0000 -0.0436
vn 0.0436 -0.0000 0.9990
vn -0.0000 1.0000 -0.0000
vn -0.0000 -1.0000 -0.0000
vt 0.078125 0.656250
vt 0.156250 0.656250
vt 0.156250 0.671875
vt 0.078125 0.671875
vt 0.000000 0.656250
vt 0.000000 0.671875
vt 0.234375 0.656250
vt 0.312500 0.656250
vt 0.312500 0.671875
vt 0.234375 0.671875
vt 0.156250 0.750000
vt 0.078125 0.750000
vt 0.234375 0.750000
s 0
usemtl m_1ed17bfe-f003-224e-7710-10e50a214035
f 44/35/38 47/36/38 45/37/38 42/38/38
f 43/39/39 44/35/39 42/38/39 41/40/39
f 48/41/40 43/42/40 41/43/40 46/44/40
f 47/36/41 48/41/41 46/44/41 45/37/41
f 46/45/42 41/46/42 42/38/42 45/37/42
f 47/44/43 44/37/43 43/45/43 48/47/43
o cube.006
v 0.715603 0.081250 0.255833
v 0.403400 0.081250 0.269464
v 0.715603 0.081250 0.255833
v 0.403400 0.081250 0.269464
v 0.417031 0.081250 0.581667
v 0.729234 0.081250 0.568036
v 0.417031 0.081250 0.581667
v 0.729234 0.081250 0.568036
vn -0.9990 -0.0000 0.0436
vn -0.0000 -0.0000 1.0000
vn -0.0436 -0.0000 -0.9990
vn -0.0000 -0.0000 -1.0000
vn 0.9990 -0.0000 -0.0436
vn 0.0436 -0.0000 0.9990
vn -0.0000 1.0000 -0.0000
vn -0.0000 -1.0000 -0.0000
vt 0.375000 0.921875
vt 0.453125 0.921875
vt 0.296875 0.921875
vt 0.531250 0.921875
vt 0.609375 0.921875
vt 0.453125 1.000000
vt 0.375000 1.000000
vt 0.531250 1.000000
s 0
usemtl m_1ed17bfe-f003-224e-7710-10e50a214035
f 52/48/44 55/49/45 53/49/44 50/48/45
f 51/50/46 52/48/47 50/48/46 49/50/47
f 56/51/48 51/52/47 49/52/48 54/51/47
f 55/49/49 56/51/45 54/51/49 53/49/45
f 54/53/50 49/54/50 50/48/50 53/49/50
f 55/51/51 52/49/51 51/53/51 56/55/51
o cube.007
v 0.639358 0.204427 0.496197
v 0.360305 0.203357 0.355539
v 0.651329 0.147689 0.472879
v 0.372276 0.146619 0.332221
v 0.233014 0.072306 0.609071
v 0.512067 0.073375 0.749729
v 0.244985 0.015567 0.585754
v 0.524038 0.016637 0.726411
vn -0.8930 -0.0034 -0.4501
vn 0.4073 0.4194 -0.8113
vn 0.8930 0.0034 0.4501
vn -0.4073 -0.4194 0.8113
vn -0.1915 0.9078 0.3731
vn 0.1915 -0.9078 -0.3731
vt 0.312500 0.734375
vt 0.390625 0.734375
vt 0.390625 0.750000
vt 0.312500 0.750000
vt 0.234375 0.734375
vt 0.234375 0.750000
vt 0.468750 0.734375
vt 0.546875 0.734375
vt 0.546875 0.750000
vt 0.468750 0.750000
vt 0.390625 0.828125
vt 0.312500 0.828125
vt 0.468750 0.828125
s 0
usemtl m_1ed17bfe-f003-224e-7710-10e50a214035
f 60/56/52 63/57/52 61/58/52 58/59/52
f 59/60/53 60/56/53 58/59/53 57/61/53
f 64/62/54 59/63/54 57/64/54 62/65/54
f 63/57/55 64/62/55 62/65/55 61/58/55
f 62/66/56 57/67/56 58/59/56 61/58/56
f 63/65/57 60/58/57 59/66/57 64/68/57
o cube.008
v 0.638161 0.210101 0.498529
v 0.359108 0.209031 0.357871
v 0.638161 0.210101 0.498529
v 0.359108 0.209031 0.357871
v 0.231817 0.077980 0.611403
v 0.510870 0.079049 0.752061
v 0.231817 0.077980 0.611403
v 0.510870 0.079049 0.752061
vn -0.8930 -0.0034 -0.4501
vn -0.0000 -0.0000 -1.0000
vn -0.8930 -0.0035 -0.4501
vn 0.4073 0.4193 -0.8113
vn 0.8930 0.0034 0.4501
vn -0.0000 -0.0000 1.0000
vn 0.8930 0.0035 0.4501
vn -0.4073 -0.4194 0.8113
vn -0.1915 0.9078 0.3731
vn 0.1915 -0.9078 -0.3731
vt 0.312500 0.656250
vt 0.390625 0.656250
vt 0.234375 0.656250
vt 0.468750 0.656250
vt 0.546875 0.656250
vt 0.390625 0.734375
vt 0.312500 0.734375
vt 0.468750 0.734375
s 0
usemtl m_1ed17bfe-f003-224e-7710-10e50a214035
f 68/69/58 71/70/59 69/70/60 66/69/59
f 67/71/61 68/69/59 66/69/61 65/71/59
f 72/72/62 67/73/63 65/73/64 70/72/63
f 71/70/65 72/72/63 70/72/65 69/70/63
f 70/74/66 65/75/66 66/69/66 69/70/66
f 71/72/67 68/70/67 67/74/67 72/76/67
