# Blender v3.6.1 OBJ File: ''
# www.blender.org
mtllib cooked_egg.mtl
o cube.157
v 0.812500 0.003125 0.250000
v 0.187500 0.003125 0.250000
v 0.187500 0.003125 0.250000
v 0.812500 0.003125 0.250000
v 0.812500 0.003125 0.750000
v 0.812500 0.003125 0.750000
v 0.187500 0.003125 0.750000
v 0.187500 0.003125 0.750000
vt 0.125000 0.875000
vt 0.281250 0.875000
vt 0.281250 0.875000
vt 0.125000 0.875000
vt 0.000000 0.875000
vt 0.000000 0.875000
vt 0.406250 0.875000
vt 0.562500 0.875000
vt 0.562500 0.875000
vt 0.406250 0.875000
vt 0.281250 1.000000
vt 0.125000 1.000000
vt 0.437500 0.875000
vt 0.281250 0.875000
vt 0.281250 1.000000
vt 0.437500 1.000000
vn 0.0000 -0.0000 -1.0000
vn 0.0000 0.0000 0.0000
vn -12.9258 4.9583 13.3589
vn 1.0000 1.0000 0.0000
vn 0.0000 0.0000 1.0000
vn 0.0000 1.0000 0.0000
vn 0.0000 -1.0000 0.0000
usemtl m_85e61476-51f5-be78-4dc7-fb338d963598
s 1
f 1/1/1 2/2/1 3/3/1 4/4/1
f 5/5/2 1/1/3 4/4/4 6/6/2
f 7/7/5 5/8/5 6/9/5 8/10/5
f 2/2/5 7/7/6 8/10/2 3/3/2
f 8/11/6 6/12/6 4/4/6 3/3/6
f 2/13/7 1/14/7 5/15/7 7/16/7
o cube.158
v 0.618060 0.012500 0.433004
v 0.502575 0.012500 0.480840
v 0.502575 0.075000 0.480840
v 0.618060 0.075000 0.433004
v 0.665895 0.012500 0.548489
v 0.665895 0.075000 0.548489
v 0.550410 0.012500 0.596325
v 0.550410 0.075000 0.596325
vt 0.031250 0.953125
vt 0.062500 0.953125
vt 0.062500 0.968750
vt 0.031250 0.968750
vt 0.000000 0.953125
vt 0.000000 0.968750
vt 0.093750 0.953125
vt 0.125000 0.953125
vt 0.125000 0.968750
vt 0.093750 0.968750
vt 0.062500 1.000000
vt 0.031250 1.000000
vt 0.093750 0.968750
vt 0.062500 0.968750
vt 0.062500 1.000000
vt 0.093750 1.000000
vn -0.3827 0.0000 -0.9239
vn 0.9239 0.0000 -0.3827
vn 0.3827 0.0000 0.9239
vn -0.9239 0.0000 0.3827
vn 0.0000 1.0000 0.0000
vn 0.0000 -1.0000 0.0000
usemtl m_85e61476-51f5-be78-4dc7-fb338d963598
s 1
f 9/17/8 10/18/8 11/19/8 12/20/8
f 13/21/9 9/17/9 12/20/9 14/22/9
f 15/23/10 13/24/10 14/25/10 16/26/10
f 10/18/11 15/23/11 16/26/11 11/19/11
f 16/27/12 14/28/12 12/20/12 11/19/12
f 10/29/13 9/30/13 13/31/13 15/32/13
o cube.159
v 0.627967 0.009375 0.293602
v 0.339254 0.009375 0.413190
v 0.339254 0.009375 0.413190
v 0.627967 0.009375 0.293602
v 0.747555 0.009375 0.582314
v 0.747555 0.009375 0.582314
v 0.458843 0.009375 0.701903
v 0.458843 0.009375 0.701903
vt 0.078125 0.796875
vt 0.156250 0.796875
vt 0.156250 0.796875
vt 0.078125 0.796875
vt 0.000000 0.796875
vt 0.000000 0.796875
vt 0.234375 0.796875
vt 0.312500 0.796875
vt 0.312500 0.796875
vt 0.234375 0.796875
vt 0.156250 0.875000
vt 0.078125 0.875000
vt 0.234375 0.796875
vt 0.156250 0.796875
vt 0.156250 0.875000
vt 0.234375 0.875000
vn -0.3827 0.0000 -0.9239
vn 0.0000 0.0000 -0.9239
vn 0.9239 -0.0000 -0.3827
vn 0.0000 0.0000 -0.3827
vn 0.3827 -0.0000 0.9239
vn 0.0000 0.0000 0.9239
vn -0.9239 0.0000 0.3826
vn 0.0000 0.0000 0.3827
vn -0.9239 -0.0000 0.3827
vn 0.0000 0.0000 0.3826
vn -0.0000 1.0000 -0.0000
vn 0.0000 -1.0000 0.0000
usemtl m_85e61476-51f5-be78-4dc7-fb338d963598
s 1
f 17/33/14 18/34/15 19/35/14 20/36/15
f 21/37/16 17/33/17 20/36/16 22/38/17
f 23/39/18 21/40/19 22/41/18 24/42/19
f 18/34/20 23/39/21 24/42/22 19/35/23
f 24/43/24 22/44/24 20/36/24 19/35/24
f 18/45/25 17/46/25 21/47/25 23/48/25
