# Blender v3.6.1 OBJ File: ''
# www.blender.org
mtllib fish_tacos.mtl
o cube.195
v 0.750000 0.006250 0.125000
v 0.250000 0.006250 0.125000
v 0.250000 0.006250 0.125000
v 0.750000 0.006250 0.125000
v 0.750000 0.006250 0.875000
v 0.750000 0.006250 0.875000
v 0.250000 0.006250 0.875000
v 0.250000 0.006250 0.875000
vt 0.187500 0.812500
vt 0.312500 0.812500
vt 0.312500 0.812500
vt 0.187500 0.812500
vt 0.000000 0.812500
vt 0.000000 0.812500
vt 0.500000 0.812500
vt 0.625000 0.812500
vt 0.625000 0.812500
vt 0.500000 0.812500
vt 0.312500 1.000000
vt 0.187500 1.000000
vt 0.437500 0.812500
vt 0.312500 0.812500
vt 0.312500 1.000000
vt 0.437500 1.000000
vn 0.0000 -0.0000 -1.0000
vn 0.0000 0.0000 0.0000
vn 0.0000 0.0000 1.0000
vn 0.0000 1.0000 -0.0000
vn 0.0000 -1.0000 0.0000
usemtl m_cf8a92bb-460b-d8aa-fe16-fe8591817970
s 1
f 1/1/1 2/2/1 3/3/1 4/4/1
f 5/5/2 1/1/2 4/4/2 6/6/2
f 7/7/3 5/8/3 6/9/3 8/10/3
f 2/2/2 7/7/2 8/10/2 3/3/2
f 8/11/4 6/12/4 4/4/4 3/3/4
f 2/13/5 1/14/5 5/15/5 7/16/5
o cube.196
v 0.812500 0.012500 0.562500
v 0.187500 0.012500 0.562500
v 0.187500 0.012500 0.562500
v 0.812500 0.012500 0.562500
v 0.812500 0.012500 0.687500
v 0.812500 0.012500 0.687500
v 0.187500 0.012500 0.687500
v 0.187500 0.012500 0.687500
vt 0.031250 0.562500
vt 0.187500 0.562500
vt 0.187500 0.562500
vt 0.031250 0.562500
vt 0.000000 0.562500
vt 0.000000 0.562500
vt 0.218750 0.562500
vt 0.375000 0.562500
vt 0.375000 0.562500
vt 0.218750 0.562500
vt 0.187500 0.593750
vt 0.031250 0.593750
vt 0.343750 0.562500
vt 0.187500 0.562500
vt 0.187500 0.593750
vt 0.343750 0.593750
vn 0.0000 -0.0000 -1.0000
vn 0.0000 0.0000 0.0000
vn 0.0000 0.0000 1.0000
vn 0.0000 1.0000 -0.0000
vn 0.0000 -1.0000 0.0000
usemtl m_cf8a92bb-460b-d8aa-fe16-fe8591817970
s 1
f 9/17/6 10/18/6 11/19/6 12/20/6
f 13/21/7 9/17/7 12/20/7 14/22/7
f 15/23/8 13/24/8 14/25/8 16/26/8
f 10/18/7 15/23/7 16/26/7 11/19/7
f 16/27/9 14/28/9 12/20/9 11/19/9
f 10/29/10 9/30/10 13/31/10 15/32/10
o cube.197
v 0.812500 0.012571 0.687438
v 0.187500 0.012571 0.687438
v 0.187500 0.384363 0.736385
v 0.812500 0.384363 0.736385
v 0.812500 0.012571 0.687438
v 0.812500 0.384363 0.736385
v 0.187500 0.012571 0.687438
v 0.187500 0.384363 0.736385
vt 0.312500 0.593750
vt 0.468750 0.593750
vt 0.468750 0.687500
vt 0.312500 0.687500
vt 0.312500 0.593750
vt 0.312500 0.687500
vt 0.468750 0.593750
vt 0.625000 0.593750
vt 0.625000 0.687500
vt 0.468750 0.687500
vt 0.625000 0.687500
vt 0.468750 0.687500
vt 0.468750 0.687500
vt 0.625000 0.687500
vn 0.0000 0.1305 -0.9914
vn 0.0000 0.0000 -0.0000
vn 1.0000 0.0000 -0.0000
vn 0.0000 -0.1305 0.9914
vn -1.0000 -0.0000 -0.0000
vn -0.0000 0.9914 0.1305
vn 0.0000 0.0000 0.1305
vn 0.0000 -0.9914 -0.1305
vn 0.0000 0.0000 -0.1305
usemtl m_cf8a92bb-460b-d8aa-fe16-fe8591817970
s 1
f 17/33/11 18/34/11 19/35/11 20/36/11
f 21/37/12 17/33/13 20/36/12 22/38/13
f 23/39/14 21/40/14 22/41/14 24/42/14
f 18/34/12 23/39/15 24/42/12 19/35/15
f 24/42/16 22/38/17 20/36/16 19/35/17
f 18/43/18 17/44/19 21/45/18 23/46/19
o cube.198
v 0.812500 0.012563 0.562500
v 0.187500 0.012563 0.562500
v 0.187500 0.384354 0.513553
v 0.812500 0.384354 0.513553
v 0.812500 0.012563 0.562500
v 0.812500 0.384354 0.513553
v 0.187500 0.012563 0.562500
v 0.187500 0.384354 0.513553
vt 0.312500 0.687500
vt 0.468750 0.687500
vt 0.468750 0.781250
vt 0.312500 0.781250
vt 0.312500 0.687500
vt 0.312500 0.781250
vt 0.468750 0.687500
vt 0.625000 0.687500
vt 0.625000 0.781250
vt 0.468750 0.781250
vt 0.625000 0.781250
vt 0.468750 0.781250
vt 0.468750 0.781250
vt 0.625000 0.781250
vn 0.0000 -0.1305 -0.9914
vn 0.0000 0.0000 0.0000
vn 1.0000 0.0000 0.0000
vn 0.0000 0.1305 0.9914
vn -1.0000 -0.0000 0.0000
vn -0.0000 0.9914 -0.1305
vn 0.0000 0.0000 -0.1305
vn 0.0000 -0.9914 0.1305
vn 0.0000 0.0000 0.1305
usemtl m_cf8a92bb-460b-d8aa-fe16-fe8591817970
s 1
f 25/47/20 26/48/20 27/49/20 28/50/20
f 29/51/21 25/47/22 28/50/21 30/52/22
f 31/53/23 29/54/23 30/55/23 32/56/23
f 26/48/21 31/53/24 32/56/21 27/49/24
f 32/56/25 30/52/26 28/50/25 27/49/26
f 26/57/27 25/58/28 29/59/27 31/60/28
o fishchunk
v 0.401422 0.058223 0.562500
v 0.218366 0.017640 0.562500
v 0.164256 0.261714 0.562500
v 0.347312 0.302297 0.562500
v 0.401422 0.058223 0.687500
v 0.347312 0.302297 0.687500
v 0.218366 0.017640 0.687500
v 0.164256 0.261714 0.687500
vt 0.468750 0.437500
vt 0.515625 0.437500
vt 0.515625 0.500000
vt 0.468750 0.500000
vt 0.437500 0.437500
vt 0.437500 0.500000
vt 0.546875 0.437500
vt 0.593750 0.437500
vt 0.593750 0.500000
vt 0.546875 0.500000
vt 0.515625 0.531250
vt 0.468750 0.531250
vt 0.562500 0.500000
vt 0.515625 0.500000
vt 0.515625 0.531250
vt 0.562500 0.531250
vn 0.0000 0.0000 -1.0000
vn 0.9763 0.2164 0.0000
vn 0.0000 0.0000 1.0000
vn -0.9763 -0.2164 0.0000
vn -0.2164 0.9763 0.0000
vn 0.2164 -0.9763 0.0000
usemtl m_cf8a92bb-460b-d8aa-fe16-fe8591817970
s 1
f 33/61/29 34/62/29 35/63/29 36/64/29
f 37/65/30 33/61/30 36/64/30 38/66/30
f 39/67/31 37/68/31 38/69/31 40/70/31
f 34/62/32 39/67/32 40/70/32 35/63/32
f 40/71/33 38/72/33 36/64/33 35/63/33
f 34/73/34 33/74/34 37/75/34 39/76/34
o fishchunk.000
v 0.204839 0.078659 0.562500
v 0.143820 0.065131 0.562500
v 0.103238 0.248187 0.562500
v 0.164256 0.261714 0.562500
v 0.204839 0.078659 0.687500
v 0.164256 0.261714 0.687500
v 0.143820 0.065131 0.687500
v 0.103238 0.248187 0.687500
vt 0.031250 0.421875
vt 0.046875 0.421875
vt 0.046875 0.468750
vt 0.031250 0.468750
vt 0.000000 0.421875
vt 0.000000 0.468750
vt 0.078125 0.421875
vt 0.093750 0.421875
vt 0.093750 0.468750
vt 0.078125 0.468750
vt 0.046875 0.500000
vt 0.031250 0.500000
vt 0.062500 0.468750
vt 0.046875 0.468750
vt 0.046875 0.500000
vt 0.062500 0.500000
vn 0.0000 0.0000 -1.0000
vn 0.9763 0.2164 0.0000
vn -0.0000 0.0000 1.0000
vn -0.9763 -0.2164 0.0000
vn -0.2164 0.9763 0.0000
vn 0.2164 -0.9763 0.0000
usemtl m_cf8a92bb-460b-d8aa-fe16-fe8591817970
s 1
f 41/77/35 42/78/35 43/79/35 44/80/35
f 45/81/36 41/77/36 44/80/36 46/82/36
f 47/83/37 45/84/37 46/85/37 48/86/37
f 42/78/38 47/83/38 48/86/38 43/79/38
f 48/87/39 46/88/39 44/80/39 43/79/39
f 42/89/40 41/90/40 45/91/40 47/92/40
o fishchunk.001
v 0.829547 0.058223 0.562500
v 0.646491 0.017640 0.562500
v 0.592381 0.261714 0.562500
v 0.775437 0.302297 0.562500
v 0.829547 0.058223 0.687500
v 0.775437 0.302297 0.687500
v 0.646491 0.017640 0.687500
v 0.592381 0.261714 0.687500
vt 0.312500 0.437500
vt 0.359375 0.437500
vt 0.359375 0.500000
vt 0.312500 0.500000
vt 0.281250 0.437500
vt 0.281250 0.500000
vt 0.390625 0.437500
vt 0.437500 0.437500
vt 0.437500 0.500000
vt 0.390625 0.500000
vt 0.359375 0.531250
vt 0.312500 0.531250
vt 0.406250 0.500000
vt 0.359375 0.500000
vt 0.359375 0.531250
vt 0.406250 0.531250
vn 0.0000 0.0000 -1.0000
vn 0.9763 0.2164 0.0000
vn 0.0000 0.0000 1.0000
vn -0.9763 -0.2164 0.0000
vn -0.2164 0.9763 0.0000
vn 0.2164 -0.9763 0.0000
usemtl m_cf8a92bb-460b-d8aa-fe16-fe8591817970
s 1
f 49/93/41 50/94/41 51/95/41 52/96/41
f 53/97/42 49/93/42 52/96/42 54/98/42
f 55/99/43 53/100/43 54/101/43 56/102/43
f 50/94/44 55/99/44 56/102/44 51/95/44
f 56/103/45 54/104/45 52/96/45 51/95/45
f 50/105/46 49/106/46 53/107/46 55/108/46
o cube.199
v 0.812500 0.201757 0.711391
v 0.187500 0.201757 0.711391
v 0.187500 0.418263 0.586391
v 0.812500 0.418263 0.586391
v 0.812500 0.201757 0.711391
v 0.812500 0.418263 0.586391
v 0.187500 0.201757 0.711391
v 0.187500 0.418263 0.586391
vt 0.437500 0.875000
vt 0.593750 0.875000
vt 0.593750 0.937500
vt 0.437500 0.937500
vt 0.437500 0.875000
vt 0.437500 0.937500
vt 0.593750 0.875000
vt 0.750000 0.875000
vt 0.750000 0.937500
vt 0.593750 0.937500
vt 0.750000 0.937500
vt 0.593750 0.937500
vt 0.593750 0.937500
vt 0.750000 0.937500
vn 0.0000 -0.5000 -0.8660
vn 0.0000 0.0000 -0.0000
vn 1.0000 0.0000 -0.0000
vn 0.0000 0.0000 -0.0001
vn 1.0000 0.0000 -0.0001
vn 0.0000 0.5000 0.8660
vn -1.0000 -0.0000 -0.0000
vn -1.0000 -0.0000 -0.0001
vn -0.0000 0.8660 -0.5000
vn 0.0000 0.0000 -0.5000
vn 0.0000 -0.8660 0.5000
vn 0.0000 0.0000 0.5000
usemtl m_cf8a92bb-460b-d8aa-fe16-fe8591817970
s 1
f 57/109/47 58/110/47 59/111/47 60/112/47
f 61/113/48 57/109/49 60/112/50 62/114/51
f 63/115/52 61/116/52 62/117/52 64/118/52
f 58/110/48 63/115/53 64/118/50 59/111/54
f 64/118/55 62/114/56 60/112/55 59/111/56
f 58/119/57 57/120/58 61/121/57 63/122/58
o cube.200
v 0.812500 0.201912 0.538405
v 0.187500 0.201912 0.538405
v 0.187500 0.418418 0.663405
v 0.812500 0.418418 0.663405
v 0.812500 0.201912 0.538405
v 0.812500 0.418418 0.663405
v 0.187500 0.201912 0.538405
v 0.187500 0.418418 0.663405
vt 0.437500 0.937500
vt 0.593750 0.937500
vt 0.593750 1.000000
vt 0.437500 1.000000
vt 0.437500 0.937500
vt 0.437500 1.000000
vt 0.593750 0.937500
vt 0.750000 0.937500
vt 0.750000 1.000000
vt 0.593750 1.000000
vt 0.750000 1.000000
vt 0.593750 1.000000
vt 0.593750 1.000000
vt 0.750000 1.000000
vn 0.0000 0.5000 -0.8660
vn 0.0000 0.0000 -0.0001
vn 1.0000 0.0000 -0.0001
vn 0.0000 0.0000 -0.0000
vn 1.0000 0.0000 -0.0000
vn 0.0000 -0.5000 0.8660
vn -1.0000 -0.0000 -0.0001
vn -1.0000 -0.0000 -0.0000
vn -0.0000 0.8660 0.5000
vn 0.0000 0.0000 0.5000
vn 0.0000 -0.8660 -0.5000
vn 0.0000 0.0000 -0.5000
usemtl m_cf8a92bb-460b-d8aa-fe16-fe8591817970
s 1
f 65/123/59 66/124/59 67/125/59 68/126/59
f 69/127/60 65/123/61 68/126/62 70/128/63
f 71/129/64 69/130/64 70/131/64 72/132/64
f 66/124/60 71/129/65 72/132/62 67/125/66
f 72/132/67 70/128/68 68/126/67 67/125/68
f 66/133/69 65/134/70 69/135/69 71/136/70
o fishchunk.002
v 0.610797 0.058223 0.562500
v 0.427741 0.017640 0.562500
v 0.373631 0.261714 0.562500
v 0.556687 0.302297 0.562500
v 0.610797 0.058223 0.687500
v 0.556687 0.302297 0.687500
v 0.427741 0.017640 0.687500
v 0.373631 0.261714 0.687500
vt 0.312500 0.437500
vt 0.359375 0.437500
vt 0.359375 0.500000
vt 0.312500 0.500000
vt 0.281250 0.437500
vt 0.281250 0.500000
vt 0.390625 0.437500
vt 0.437500 0.437500
vt 0.437500 0.500000
vt 0.390625 0.500000
vt 0.359375 0.531250
vt 0.312500 0.531250
vt 0.406250 0.500000
vt 0.359375 0.500000
vt 0.359375 0.531250
vt 0.406250 0.531250
vn 0.0000 0.0000 -1.0000
vn 0.9763 0.2164 0.0000
vn 0.0000 0.0000 1.0000
vn -0.9763 -0.2164 0.0000
vn -0.2164 0.9763 0.0000
vn 0.2164 -0.9763 0.0000
usemtl m_cf8a92bb-460b-d8aa-fe16-fe8591817970
s 1
f 73/137/71 74/138/71 75/139/71 76/140/71
f 77/141/72 73/137/72 76/140/72 78/142/72
f 79/143/73 77/144/73 78/145/73 80/146/73
f 74/138/74 79/143/74 80/146/74 75/139/74
f 80/147/75 78/148/75 76/140/75 75/139/75
f 74/149/76 73/150/76 77/151/76 79/152/76
o cube.201
v 0.812500 0.012500 0.312500
v 0.187500 0.012500 0.312500
v 0.187500 0.012500 0.312500
v 0.812500 0.012500 0.312500
v 0.812500 0.012500 0.437500
v 0.812500 0.012500 0.437500
v 0.187500 0.012500 0.437500
v 0.187500 0.012500 0.437500
vt 0.312500 0.781250
vt 0.468750 0.781250
vt 0.468750 0.781250
vt 0.312500 0.781250
vt 0.281250 0.781250
vt 0.281250 0.781250
vt 0.500000 0.781250
vt 0.656250 0.781250
vt 0.656250 0.781250
vt 0.500000 0.781250
vt 0.468750 0.812500
vt 0.312500 0.812500
vt 0.625000 0.781250
vt 0.468750 0.781250
vt 0.468750 0.812500
vt 0.625000 0.812500
vn 0.0000 -0.0000 -1.0000
vn 0.0000 0.0000 1.0000
vn 0.0000 1.0000 -0.0000
vn 0.0000 -1.0000 0.0000
usemtl m_cf8a92bb-460b-d8aa-fe16-fe8591817970
s 1
f 81/153/77 82/154/77 83/155/77 84/156/77
f 85/157/78 81/153/78 84/156/78 86/158/78
f 87/159/78 85/160/78 86/161/78 88/162/78
f 82/154/78 87/159/78 88/162/78 83/155/78
f 88/163/79 86/164/79 84/156/79 83/155/79
f 82/165/80 81/166/80 85/167/80 87/168/80
o cube.202
v 0.812500 0.012562 0.312500
v 0.187500 0.012562 0.312500
v 0.187500 0.384354 0.263553
v 0.812500 0.384354 0.263553
v 0.812500 0.012562 0.312500
v 0.812500 0.384354 0.263553
v 0.187500 0.012562 0.312500
v 0.187500 0.384354 0.263553
vt 0.000000 0.625000
vt 0.156250 0.625000
vt 0.156250 0.718750
vt 0.000000 0.718750
vt 0.000000 0.625000
vt 0.000000 0.718750
vt 0.156250 0.625000
vt 0.312500 0.625000
vt 0.312500 0.718750
vt 0.156250 0.718750
vt 0.312500 0.718750
vt 0.156250 0.718750
vt 0.156250 0.718750
vt 0.312500 0.718750
vn 0.0000 -0.1305 -0.9914
vn 0.0000 0.0000 0.0000
vn 1.0000 0.0000 0.0000
vn 0.0000 0.1305 0.9914
vn -1.0000 -0.0000 0.0000
vn -0.0000 0.9914 -0.1305
vn 0.0000 0.0000 -0.1305
vn 0.0000 -0.9914 0.1305
vn 0.0000 0.0000 0.1305
usemtl m_cf8a92bb-460b-d8aa-fe16-fe8591817970
s 1
f 89/169/81 90/170/81 91/171/81 92/172/81
f 93/173/82 89/169/83 92/172/82 94/174/83
f 95/175/84 93/176/84 94/177/84 96/178/84
f 90/170/82 95/175/85 96/178/82 91/171/85
f 96/178/86 94/174/87 92/172/86 91/171/87
f 90/179/88 89/180/89 93/181/88 95/182/89
o cube.203
v 0.812500 0.012571 0.437438
v 0.187500 0.012571 0.437438
v 0.187500 0.384362 0.486385
v 0.812500 0.384362 0.486385
v 0.812500 0.012571 0.437438
v 0.812500 0.384362 0.486385
v 0.187500 0.012571 0.437438
v 0.187500 0.384362 0.486385
vt 0.000000 0.718750
vt 0.156250 0.718750
vt 0.156250 0.812500
vt 0.000000 0.812500
vt 0.000000 0.718750
vt 0.000000 0.812500
vt 0.156250 0.718750
vt 0.312500 0.718750
vt 0.312500 0.812500
vt 0.156250 0.812500
vt 0.312500 0.812500
vt 0.156250 0.812500
vt 0.156250 0.812500
vt 0.312500 0.812500
vn 0.0000 0.1305 -0.9914
vn 0.0000 0.0000 -0.0000
vn 1.0000 0.0000 -0.0000
vn 0.0000 -0.1305 0.9914
vn -1.0000 -0.0000 -0.0000
vn -0.0000 0.9914 0.1305
vn 0.0000 0.0000 0.1305
vn 0.0000 -0.9914 -0.1305
vn 0.0000 0.0000 -0.1305
usemtl m_cf8a92bb-460b-d8aa-fe16-fe8591817970
s 1
f 97/183/90 98/184/90 99/185/90 100/186/90
f 101/187/91 97/183/92 100/186/91 102/188/92
f 103/189/93 101/190/93 102/191/93 104/192/93
f 98/184/91 103/189/94 104/192/91 99/185/94
f 104/192/95 102/188/96 100/186/95 99/185/96
f 98/193/97 97/194/98 101/195/97 103/196/98
o fishchunk.003
v 0.463922 0.058223 0.312500
v 0.280866 0.017640 0.312500
v 0.226756 0.261714 0.312500
v 0.409812 0.302297 0.312500
v 0.463922 0.058223 0.437500
v 0.409812 0.302297 0.437500
v 0.280866 0.017640 0.437500
v 0.226756 0.261714 0.437500
vt 0.031250 0.812500
vt 0.078125 0.812500
vt 0.078125 0.875000
vt 0.031250 0.875000
vt 0.000000 0.812500
vt 0.000000 0.875000
vt 0.109375 0.812500
vt 0.156250 0.812500
vt 0.156250 0.875000
vt 0.109375 0.875000
vt 0.078125 0.906250
vt 0.031250 0.906250
vt 0.125000 0.875000
vt 0.078125 0.875000
vt 0.078125 0.906250
vt 0.125000 0.906250
vn 0.0000 -0.0000 -1.0000
vn 0.9763 0.2164 0.0000
vn -0.0000 0.0000 1.0000
vn -0.9763 -0.2164 0.0000
vn -0.2164 0.9763 0.0000
vn 0.2164 -0.9763 0.0000
usemtl m_cf8a92bb-460b-d8aa-fe16-fe8591817970
s 1
f 105/197/99 106/198/99 107/199/99 108/200/99
f 109/201/100 105/197/100 108/200/100 110/202/100
f 111/203/101 109/204/101 110/205/101 112/206/101
f 106/198/102 111/203/102 112/206/102 107/199/102
f 112/207/103 110/208/103 108/200/103 107/199/103
f 106/209/104 105/210/104 109/211/104 111/212/104
o fishchunk.004
v 0.708013 0.090341 0.312500
v 0.534786 0.018588 0.312500
v 0.439115 0.249557 0.312500
v 0.612343 0.321311 0.312500
v 0.708013 0.090341 0.437500
v 0.612343 0.321311 0.437500
v 0.534786 0.018588 0.437500
v 0.439115 0.249558 0.437500
vt 0.031250 0.906250
vt 0.078125 0.906250
vt 0.078125 0.968750
vt 0.031250 0.968750
vt 0.000000 0.906250
vt 0.000000 0.968750
vt 0.109375 0.906250
vt 0.156250 0.906250
vt 0.156250 0.968750
vt 0.109375 0.968750
vt 0.078125 1.000000
vt 0.031250 1.000000
vt 0.125000 0.968750
vt 0.078125 0.968750
vt 0.078125 1.000000
vt 0.125000 1.000000
vn -0.0000 -0.0000 -1.0000
vn 0.9239 0.3827 0.0000
vn -0.0000 0.0000 1.0000
vn -0.9239 -0.3827 0.0000
vn -0.3827 0.9239 -0.0000
vn 0.3827 -0.9239 0.0000
usemtl m_cf8a92bb-460b-d8aa-fe16-fe8591817970
s 1
f 113/213/105 114/214/105 115/215/105 116/216/105
f 117/217/106 113/213/106 116/216/106 118/218/106
f 119/219/107 117/220/107 118/221/107 120/222/107
f 114/214/108 119/219/108 120/222/108 115/215/108
f 120/223/109 118/224/109 116/216/109 115/215/109
f 114/225/110 113/226/110 117/227/110 119/228/110
o cube.204
v 0.812500 0.198632 0.461391
v 0.187500 0.198632 0.461391
v 0.187500 0.415138 0.336391
v 0.812500 0.415138 0.336391
v 0.812500 0.198632 0.461391
v 0.812500 0.415138 0.336391
v 0.187500 0.198632 0.461391
v 0.187500 0.415138 0.336391
vt 0.000000 0.500000
vt 0.156250 0.500000
vt 0.156250 0.562500
vt 0.000000 0.562500
vt 0.000000 0.500000
vt 0.000000 0.562500
vt 0.156250 0.500000
vt 0.312500 0.500000
vt 0.312500 0.562500
vt 0.156250 0.562500
vt 0.312500 0.562500
vt 0.156250 0.562500
vt 0.156250 0.562500
vt 0.312500 0.562500
vn 0.0000 -0.5000 -0.8660
vn 0.0000 0.0000 -0.0000
vn 1.0000 0.0000 -0.0000
vn 0.0000 0.0000 -0.0001
vn 1.0000 0.0000 -0.0001
vn 0.0000 0.5000 0.8660
vn -1.0000 -0.0000 -0.0000
vn -1.0000 -0.0000 -0.0001
vn -0.0000 0.8660 -0.5000
vn 0.0000 0.0000 -0.5000
vn 0.0000 -0.8660 0.5000
vn 0.0000 0.0000 0.5000
usemtl m_cf8a92bb-460b-d8aa-fe16-fe8591817970
s 1
f 121/229/111 122/230/111 123/231/111 124/232/111
f 125/233/112 121/229/113 124/232/114 126/234/115
f 127/235/116 125/236/116 126/237/116 128/238/116
f 122/230/112 127/235/117 128/238/114 123/231/118
f 128/238/119 126/234/120 124/232/119 123/231/120
f 122/239/121 121/240/122 125/241/121 127/242/122
o cube.205
v 0.812500 0.198787 0.288405
v 0.187500 0.198787 0.288405
v 0.187500 0.415293 0.413405
v 0.812500 0.415293 0.413405
v 0.812500 0.198787 0.288405
v 0.812500 0.415293 0.413405
v 0.187500 0.198787 0.288405
v 0.187500 0.415293 0.413405
vt 0.343750 0.531250
vt 0.500000 0.531250
vt 0.500000 0.593750
vt 0.343750 0.593750
vt 0.343750 0.531250
vt 0.343750 0.593750
vt 0.500000 0.531250
vt 0.656250 0.531250
vt 0.656250 0.593750
vt 0.500000 0.593750
vt 0.656250 0.593750
vt 0.500000 0.593750
vt 0.500000 0.593750
vt 0.656250 0.593750
vn 0.0000 0.5000 -0.8660
vn 0.0000 0.0000 -0.0001
vn 1.0000 0.0000 -0.0001
vn 0.0000 0.0000 -0.0000
vn 1.0000 0.0000 -0.0000
vn 0.0000 -0.5000 0.8660
vn -1.0000 -0.0000 -0.0001
vn -1.0000 -0.0000 -0.0000
vn -0.0000 0.8660 0.5000
vn 0.0000 0.0000 0.5000
vn 0.0000 -0.8660 -0.5000
vn 0.0000 0.0000 -0.5000
usemtl m_cf8a92bb-460b-d8aa-fe16-fe8591817970
s 1
f 129/243/123 130/244/123 131/245/123 132/246/123
f 133/247/124 129/243/125 132/246/126 134/248/127
f 135/249/128 133/250/128 134/251/128 136/252/128
f 130/244/124 135/249/129 136/252/126 131/245/130
f 136/252/131 134/248/132 132/246/131 131/245/132
f 130/253/133 129/254/134 133/255/133 135/256/134
o fishchunk.005
v 0.935434 0.184541 0.331090
v 0.707973 0.090324 0.374502
v 0.612302 0.321294 0.374502
v 0.839763 0.415511 0.331090
v 0.935434 0.184541 0.331090
v 0.839763 0.415511 0.331090
v 0.707973 0.090324 0.374502
v 0.612302 0.321294 0.374502
vt 0.437500 0.812500
vt 0.500000 0.812500
vt 0.500000 0.875000
vt 0.437500 0.875000
vt 0.437500 0.812500
vt 0.437500 0.875000
vt 0.500000 0.812500
vt 0.562500 0.812500
vt 0.562500 0.875000
vt 0.500000 0.875000
vt 0.562500 0.875000
vt 0.500000 0.875000
vt 0.500000 0.875000
vt 0.562500 0.875000
vn -0.1604 -0.0665 -0.9848
vn 0.0000 0.0000 -0.1737
vn 0.9098 0.3769 -0.1737
vn 0.1604 0.0665 0.9848
vn 0.0000 0.0000 0.1737
vn -0.9098 -0.3769 0.1737
vn -0.3827 0.9239 0.0000
vn 0.0000 0.0000 -0.0000
vn 0.3827 -0.9239 0.0000
usemtl m_cf8a92bb-460b-d8aa-fe16-fe8591817970
s 1
f 137/257/135 138/258/135 139/259/135 140/260/135
f 141/261/136 137/257/137 140/260/136 142/262/137
f 143/263/138 141/264/138 142/265/138 144/266/138
f 138/258/139 143/263/140 144/266/139 139/259/140
f 144/266/141 142/262/142 140/260/141 139/259/142
f 138/267/143 137/268/142 141/269/143 143/270/142
