# Blender v3.6.1 OBJ File: ''
# www.blender.org
mtllib turkey_dinner.mtl
o cube.753
v 0.937500 0.006250 0.062500
v 0.062500 0.006250 0.062500
v 0.062500 0.006250 0.062500
v 0.937500 0.006250 0.062500
v 0.937500 0.006250 0.937500
v 0.937500 0.006250 0.937500
v 0.062500 0.006250 0.937500
v 0.062500 0.006250 0.937500
vt 0.218750 0.781250
vt 0.437500 0.781250
vt 0.437500 0.781250
vt 0.218750 0.781250
vt 0.000000 0.781250
vt 0.000000 0.781250
vt 0.656250 0.781250
vt 0.875000 0.781250
vt 0.875000 0.781250
vt 0.656250 0.781250
vt 0.437500 1.000000
vt 0.218750 1.000000
vt 0.656250 0.781250
vt 0.437500 0.781250
vt 0.437500 1.000000
vt 0.656250 1.000000
vn 0.0000 -0.0000 -1.0000
vn 0.0000 0.0000 0.0000
vn 0.0000 0.0000 1.0000
vn 0.0000 1.0000 -0.0000
vn 0.0000 -1.0000 0.0000
usemtl m_15613950-4d98-e739-7685-d0ba0eb1cde5
s 1
f 1/1/1 2/2/1 3/3/1 4/4/1
f 5/5/2 1/1/2 4/4/2 6/6/2
f 7/7/3 5/8/3 6/9/3 8/10/3
f 2/2/2 7/7/2 8/10/2 3/3/2
f 8/11/4 6/12/4 4/4/4 3/3/4
f 2/13/5 1/14/5 5/15/5 7/16/5
o cube.754
v 0.562500 0.006313 0.937500
v 0.437500 0.006313 0.937500
v 0.437500 0.006313 0.937500
v 0.562500 0.006313 0.937500
v 0.562500 0.182505 1.001629
v 0.562500 0.182505 1.001629
v 0.437500 0.182505 1.001629
v 0.437500 0.182505 1.001629
vt 0.250000 0.609375
vt 0.281250 0.609375
vt 0.281250 0.609375
vt 0.250000 0.609375
vt 0.203125 0.609375
vt 0.203125 0.609375
vt 0.328125 0.609375
vt 0.359375 0.609375
vt 0.359375 0.609375
vt 0.328125 0.609375
vt 0.281250 0.656250
vt 0.250000 0.656250
vt 0.312500 0.609375
vt 0.281250 0.609375
vt 0.281250 0.656250
vt 0.312500 0.656250
vn 0.0000 -0.9397 -0.3420
vn 0.0000 0.0000 -0.3420
vn 1.0000 0.0000 0.0000
vn 0.0000 0.0000 0.0000
vn -0.0000 0.9397 0.3420
vn 0.0000 0.0000 0.3420
vn -1.0000 -0.0000 0.0000
vn 0.0000 0.3420 -0.9397
vn 0.0000 -0.3420 0.9397
usemtl m_15613950-4d98-e739-7685-d0ba0eb1cde5
s 1
f 9/17/6 10/18/7 11/19/6 12/20/7
f 13/21/8 9/17/9 12/20/8 14/22/9
f 15/23/10 13/24/11 14/25/10 16/26/11
f 10/18/12 15/23/9 16/26/12 11/19/9
f 16/27/13 14/28/13 12/20/13 11/19/13
f 10/29/14 9/30/14 13/31/14 15/32/14
o cube.755
v 0.746635 0.012500 0.132252
v 0.530128 0.012500 0.257252
v 0.530128 0.200000 0.257252
v 0.746635 0.200000 0.132252
v 0.871634 0.012500 0.348758
v 0.871634 0.200000 0.348758
v 0.655128 0.012500 0.473758
v 0.655128 0.200000 0.473758
vt 0.312500 0.546875
vt 0.375000 0.546875
vt 0.375000 0.593750
vt 0.312500 0.593750
vt 0.250000 0.546875
vt 0.250000 0.593750
vt 0.437500 0.546875
vt 0.500000 0.546875
vt 0.500000 0.593750
vt 0.437500 0.593750
vt 0.375000 0.656250
vt 0.312500 0.656250
vt 0.437500 0.593750
vt 0.375000 0.593750
vt 0.375000 0.656250
vt 0.437500 0.656250
vn -0.5000 -0.0000 -0.8660
vn 0.8660 0.0000 -0.5000
vn 0.5000 0.0000 0.8660
vn -0.8660 0.0000 0.5000
vn 0.0000 1.0000 -0.0000
vn 0.0000 -1.0000 0.0000
usemtl m_15613950-4d98-e739-7685-d0ba0eb1cde5
s 1
f 17/33/15 18/34/15 19/35/15 20/36/15
f 21/37/16 17/33/16 20/36/16 22/38/16
f 23/39/17 21/40/17 22/41/17 24/42/17
f 18/34/18 23/39/18 24/42/18 19/35/18
f 24/43/19 22/44/19 20/36/19 19/35/19
f 18/45/20 17/46/20 21/47/20 23/48/20
o cube.756
v 0.697163 0.373224 0.234064
v 0.643036 0.373224 0.265314
v 0.634878 0.497154 0.251184
v 0.689005 0.497154 0.219934
v 0.728145 0.381382 0.287727
v 0.719987 0.505312 0.273597
v 0.674019 0.381382 0.318977
v 0.665861 0.505312 0.304847
vt 0.015625 0.640625
vt 0.031250 0.640625
vt 0.031250 0.671875
vt 0.015625 0.671875
vt 0.000000 0.640625
vt 0.000000 0.671875
vt 0.046875 0.640625
vt 0.062500 0.640625
vt 0.062500 0.671875
vt 0.046875 0.671875
vt 0.031250 0.687500
vt 0.015625 0.687500
vt 0.046875 0.671875
vt 0.031250 0.671875
vt 0.031250 0.687500
vt 0.046875 0.687500
vn -0.4957 -0.1305 -0.8586
vn 0.8660 0.0000 -0.5000
vn 0.4957 0.1305 0.8586
vn -0.8660 0.0000 0.5000
vn -0.0653 0.9914 -0.1130
vn 0.0653 -0.9914 0.1130
usemtl m_15613950-4d98-e739-7685-d0ba0eb1cde5
s 1
f 25/49/21 26/50/21 27/51/21 28/52/21
f 29/53/22 25/49/22 28/52/22 30/54/22
f 31/55/23 29/56/23 30/57/23 32/58/23
f 26/50/24 31/55/24 32/58/24 27/51/24
f 32/59/25 30/60/25 28/52/25 27/51/25
f 26/61/26 25/62/26 29/63/26 31/64/26
o cube.757
v 0.719868 0.182080 0.210891
v 0.611615 0.182080 0.273391
v 0.599378 0.367976 0.252196
v 0.707631 0.367976 0.189696
v 0.781834 0.198396 0.318218
v 0.769597 0.384292 0.297023
v 0.673580 0.198396 0.380718
v 0.661344 0.384292 0.359523
vt 0.421875 0.468750
vt 0.453125 0.468750
vt 0.453125 0.515625
vt 0.421875 0.515625
vt 0.390625 0.468750
vt 0.390625 0.515625
vt 0.484375 0.468750
vt 0.515625 0.468750
vt 0.515625 0.515625
vt 0.484375 0.515625
vt 0.453125 0.546875
vt 0.421875 0.546875
vt 0.484375 0.515625
vt 0.453125 0.515625
vt 0.453125 0.546875
vt 0.484375 0.546875
vn -0.4957 -0.1305 -0.8586
vn 0.8660 -0.0000 -0.5000
vn 0.4957 0.1305 0.8586
vn -0.8660 -0.0000 0.5000
vn -0.0653 0.9914 -0.1130
vn 0.0653 -0.9914 0.1130
usemtl m_15613950-4d98-e739-7685-d0ba0eb1cde5
s 1
f 33/65/27 34/66/27 35/67/27 36/68/27
f 37/69/28 33/65/28 36/68/28 38/70/28
f 39/71/29 37/72/29 38/73/29 40/74/29
f 34/66/30 39/71/30 40/74/30 35/67/30
f 40/75/31 38/76/31 36/68/31 35/67/31
f 34/77/32 33/78/32 37/79/32 39/80/32
o cube.758
v 0.687247 0.474782 0.204389
v 0.633120 0.474782 0.235639
v 0.616330 0.527494 0.206557
v 0.670456 0.527494 0.175307
v 0.713603 0.508363 0.250039
v 0.696812 0.561075 0.220957
v 0.659476 0.508363 0.281289
v 0.642686 0.561075 0.252207
vt 0.015625 0.484375
vt 0.031250 0.484375
vt 0.031250 0.500000
vt 0.015625 0.500000
vt 0.000000 0.484375
vt 0.000000 0.500000
vt 0.046875 0.484375
vt 0.062500 0.484375
vt 0.062500 0.500000
vt 0.046875 0.500000
vt 0.031250 0.515625
vt 0.015625 0.515625
vt 0.046875 0.500000
vt 0.031250 0.500000
vt 0.031250 0.515625
vt 0.046875 0.515625
vn -0.4217 -0.5373 -0.7304
vn 0.8660 0.0000 -0.5000
vn 0.4217 0.5373 0.7304
vn -0.8660 -0.0000 0.5000
vn -0.2686 0.8434 -0.4653
vn 0.2687 -0.8434 0.4653
usemtl m_15613950-4d98-e739-7685-d0ba0eb1cde5
s 1
f 41/81/33 42/82/33 43/83/33 44/84/33
f 45/85/34 41/81/34 44/84/34 46/86/34
f 47/87/35 45/88/35 46/89/35 48/90/35
f 42/82/36 47/87/36 48/90/36 43/83/36
f 48/91/37 46/92/37 44/84/37 43/83/37
f 42/93/38 41/94/38 45/95/38 47/96/38
o cube.759
v 0.697185 0.499964 0.246603
v 0.643059 0.499964 0.277853
v 0.644422 0.562405 0.280214
v 0.698548 0.562405 0.248964
v 0.728405 0.497238 0.300678
v 0.729769 0.559679 0.303039
v 0.674279 0.497238 0.331928
v 0.675642 0.559679 0.334289
vt 0.484375 0.750000
vt 0.500000 0.750000
vt 0.500000 0.765625
vt 0.484375 0.765625
vt 0.468750 0.750000
vt 0.468750 0.765625
vt 0.515625 0.750000
vt 0.531250 0.750000
vt 0.531250 0.765625
vt 0.515625 0.765625
vt 0.500000 0.781250
vt 0.484375 0.781250
vt 0.515625 0.765625
vt 0.500000 0.765625
vt 0.500000 0.781250
vt 0.515625 0.781250
vn -0.4995 0.0436 -0.8652
vn 0.8660 0.0000 -0.5000
vn 0.4995 -0.0436 0.8652
vn -0.8660 0.0000 0.5000
vn 0.0218 0.9990 0.0378
vn -0.0218 -0.9990 -0.0378
usemtl m_15613950-4d98-e739-7685-d0ba0eb1cde5
s 1
f 49/97/39 50/98/39 51/99/39 52/100/39
f 53/101/40 49/97/40 52/100/40 54/102/40
f 55/103/41 53/104/41 54/105/41 56/106/41
f 50/98/42 55/103/42 56/106/42 51/99/42
f 56/107/43 54/108/43 52/100/43 51/99/43
f 50/109/44 49/110/44 53/111/44 55/112/44
o cube.760
v 0.710757 0.012500 0.628007
v 0.466683 0.012500 0.573898
v 0.466683 0.200000 0.573898
v 0.710757 0.200000 0.628007
v 0.656647 0.012500 0.872081
v 0.656647 0.200000 0.872081
v 0.412573 0.012500 0.817972
v 0.412573 0.200000 0.817972
vt 0.062500 0.578125
vt 0.125000 0.578125
vt 0.125000 0.625000
vt 0.062500 0.625000
vt 0.000000 0.578125
vt 0.000000 0.625000
vt 0.187500 0.578125
vt 0.250000 0.578125
vt 0.250000 0.625000
vt 0.187500 0.625000
vt 0.125000 0.687500
vt 0.062500 0.687500
vt 0.187500 0.625000
vt 0.125000 0.625000
vt 0.125000 0.687500
vt 0.187500 0.687500
vn 0.2164 0.0000 -0.9763
vn 0.9763 0.0000 0.2164
vn -0.2164 0.0000 0.9763
vn -0.9763 0.0000 -0.2164
vn -0.0000 1.0000 0.0000
vn -0.0000 -1.0000 0.0000
usemtl m_15613950-4d98-e739-7685-d0ba0eb1cde5
s 1
f 57/113/45 58/114/45 59/115/45 60/116/45
f 61/117/46 57/113/46 60/116/46 62/118/46
f 63/119/47 61/120/47 62/121/47 64/122/47
f 58/114/48 63/119/48 64/122/48 59/115/48
f 64/123/49 62/124/49 60/116/49 59/115/49
f 58/125/50 57/126/50 61/127/50 63/128/50
o cube.761
v 0.641074 0.197199 0.653881
v 0.517144 0.199328 0.637705
v 0.517144 0.385224 0.662178
v 0.641074 0.383094 0.678355
v 0.624758 0.181022 0.776751
v 0.624758 0.366918 0.801225
v 0.500828 0.183152 0.760575
v 0.500828 0.369048 0.785049
vt 0.296875 0.468750
vt 0.328125 0.468750
vt 0.328125 0.515625
vt 0.296875 0.515625
vt 0.265625 0.468750
vt 0.265625 0.515625
vt 0.359375 0.468750
vt 0.390625 0.468750
vt 0.390625 0.515625
vt 0.359375 0.515625
vt 0.328125 0.546875
vt 0.296875 0.546875
vt 0.359375 0.515625
vt 0.328125 0.515625
vt 0.328125 0.546875
vt 0.359375 0.546875
vn 0.1305 0.1294 -0.9830
vn 0.9914 -0.0170 0.1294
vn -0.1305 -0.1294 0.9830
vn -0.9914 0.0170 -0.1294
vn 0.0000 0.9914 0.1305
vn -0.0000 -0.9914 -0.1305
usemtl m_15613950-4d98-e739-7685-d0ba0eb1cde5
s 1
f 65/129/51 66/130/51 67/131/51 68/132/51
f 69/133/52 65/129/52 68/132/52 70/134/52
f 71/135/53 69/136/53 70/137/53 72/138/53
f 66/130/54 71/135/54 72/138/54 67/131/54
f 72/139/55 70/140/55 68/132/55 67/131/55
f 66/141/56 65/142/56 69/143/56 71/144/56
o cube.762
v 0.600000 0.381382 0.698036
v 0.537500 0.381382 0.698036
v 0.537500 0.505312 0.714352
v 0.600000 0.505312 0.714352
v 0.600000 0.373224 0.760002
v 0.600000 0.497154 0.776318
v 0.537500 0.373224 0.760002
v 0.537500 0.497154 0.776318
vt 0.015625 0.843750
vt 0.031250 0.843750
vt 0.031250 0.875000
vt 0.015625 0.875000
vt 0.000000 0.843750
vt 0.000000 0.875000
vt 0.046875 0.843750
vt 0.062500 0.843750
vt 0.062500 0.875000
vt 0.046875 0.875000
vt 0.031250 0.890625
vt 0.015625 0.890625
vt 0.046875 0.875000
vt 0.031250 0.875000
vt 0.031250 0.890625
vt 0.046875 0.890625
vn 0.0000 0.1305 -0.9914
vn 1.0000 0.0000 0.0000
vn 0.0000 -0.1305 0.9914
vn -1.0000 0.0000 0.0000
vn 0.0000 0.9914 0.1305
vn 0.0000 -0.9914 -0.1305
usemtl m_15613950-4d98-e739-7685-d0ba0eb1cde5
s 1
f 73/145/57 74/146/57 75/147/57 76/148/57
f 77/149/58 73/145/58 76/148/58 78/150/58
f 79/151/59 77/152/59 78/153/59 80/154/59
f 74/146/60 79/151/60 80/154/60 75/147/60
f 80/155/61 78/156/61 76/148/61 75/147/61
f 74/157/62 73/158/62 77/159/62 79/160/62
o cube.763
v 0.606250 0.502563 0.739575
v 0.543750 0.502563 0.739575
v 0.543750 0.552148 0.777623
v 0.606250 0.552148 0.777623
v 0.606250 0.464516 0.789160
v 0.606250 0.514100 0.827207
v 0.543750 0.464516 0.789160
v 0.543750 0.514100 0.827207
vt 0.375000 0.515625
vt 0.390625 0.515625
vt 0.390625 0.531250
vt 0.375000 0.531250
vt 0.359375 0.515625
vt 0.359375 0.531250
vt 0.406250 0.515625
vt 0.421875 0.515625
vt 0.421875 0.531250
vt 0.406250 0.531250
vt 0.390625 0.546875
vt 0.375000 0.546875
vt 0.406250 0.531250
vt 0.390625 0.531250
vt 0.390625 0.546875
vt 0.406250 0.546875
vn 0.0000 0.6088 -0.7934
vn 1.0000 -0.0000 0.0000
vn 0.0000 -0.6088 0.7934
vn -1.0000 0.0000 0.0000
vn 0.0000 0.7934 0.6088
vn 0.0000 -0.7934 -0.6088
usemtl m_15613950-4d98-e739-7685-d0ba0eb1cde5
s 1
f 81/161/63 82/162/63 83/163/63 84/164/63
f 85/165/64 81/161/64 84/164/64 86/166/64
f 87/167/65 85/168/65 86/169/65 88/170/65
f 82/162/66 87/167/66 88/170/66 83/163/66
f 88/171/67 86/172/67 84/164/67 83/163/67
f 82/173/68 81/174/68 85/175/68 87/176/68
o cube.764
v 0.593750 0.493106 0.692186
v 0.531250 0.493106 0.692186
v 0.531250 0.555072 0.684028
v 0.593750 0.555072 0.684028
v 0.593750 0.501264 0.754151
v 0.593750 0.563229 0.745993
v 0.531250 0.501264 0.754151
v 0.531250 0.563229 0.745993
vt 0.234375 0.515625
vt 0.250000 0.515625
vt 0.250000 0.531250
vt 0.234375 0.531250
vt 0.218750 0.515625
vt 0.218750 0.531250
vt 0.265625 0.515625
vt 0.281250 0.515625
vt 0.281250 0.531250
vt 0.265625 0.531250
vt 0.250000 0.546875
vt 0.234375 0.546875
vt 0.265625 0.531250
vt 0.250000 0.531250
vt 0.250000 0.546875
vt 0.265625 0.546875
vn 0.0000 -0.1305 -0.9914
vn 1.0000 0.0000 0.0000
vn 0.0000 0.1305 0.9914
vn -1.0000 0.0000 0.0000
vn 0.0000 0.9914 -0.1305
vn 0.0000 -0.9914 0.1305
usemtl m_15613950-4d98-e739-7685-d0ba0eb1cde5
s 1
f 89/177/69 90/178/69 91/179/69 92/180/69
f 93/181/70 89/177/70 92/180/70 94/182/70
f 95/183/71 93/184/71 94/185/71 96/186/71
f 90/178/72 95/183/72 96/186/72 91/179/72
f 96/187/73 94/188/73 92/180/73 91/179/73
f 90/189/74 89/190/74 93/191/74 95/192/74
o cube.765
v 0.531250 0.055252 0.148163
v 0.218750 0.055252 0.148163
v 0.218750 0.348906 0.255045
v 0.531250 0.348906 0.255045
v 0.531250 0.012500 0.265625
v 0.531250 0.306154 0.372506
v 0.218750 0.012500 0.265625
v 0.218750 0.306154 0.372506
vt 0.031250 0.890625
vt 0.109375 0.890625
vt 0.109375 0.968750
vt 0.031250 0.968750
vt 0.000000 0.890625
vt 0.000000 0.968750
vt 0.140625 0.890625
vt 0.218750 0.890625
vt 0.218750 0.968750
vt 0.140625 0.968750
vt 0.109375 1.000000
vt 0.031250 1.000000
vt 0.187500 0.968750
vt 0.109375 0.968750
vt 0.109375 1.000000
vt 0.187500 1.000000
vn 0.0000 0.3420 -0.9397
vn 1.0000 0.0000 0.0000
vn 0.0000 -0.3420 0.9397
vn -1.0000 0.0000 0.0000
vn 0.0000 0.9397 0.3420
vn 0.0000 -0.9397 -0.3420
usemtl m_15613950-4d98-e739-7685-d0ba0eb1cde5
s 1
f 97/193/75 98/194/75 99/195/75 100/196/75
f 101/197/76 97/193/76 100/196/76 102/198/76
f 103/199/77 101/200/77 102/201/77 104/202/77
f 98/194/78 103/199/78 104/202/78 99/195/78
f 104/203/79 102/204/79 100/196/79 99/195/79
f 98/205/80 97/206/80 101/207/80 103/208/80
o cube.766
v 0.578125 0.055253 0.280976
v 0.203125 0.055253 0.280976
v 0.203125 0.407637 0.409233
v 0.578125 0.407637 0.409233
v 0.578125 0.012500 0.398438
v 0.578125 0.364885 0.526695
v 0.203125 0.012500 0.398438
v 0.203125 0.364885 0.526695
vt 0.281250 0.656250
vt 0.375000 0.656250
vt 0.375000 0.750000
vt 0.281250 0.750000
vt 0.250000 0.656250
vt 0.250000 0.750000
vt 0.406250 0.656250
vt 0.500000 0.656250
vt 0.500000 0.750000
vt 0.406250 0.750000
vt 0.375000 0.781250
vt 0.281250 0.781250
vt 0.468750 0.750000
vt 0.375000 0.750000
vt 0.375000 0.781250
vt 0.468750 0.781250
vn 0.0000 0.3420 -0.9397
vn 1.0000 0.0000 0.0000
vn 0.0000 -0.3420 0.9397
vn -1.0000 0.0000 0.0000
vn 0.0000 0.9397 0.3420
vn 0.0000 -0.9397 -0.3420
usemtl m_15613950-4d98-e739-7685-d0ba0eb1cde5
s 1
f 105/209/81 106/210/81 107/211/81 108/212/81
f 109/213/82 105/209/82 108/212/82 110/214/82
f 111/215/83 109/216/83 110/217/83 112/218/83
f 106/210/84 111/215/84 112/218/84 107/211/84
f 112/219/85 110/220/85 108/212/85 107/211/85
f 106/221/86 105/222/86 109/223/86 111/224/86
o cube.767
v 0.625000 0.055253 0.413788
v 0.250000 0.055253 0.413788
v 0.250000 0.407637 0.542046
v 0.625000 0.407637 0.542046
v 0.625000 0.012500 0.531250
v 0.625000 0.364885 0.659508
v 0.250000 0.012500 0.531250
v 0.250000 0.364885 0.659508
vt 0.031250 0.687500
vt 0.125000 0.687500
vt 0.125000 0.781250
vt 0.031250 0.781250
vt 0.000000 0.687500
vt 0.000000 0.781250
vt 0.156250 0.687500
vt 0.250000 0.687500
vt 0.250000 0.781250
vt 0.156250 0.781250
vt 0.125000 0.812500
vt 0.031250 0.812500
vt 0.218750 0.781250
vt 0.125000 0.781250
vt 0.125000 0.812500
vt 0.218750 0.812500
vn 0.0000 0.3420 -0.9397
vn 1.0000 0.0000 0.0000
vn 0.0000 -0.3420 0.9397
vn -1.0000 0.0000 0.0000
vn 0.0000 0.9397 0.3420
vn 0.0000 -0.9397 -0.3420
usemtl m_15613950-4d98-e739-7685-d0ba0eb1cde5
s 1
f 113/225/87 114/226/87 115/227/87 116/228/87
f 117/229/88 113/225/88 116/228/88 118/230/88
f 119/231/89 117/232/89 118/233/89 120/234/89
f 114/226/90 119/231/90 120/234/90 115/227/90
f 120/235/91 118/236/91 116/228/91 115/227/91
f 114/237/92 113/238/92 117/239/92 119/240/92
o cube.768
v 0.371217 0.012500 0.521463
v 0.190106 0.012500 0.569991
v 0.190106 0.075000 0.569991
v 0.371217 0.075000 0.521463
v 0.435922 0.012500 0.762944
v 0.435922 0.075000 0.762944
v 0.254810 0.012500 0.811473
v 0.254810 0.075000 0.811473
vt 0.062500 0.812500
vt 0.109375 0.812500
vt 0.109375 0.828125
vt 0.062500 0.828125
vt 0.000000 0.812500
vt 0.000000 0.828125
vt 0.171875 0.812500
vt 0.218750 0.812500
vt 0.218750 0.828125
vt 0.171875 0.828125
vt 0.109375 0.890625
vt 0.062500 0.890625
vt 0.156250 0.828125
vt 0.109375 0.828125
vt 0.109375 0.890625
vt 0.156250 0.890625
vn -0.2588 0.0000 -0.9659
vn 0.9659 0.0000 -0.2588
vn 0.2588 0.0000 0.9659
vn -0.9659 0.0000 0.2588
vn -0.0000 1.0000 -0.0000
vn -0.0000 -1.0000 0.0000
usemtl m_15613950-4d98-e739-7685-d0ba0eb1cde5
s 1
f 121/241/93 122/242/93 123/243/93 124/244/93
f 125/245/94 121/241/94 124/244/94 126/246/94
f 127/247/95 125/248/95 126/249/95 128/250/95
f 122/242/96 127/247/96 128/250/96 123/243/96
f 128/251/97 126/252/97 124/244/97 123/243/97
f 122/253/98 121/254/98 125/255/98 127/256/98
o cube.769
v 0.232721 0.012500 0.193889
v 0.111981 0.012500 0.226241
v 0.111981 0.075000 0.226241
v 0.232721 0.075000 0.193889
v 0.281250 0.012500 0.375000
v 0.281250 0.075000 0.375000
v 0.160509 0.012500 0.407352
v 0.160509 0.075000 0.407352
vt 0.156250 0.500000
vt 0.187500 0.500000
vt 0.187500 0.515625
vt 0.156250 0.515625
vt 0.109375 0.500000
vt 0.109375 0.515625
vt 0.234375 0.500000
vt 0.265625 0.500000
vt 0.265625 0.515625
vt 0.234375 0.515625
vt 0.187500 0.562500
vt 0.156250 0.562500
vt 0.218750 0.515625
vt 0.187500 0.515625
vt 0.187500 0.562500
vt 0.218750 0.562500
vn -0.2588 0.0000 -0.9659
vn 0.9659 0.0000 -0.2588
vn 0.2588 0.0000 0.9659
vn -0.9659 0.0000 0.2588
vn -0.0000 1.0000 -0.0000
vn 0.0000 -1.0000 0.0000
usemtl m_15613950-4d98-e739-7685-d0ba0eb1cde5
s 1
f 129/257/99 130/258/99 131/259/99 132/260/99
f 133/261/100 129/257/100 132/260/100 134/262/100
f 135/263/101 133/264/101 134/265/101 136/266/101
f 130/258/102 135/263/102 136/266/102 131/259/102
f 136/267/103 134/268/103 132/260/103 131/259/103
f 130/269/104 129/270/104 133/271/104 135/272/104
o cube.770
v 0.371217 0.081250 0.521463
v 0.190106 0.081250 0.569991
v 0.190106 0.081250 0.569991
v 0.371217 0.081250 0.521463
v 0.435922 0.081250 0.762944
v 0.435922 0.081250 0.762944
v 0.254810 0.081250 0.811473
v 0.254810 0.081250 0.811473
vt 0.437500 0.593750
vt 0.484375 0.593750
vt 0.484375 0.593750
vt 0.437500 0.593750
vt 0.375000 0.593750
vt 0.375000 0.593750
vt 0.546875 0.593750
vt 0.593750 0.593750
vt 0.593750 0.593750
vt 0.546875 0.593750
vt 0.484375 0.656250
vt 0.437500 0.656250
vt 0.531250 0.593750
vt 0.484375 0.593750
vt 0.484375 0.656250
vt 0.531250 0.656250
vn -0.2588 0.0000 -0.9659
vn 0.0000 0.0000 -0.9659
vn 0.9659 -0.0000 -0.2588
vn 0.0000 0.0000 -0.2588
vn 0.2588 0.0000 0.9659
vn 0.0000 0.0000 0.9659
vn -0.9659 0.0000 0.2588
vn 0.0000 0.0000 0.2588
vn -0.0000 1.0000 -0.0000
vn 0.0000 -1.0000 0.0000
usemtl m_15613950-4d98-e739-7685-d0ba0eb1cde5
s 1
f 137/273/105 138/274/106 139/275/105 140/276/106
f 141/277/107 137/273/108 140/276/107 142/278/108
f 143/279/109 141/280/110 142/281/109 144/282/110
f 138/274/111 143/279/112 144/282/111 139/275/112
f 144/283/113 142/284/113 140/276/113 139/275/113
f 138/285/114 137/286/114 141/287/114 143/288/114
o cube.771
v 0.232721 0.081250 0.193889
v 0.111981 0.081250 0.226241
v 0.111981 0.081250 0.226241
v 0.232721 0.081250 0.193889
v 0.281250 0.081250 0.375000
v 0.281250 0.081250 0.375000
v 0.160509 0.081250 0.407352
v 0.160509 0.081250 0.407352
vt 0.187500 0.640625
vt 0.218750 0.640625
vt 0.218750 0.640625
vt 0.187500 0.640625
vt 0.140625 0.640625
vt 0.140625 0.640625
vt 0.265625 0.640625
vt 0.296875 0.640625
vt 0.296875 0.640625
vt 0.265625 0.640625
vt 0.218750 0.687500
vt 0.187500 0.687500
vt 0.250000 0.640625
vt 0.218750 0.640625
vt 0.218750 0.687500
vt 0.250000 0.687500
vn -0.2588 0.0000 -0.9659
vn 0.0000 0.0000 -0.9659
vn 0.9659 -0.0000 -0.2588
vn 0.0000 0.0000 -0.2588
vn 0.2588 0.0000 0.9659
vn 0.0000 0.0000 0.9659
vn -0.9659 0.0000 0.2588
vn 0.0000 0.0000 0.2588
vn -0.0000 1.0000 -0.0000
vn 0.0000 -1.0000 0.0000
usemtl m_15613950-4d98-e739-7685-d0ba0eb1cde5
s 1
f 145/289/115 146/290/116 147/291/115 148/292/116
f 149/293/117 145/289/118 148/292/117 150/294/118
f 151/295/119 149/296/120 150/297/119 152/298/120
f 146/290/121 151/295/122 152/298/121 147/291/122
f 152/299/123 150/300/123 148/292/123 147/291/123
f 146/301/124 145/302/124 149/303/124 151/304/124
o cube.772
v 0.732721 0.081250 0.443889
v 0.611981 0.081250 0.476241
v 0.611981 0.081250 0.476241
v 0.732721 0.081250 0.443889
v 0.781250 0.081250 0.625000
v 0.781250 0.081250 0.625000
v 0.660509 0.081250 0.657352
v 0.660509 0.081250 0.657352
vt 0.156250 0.843750
vt 0.187500 0.843750
vt 0.187500 0.843750
vt 0.156250 0.843750
vt 0.109375 0.843750
vt 0.109375 0.843750
vt 0.234375 0.843750
vt 0.265625 0.843750
vt 0.265625 0.843750
vt 0.234375 0.843750
vt 0.187500 0.890625
vt 0.156250 0.890625
vt 0.218750 0.843750
vt 0.187500 0.843750
vt 0.187500 0.890625
vt 0.218750 0.890625
vn -0.2588 0.0000 -0.9659
vn 0.0000 0.0000 -0.9659
vn 0.9659 -0.0000 -0.2588
vn 0.0000 0.0000 -0.2588
vn 0.2588 -0.0000 0.9659
vn 0.0000 0.0000 0.9659
vn -0.9659 0.0000 0.2588
vn 0.0000 0.0000 0.2588
vn 0.0000 1.0000 -0.0000
vn -0.0000 -1.0000 0.0000
usemtl m_15613950-4d98-e739-7685-d0ba0eb1cde5
s 1
f 153/305/125 154/306/126 155/307/125 156/308/126
f 157/309/127 153/305/128 156/308/127 158/310/128
f 159/311/129 157/312/130 158/313/129 160/314/130
f 154/306/131 159/311/132 160/314/131 155/307/132
f 160/315/133 158/316/133 156/308/133 155/307/133
f 154/317/134 153/318/134 157/319/134 159/320/134
o cube.773
v 0.732721 0.012500 0.443889
v 0.611981 0.012500 0.476241
v 0.611981 0.075000 0.476241
v 0.732721 0.075000 0.443889
v 0.781250 0.012500 0.625000
v 0.781250 0.075000 0.625000
v 0.660509 0.012500 0.657352
v 0.660509 0.075000 0.657352
vt 0.046875 0.515625
vt 0.078125 0.515625
vt 0.078125 0.531250
vt 0.046875 0.531250
vt 0.000000 0.515625
vt 0.000000 0.531250
vt 0.125000 0.515625
vt 0.156250 0.515625
vt 0.156250 0.531250
vt 0.125000 0.531250
vt 0.078125 0.578125
vt 0.046875 0.578125
vt 0.109375 0.531250
vt 0.078125 0.531250
vt 0.078125 0.578125
vt 0.109375 0.578125
vn -0.2588 0.0000 -0.9659
vn 0.9659 0.0000 -0.2588
vn 0.2588 0.0000 0.9659
vn -0.9659 0.0000 0.2588
vn 0.0000 1.0000 -0.0000
vn -0.0000 -1.0000 0.0000
usemtl m_15613950-4d98-e739-7685-d0ba0eb1cde5
s 1
f 161/321/135 162/322/135 163/323/135 164/324/135
f 165/325/136 161/321/136 164/324/136 166/326/136
f 167/327/137 165/328/137 166/329/137 168/330/137
f 162/322/138 167/327/138 168/330/138 163/323/138
f 168/331/139 166/332/139 164/324/139 163/323/139
f 162/333/140 161/334/140 165/335/140 167/336/140
