# Blender v3.6.1 OBJ File: ''
# www.blender.org
mtllib kabobs.mtl
o cube.411
v 0.750000 0.006250 0.187500
v 0.250000 0.006250 0.187500
v 0.250000 0.006250 0.187500
v 0.750000 0.006250 0.187500
v 0.750000 0.006250 0.812500
v 0.750000 0.006250 0.812500
v 0.250000 0.006250 0.812500
v 0.250000 0.006250 0.812500
vt 0.156250 0.843750
vt 0.281250 0.843750
vt 0.281250 0.843750
vt 0.156250 0.843750
vt 0.000000 0.843750
vt 0.000000 0.843750
vt 0.437500 0.843750
vt 0.562500 0.843750
vt 0.562500 0.843750
vt 0.437500 0.843750
vt 0.281250 1.000000
vt 0.156250 1.000000
vt 0.406250 0.843750
vt 0.281250 0.843750
vt 0.281250 1.000000
vt 0.406250 1.000000
vn 0.0000 -0.0000 -1.0000
vn 0.0000 0.0000 0.0000
vn 0.0000 0.0000 1.0000
vn 0.0000 1.0000 -0.0000
vn 0.0000 -1.0000 0.0000
usemtl m_543913e8-2829-9c59-a8cb-fdccff5e97de
s 1
f 1/1/1 2/2/1 3/3/1 4/4/1
f 5/5/2 1/1/2 4/4/2 6/6/2
f 7/7/3 5/8/3 6/9/3 8/10/3
f 2/2/2 7/7/2 8/10/2 3/3/2
f 8/11/4 6/12/4 4/4/4 3/3/4
f 2/13/5 1/14/5 5/15/5 7/16/5
o cube.412
v 0.588056 0.148633 0.289631
v 0.369198 0.029418 0.309359
v 0.317253 0.132661 0.356978
v 0.536111 0.251876 0.337250
v 0.603483 0.129839 0.347207
v 0.551538 0.233082 0.394826
v 0.384626 0.010624 0.366935
v 0.332681 0.113867 0.414555
vt 0.015625 0.953125
vt 0.078125 0.953125
vt 0.078125 0.984375
vt 0.015625 0.984375
vt 0.000000 0.953125
vt 0.000000 0.984375
vt 0.093750 0.953125
vt 0.156250 0.953125
vt 0.156250 0.984375
vt 0.093750 0.984375
vt 0.078125 1.000000
vt 0.015625 1.000000
vt 0.140625 0.984375
vt 0.078125 0.984375
vt 0.078125 1.000000
vt 0.140625 1.000000
vn -0.2468 0.3007 -0.9212
vn 0.8754 0.4769 -0.0789
vn 0.2468 -0.3007 0.9212
vn -0.8754 -0.4769 0.0789
vn -0.4156 0.8259 0.3810
vn 0.4156 -0.8259 -0.3810
usemtl m_543913e8-2829-9c59-a8cb-fdccff5e97de
s 1
f 9/17/6 10/18/6 11/19/6 12/20/6
f 13/21/7 9/17/7 12/20/7 14/22/7
f 15/23/8 13/24/8 14/25/8 16/26/8
f 10/18/9 15/23/9 16/26/9 11/19/9
f 16/27/10 14/28/10 12/20/10 11/19/10
f 10/29/11 9/30/11 13/31/11 15/32/11
o cube.413
v 0.584138 0.083759 0.525984
v 0.466259 0.056704 0.557569
v 0.440126 0.178741 0.564572
v 0.558005 0.205796 0.532986
v 0.584138 0.083759 0.525984
v 0.558005 0.205796 0.532986
v 0.466259 0.056704 0.557569
v 0.440126 0.178741 0.564572
vt 0.125000 0.765625
vt 0.156250 0.765625
vt 0.156250 0.796875
vt 0.125000 0.796875
vt 0.125000 0.765625
vt 0.125000 0.796875
vt 0.156250 0.765625
vt 0.187500 0.765625
vt 0.187500 0.796875
vt 0.156250 0.796875
vt 0.187500 0.796875
vt 0.156250 0.796875
vt 0.156250 0.796875
vt 0.187500 0.796875
vn -0.2588 0.0000 -0.9659
vn 0.0000 0.0000 -0.2526
vn 0.9430 0.2165 -0.2526
vn 0.0000 0.0000 -0.2527
vn 0.9430 0.2165 -0.2527
vn 0.2588 0.0000 0.9659
vn 0.0000 0.0000 0.2527
vn -0.9430 -0.2165 0.2527
vn -0.2090 0.9763 0.0560
vn 0.0000 0.0000 0.0561
vn -0.2091 0.9763 0.0561
vn 0.0000 0.0000 0.0560
vn 0.2091 -0.9763 -0.0560
vn 0.0000 0.0000 -0.0560
vn 0.2090 -0.9763 -0.0560
usemtl m_543913e8-2829-9c59-a8cb-fdccff5e97de
s 1
f 17/33/12 18/34/12 19/35/12 20/36/12
f 21/37/13 17/33/14 20/36/15 22/38/16
f 23/39/17 21/40/17 22/41/17 24/42/17
f 18/34/18 23/39/19 24/42/18 19/35/19
f 24/42/20 22/38/21 20/36/22 19/35/23
f 18/43/24 17/44/25 21/45/26 23/46/25
o cube.414
v 0.551786 0.083759 0.405243
v 0.433907 0.056704 0.436829
v 0.407774 0.178741 0.443831
v 0.525653 0.205796 0.412245
v 0.551786 0.083759 0.405243
v 0.525653 0.205796 0.412245
v 0.433907 0.056704 0.436829
v 0.407774 0.178741 0.443831
vt 0.062500 0.781250
vt 0.093750 0.781250
vt 0.093750 0.812500
vt 0.062500 0.812500
vt 0.062500 0.781250
vt 0.062500 0.812500
vt 0.093750 0.781250
vt 0.125000 0.781250
vt 0.125000 0.812500
vt 0.093750 0.812500
vt 0.125000 0.812500
vt 0.093750 0.812500
vt 0.093750 0.812500
vt 0.125000 0.812500
vn -0.2588 -0.0000 -0.9659
vn 0.0000 0.0000 -0.2526
vn 0.9430 0.2165 -0.2526
vn 0.0000 0.0000 -0.2527
vn 0.9430 0.2165 -0.2527
vn 0.2588 0.0000 0.9659
vn 0.0000 0.0000 0.2527
vn -0.9430 -0.2165 0.2527
vn -0.2090 0.9763 0.0560
vn 0.0000 0.0000 0.0561
vn -0.2091 0.9763 0.0561
vn 0.0000 0.0000 0.0560
vn 0.2091 -0.9763 -0.0560
vn 0.0000 0.0000 -0.0560
vn 0.2090 -0.9763 -0.0560
usemtl m_543913e8-2829-9c59-a8cb-fdccff5e97de
s 1
f 25/47/27 26/48/27 27/49/27 28/50/27
f 29/51/28 25/47/29 28/50/30 30/52/31
f 31/53/32 29/54/32 30/55/32 32/56/32
f 26/48/33 31/53/34 32/56/33 27/49/34
f 32/56/35 30/52/36 28/50/37 27/49/38
f 26/57/39 25/58/40 29/59/41 31/60/40
o cube.415
v 0.525653 0.205796 0.412245
v 0.407774 0.178741 0.443831
v 0.407774 0.178741 0.443831
v 0.525653 0.205796 0.412245
v 0.558005 0.205796 0.532986
v 0.558005 0.205796 0.532986
v 0.440126 0.178741 0.564572
v 0.440126 0.178741 0.564572
vt 0.093750 0.859375
vt 0.125000 0.859375
vt 0.125000 0.859375
vt 0.093750 0.859375
vt 0.062500 0.859375
vt 0.062500 0.859375
vt 0.156250 0.859375
vt 0.187500 0.859375
vt 0.187500 0.859375
vt 0.156250 0.859375
vt 0.125000 0.890625
vt 0.093750 0.890625
vt 0.156250 0.859375
vt 0.125000 0.859375
vt 0.125000 0.890625
vt 0.156250 0.890625
vn -0.2589 0.0000 -0.9659
vn 0.0000 0.0000 -0.9659
vn -0.2588 -0.0000 -0.9659
vn 0.9430 0.2164 -0.2527
vn 0.0000 0.0000 -0.2527
vn 0.2588 -0.0000 0.9659
vn 0.0000 0.0000 0.9659
vn -0.9430 -0.2164 0.2527
vn 0.0000 0.0000 0.2527
vn -0.2091 0.9763 0.0560
vn 0.2091 -0.9763 -0.0560
usemtl m_543913e8-2829-9c59-a8cb-fdccff5e97de
s 1
f 33/61/42 34/62/43 35/63/44 36/64/43
f 37/65/45 33/61/46 36/64/45 38/66/46
f 39/67/47 37/68/48 38/69/47 40/70/48
f 34/62/49 39/67/50 40/70/49 35/63/50
f 40/71/51 38/72/51 36/64/51 35/63/51
f 34/73/52 33/74/52 37/75/52 39/76/52
o cube.416
v 0.551786 0.083759 0.405243
v 0.433907 0.056704 0.436829
v 0.433907 0.056704 0.436829
v 0.551786 0.083759 0.405243
v 0.584138 0.083759 0.525984
v 0.584138 0.083759 0.525984
v 0.466259 0.056704 0.557569
v 0.466259 0.056704 0.557569
vt 0.031250 0.859375
vt 0.062500 0.859375
vt 0.062500 0.859375
vt 0.031250 0.859375
vt 0.000000 0.859375
vt 0.000000 0.859375
vt 0.093750 0.859375
vt 0.125000 0.859375
vt 0.125000 0.859375
vt 0.093750 0.859375
vt 0.062500 0.890625
vt 0.031250 0.890625
vt 0.093750 0.859375
vt 0.062500 0.859375
vt 0.062500 0.890625
vt 0.093750 0.890625
vn -0.2589 0.0000 -0.9659
vn 0.0000 0.0000 -0.9659
vn -0.2588 -0.0000 -0.9659
vn 0.9430 0.2164 -0.2527
vn 0.0000 0.0000 -0.2527
vn 0.2588 -0.0000 0.9659
vn 0.0000 0.0000 0.9659
vn -0.9430 -0.2164 0.2527
vn 0.0000 0.0000 0.2527
vn -0.2091 0.9763 0.0560
vn 0.2091 -0.9763 -0.0560
usemtl m_543913e8-2829-9c59-a8cb-fdccff5e97de
s 1
f 41/77/53 42/78/54 43/79/55 44/80/54
f 45/81/56 41/77/57 44/80/56 46/82/57
f 47/83/58 45/84/59 46/85/58 48/86/59
f 42/78/60 47/83/61 48/86/60 43/79/61
f 48/87/62 46/88/62 44/80/62 43/79/62
f 42/89/63 41/90/63 45/91/63 47/92/63
o cube.417
v 0.579743 0.008760 0.601572
v 0.412418 0.080513 0.646407
v 0.481726 0.253740 0.627835
v 0.649051 0.181987 0.583001
v 0.595919 0.008760 0.661942
v 0.665227 0.181987 0.643371
v 0.428594 0.080513 0.706777
v 0.497903 0.253740 0.688206
vt 0.015625 0.890625
vt 0.062500 0.890625
vt 0.062500 0.937500
vt 0.015625 0.937500
vt 0.000000 0.890625
vt 0.000000 0.937500
vt 0.078125 0.890625
vt 0.125000 0.890625
vt 0.125000 0.937500
vt 0.078125 0.937500
vt 0.062500 0.953125
vt 0.015625 0.953125
vt 0.109375 0.937500
vt 0.062500 0.937500
vt 0.062500 0.953125
vt 0.109375 0.953125
vn -0.2588 -0.0000 -0.9659
vn 0.8924 -0.3827 -0.2391
vn 0.2588 0.0000 0.9659
vn -0.8924 0.3827 0.2391
vn 0.3696 0.9239 -0.0990
vn -0.3696 -0.9239 0.0990
usemtl m_543913e8-2829-9c59-a8cb-fdccff5e97de
s 1
f 49/93/64 50/94/64 51/95/64 52/96/64
f 53/97/65 49/93/65 52/96/65 54/98/65
f 55/99/66 53/100/66 54/101/66 56/102/66
f 50/94/67 55/99/67 56/102/67 51/95/67
f 56/103/68 54/104/68 52/96/68 51/95/68
f 50/105/69 49/106/69 53/107/69 55/108/69
o cube.418
v 0.548401 0.050525 0.558673
v 0.438368 0.098315 0.593801
v 0.484574 0.213800 0.581420
v 0.594606 0.166010 0.546292
v 0.566995 0.049482 0.618334
v 0.613200 0.164967 0.605953
v 0.456962 0.097272 0.653462
v 0.503167 0.212757 0.641081
vt 0.015625 0.812500
vt 0.046875 0.812500
vt 0.046875 0.843750
vt 0.015625 0.843750
vt 0.000000 0.812500
vt 0.000000 0.843750
vt 0.062500 0.812500
vt 0.093750 0.812500
vt 0.093750 0.843750
vt 0.062500 0.843750
vt 0.046875 0.859375
vt 0.015625 0.859375
vt 0.078125 0.843750
vt 0.046875 0.843750
vt 0.046875 0.859375
vt 0.078125 0.859375
vn -0.2975 0.0167 -0.9546
vn 0.8803 -0.3823 -0.2810
vn 0.2975 -0.0167 0.9546
vn -0.8803 0.3823 0.2810
vn 0.3696 0.9239 -0.0990
vn -0.3696 -0.9239 0.0990
usemtl m_543913e8-2829-9c59-a8cb-fdccff5e97de
s 1
f 57/109/70 58/110/70 59/111/70 60/112/70
f 61/113/71 57/109/71 60/112/71 62/114/71
f 63/115/72 61/116/72 62/117/72 64/118/72
f 58/110/73 63/115/73 64/118/73 59/111/73
f 64/119/74 62/120/74 60/112/74 59/111/74
f 58/121/75 57/122/75 61/123/75 63/124/75
o cube.419
v 0.621624 0.037500 0.798910
v 0.519230 0.037500 0.727213
v 0.519230 0.225000 0.727213
v 0.621624 0.225000 0.798910
v 0.621624 0.037500 0.798910
v 0.621624 0.225000 0.798910
v 0.519230 0.037500 0.727213
v 0.519230 0.225000 0.727213
vt 0.000000 0.765625
vt 0.031250 0.765625
vt 0.031250 0.812500
vt 0.000000 0.812500
vt 0.000000 0.765625
vt 0.000000 0.812500
vt 0.031250 0.765625
vt 0.062500 0.765625
vt 0.062500 0.812500
vt 0.031250 0.812500
vt 0.062500 0.812500
vt 0.031250 0.812500
vt 0.031250 0.812500
vt 0.062500 0.812500
vn 0.5736 -0.0000 -0.8192
vn 0.0000 0.0000 0.5736
vn 0.8191 0.0000 0.5736
vn -0.5736 0.0000 0.8192
vn 0.0000 0.0000 -0.5736
vn -0.8191 -0.0000 -0.5736
vn -0.0000 1.0000 -0.0001
vn 0.0000 0.0000 -0.0000
vn -0.0000 1.0000 -0.0000
vn 0.0000 0.0000 -0.0001
vn 0.0000 -1.0000 -0.0001
vn 0.0000 -1.0000 -0.0000
usemtl m_543913e8-2829-9c59-a8cb-fdccff5e97de
s 1
f 65/125/76 66/126/76 67/127/76 68/128/76
f 69/129/77 65/125/78 68/128/77 70/130/78
f 71/131/79 69/132/79 70/133/79 72/134/79
f 66/126/80 71/131/81 72/134/80 67/127/81
f 72/134/82 70/130/83 68/128/84 67/127/85
f 66/135/86 65/136/83 69/137/87 71/138/85
o cube.420
v 0.621686 0.037500 0.798918
v 0.638002 0.037500 0.674988
v 0.638002 0.225000 0.674987
v 0.621686 0.225000 0.798918
v 0.621686 0.037500 0.798918
v 0.621686 0.225000 0.798918
v 0.638002 0.037500 0.674988
v 0.638002 0.225000 0.674987
vt 0.156250 0.796875
vt 0.187500 0.796875
vt 0.187500 0.843750
vt 0.156250 0.843750
vt 0.156250 0.796875
vt 0.156250 0.843750
vt 0.187500 0.796875
vt 0.218750 0.796875
vt 0.218750 0.843750
vt 0.187500 0.843750
vt 0.218750 0.843750
vt 0.187500 0.843750
vt 0.187500 0.843750
vt 0.218750 0.843750
vn 0.9914 0.0000 0.1305
vn 0.0000 0.0000 0.9914
vn -0.1305 -0.0000 0.9914
vn -0.9914 0.0000 -0.1305
vn 0.0000 0.0000 -0.9914
vn 0.1305 0.0000 -0.9914
vn -0.0000 1.0000 -0.0001
vn 0.0000 0.0000 -0.0000
vn 0.0000 1.0000 -0.0000
vn 0.0000 0.0000 -0.0001
vn -0.0000 -1.0000 -0.0001
vn 0.0000 -1.0000 -0.0000
usemtl m_543913e8-2829-9c59-a8cb-fdccff5e97de
s 1
f 73/139/88 74/140/88 75/141/88 76/142/88
f 77/143/89 73/139/90 76/142/89 78/144/90
f 79/145/91 77/146/91 78/147/91 80/148/91
f 74/140/92 79/145/93 80/148/92 75/141/93
f 80/148/94 78/144/95 76/142/96 75/141/97
f 74/149/98 73/150/95 77/151/99 79/152/97
o cube.421
v 0.502977 0.037500 0.851152
v 0.519292 0.037500 0.727221
v 0.519292 0.225000 0.727221
v 0.502977 0.225000 0.851152
v 0.502977 0.037500 0.851152
v 0.502977 0.225000 0.851152
v 0.519292 0.037500 0.727221
v 0.519292 0.225000 0.727221
vt 0.093750 0.812500
vt 0.125000 0.812500
vt 0.125000 0.859375
vt 0.093750 0.859375
vt 0.093750 0.812500
vt 0.093750 0.859375
vt 0.125000 0.812500
vt 0.156250 0.812500
vt 0.156250 0.859375
vt 0.125000 0.859375
vt 0.156250 0.859375
vt 0.125000 0.859375
vt 0.125000 0.859375
vt 0.156250 0.859375
vn 0.9914 0.0000 0.1305
vn 0.0000 0.0000 0.9914
vn -0.1305 -0.0000 0.9914
vn -0.9914 0.0000 -0.1305
vn 0.0000 0.0000 -0.9914
vn 0.1305 0.0000 -0.9914
vn -0.0000 1.0000 -0.0001
vn 0.0000 0.0000 -0.0000
vn 0.0000 1.0000 -0.0000
vn 0.0000 0.0000 -0.0001
vn -0.0000 -1.0000 -0.0001
vn 0.0000 -1.0000 -0.0000
usemtl m_543913e8-2829-9c59-a8cb-fdccff5e97de
s 1
f 81/153/100 82/154/100 83/155/100 84/156/100
f 85/157/101 81/153/102 84/156/101 86/158/102
f 87/159/103 85/160/103 86/161/103 88/162/103
f 82/154/104 87/159/105 88/162/104 83/155/105
f 88/162/106 86/158/107 84/156/108 83/155/109
f 82/163/110 81/164/107 85/165/111 87/166/109
o cube.422
v 0.400776 0.100000 0.008949
v 0.340405 0.100000 0.025125
v 0.340405 0.162500 0.025125
v 0.400776 0.162500 0.008949
v 0.627242 0.100000 0.854134
v 0.627242 0.162500 0.854134
v 0.566872 0.100000 0.870310
v 0.566872 0.162500 0.870310
vt 0.218750 0.609375
vt 0.234375 0.609375
vt 0.234375 0.625000
vt 0.218750 0.625000
vt 0.000000 0.609375
vt 0.000000 0.625000
vt 0.453125 0.609375
vt 0.468750 0.609375
vt 0.468750 0.625000
vt 0.453125 0.625000
vt 0.234375 0.843750
vt 0.218750 0.843750
vt 0.250000 0.625000
vt 0.234375 0.625000
vt 0.234375 0.843750
vt 0.250000 0.843750
vn -0.2588 0.0000 -0.9659
vn 0.9659 0.0000 -0.2588
vn 0.2588 0.0000 0.9659
vn -0.9659 0.0000 0.2588
vn -0.0000 1.0000 -0.0000
vn 0.0000 -1.0000 0.0000
usemtl m_543913e8-2829-9c59-a8cb-fdccff5e97de
s 1
f 89/167/112 90/168/112 91/169/112 92/170/112
f 93/171/113 89/167/113 92/170/113 94/172/113
f 95/173/114 93/174/114 94/175/114 96/176/114
f 90/168/115 95/173/115 96/176/115 91/169/115
f 96/177/116 94/178/116 92/170/116 91/169/116
f 90/179/117 89/180/117 93/181/117 95/182/117
