# Blender v3.6.1 OBJ File: ''
# www.blender.org
mtllib potato_tornado.mtl
o cube.566
v 0.781732 0.006250 0.148216
v 0.283635 0.006250 0.104638
v 0.283635 0.006250 0.104638
v 0.781732 0.006250 0.148216
v 0.716365 0.006250 0.895362
v 0.716365 0.006250 0.895362
v 0.218268 0.006250 0.851784
v 0.218268 0.006250 0.851784
vt 0.187500 0.812500
vt 0.312500 0.812500
vt 0.312500 0.812500
vt 0.187500 0.812500
vt 0.000000 0.812500
vt 0.000000 0.812500
vt 0.500000 0.812500
vt 0.625000 0.812500
vt 0.625000 0.812500
vt 0.500000 0.812500
vt 0.312500 1.000000
vt 0.187500 1.000000
vt 0.437500 0.812500
vt 0.312500 0.812500
vt 0.312500 1.000000
vt 0.437500 1.000000
vn 0.0871 -0.0000 -0.9962
vn 0.0000 0.0000 -0.9962
vn 0.9962 -0.0000 0.0872
vn 0.0000 0.0000 0.0872
vn -0.0871 0.0000 0.9962
vn 0.0000 0.0000 0.9962
vn -0.9962 0.0000 -0.0872
vn 0.0000 0.0000 -0.0871
vn -0.9962 0.0000 -0.0871
vn 0.0000 0.0000 -0.0872
vn 0.0000 1.0000 -0.0000
vn -0.0000 -1.0000 0.0000
usemtl m_98c25661-3fab-8824-ce15-8c12b68a6ff5
s 1
f 1/1/1 2/2/2 3/3/1 4/4/2
f 5/5/3 1/1/4 4/4/3 6/6/4
f 7/7/5 5/8/6 6/9/5 8/10/6
f 2/2/7 7/7/8 8/10/9 3/3/10
f 8/11/11 6/12/11 4/4/11 3/3/11
f 2/13/12 1/14/12 5/15/12 7/16/12
o cube.567
v 0.442866 0.006250 0.233213
v 0.334613 0.006250 0.295713
v 0.334613 0.068750 0.295713
v 0.442866 0.068750 0.233213
v 0.474116 0.006250 0.287340
v 0.474116 0.068750 0.287340
v 0.365863 0.006250 0.349840
v 0.365863 0.068750 0.349840
vt 0.265625 0.781250
vt 0.296875 0.781250
vt 0.296875 0.796875
vt 0.265625 0.796875
vt 0.250000 0.781250
vt 0.250000 0.796875
vt 0.312500 0.781250
vt 0.343750 0.781250
vt 0.343750 0.796875
vt 0.312500 0.796875
vt 0.296875 0.812500
vt 0.265625 0.812500
vt 0.328125 0.796875
vt 0.296875 0.796875
vt 0.296875 0.812500
vt 0.328125 0.812500
vn -0.5000 0.0000 -0.8660
vn 0.8660 0.0000 -0.5000
vn 0.5000 0.0000 0.8660
vn -0.8660 0.0000 0.5000
vn -0.0000 1.0000 -0.0000
vn 0.0000 -1.0000 0.0000
usemtl m_98c25661-3fab-8824-ce15-8c12b68a6ff5
s 1
f 9/17/13 10/18/13 11/19/13 12/20/13
f 13/21/14 9/17/14 12/20/14 14/22/14
f 15/23/15 13/24/15 14/25/15 16/26/15
f 10/18/16 15/23/16 16/26/16 11/19/16
f 16/27/17 14/28/17 12/20/17 11/19/17
f 10/29/18 9/30/18 13/31/18 15/32/18
o cube.568
v 0.394220 0.006250 0.276919
v 0.334613 0.006250 0.295713
v 0.346816 0.189305 0.334418
v 0.406424 0.189305 0.315623
v 0.412569 -0.007277 0.335114
v 0.424772 0.175778 0.373818
v 0.352962 -0.007277 0.353908
v 0.365165 0.175778 0.392612
vt 0.015625 0.687500
vt 0.031250 0.687500
vt 0.031250 0.734375
vt 0.015625 0.734375
vt 0.000000 0.687500
vt 0.000000 0.734375
vt 0.046875 0.687500
vt 0.062500 0.687500
vt 0.062500 0.734375
vt 0.046875 0.734375
vt 0.031250 0.750000
vt 0.015625 0.750000
vt 0.046875 0.734375
vt 0.031250 0.734375
vt 0.031250 0.750000
vt 0.046875 0.750000
vn -0.2936 0.2164 -0.9311
vn 0.9537 0.0000 -0.3007
vn 0.2936 -0.2164 0.9311
vn -0.9537 0.0000 0.3007
vn 0.0651 0.9763 0.2064
vn -0.0651 -0.9763 -0.2064
usemtl m_98c25661-3fab-8824-ce15-8c12b68a6ff5
s 1
f 17/33/19 18/34/19 19/35/19 20/36/19
f 21/37/20 17/33/20 20/36/20 22/38/20
f 23/39/21 21/40/21 22/41/21 24/42/21
f 18/34/22 23/39/22 24/42/22 19/35/22
f 24/43/23 22/44/23 20/36/23 19/35/23
f 18/45/24 17/46/24 21/47/24 23/48/24
o cube.569
v 0.533597 0.126805 0.318014
v 0.346811 0.126805 0.334355
v 0.346811 0.189305 0.334355
v 0.533597 0.189305 0.318014
v 0.539045 0.126805 0.380276
v 0.539045 0.189305 0.380276
v 0.352258 0.126805 0.396618
v 0.352258 0.189305 0.396618
vt 0.015625 0.812500
vt 0.062500 0.812500
vt 0.062500 0.828125
vt 0.015625 0.828125
vt 0.000000 0.812500
vt 0.000000 0.828125
vt 0.078125 0.812500
vt 0.125000 0.812500
vt 0.125000 0.828125
vt 0.078125 0.828125
vt 0.062500 0.843750
vt 0.015625 0.843750
vt 0.109375 0.828125
vt 0.062500 0.828125
vt 0.062500 0.843750
vt 0.109375 0.843750
vn -0.0872 0.0000 -0.9962
vn 0.9962 0.0000 -0.0872
vn 0.0872 0.0000 0.9962
vn -0.9962 0.0000 0.0872
vn 0.0000 1.0000 0.0000
vn 0.0000 -1.0000 0.0000
usemtl m_98c25661-3fab-8824-ce15-8c12b68a6ff5
s 1
f 25/49/25 26/50/25 27/51/25 28/52/25
f 29/53/26 25/49/26 28/52/26 30/54/26
f 31/55/27 29/56/27 30/57/27 32/58/27
f 26/50/28 31/55/28 32/58/28 27/51/28
f 32/59/29 30/60/29 28/52/29 27/51/29
f 26/61/30 25/62/30 29/63/30 31/64/30
o cube.570
v 0.545788 0.006236 0.356722
v 0.486181 0.006236 0.375516
v 0.473977 0.189292 0.336812
v 0.533584 0.189292 0.318018
v 0.564137 0.019764 0.414916
v 0.551933 0.202819 0.376212
v 0.504529 0.019764 0.433710
v 0.492326 0.202819 0.395006
vt 0.140625 0.734375
vt 0.156250 0.734375
vt 0.156250 0.781250
vt 0.140625 0.781250
vt 0.125000 0.734375
vt 0.125000 0.781250
vt 0.171875 0.734375
vt 0.187500 0.734375
vt 0.187500 0.781250
vt 0.171875 0.781250
vt 0.156250 0.796875
vt 0.140625 0.796875
vt 0.171875 0.781250
vt 0.156250 0.781250
vt 0.156250 0.796875
vt 0.171875 0.796875
vn -0.2936 -0.2164 -0.9311
vn 0.9537 0.0000 -0.3007
vn 0.2936 0.2164 0.9311
vn -0.9537 0.0000 0.3007
vn -0.0651 0.9763 -0.2064
vn 0.0651 -0.9763 0.2064
usemtl m_98c25661-3fab-8824-ce15-8c12b68a6ff5
s 1
f 33/65/31 34/66/31 35/67/31 36/68/31
f 37/69/32 33/65/32 36/68/32 38/70/32
f 39/71/33 37/72/33 38/73/33 40/74/33
f 34/66/34 39/71/34 40/74/34 35/67/34
f 40/75/35 38/76/35 36/68/35 35/67/35
f 34/77/36 33/78/36 37/79/36 39/80/36
o cube.571
v 0.594583 0.006223 0.511480
v 0.534976 0.006223 0.530274
v 0.522772 0.189278 0.491570
v 0.582380 0.189278 0.472776
v 0.612932 0.019750 0.569675
v 0.600728 0.202806 0.530970
v 0.553324 0.019750 0.588469
v 0.541121 0.202806 0.549765
vt 0.078125 0.750000
vt 0.093750 0.750000
vt 0.093750 0.796875
vt 0.078125 0.796875
vt 0.062500 0.750000
vt 0.062500 0.796875
vt 0.109375 0.750000
vt 0.125000 0.750000
vt 0.125000 0.796875
vt 0.109375 0.796875
vt 0.093750 0.812500
vt 0.078125 0.812500
vt 0.109375 0.796875
vt 0.093750 0.796875
vt 0.093750 0.812500
vt 0.109375 0.812500
vn -0.2936 -0.2164 -0.9311
vn 0.9537 0.0000 -0.3007
vn 0.2936 0.2164 0.9311
vn -0.9537 0.0000 0.3007
vn -0.0651 0.9763 -0.2064
vn 0.0651 -0.9763 0.2064
usemtl m_98c25661-3fab-8824-ce15-8c12b68a6ff5
s 1
f 41/81/37 42/82/37 43/83/37 44/84/37
f 45/85/38 41/81/38 44/84/38 46/86/38
f 47/87/39 45/88/39 46/89/39 48/90/39
f 42/82/40 47/87/40 48/90/40 43/83/40
f 48/91/41 46/92/41 44/84/41 43/83/41
f 42/93/42 41/94/42 45/95/42 47/96/42
o cube.572
v 0.443015 0.006236 0.431678
v 0.383408 0.006236 0.450472
v 0.395611 0.189292 0.489176
v 0.455219 0.189292 0.470382
v 0.461364 -0.007291 0.489872
v 0.473567 0.175765 0.528576
v 0.401757 -0.007291 0.508666
v 0.413960 0.175765 0.547370
vt 0.015625 0.750000
vt 0.031250 0.750000
vt 0.031250 0.796875
vt 0.015625 0.796875
vt 0.000000 0.750000
vt 0.000000 0.796875
vt 0.046875 0.750000
vt 0.062500 0.750000
vt 0.062500 0.796875
vt 0.046875 0.796875
vt 0.031250 0.812500
vt 0.015625 0.812500
vt 0.046875 0.796875
vt 0.031250 0.796875
vt 0.031250 0.812500
vt 0.046875 0.812500
vn -0.2936 0.2164 -0.9311
vn 0.9537 -0.0000 -0.3007
vn 0.2936 -0.2164 0.9311
vn -0.9537 0.0000 0.3007
vn 0.0651 0.9763 0.2064
vn -0.0651 -0.9763 -0.2064
usemtl m_98c25661-3fab-8824-ce15-8c12b68a6ff5
s 1
f 49/97/43 50/98/43 51/99/43 52/100/43
f 53/101/44 49/97/44 52/100/44 54/102/44
f 55/103/45 53/104/45 54/105/45 56/106/45
f 50/98/46 55/103/46 56/106/46 51/99/46
f 56/107/47 54/108/47 52/100/47 51/99/47
f 50/109/48 49/110/48 53/111/48 55/112/48
o cube.573
v 0.582393 0.126792 0.472772
v 0.395606 0.126792 0.489114
v 0.395606 0.189292 0.489114
v 0.582393 0.189292 0.472772
v 0.587840 0.126792 0.535034
v 0.587840 0.189292 0.535034
v 0.401053 0.126792 0.551376
v 0.401053 0.189292 0.551376
vt 0.015625 0.843750
vt 0.062500 0.843750
vt 0.062500 0.859375
vt 0.015625 0.859375
vt 0.000000 0.843750
vt 0.000000 0.859375
vt 0.078125 0.843750
vt 0.125000 0.843750
vt 0.125000 0.859375
vt 0.078125 0.859375
vt 0.062500 0.875000
vt 0.015625 0.875000
vt 0.109375 0.859375
vt 0.062500 0.859375
vt 0.062500 0.875000
vt 0.109375 0.875000
vn -0.0872 0.0000 -0.9962
vn 0.9962 0.0000 -0.0872
vn 0.0872 0.0000 0.9962
vn -0.9962 0.0000 0.0872
vn 0.0000 1.0000 0.0000
vn 0.0000 -1.0000 0.0000
usemtl m_98c25661-3fab-8824-ce15-8c12b68a6ff5
s 1
f 57/113/49 58/114/49 59/115/49 60/116/49
f 61/117/50 57/113/50 60/116/50 62/118/50
f 63/119/51 61/120/51 62/121/51 64/122/51
f 58/114/52 63/119/52 64/122/52 59/115/52
f 64/123/53 62/124/53 60/116/53 59/115/53
f 58/125/54 57/126/54 61/127/54 63/128/54
o cube.574
v 0.545788 0.006236 0.356722
v 0.383408 0.006236 0.450472
v 0.383408 0.068736 0.450472
v 0.545788 0.068736 0.356722
v 0.577038 0.006236 0.410848
v 0.577038 0.068736 0.410848
v 0.414658 0.006236 0.504598
v 0.414658 0.068736 0.504598
vt 0.015625 0.875000
vt 0.062500 0.875000
vt 0.062500 0.890625
vt 0.015625 0.890625
vt 0.000000 0.875000
vt 0.000000 0.890625
vt 0.078125 0.875000
vt 0.125000 0.875000
vt 0.125000 0.890625
vt 0.078125 0.890625
vt 0.062500 0.906250
vt 0.015625 0.906250
vt 0.109375 0.890625
vt 0.062500 0.890625
vt 0.062500 0.906250
vt 0.109375 0.906250
vn -0.5000 0.0000 -0.8660
vn 0.8660 0.0000 -0.5000
vn 0.5000 0.0000 0.8660
vn -0.8660 0.0000 0.5000
vn -0.0000 1.0000 0.0000
vn 0.0000 -1.0000 0.0000
usemtl m_98c25661-3fab-8824-ce15-8c12b68a6ff5
s 1
f 65/129/55 66/130/55 67/131/55 68/132/55
f 69/133/56 65/129/56 68/132/56 70/134/56
f 71/135/57 69/136/57 70/137/57 72/138/57
f 66/130/58 71/135/58 72/138/58 67/131/58
f 72/139/59 70/140/59 68/132/59 67/131/59
f 66/141/60 65/142/60 69/143/60 71/144/60
o cube.575
v 0.643378 0.006209 0.666239
v 0.583771 0.006209 0.685033
v 0.571567 0.189265 0.646329
v 0.631175 0.189265 0.627535
v 0.661727 0.019737 0.724433
v 0.649523 0.202792 0.685729
v 0.602119 0.019737 0.743227
v 0.589916 0.202792 0.704523
vt 0.140625 0.875000
vt 0.156250 0.875000
vt 0.156250 0.921875
vt 0.140625 0.921875
vt 0.125000 0.875000
vt 0.125000 0.921875
vt 0.171875 0.875000
vt 0.187500 0.875000
vt 0.187500 0.921875
vt 0.171875 0.921875
vt 0.156250 0.937500
vt 0.140625 0.937500
vt 0.171875 0.921875
vt 0.156250 0.921875
vt 0.156250 0.937500
vt 0.171875 0.937500
vn -0.2936 -0.2164 -0.9311
vn 0.9537 -0.0000 -0.3007
vn 0.2936 0.2164 0.9311
vn -0.9537 -0.0000 0.3007
vn -0.0651 0.9763 -0.2064
vn 0.0651 -0.9763 0.2064
usemtl m_98c25661-3fab-8824-ce15-8c12b68a6ff5
s 1
f 73/145/61 74/146/61 75/147/61 76/148/61
f 77/149/62 73/145/62 76/148/62 78/150/62
f 79/151/63 77/152/63 78/153/63 80/154/63
f 74/146/64 79/151/64 80/154/64 75/147/64
f 80/155/65 78/156/65 76/148/65 75/147/65
f 74/157/66 73/158/66 77/159/66 79/160/66
o cube.576
v 0.491811 0.006223 0.586436
v 0.432203 0.006223 0.605230
v 0.444407 0.189278 0.643934
v 0.504014 0.189278 0.625140
v 0.510159 -0.007305 0.644631
v 0.522363 0.175751 0.683335
v 0.450552 -0.007305 0.663425
v 0.462755 0.175751 0.702129
vt 0.140625 0.937500
vt 0.156250 0.937500
vt 0.156250 0.984375
vt 0.140625 0.984375
vt 0.125000 0.937500
vt 0.125000 0.984375
vt 0.171875 0.937500
vt 0.187500 0.937500
vt 0.187500 0.984375
vt 0.171875 0.984375
vt 0.156250 1.000000
vt 0.140625 1.000000
vt 0.171875 0.984375
vt 0.156250 0.984375
vt 0.156250 1.000000
vt 0.171875 1.000000
vn -0.2936 0.2164 -0.9311
vn 0.9537 -0.0000 -0.3007
vn 0.2936 -0.2164 0.9311
vn -0.9537 0.0000 0.3007
vn 0.0651 0.9763 0.2064
vn -0.0651 -0.9763 -0.2064
usemtl m_98c25661-3fab-8824-ce15-8c12b68a6ff5
s 1
f 81/161/67 82/162/67 83/163/67 84/164/67
f 85/165/68 81/161/68 84/164/68 86/166/68
f 87/167/69 85/168/69 86/169/69 88/170/69
f 82/162/70 87/167/70 88/170/70 83/163/70
f 88/171/71 86/172/71 84/164/71 83/163/71
f 82/173/72 81/174/72 85/175/72 87/176/72
o cube.577
v 0.631188 0.126778 0.627530
v 0.444401 0.126778 0.643872
v 0.444401 0.189278 0.643872
v 0.631188 0.189278 0.627530
v 0.636635 0.126778 0.689793
v 0.636635 0.189278 0.689793
v 0.449848 0.126778 0.706134
v 0.449848 0.189278 0.706134
vt 0.015625 0.906250
vt 0.062500 0.906250
vt 0.062500 0.921875
vt 0.015625 0.921875
vt 0.000000 0.906250
vt 0.000000 0.921875
vt 0.078125 0.906250
vt 0.125000 0.906250
vt 0.125000 0.921875
vt 0.078125 0.921875
vt 0.062500 0.937500
vt 0.015625 0.937500
vt 0.109375 0.921875
vt 0.062500 0.921875
vt 0.062500 0.937500
vt 0.109375 0.937500
vn -0.0872 0.0000 -0.9962
vn 0.9962 0.0000 -0.0872
vn 0.0872 0.0000 0.9962
vn -0.9962 0.0000 0.0872
vn 0.0000 1.0000 0.0000
vn 0.0000 -1.0000 0.0000
usemtl m_98c25661-3fab-8824-ce15-8c12b68a6ff5
s 1
f 89/177/73 90/178/73 91/179/73 92/180/73
f 93/181/74 89/177/74 92/180/74 94/182/74
f 95/183/75 93/184/75 94/185/75 96/186/75
f 90/178/76 95/183/76 96/186/76 91/179/76
f 96/187/77 94/188/77 92/180/77 91/179/77
f 90/189/78 89/190/78 93/191/78 95/192/78
o cube.578
v 0.594583 0.006223 0.511480
v 0.432203 0.006223 0.605230
v 0.432203 0.068723 0.605230
v 0.594583 0.068723 0.511480
v 0.625833 0.006223 0.565607
v 0.625833 0.068723 0.565607
v 0.463453 0.006223 0.659357
v 0.463453 0.068723 0.659357
vt 0.015625 0.937500
vt 0.062500 0.937500
vt 0.062500 0.953125
vt 0.015625 0.953125
vt 0.000000 0.937500
vt 0.000000 0.953125
vt 0.078125 0.937500
vt 0.125000 0.937500
vt 0.125000 0.953125
vt 0.078125 0.953125
vt 0.062500 0.968750
vt 0.015625 0.968750
vt 0.109375 0.953125
vt 0.062500 0.953125
vt 0.062500 0.968750
vt 0.109375 0.968750
vn -0.5000 0.0000 -0.8660
vn 0.8660 0.0000 -0.5000
vn 0.5000 0.0000 0.8660
vn -0.8660 0.0000 0.5000
vn -0.0000 1.0000 -0.0000
vn 0.0000 -1.0000 0.0000
usemtl m_98c25661-3fab-8824-ce15-8c12b68a6ff5
s 1
f 97/193/79 98/194/79 99/195/79 100/196/79
f 101/197/80 97/193/80 100/196/80 102/198/80
f 103/199/81 101/200/81 102/201/81 104/202/81
f 98/194/82 103/199/82 104/202/82 99/195/82
f 104/203/83 102/204/83 100/196/83 99/195/83
f 98/205/84 97/206/84 101/207/84 103/208/84
o cube.579
v 0.676255 0.021451 0.822470
v 0.616647 0.021451 0.841264
v 0.608512 0.143488 0.815462
v 0.668119 0.143488 0.796667
v 0.694603 0.034978 0.880665
v 0.686468 0.157015 0.854862
v 0.634996 0.034978 0.899459
v 0.626860 0.157015 0.873656
vt 0.078125 0.703125
vt 0.093750 0.703125
vt 0.093750 0.734375
vt 0.078125 0.734375
vt 0.062500 0.703125
vt 0.062500 0.734375
vt 0.109375 0.703125
vt 0.125000 0.703125
vt 0.125000 0.734375
vt 0.109375 0.734375
vt 0.093750 0.750000
vt 0.078125 0.750000
vt 0.109375 0.734375
vt 0.093750 0.734375
vt 0.093750 0.750000
vt 0.109375 0.750000
vn -0.2936 -0.2164 -0.9311
vn 0.9537 0.0000 -0.3007
vn 0.2936 0.2164 0.9311
vn -0.9537 0.0000 0.3007
vn -0.0651 0.9763 -0.2064
vn 0.0651 -0.9763 0.2064
usemtl m_98c25661-3fab-8824-ce15-8c12b68a6ff5
s 1
f 105/209/85 106/210/85 107/211/85 108/212/85
f 109/213/86 105/209/86 108/212/86 110/214/86
f 111/215/87 109/216/87 110/217/87 112/218/87
f 106/210/88 111/215/88 112/218/88 107/211/88
f 112/219/89 110/220/89 108/212/89 107/211/89
f 106/221/90 105/222/90 109/223/90 111/224/90
o cube.580
v 0.542640 0.036719 0.747645
v 0.483032 0.036719 0.766439
v 0.491168 0.158756 0.792242
v 0.550775 0.158756 0.773448
v 0.560988 0.023191 0.805840
v 0.569124 0.145228 0.831642
v 0.501381 0.023191 0.824634
v 0.509516 0.145228 0.850437
vt 0.140625 0.828125
vt 0.156250 0.828125
vt 0.156250 0.859375
vt 0.140625 0.859375
vt 0.125000 0.828125
vt 0.125000 0.859375
vt 0.171875 0.828125
vt 0.187500 0.828125
vt 0.187500 0.859375
vt 0.171875 0.859375
vt 0.156250 0.875000
vt 0.140625 0.875000
vt 0.171875 0.859375
vt 0.156250 0.859375
vt 0.156250 0.875000
vt 0.171875 0.875000
vn -0.2936 0.2164 -0.9311
vn 0.9537 0.0000 -0.3007
vn 0.2936 -0.2164 0.9311
vn -0.9537 -0.0000 0.3007
vn 0.0651 0.9763 0.2064
vn -0.0651 -0.9763 -0.2064
usemtl m_98c25661-3fab-8824-ce15-8c12b68a6ff5
s 1
f 113/225/91 114/226/91 115/227/91 116/228/91
f 117/229/92 113/225/92 116/228/92 118/230/92
f 119/231/93 117/232/93 118/233/93 120/234/93
f 114/226/94 119/231/94 120/234/94 115/227/94
f 120/235/95 118/236/95 116/228/95 115/227/95
f 114/237/96 113/238/96 117/239/96 119/240/96
o cube.581
v 0.648852 0.111140 0.785012
v 0.524327 0.111140 0.795907
v 0.524327 0.173640 0.795907
v 0.648852 0.173640 0.785012
v 0.654299 0.111140 0.847275
v 0.654299 0.173640 0.847275
v 0.529775 0.111140 0.858169
v 0.529775 0.173640 0.858169
vt 0.125000 0.796875
vt 0.156250 0.796875
vt 0.156250 0.812500
vt 0.125000 0.812500
vt 0.109375 0.796875
vt 0.109375 0.812500
vt 0.171875 0.796875
vt 0.203125 0.796875
vt 0.203125 0.812500
vt 0.171875 0.812500
vt 0.156250 0.828125
vt 0.125000 0.828125
vt 0.187500 0.812500
vt 0.156250 0.812500
vt 0.156250 0.828125
vt 0.187500 0.828125
vn -0.0872 0.0000 -0.9962
vn 0.9962 0.0000 -0.0872
vn 0.0872 0.0000 0.9962
vn -0.9962 0.0000 0.0872
vn -0.0000 1.0000 -0.0000
vn 0.0000 -1.0000 0.0000
usemtl m_98c25661-3fab-8824-ce15-8c12b68a6ff5
s 1
f 121/241/97 122/242/97 123/243/97 124/244/97
f 125/245/98 121/241/98 124/244/98 126/246/98
f 127/247/99 125/248/99 126/249/99 128/250/99
f 122/242/100 127/247/100 128/250/100 123/243/100
f 128/251/101 126/252/101 124/244/101 123/243/101
f 122/253/102 121/254/102 125/255/102 127/256/102
o cube.582
v 0.643378 0.006209 0.666239
v 0.480998 0.006209 0.759989
v 0.480998 0.068709 0.759989
v 0.643378 0.068709 0.666239
v 0.674628 0.006209 0.720365
v 0.674628 0.068709 0.720365
v 0.512248 0.006209 0.814115
v 0.512248 0.068709 0.814115
vt 0.015625 0.968750
vt 0.062500 0.968750
vt 0.062500 0.984375
vt 0.015625 0.984375
vt 0.000000 0.968750
vt 0.000000 0.984375
vt 0.078125 0.968750
vt 0.125000 0.968750
vt 0.125000 0.984375
vt 0.078125 0.984375
vt 0.062500 1.000000
vt 0.015625 1.000000
vt 0.109375 0.984375
vt 0.062500 0.984375
vt 0.062500 1.000000
vt 0.109375 1.000000
vn -0.5000 0.0000 -0.8660
vn 0.8660 0.0000 -0.5000
vn 0.5000 0.0000 0.8660
vn -0.8660 0.0000 0.5000
vn 0.0000 1.0000 0.0000
vn 0.0000 -1.0000 0.0000
usemtl m_98c25661-3fab-8824-ce15-8c12b68a6ff5
s 1
f 129/257/103 130/258/103 131/259/103 132/260/103
f 133/261/104 129/257/104 132/260/104 134/262/104
f 135/263/105 133/264/105 134/265/105 136/266/105
f 130/258/106 135/263/106 136/266/106 131/259/106
f 136/267/107 134/268/107 132/260/107 131/259/107
f 130/269/108 129/270/108 133/271/108 135/272/108
o cube.583
v 0.393923 0.067187 0.075521
v 0.334315 0.067187 0.094315
v 0.334315 0.129687 0.094315
v 0.393923 0.129687 0.075521
v 0.657040 0.067188 0.910024
v 0.657040 0.129688 0.910024
v 0.597433 0.067188 0.928818
v 0.597433 0.129688 0.928818
vt 0.218750 0.578125
vt 0.234375 0.578125
vt 0.234375 0.593750
vt 0.218750 0.593750
vt 0.000000 0.578125
vt 0.000000 0.593750
vt 0.453125 0.578125
vt 0.468750 0.578125
vt 0.468750 0.593750
vt 0.453125 0.593750
vt 0.234375 0.812500
vt 0.218750 0.812500
vt 0.250000 0.593750
vt 0.234375 0.593750
vt 0.234375 0.812500
vt 0.250000 0.812500
vn -0.3007 0.0000 -0.9537
vn 0.9537 0.0000 -0.3007
vn 0.3007 0.0000 0.9537
vn -0.9537 0.0000 0.3007
vn -0.0000 1.0000 -0.0000
vn 0.0000 -1.0000 0.0000
usemtl m_98c25661-3fab-8824-ce15-8c12b68a6ff5
s 1
f 137/273/109 138/274/109 139/275/109 140/276/109
f 141/277/110 137/273/110 140/276/110 142/278/110
f 143/279/111 141/280/111 142/281/111 144/282/111
f 138/274/112 143/279/112 144/282/112 139/275/112
f 144/283/113 142/284/113 140/276/113 139/275/113
f 138/285/114 137/286/114 141/287/114 143/288/114
