# Blender v3.6.1 OBJ File: ''
# www.blender.org
mtllib bunny_stew.mtl
o cube.101
v 0.750000 -0.000000 0.250000
v 0.250000 -0.000000 0.250000
v 0.250000 0.062500 0.250000
v 0.750000 0.062500 0.250000
v 0.750000 0.000000 0.750000
v 0.750000 0.062500 0.750000
v 0.250000 0.000000 0.750000
v 0.250000 0.062500 0.750000
vt 0.125000 0.703125
vt 0.250000 0.703125
vt 0.250000 0.718750
vt 0.125000 0.718750
vt 0.000000 0.703125
vt 0.000000 0.718750
vt 0.375000 0.703125
vt 0.500000 0.703125
vt 0.500000 0.718750
vt 0.375000 0.718750
vt 0.250000 0.843750
vt 0.125000 0.843750
vt 0.375000 0.718750
vt 0.250000 0.718750
vt 0.250000 0.843750
vt 0.375000 0.843750
vn 0.0000 0.0000 -1.0000
vn 1.0000 0.0000 0.0000
vn 0.0000 0.0000 1.0000
vn -1.0000 0.0000 0.0000
vn 0.0000 1.0000 -0.0000
vn 0.0000 -1.0000 0.0000
usemtl m_d646b5ec-732d-7b29-f4aa-aaa95227f8cb
s 1
f 1/1/1 2/2/1 3/3/1 4/4/1
f 5/5/2 1/1/2 4/4/2 6/6/2
f 7/7/3 5/8/3 6/9/3 8/10/3
f 2/2/4 7/7/4 8/10/4 3/3/4
f 8/11/5 6/12/5 4/4/5 3/3/5
f 2/13/6 1/14/6 5/15/6 7/16/6
o cube.102
v 0.750000 -0.000000 0.250000
v 0.250000 -0.000000 0.250000
v 0.250000 0.113288 0.197173
v 0.750000 0.113288 0.197173
v 0.750000 0.026414 0.306644
v 0.750000 0.139702 0.253817
v 0.250000 0.026414 0.306644
v 0.250000 0.139702 0.253817
vt 0.015625 0.468750
vt 0.140625 0.468750
vt 0.140625 0.500000
vt 0.015625 0.500000
vt 0.000000 0.468750
vt 0.000000 0.500000
vt 0.156250 0.468750
vt 0.281250 0.468750
vt 0.281250 0.500000
vt 0.156250 0.500000
vt 0.140625 0.515625
vt 0.015625 0.515625
vt 0.265625 0.500000
vt 0.140625 0.500000
vt 0.140625 0.515625
vt 0.265625 0.515625
vn 0.0000 -0.4226 -0.9063
vn 1.0000 0.0000 0.0000
vn 0.0000 0.4226 0.9063
vn -1.0000 0.0000 0.0000
vn 0.0000 0.9063 -0.4226
vn 0.0000 -0.9063 0.4226
usemtl m_d646b5ec-732d-7b29-f4aa-aaa95227f8cb
s 1
f 9/17/7 10/18/7 11/19/7 12/20/7
f 13/21/8 9/17/8 12/20/8 14/22/8
f 15/23/9 13/24/9 14/25/9 16/26/9
f 10/18/10 15/23/10 16/26/10 11/19/10
f 16/27/11 14/28/11 12/20/11 11/19/11
f 10/29/12 9/30/12 13/31/12 15/32/12
o cube.103
v 0.812500 0.252991 0.799010
v 0.187500 0.252991 0.799010
v 0.187500 0.226577 0.855655
v 0.812500 0.226577 0.855655
v 0.812500 0.139702 0.746183
v 0.812500 0.113288 0.802827
v 0.187500 0.139702 0.746183
v 0.187500 0.113288 0.802827
vt 0.468750 0.640625
vt 0.625000 0.640625
vt 0.625000 0.656250
vt 0.468750 0.656250
vt 0.437500 0.640625
vt 0.437500 0.656250
vt 0.656250 0.640625
vt 0.812500 0.640625
vt 0.812500 0.656250
vt 0.656250 0.656250
vt 0.625000 0.687500
vt 0.468750 0.687500
vt 0.781250 0.656250
vt 0.625000 0.656250
vt 0.625000 0.687500
vt 0.781250 0.687500
vn 0.0000 0.9063 0.4226
vn 1.0000 0.0000 0.0000
vn 0.0000 -0.9063 -0.4226
vn -1.0000 0.0000 0.0000
vn 0.0000 -0.4226 0.9063
vn 0.0000 0.4226 -0.9063
usemtl m_d646b5ec-732d-7b29-f4aa-aaa95227f8cb
s 1
f 17/33/13 18/34/13 19/35/13 20/36/13
f 21/37/14 17/33/14 20/36/14 22/38/14
f 23/39/15 21/40/15 22/41/15 24/42/15
f 18/34/16 23/39/16 24/42/16 19/35/16
f 24/43/17 22/44/17 20/36/17 19/35/17
f 18/45/18 17/46/18 21/47/18 23/48/18
o cube.104
v 0.250000 -0.000000 0.250000
v 0.197173 0.113288 0.250000
v 0.253817 0.139702 0.250000
v 0.306644 0.026414 0.250000
v 0.250000 0.000000 0.750000
v 0.306644 0.026414 0.750000
v 0.197173 0.113288 0.750000
v 0.253817 0.139702 0.750000
vt 0.500000 0.687500
vt 0.531250 0.687500
vt 0.531250 0.703125
vt 0.500000 0.703125
vt 0.375000 0.687500
vt 0.375000 0.703125
vt 0.656250 0.687500
vt 0.687500 0.687500
vt 0.687500 0.703125
vt 0.656250 0.703125
vt 0.531250 0.828125
vt 0.500000 0.828125
vt 0.562500 0.703125
vt 0.531250 0.703125
vt 0.531250 0.828125
vt 0.562500 0.828125
vn 0.0000 0.0000 -1.0000
vn 0.4226 -0.9063 0.0000
vn 0.0000 0.0000 1.0000
vn -0.4226 0.9063 -0.0000
vn 0.9063 0.4226 -0.0000
vn -0.9063 -0.4226 0.0000
usemtl m_d646b5ec-732d-7b29-f4aa-aaa95227f8cb
s 1
f 25/49/19 26/50/19 27/51/19 28/52/19
f 29/53/20 25/49/20 28/52/20 30/54/20
f 31/55/21 29/56/21 30/57/21 32/58/21
f 26/50/22 31/55/22 32/58/22 27/51/22
f 32/59/23 30/60/23 28/52/23 27/51/23
f 26/61/24 25/62/24 29/63/24 31/64/24
o cube.105
v 0.746183 0.139702 0.187500
v 0.799010 0.252991 0.187500
v 0.855655 0.226577 0.187500
v 0.802827 0.113288 0.187500
v 0.746183 0.139702 0.812500
v 0.802827 0.113288 0.812500
v 0.799010 0.252991 0.812500
v 0.855655 0.226577 0.812500
vt 0.375000 0.515625
vt 0.406250 0.515625
vt 0.406250 0.531250
vt 0.375000 0.531250
vt 0.218750 0.515625
vt 0.218750 0.531250
vt 0.562500 0.515625
vt 0.593750 0.515625
vt 0.593750 0.531250
vt 0.562500 0.531250
vt 0.406250 0.687500
vt 0.375000 0.687500
vt 0.437500 0.531250
vt 0.406250 0.531250
vt 0.406250 0.687500
vt 0.437500 0.687500
vn 0.0000 -0.0000 -1.0000
vn -0.4226 -0.9063 0.0000
vn -0.0000 0.0000 1.0000
vn 0.4226 0.9063 -0.0000
vn 0.9063 -0.4226 0.0000
vn -0.9063 0.4226 -0.0000
usemtl m_d646b5ec-732d-7b29-f4aa-aaa95227f8cb
s 1
f 33/65/25 34/66/25 35/67/25 36/68/25
f 37/69/26 33/65/26 36/68/26 38/70/26
f 39/71/27 37/72/27 38/73/27 40/74/27
f 34/66/28 39/71/28 40/74/28 35/67/28
f 40/75/29 38/76/29 36/68/29 35/67/29
f 34/77/30 33/78/30 37/79/30 39/80/30
o cube.106
v 0.812500 0.113288 0.197173
v 0.187500 0.113288 0.197173
v 0.187500 0.226577 0.144345
v 0.812500 0.226577 0.144345
v 0.812500 0.139702 0.253817
v 0.812500 0.252991 0.200990
v 0.187500 0.139702 0.253817
v 0.187500 0.252991 0.200990
vt 0.453125 0.593750
vt 0.609375 0.593750
vt 0.609375 0.625000
vt 0.453125 0.625000
vt 0.437500 0.593750
vt 0.437500 0.625000
vt 0.625000 0.593750
vt 0.781250 0.593750
vt 0.781250 0.625000
vt 0.625000 0.625000
vt 0.609375 0.640625
vt 0.453125 0.640625
vt 0.765625 0.625000
vt 0.609375 0.625000
vt 0.609375 0.640625
vt 0.765625 0.640625
vn 0.0000 -0.4226 -0.9063
vn 1.0000 0.0000 0.0000
vn 0.0000 0.4226 0.9063
vn -1.0000 0.0000 0.0000
vn 0.0000 0.9063 -0.4226
vn 0.0000 -0.9063 0.4226
usemtl m_d646b5ec-732d-7b29-f4aa-aaa95227f8cb
s 1
f 41/81/31 42/82/31 43/83/31 44/84/31
f 45/85/32 41/81/32 44/84/32 46/86/32
f 47/87/33 45/88/33 46/89/33 48/90/33
f 42/82/34 47/87/34 48/90/34 43/83/34
f 48/91/35 46/92/35 44/84/35 43/83/35
f 42/93/36 41/94/36 45/95/36 47/96/36
o cube.107
v 0.197173 0.113288 0.187500
v 0.144345 0.226577 0.187500
v 0.200990 0.252991 0.187500
v 0.253817 0.139702 0.187500
v 0.197173 0.113288 0.812500
v 0.253817 0.139702 0.812500
v 0.144345 0.226577 0.812500
v 0.200990 0.252991 0.812500
vt 0.156250 0.531250
vt 0.187500 0.531250
vt 0.187500 0.546875
vt 0.156250 0.546875
vt 0.000000 0.531250
vt 0.000000 0.546875
vt 0.343750 0.531250
vt 0.375000 0.531250
vt 0.375000 0.546875
vt 0.343750 0.546875
vt 0.187500 0.703125
vt 0.156250 0.703125
vt 0.218750 0.546875
vt 0.187500 0.546875
vt 0.187500 0.703125
vt 0.218750 0.703125
vn 0.0000 -0.0000 -1.0000
vn 0.4226 -0.9063 0.0000
vn 0.0000 0.0000 1.0000
vn -0.4226 0.9063 -0.0000
vn 0.9063 0.4226 -0.0000
vn -0.9063 -0.4226 0.0000
usemtl m_d646b5ec-732d-7b29-f4aa-aaa95227f8cb
s 1
f 49/97/37 50/98/37 51/99/37 52/100/37
f 53/101/38 49/97/38 52/100/38 54/102/38
f 55/103/39 53/104/39 54/105/39 56/106/39
f 50/98/40 55/103/40 56/106/40 51/99/40
f 56/107/41 54/108/41 52/100/41 51/99/41
f 50/109/42 49/110/42 53/111/42 55/112/42
o cube.108
v 0.750000 0.139702 0.746183
v 0.250000 0.139702 0.746183
v 0.250000 0.113288 0.802827
v 0.750000 0.113288 0.802827
v 0.750000 0.026414 0.693356
v 0.750000 0.000000 0.750000
v 0.250000 0.026414 0.693356
v 0.250000 0.000000 0.750000
vt 0.468750 0.546875
vt 0.593750 0.546875
vt 0.593750 0.562500
vt 0.468750 0.562500
vt 0.437500 0.546875
vt 0.437500 0.562500
vt 0.625000 0.546875
vt 0.750000 0.546875
vt 0.750000 0.562500
vt 0.625000 0.562500
vt 0.593750 0.593750
vt 0.468750 0.593750
vt 0.718750 0.562500
vt 0.593750 0.562500
vt 0.593750 0.593750
vt 0.718750 0.593750
vn 0.0000 0.9063 0.4226
vn 1.0000 0.0000 0.0000
vn 0.0000 -0.9063 -0.4226
vn -1.0000 0.0000 0.0000
vn 0.0000 -0.4226 0.9063
vn 0.0000 0.4226 -0.9063
usemtl m_d646b5ec-732d-7b29-f4aa-aaa95227f8cb
s 1
f 57/113/43 58/114/43 59/115/43 60/116/43
f 61/117/44 57/113/44 60/116/44 62/118/44
f 63/119/45 61/120/45 62/121/45 64/122/45
f 58/114/46 63/119/46 64/122/46 59/115/46
f 64/123/47 62/124/47 60/116/47 59/115/47
f 58/125/48 57/126/48 61/127/48 63/128/48
o cube.109
v 0.693356 0.026414 0.250000
v 0.746183 0.139702 0.250000
v 0.802827 0.113288 0.250000
v 0.750000 -0.000000 0.250000
v 0.693356 0.026414 0.750000
v 0.750000 0.000000 0.750000
v 0.746183 0.139702 0.750000
v 0.802827 0.113288 0.750000
vt 0.500000 0.828125
vt 0.531250 0.828125
vt 0.531250 0.843750
vt 0.500000 0.843750
vt 0.375000 0.828125
vt 0.375000 0.843750
vt 0.656250 0.828125
vt 0.687500 0.828125
vt 0.687500 0.843750
vt 0.656250 0.843750
vt 0.531250 0.968750
vt 0.500000 0.968750
vt 0.562500 0.843750
vt 0.531250 0.843750
vt 0.531250 0.968750
vt 0.562500 0.968750
vn 0.0000 0.0000 -1.0000
vn -0.4226 -0.9063 0.0000
vn -0.0000 0.0000 1.0000
vn 0.4226 0.9063 -0.0000
vn 0.9063 -0.4226 0.0000
vn -0.9063 0.4226 -0.0000
usemtl m_d646b5ec-732d-7b29-f4aa-aaa95227f8cb
s 1
f 65/129/49 66/130/49 67/131/49 68/132/49
f 69/133/50 65/129/50 68/132/50 70/134/50
f 71/135/51 69/136/51 70/137/51 72/138/51
f 66/130/52 71/135/52 72/138/52 67/131/52
f 72/139/53 70/140/53 68/132/53 67/131/53
f 66/141/54 65/142/54 69/143/54 71/144/54
o cube.110
v 0.812500 0.209375 0.187500
v 0.187500 0.209375 0.187500
v 0.187500 0.209375 0.187500
v 0.812500 0.209375 0.187500
v 0.812500 0.209375 0.812500
v 0.812500 0.209375 0.812500
v 0.187500 0.209375 0.812500
v 0.187500 0.209375 0.812500
vt 0.156250 0.843750
vt 0.312500 0.843750
vt 0.312500 0.843750
vt 0.156250 0.843750
vt 0.000000 0.843750
vt 0.000000 0.843750
vt 0.468750 0.843750
vt 0.625000 0.843750
vt 0.625000 0.843750
vt 0.468750 0.843750
vt 0.312500 1.000000
vt 0.156250 1.000000
vt 0.468750 0.843750
vt 0.312500 0.843750
vt 0.312500 1.000000
vt 0.468750 1.000000
vn 0.0000 -0.0000 -1.0000
vn -0.4226 -0.9063 0.0000
vn 0.0000 0.0000 1.0000
vn 0.4226 0.9063 -0.0000
vn 0.0000 1.0000 -0.0000
vn 0.0000 -1.0000 0.0000
usemtl m_d646b5ec-732d-7b29-f4aa-aaa95227f8cb
s 1
f 73/145/55 74/146/55 75/147/55 76/148/55
f 77/149/56 73/145/56 76/148/56 78/150/56
f 79/151/57 77/152/57 78/153/57 80/154/57
f 74/146/58 79/151/58 80/154/58 75/147/58
f 80/155/59 78/156/59 76/148/59 75/147/59
f 74/157/60 73/158/60 77/159/60 79/160/60
o cube.111
v 0.667691 0.221875 0.447672
v 0.365839 0.221875 0.366791
v 0.365839 0.221875 0.366791
v 0.667691 0.221875 0.447672
v 0.602986 0.221875 0.689154
v 0.602986 0.221875 0.689154
v 0.301134 0.221875 0.608273
v 0.301134 0.221875 0.608273
vt 0.218750 0.640625
vt 0.296875 0.640625
vt 0.296875 0.640625
vt 0.218750 0.640625
vt 0.156250 0.640625
vt 0.156250 0.640625
vt 0.359375 0.640625
vt 0.437500 0.640625
vt 0.437500 0.640625
vt 0.359375 0.640625
vt 0.296875 0.703125
vt 0.218750 0.703125
vt 0.375000 0.640625
vt 0.296875 0.640625
vt 0.296875 0.703125
vt 0.375000 0.703125
vn 0.2588 -0.0000 -0.9659
vn 0.0000 0.0000 -0.9659
vn 0.9659 -0.0000 0.2588
vn 0.0000 0.0000 0.2588
vn -0.2588 0.0000 0.9659
vn 0.0000 0.0000 0.9659
vn -0.9659 0.0000 -0.2588
vn 0.0000 0.0000 -0.2588
vn 0.0000 1.0000 -0.0000
vn -0.0000 -1.0000 0.0000
usemtl m_d646b5ec-732d-7b29-f4aa-aaa95227f8cb
s 1
f 81/161/61 82/162/62 83/163/61 84/164/62
f 85/165/63 81/161/64 84/164/63 86/166/64
f 87/167/65 85/168/66 86/169/65 88/170/66
f 82/162/67 87/167/68 88/170/67 83/163/68
f 88/171/69 86/172/69 84/164/69 83/163/69
f 82/173/70 81/174/70 85/175/70 87/176/70
o cube.112
v 0.562500 0.234375 0.437500
v 0.375000 0.234375 0.437500
v 0.375000 0.234375 0.437500
v 0.562500 0.234375 0.437500
v 0.562500 0.234375 0.625000
v 0.562500 0.234375 0.625000
v 0.375000 0.234375 0.625000
v 0.375000 0.234375 0.625000
vt 0.046875 0.953125
vt 0.093750 0.953125
vt 0.093750 0.953125
vt 0.046875 0.953125
vt 0.000000 0.953125
vt 0.000000 0.953125
vt 0.140625 0.953125
vt 0.187500 0.953125
vt 0.187500 0.953125
vt 0.140625 0.953125
vt 0.093750 1.000000
vt 0.046875 1.000000
vt 0.140625 0.953125
vt 0.093750 0.953125
vt 0.093750 1.000000
vt 0.140625 1.000000
vn 0.0000 -0.0000 -1.0000
vn 0.0000 0.0000 0.0000
vn 0.0000 0.0000 1.0000
vn 0.0000 1.0000 -0.0000
vn 0.0000 -1.0000 0.0000
usemtl m_d646b5ec-732d-7b29-f4aa-aaa95227f8cb
s 1
f 89/177/71 90/178/71 91/179/71 92/180/71
f 93/181/72 89/177/72 92/180/72 94/182/72
f 95/183/73 93/184/73 94/185/73 96/186/73
f 90/178/72 95/183/72 96/186/72 91/179/72
f 96/187/74 94/188/74 92/180/74 91/179/74
f 90/189/75 89/190/75 93/191/75 95/192/75
o cube.113
v 0.511842 0.240625 0.490213
v 0.451471 0.240625 0.506389
v 0.451471 0.240625 0.506389
v 0.511842 0.240625 0.490213
v 0.528018 0.240625 0.550583
v 0.528018 0.240625 0.550583
v 0.467648 0.240625 0.566759
v 0.467648 0.240625 0.566759
vt 0.015625 0.984375
vt 0.031250 0.984375
vt 0.031250 0.984375
vt 0.015625 0.984375
vt 0.000000 0.984375
vt 0.000000 0.984375
vt 0.046875 0.984375
vt 0.062500 0.984375
vt 0.062500 0.984375
vt 0.046875 0.984375
vt 0.031250 1.000000
vt 0.015625 1.000000
vt 0.046875 0.984375
vt 0.031250 0.984375
vt 0.031250 1.000000
vt 0.046875 1.000000
vn -0.2588 0.0000 -0.9659
vn 0.0000 0.0000 -0.9659
vn 0.9659 -0.0000 -0.2588
vn 0.0000 0.0000 -0.2588
vn 0.2588 0.0000 0.9659
vn 0.0000 0.0000 0.9659
vn -0.9659 0.0000 0.2588
vn 0.0000 0.0000 0.2588
vn 0.0000 1.0000 0.0000
vn 0.0000 -1.0000 -0.0000
usemtl m_d646b5ec-732d-7b29-f4aa-aaa95227f8cb
s 1
f 97/193/76 98/194/77 99/195/76 100/196/77
f 101/197/78 97/193/79 100/196/78 102/198/79
f 103/199/80 101/200/81 102/201/80 104/202/81
f 98/194/82 103/199/83 104/202/82 99/195/83
f 104/203/84 102/204/84 100/196/84 99/195/84
f 98/205/85 97/206/85 101/207/85 103/208/85
o cube.114
v 0.505144 0.174509 0.289892
v 0.381358 0.157657 0.285669
v 0.343300 0.457286 0.205480
v 0.467087 0.474139 0.209703
v 0.500958 0.190134 0.350262
v 0.462900 0.489764 0.270073
v 0.377171 0.173282 0.346040
v 0.339114 0.472911 0.265851
vt 0.015625 0.765625
vt 0.046875 0.765625
vt 0.046875 0.843750
vt 0.015625 0.843750
vt 0.000000 0.765625
vt 0.000000 0.843750
vt 0.062500 0.765625
vt 0.093750 0.765625
vt 0.093750 0.843750
vt 0.062500 0.843750
vt 0.046875 0.859375
vt 0.015625 0.859375
vt 0.078125 0.843750
vt 0.046875 0.843750
vt 0.046875 0.859375
vt 0.078125 0.859375
vn 0.0670 -0.2500 -0.9659
vn 0.9903 0.1348 0.0338
vn -0.0670 0.2500 0.9659
vn -0.9903 -0.1348 -0.0338
vn -0.1218 0.9588 -0.2566
vn 0.1218 -0.9588 0.2566
usemtl m_d646b5ec-732d-7b29-f4aa-aaa95227f8cb
s 1
f 105/209/86 106/210/86 107/211/86 108/212/86
f 109/213/87 105/209/87 108/212/87 110/214/87
f 111/215/88 109/216/88 110/217/88 112/218/88
f 106/210/89 111/215/89 112/218/89 107/211/89
f 112/219/90 110/220/90 108/212/90 107/211/90
f 106/221/91 105/222/91 109/223/91 111/224/91
o cube.115
v 0.636069 0.151053 0.349402
v 0.525737 0.186309 0.302405
v 0.646175 0.465117 0.228808
v 0.756508 0.429862 0.275805
v 0.619256 0.173102 0.405415
v 0.739695 0.451911 0.331817
v 0.508923 0.208357 0.358417
v 0.629362 0.487166 0.284820
vt 0.015625 0.859375
vt 0.046875 0.859375
vt 0.046875 0.937500
vt 0.015625 0.937500
vt 0.000000 0.859375
vt 0.000000 0.937500
vt 0.062500 0.859375
vt 0.093750 0.859375
vt 0.093750 0.937500
vt 0.062500 0.937500
vt 0.046875 0.953125
vt 0.015625 0.953125
vt 0.078125 0.937500
vt 0.046875 0.937500
vt 0.046875 0.953125
vt 0.078125 0.953125
vn 0.2690 -0.3528 -0.8962
vn 0.8827 -0.2820 0.3760
vn -0.2690 0.3528 0.8962
vn -0.8827 0.2820 -0.3760
vn 0.3854 0.8922 -0.2355
vn -0.3854 -0.8922 0.2355
usemtl m_d646b5ec-732d-7b29-f4aa-aaa95227f8cb
s 1
f 113/225/92 114/226/92 115/227/92 116/228/92
f 117/229/93 113/225/93 116/228/93 118/230/93
f 119/231/94 117/232/94 118/233/94 120/234/94
f 114/226/95 119/231/95 120/234/95 115/227/95
f 120/235/96 118/236/96 116/228/96 115/227/96
f 114/237/97 113/238/97 117/239/97 119/240/97
