# Blender v3.6.1 OBJ File: ''
# www.blender.org
mtllib fish_sticks.mtl
o cube.177
v 0.990862 -0.000000 0.123348
v 0.123348 -0.000000 0.009138
v 0.123348 0.062500 0.009138
v 0.990862 0.062500 0.123348
v 0.876652 0.000000 0.990862
v 0.876652 0.062500 0.990862
v 0.009138 0.000000 0.876652
v 0.009138 0.062500 0.876652
vt 0.218750 0.765625
vt 0.437500 0.765625
vt 0.437500 0.781250
vt 0.218750 0.781250
vt 0.000000 0.765625
vt 0.000000 0.781250
vt 0.656250 0.765625
vt 0.875000 0.765625
vt 0.875000 0.781250
vt 0.656250 0.781250
vt 0.437500 1.000000
vt 0.218750 1.000000
vt 0.656250 0.781250
vt 0.437500 0.781250
vt 0.437500 1.000000
vt 0.656250 1.000000
vn 0.1305 0.0000 -0.9914
vn 0.9914 0.0000 0.1305
vn -0.1305 0.0000 0.9914
vn -0.9914 0.0000 -0.1305
vn 0.0000 1.0000 -0.0000
vn -0.0000 -1.0000 0.0000
usemtl m_2cc60b29-e42c-a199-b1bb-945a48ff67df
s 1
f 1/1/1 2/2/1 3/3/1 4/4/1
f 5/5/2 1/1/2 4/4/2 6/6/2
f 7/7/3 5/8/3 6/9/3 8/10/3
f 2/2/4 7/7/4 8/10/4 3/3/4
f 8/11/5 6/12/5 4/4/5 3/3/5
f 2/13/6 1/14/6 5/15/6 7/16/6
o cube.178
v 0.875000 0.068750 0.187500
v 0.125000 0.068750 0.187500
v 0.125000 0.068750 0.187500
v 0.875000 0.068750 0.187500
v 0.875000 0.068750 0.812500
v 0.875000 0.068750 0.812500
v 0.125000 0.068750 0.812500
v 0.125000 0.068750 0.812500
vt 0.156250 0.609375
vt 0.343750 0.609375
vt 0.343750 0.609375
vt 0.156250 0.609375
vt 0.000000 0.609375
vt 0.000000 0.609375
vt 0.500000 0.609375
vt 0.687500 0.609375
vt 0.687500 0.609375
vt 0.500000 0.609375
vt 0.343750 0.765625
vt 0.156250 0.765625
vt 0.531250 0.609375
vt 0.343750 0.609375
vt 0.343750 0.765625
vt 0.531250 0.765625
vn 0.0000 -0.0000 -1.0000
vn 0.9914 0.0000 0.1305
vn 0.0000 0.0000 1.0000
vn -0.9914 0.0000 -0.1305
vn 0.0000 1.0000 -0.0000
vn 0.0000 -1.0000 0.0000
usemtl m_2cc60b29-e42c-a199-b1bb-945a48ff67df
s 1
f 9/17/7 10/18/7 11/19/7 12/20/7
f 13/21/8 9/17/8 12/20/8 14/22/8
f 15/23/9 13/24/9 14/25/9 16/26/9
f 10/18/10 15/23/10 16/26/10 11/19/10
f 16/27/11 14/28/11 12/20/11 11/19/11
f 10/29/12 9/30/12 13/31/12 15/32/12
o cube.179
v 0.875000 0.201395 0.054917
v 0.125000 0.201395 0.054917
v 0.125000 0.201395 0.054917
v 0.875000 0.201395 0.054917
v 0.875000 0.068812 0.187500
v 0.875000 0.068812 0.187500
v 0.125000 0.068812 0.187500
v 0.125000 0.068812 0.187500
vt 0.421875 0.562500
vt 0.609375 0.562500
vt 0.609375 0.562500
vt 0.421875 0.562500
vt 0.375000 0.562500
vt 0.375000 0.562500
vt 0.656250 0.562500
vt 0.843750 0.562500
vt 0.843750 0.562500
vt 0.656250 0.562500
vt 0.609375 0.609375
vt 0.421875 0.609375
vt 0.796875 0.562500
vt 0.609375 0.562500
vt 0.609375 0.609375
vt 0.796875 0.609375
vn -0.0000 0.7071 -0.7071
vn 0.0000 0.0000 -0.7071
vn 1.0000 0.0000 -0.0000
vn 0.0000 0.0000 -0.0001
vn 1.0000 0.0000 -0.0001
vn 0.0000 0.0000 -0.0000
vn 0.0000 -0.7071 0.7071
vn 0.0000 0.0000 0.7071
vn -1.0000 -0.0000 -0.0001
vn -1.0000 -0.0000 -0.0000
vn 0.0000 0.7071 0.7071
vn 0.0000 -0.7071 -0.7071
usemtl m_2cc60b29-e42c-a199-b1bb-945a48ff67df
s 1
f 17/33/13 18/34/14 19/35/13 20/36/14
f 21/37/15 17/33/16 20/36/17 22/38/18
f 23/39/19 21/40/20 22/41/19 24/42/20
f 18/34/21 23/39/18 24/42/22 19/35/16
f 24/43/23 22/44/23 20/36/23 19/35/23
f 18/45/24 17/46/24 21/47/24 23/48/24
o cube.180
v 0.124976 0.068755 0.187500
v 0.009491 0.116590 0.187500
v 0.009491 0.116590 0.187500
v 0.124976 0.068755 0.187500
v 0.124976 0.068755 0.812500
v 0.124976 0.068755 0.812500
v 0.009491 0.116590 0.812500
v 0.009491 0.116590 0.812500
vt 0.531250 0.609375
vt 0.562500 0.609375
vt 0.562500 0.609375
vt 0.531250 0.609375
vt 0.375000 0.609375
vt 0.375000 0.609375
vt 0.718750 0.609375
vt 0.750000 0.609375
vt 0.750000 0.609375
vt 0.718750 0.609375
vt 0.562500 0.765625
vt 0.531250 0.765625
vt 0.593750 0.609375
vt 0.562500 0.609375
vt 0.562500 0.765625
vt 0.593750 0.765625
vn -0.0000 -0.0000 -1.0000
vn 0.0000 0.0000 0.0000
vn 0.0000 0.0000 1.0000
vn 0.3827 0.9239 -0.0000
vn -0.3827 -0.9239 0.0000
usemtl m_2cc60b29-e42c-a199-b1bb-945a48ff67df
s 1
f 25/49/25 26/50/25 27/51/25 28/52/25
f 29/53/26 25/49/26 28/52/26 30/54/26
f 31/55/27 29/56/27 30/57/27 32/58/27
f 26/50/26 31/55/26 32/58/26 27/51/26
f 32/59/28 30/60/28 28/52/28 27/51/28
f 26/61/29 25/62/29 29/63/29 31/64/29
o cube.181
v 0.875000 0.201395 0.945082
v 0.125000 0.201395 0.945082
v 0.125000 0.201395 0.945082
v 0.875000 0.201395 0.945082
v 0.875000 0.068813 0.812500
v 0.875000 0.068813 0.812500
v 0.125000 0.068813 0.812500
v 0.125000 0.068813 0.812500
vt 0.046875 0.562500
vt 0.234375 0.562500
vt 0.234375 0.562500
vt 0.046875 0.562500
vt 0.000000 0.562500
vt 0.000000 0.562500
vt 0.281250 0.562500
vt 0.468750 0.562500
vt 0.468750 0.562500
vt 0.281250 0.562500
vt 0.234375 0.609375
vt 0.046875 0.609375
vt 0.421875 0.562500
vt 0.234375 0.562500
vt 0.234375 0.609375
vt 0.421875 0.609375
vn -0.0000 0.7071 0.7071
vn 0.0000 0.0000 0.7071
vn 1.0000 0.0000 -0.0001
vn 0.0000 0.0000 -0.0000
vn 1.0000 0.0000 -0.0000
vn 0.0000 0.0000 -0.0001
vn 0.0000 -0.7071 -0.7071
vn 0.0000 0.0000 -0.7071
vn -1.0000 -0.0000 -0.0000
vn -1.0000 -0.0000 -0.0001
vn 0.0000 -0.7071 0.7071
vn 0.0000 0.7071 -0.7071
usemtl m_2cc60b29-e42c-a199-b1bb-945a48ff67df
s 1
f 33/65/30 34/66/31 35/67/30 36/68/31
f 37/69/32 33/65/33 36/68/34 38/70/35
f 39/71/36 37/72/37 38/73/36 40/74/37
f 34/66/38 39/71/35 40/74/39 35/67/33
f 40/75/40 38/76/40 36/68/40 35/67/40
f 34/77/41 33/78/41 37/79/41 39/80/41
o cube.182
v 0.990509 0.116590 0.187500
v 0.875024 0.068755 0.187500
v 0.875024 0.068755 0.187500
v 0.990509 0.116590 0.187500
v 0.990509 0.116590 0.812500
v 0.990509 0.116590 0.812500
v 0.875024 0.068755 0.812500
v 0.875024 0.068755 0.812500
vt 0.156250 0.843750
vt 0.187500 0.843750
vt 0.187500 0.843750
vt 0.156250 0.843750
vt 0.000000 0.843750
vt 0.000000 0.843750
vt 0.343750 0.843750
vt 0.375000 0.843750
vt 0.375000 0.843750
vt 0.343750 0.843750
vt 0.187500 1.000000
vt 0.156250 1.000000
vt 0.218750 0.843750
vt 0.187500 0.843750
vt 0.187500 1.000000
vt 0.218750 1.000000
vn 0.0000 -0.0000 -1.0000
vn 0.0000 0.0000 1.0000
vn -0.3827 0.9239 -0.0000
vn 0.3827 -0.9239 0.0000
usemtl m_2cc60b29-e42c-a199-b1bb-945a48ff67df
s 1
f 41/81/42 42/82/42 43/83/42 44/84/42
f 45/85/43 41/81/43 44/84/43 46/86/43
f 47/87/43 45/88/43 46/89/43 48/90/43
f 42/82/43 47/87/43 48/90/43 43/83/43
f 48/91/44 46/92/44 44/84/44 43/83/44
f 42/93/45 41/94/45 45/95/45 47/96/45
o cube.183
v 0.858468 0.075000 0.369585
v 0.254765 0.075000 0.207823
v 0.254765 0.200000 0.207823
v 0.858468 0.200000 0.369585
v 0.809940 0.075000 0.550696
v 0.809940 0.200000 0.550696
v 0.206236 0.075000 0.388934
v 0.206236 0.200000 0.388934
vt 0.046875 0.406250
vt 0.203125 0.406250
vt 0.203125 0.437500
vt 0.046875 0.437500
vt 0.000000 0.406250
vt 0.000000 0.437500
vt 0.250000 0.406250
vt 0.406250 0.406250
vt 0.406250 0.437500
vt 0.250000 0.437500
vt 0.203125 0.484375
vt 0.046875 0.484375
vt 0.359375 0.437500
vt 0.203125 0.437500
vt 0.203125 0.484375
vt 0.359375 0.484375
vn 0.2588 -0.0000 -0.9659
vn 0.9659 0.0000 0.2588
vn -0.2588 0.0000 0.9659
vn -0.9659 0.0000 -0.2588
vn -0.0000 1.0000 0.0000
vn 0.0000 -1.0000 0.0000
usemtl m_2cc60b29-e42c-a199-b1bb-945a48ff67df
s 1
f 49/97/46 50/98/46 51/99/46 52/100/46
f 53/101/47 49/97/47 52/100/47 54/102/47
f 55/103/48 53/104/48 54/105/48 56/106/48
f 50/98/49 55/103/49 56/106/49 51/99/49
f 56/107/50 54/108/50 52/100/50 51/99/50
f 50/109/51 49/110/51 53/111/51 55/112/51
o cube.184
v 0.808322 0.075000 0.556733
v 0.204619 0.075000 0.394971
v 0.204619 0.200000 0.394971
v 0.808322 0.200000 0.556733
v 0.808322 0.075000 0.556733
v 0.808322 0.200000 0.556733
v 0.204619 0.075000 0.394971
v 0.204619 0.200000 0.394971
vt 0.000000 0.343750
vt 0.156250 0.343750
vt 0.156250 0.375000
vt 0.000000 0.375000
vt 0.000000 0.343750
vt 0.000000 0.375000
vt 0.156250 0.343750
vt 0.312500 0.343750
vt 0.312500 0.375000
vt 0.156250 0.375000
vt 0.312500 0.375000
vt 0.156250 0.375000
vt 0.156250 0.375000
vt 0.312500 0.375000
vn 0.2588 0.0000 -0.9659
vn 0.0000 0.0000 0.2588
vn 0.9659 0.0000 0.2588
vn -0.2588 0.0000 0.9659
vn 0.0000 0.0000 -0.2588
vn -0.9659 -0.0000 -0.2588
vn -0.0000 1.0000 -0.0001
vn 0.0000 0.0000 0.0000
vn -0.0000 1.0000 0.0000
vn 0.0000 0.0000 -0.0001
vn 0.0000 -1.0000 -0.0001
vn 0.0000 -1.0000 0.0000
usemtl m_2cc60b29-e42c-a199-b1bb-945a48ff67df
s 1
f 57/113/52 58/114/52 59/115/52 60/116/52
f 61/117/53 57/113/54 60/116/53 62/118/54
f 63/119/55 61/120/55 62/121/55 64/122/55
f 58/114/56 63/119/57 64/122/56 59/115/57
f 64/122/58 62/118/59 60/116/60 59/115/61
f 58/123/62 57/124/59 61/125/63 63/126/61
o cube.185
v 0.860086 0.075000 0.363548
v 0.256382 0.075000 0.201786
v 0.256382 0.200000 0.201786
v 0.860086 0.200000 0.363548
v 0.860086 0.075000 0.363548
v 0.860086 0.200000 0.363548
v 0.256382 0.075000 0.201786
v 0.256382 0.200000 0.201786
vt 0.593750 0.609375
vt 0.750000 0.609375
vt 0.750000 0.640625
vt 0.593750 0.640625
vt 0.593750 0.609375
vt 0.593750 0.640625
vt 0.750000 0.609375
vt 0.906250 0.609375
vt 0.906250 0.640625
vt 0.750000 0.640625
vt 0.906250 0.640625
vt 0.750000 0.640625
vt 0.750000 0.640625
vt 0.906250 0.640625
vn 0.2588 -0.0000 -0.9659
vn 0.0000 0.0000 0.2588
vn 0.9659 0.0000 0.2588
vn -0.2588 0.0000 0.9659
vn 0.0000 0.0000 -0.2588
vn -0.9659 -0.0000 -0.2588
vn -0.0000 1.0000 -0.0001
vn 0.0000 0.0000 0.0000
vn -0.0000 1.0000 0.0000
vn 0.0000 0.0000 -0.0001
vn 0.0000 -1.0000 -0.0001
vn 0.0000 -1.0000 0.0000
usemtl m_2cc60b29-e42c-a199-b1bb-945a48ff67df
s 1
f 65/127/64 66/128/64 67/129/64 68/130/64
f 69/131/65 65/127/66 68/130/65 70/132/66
f 71/133/67 69/134/67 70/135/67 72/136/67
f 66/128/68 71/133/69 72/136/68 67/129/69
f 72/136/70 70/132/71 68/130/72 67/129/73
f 66/137/74 65/138/71 69/139/75 71/140/73
o cube.186
v 0.858468 0.206250 0.369585
v 0.254765 0.206250 0.207823
v 0.254765 0.206250 0.207823
v 0.858468 0.206250 0.369585
v 0.809940 0.206250 0.550696
v 0.809940 0.206250 0.550696
v 0.206236 0.206250 0.388934
v 0.206236 0.206250 0.388934
vt 0.593750 0.671875
vt 0.750000 0.671875
vt 0.750000 0.671875
vt 0.593750 0.671875
vt 0.546875 0.671875
vt 0.546875 0.671875
vt 0.796875 0.671875
vt 0.953125 0.671875
vt 0.953125 0.671875
vt 0.796875 0.671875
vt 0.750000 0.718750
vt 0.593750 0.718750
vt 0.906250 0.671875
vt 0.750000 0.671875
vt 0.750000 0.718750
vt 0.906250 0.718750
vn 0.2588 -0.0000 -0.9659
vn 0.0000 0.0000 -0.9659
vn 0.9659 -0.0000 0.2588
vn 0.0000 0.0000 0.2588
vn -0.2588 0.0000 0.9659
vn 0.0000 0.0000 0.9659
vn -0.9659 0.0000 -0.2588
vn 0.0000 0.0000 -0.2588
vn -0.0000 1.0000 0.0000
vn 0.0000 -1.0000 0.0000
usemtl m_2cc60b29-e42c-a199-b1bb-945a48ff67df
s 1
f 73/141/76 74/142/77 75/143/76 76/144/77
f 77/145/78 73/141/79 76/144/78 78/146/79
f 79/147/80 77/148/81 78/149/80 80/150/81
f 74/142/82 79/147/83 80/150/82 75/143/83
f 80/151/84 78/152/84 76/144/84 75/143/84
f 74/153/85 73/154/85 77/155/85 79/156/85
o cube.187
v 0.826116 0.075000 0.615325
v 0.222412 0.075000 0.453564
v 0.222412 0.200000 0.453563
v 0.826116 0.200000 0.615325
v 0.777588 0.075000 0.796436
v 0.777588 0.200000 0.796436
v 0.173884 0.075000 0.634675
v 0.173884 0.200000 0.634675
vt 0.453125 0.484375
vt 0.609375 0.484375
vt 0.609375 0.515625
vt 0.453125 0.515625
vt 0.406250 0.484375
vt 0.406250 0.515625
vt 0.656250 0.484375
vt 0.812500 0.484375
vt 0.812500 0.515625
vt 0.656250 0.515625
vt 0.609375 0.562500
vt 0.453125 0.562500
vt 0.765625 0.515625
vt 0.609375 0.515625
vt 0.609375 0.562500
vt 0.765625 0.562500
vn 0.2588 -0.0000 -0.9659
vn 0.9659 0.0000 0.2588
vn -0.2588 0.0000 0.9659
vn -0.9659 -0.0000 -0.2588
vn -0.0000 1.0000 0.0000
vn 0.0000 -1.0000 0.0000
usemtl m_2cc60b29-e42c-a199-b1bb-945a48ff67df
s 1
f 81/157/86 82/158/86 83/159/86 84/160/86
f 85/161/87 81/157/87 84/160/87 86/162/87
f 87/163/88 85/164/88 86/165/88 88/166/88
f 82/158/89 87/163/89 88/166/89 83/159/89
f 88/167/90 86/168/90 84/160/90 83/159/90
f 82/169/91 81/170/91 85/171/91 87/172/91
o cube.188
v 0.826116 0.206250 0.615325
v 0.222412 0.206250 0.453563
v 0.222412 0.206250 0.453563
v 0.826116 0.206250 0.615325
v 0.777588 0.206250 0.796436
v 0.777588 0.206250 0.796436
v 0.173884 0.206250 0.634675
v 0.173884 0.206250 0.634675
vt 0.593750 0.718750
vt 0.750000 0.718750
vt 0.750000 0.718750
vt 0.593750 0.718750
vt 0.546875 0.718750
vt 0.546875 0.718750
vt 0.796875 0.718750
vt 0.953125 0.718750
vt 0.953125 0.718750
vt 0.796875 0.718750
vt 0.750000 0.765625
vt 0.593750 0.765625
vt 0.906250 0.718750
vt 0.750000 0.718750
vt 0.750000 0.765625
vt 0.906250 0.765625
vn 0.2588 -0.0000 -0.9659
vn 0.0000 0.0000 -0.9659
vn 0.9659 -0.0000 0.2588
vn 0.0000 0.0000 0.2588
vn -0.2588 0.0000 0.9659
vn 0.0000 0.0000 0.9659
vn -0.9659 0.0000 -0.2588
vn 0.0000 0.0000 -0.2588
vn -0.0000 1.0000 0.0000
vn 0.0000 -1.0000 -0.0000
usemtl m_2cc60b29-e42c-a199-b1bb-945a48ff67df
s 1
f 89/173/92 90/174/93 91/175/92 92/176/93
f 93/177/94 89/173/95 92/176/94 94/178/95
f 95/179/96 93/180/97 94/181/96 96/182/97
f 90/174/98 95/179/99 96/182/98 91/175/99
f 96/183/100 94/184/100 92/176/100 91/175/100
f 90/185/101 89/186/101 93/187/101 95/188/101
o cube.189
v 0.775970 0.075000 0.802474
v 0.172266 0.075000 0.640712
v 0.172266 0.200000 0.640712
v 0.775970 0.200000 0.802474
v 0.775970 0.075000 0.802474
v 0.775970 0.200000 0.802474
v 0.172266 0.075000 0.640712
v 0.172266 0.200000 0.640712
vt 0.593750 0.640625
vt 0.750000 0.640625
vt 0.750000 0.671875
vt 0.593750 0.671875
vt 0.593750 0.640625
vt 0.593750 0.671875
vt 0.750000 0.640625
vt 0.906250 0.640625
vt 0.906250 0.671875
vt 0.750000 0.671875
vt 0.906250 0.671875
vt 0.750000 0.671875
vt 0.750000 0.671875
vt 0.906250 0.671875
vn 0.2588 -0.0000 -0.9659
vn 0.0000 0.0000 0.2588
vn 0.9659 0.0000 0.2588
vn -0.2588 0.0000 0.9659
vn 0.0000 0.0000 -0.2588
vn -0.9659 -0.0000 -0.2588
vn -0.0000 1.0000 -0.0001
vn 0.0000 0.0000 0.0000
vn -0.0000 1.0000 0.0000
vn 0.0000 0.0000 -0.0001
vn 0.0000 -1.0000 -0.0001
vn 0.0000 -1.0000 0.0000
usemtl m_2cc60b29-e42c-a199-b1bb-945a48ff67df
s 1
f 97/189/102 98/190/102 99/191/102 100/192/102
f 101/193/103 97/189/104 100/192/103 102/194/104
f 103/195/105 101/196/105 102/197/105 104/198/105
f 98/190/106 103/195/107 104/198/106 99/191/107
f 104/198/108 102/194/109 100/192/110 99/191/111
f 98/199/112 97/200/109 101/201/113 103/202/111
o cube.190
v 0.827734 0.075000 0.609288
v 0.224030 0.075000 0.447526
v 0.224030 0.200000 0.447526
v 0.827734 0.200000 0.609288
v 0.827734 0.075000 0.609288
v 0.827734 0.200000 0.609288
v 0.224030 0.075000 0.447526
v 0.224030 0.200000 0.447526
vt 0.312500 0.375000
vt 0.468750 0.375000
vt 0.468750 0.406250
vt 0.312500 0.406250
vt 0.312500 0.375000
vt 0.312500 0.406250
vt 0.468750 0.375000
vt 0.625000 0.375000
vt 0.625000 0.406250
vt 0.468750 0.406250
vt 0.625000 0.406250
vt 0.468750 0.406250
vt 0.468750 0.406250
vt 0.625000 0.406250
vn 0.2588 0.0000 -0.9659
vn 0.0000 0.0000 0.2588
vn 0.9659 0.0000 0.2588
vn -0.2588 0.0000 0.9659
vn 0.0000 0.0000 -0.2588
vn -0.9659 -0.0000 -0.2588
vn -0.0000 1.0000 -0.0001
vn 0.0000 0.0000 0.0000
vn -0.0000 1.0000 0.0000
vn 0.0000 0.0000 -0.0001
vn 0.0000 -1.0000 -0.0001
vn 0.0000 -1.0000 0.0000
usemtl m_2cc60b29-e42c-a199-b1bb-945a48ff67df
s 1
f 105/203/114 106/204/114 107/205/114 108/206/114
f 109/207/115 105/203/116 108/206/115 110/208/116
f 111/209/117 109/210/117 110/211/117 112/212/117
f 106/204/118 111/209/119 112/212/118 107/205/119
f 112/212/120 110/208/121 108/206/122 107/205/123
f 106/213/124 105/214/121 109/215/125 111/216/123
o cube.191
v 0.752836 0.200000 0.293798
v 0.175411 0.200000 0.532975
v 0.175411 0.325000 0.532975
v 0.752836 0.325000 0.293798
v 0.824589 0.200000 0.467025
v 0.824589 0.325000 0.467025
v 0.247164 0.200000 0.706202
v 0.247164 0.325000 0.706202
vt 0.046875 0.484375
vt 0.203125 0.484375
vt 0.203125 0.515625
vt 0.046875 0.515625
vt 0.000000 0.484375
vt 0.000000 0.515625
vt 0.250000 0.484375
vt 0.406250 0.484375
vt 0.406250 0.515625
vt 0.250000 0.515625
vt 0.203125 0.562500
vt 0.046875 0.562500
vt 0.359375 0.515625
vt 0.203125 0.515625
vt 0.203125 0.562500
vt 0.359375 0.562500
vn -0.3827 -0.0000 -0.9239
vn 0.9239 0.0000 -0.3827
vn 0.3827 0.0000 0.9239
vn -0.9239 0.0000 0.3827
vn -0.0000 1.0000 0.0000
vn 0.0000 -1.0000 0.0000
usemtl m_2cc60b29-e42c-a199-b1bb-945a48ff67df
s 1
f 113/217/126 114/218/126 115/219/126 116/220/126
f 117/221/127 113/217/127 116/220/127 118/222/127
f 119/223/128 117/224/128 118/225/128 120/226/128
f 114/218/129 119/223/129 120/226/129 115/219/129
f 120/227/130 118/228/130 116/220/130 115/219/130
f 114/229/131 113/230/131 117/231/131 119/232/131
o cube.192
v 0.752836 0.331250 0.293798
v 0.175411 0.331250 0.532975
v 0.175411 0.331250 0.532975
v 0.752836 0.331250 0.293798
v 0.824589 0.331250 0.467025
v 0.824589 0.331250 0.467025
v 0.247164 0.331250 0.706202
v 0.247164 0.331250 0.706202
vt 0.359375 0.437500
vt 0.515625 0.437500
vt 0.515625 0.437500
vt 0.359375 0.437500
vt 0.312500 0.437500
vt 0.312500 0.437500
vt 0.562500 0.437500
vt 0.718750 0.437500
vt 0.718750 0.437500
vt 0.562500 0.437500
vt 0.515625 0.484375
vt 0.359375 0.484375
vt 0.671875 0.437500
vt 0.515625 0.437500
vt 0.515625 0.484375
vt 0.671875 0.484375
vn -0.3827 0.0000 -0.9239
vn 0.0000 0.0000 -0.9239
vn 0.9239 -0.0000 -0.3827
vn 0.0000 0.0000 -0.3827
vn 0.3827 -0.0000 0.9239
vn 0.0000 0.0000 0.9239
vn -0.9239 0.0000 0.3826
vn 0.0000 0.0000 0.3827
vn -0.9239 -0.0000 0.3827
vn 0.0000 0.0000 0.3826
vn -0.0000 1.0000 0.0000
vn 0.0000 -1.0000 0.0000
usemtl m_2cc60b29-e42c-a199-b1bb-945a48ff67df
s 1
f 121/233/132 122/234/133 123/235/132 124/236/133
f 125/237/134 121/233/135 124/236/134 126/238/135
f 127/239/136 125/240/137 126/241/136 128/242/137
f 122/234/138 127/239/139 128/242/140 123/235/141
f 128/243/142 126/244/142 124/236/142 123/235/142
f 122/245/143 121/246/143 125/247/143 127/248/143
o cube.193
v 0.826981 0.200000 0.472799
v 0.249556 0.200000 0.711977
v 0.249556 0.325000 0.711977
v 0.826981 0.325000 0.472799
v 0.826981 0.200000 0.472799
v 0.826981 0.325000 0.472799
v 0.249556 0.200000 0.711977
v 0.249556 0.325000 0.711977
vt 0.000000 0.375000
vt 0.156250 0.375000
vt 0.156250 0.406250
vt 0.000000 0.406250
vt 0.000000 0.375000
vt 0.000000 0.406250
vt 0.156250 0.375000
vt 0.312500 0.375000
vt 0.312500 0.406250
vt 0.156250 0.406250
vt 0.312500 0.406250
vt 0.156250 0.406250
vt 0.156250 0.406250
vt 0.312500 0.406250
vn -0.3827 0.0000 -0.9239
vn 0.0000 0.0000 -0.3827
vn 0.9239 0.0000 -0.3827
vn 0.3827 0.0000 0.9239
vn 0.0000 0.0000 0.3827
vn -0.9239 -0.0000 0.3827
vn 0.0000 1.0000 0.0000
vn 0.0000 0.0000 -0.0000
vn 0.0000 -1.0000 0.0000
usemtl m_2cc60b29-e42c-a199-b1bb-945a48ff67df
s 1
f 129/249/144 130/250/144 131/251/144 132/252/144
f 133/253/145 129/249/146 132/252/145 134/254/146
f 135/255/147 133/256/147 134/257/147 136/258/147
f 130/250/148 135/255/149 136/258/148 131/251/149
f 136/258/150 134/254/151 132/252/150 131/251/151
f 130/259/152 129/260/151 133/261/152 135/262/151
o cube.194
v 0.750444 0.200000 0.288023
v 0.173019 0.200000 0.527201
v 0.173019 0.325000 0.527201
v 0.750444 0.325000 0.288023
v 0.750444 0.200000 0.288023
v 0.750444 0.325000 0.288023
v 0.173019 0.200000 0.527201
v 0.173019 0.325000 0.527201
vt 0.406250 0.406250
vt 0.562500 0.406250
vt 0.562500 0.437500
vt 0.406250 0.437500
vt 0.406250 0.406250
vt 0.406250 0.437500
vt 0.562500 0.406250
vt 0.718750 0.406250
vt 0.718750 0.437500
vt 0.562500 0.437500
vt 0.718750 0.437500
vt 0.562500 0.437500
vt 0.562500 0.437500
vt 0.718750 0.437500
vn -0.3827 -0.0000 -0.9239
vn 0.0000 0.0000 -0.3827
vn 0.9239 0.0000 -0.3827
vn 0.3827 0.0000 0.9239
vn 0.0000 0.0000 0.3827
vn -0.9239 -0.0000 0.3827
vn 0.0000 1.0000 0.0000
vn 0.0000 0.0000 -0.0000
vn 0.0000 -1.0000 0.0000
usemtl m_2cc60b29-e42c-a199-b1bb-945a48ff67df
s 1
f 137/263/153 138/264/153 139/265/153 140/266/153
f 141/267/154 137/263/155 140/266/154 142/268/155
f 143/269/156 141/270/156 142/271/156 144/272/156
f 138/264/157 143/269/158 144/272/157 139/265/158
f 144/272/159 142/268/160 140/266/159 139/265/160
f 138/273/161 137/274/160 141/275/161 143/276/160
