# Blender v3.6.1 OBJ File: ''
# www.blender.org
mtllib california_roll.mtl
o cube.116
v 0.406250 0.012500 0.235087
v 0.218750 0.012500 0.235087
v 0.218750 0.262500 0.235087
v 0.406250 0.262500 0.235087
v 0.406250 0.012500 0.422587
v 0.406250 0.262500 0.422587
v 0.218750 0.012500 0.422587
v 0.218750 0.262500 0.422587
vt 0.046875 0.546875
vt 0.093750 0.546875
vt 0.093750 0.609375
vt 0.046875 0.609375
vt 0.000000 0.546875
vt 0.000000 0.609375
vt 0.140625 0.546875
vt 0.187500 0.546875
vt 0.187500 0.609375
vt 0.140625 0.609375
vt 0.093750 0.656250
vt 0.046875 0.656250
vt 0.140625 0.609375
vt 0.093750 0.609375
vt 0.093750 0.656250
vt 0.140625 0.656250
vn 0.0000 -0.0000 -1.0000
vn 1.0000 0.0000 0.0000
vn 0.0000 0.0000 1.0000
vn -1.0000 0.0000 0.0000
vn 0.0000 1.0000 -0.0000
vn 0.0000 -1.0000 0.0000
usemtl m_bad4dd6c-201a-bb09-0fd1-3e5ea776809f
s 1
f 1/1/1 2/2/1 3/3/1 4/4/1
f 5/5/2 1/1/2 4/4/2 6/6/2
f 7/7/3 5/8/3 6/9/3 8/10/3
f 2/2/4 7/7/4 8/10/4 3/3/4
f 8/11/5 6/12/5 4/4/5 3/3/5
f 2/13/6 1/14/6 5/15/6 7/16/6
o cube.117
v 0.367668 0.234921 0.287360
v 0.309926 0.211004 0.287360
v 0.287450 0.265264 0.308736
v 0.345193 0.289182 0.308736
v 0.375848 0.215172 0.346090
v 0.353373 0.269432 0.367467
v 0.318106 0.191255 0.346090
v 0.295631 0.245515 0.367467
vt 0.062500 0.890625
vt 0.078125 0.890625
vt 0.078125 0.906250
vt 0.062500 0.906250
vt 0.046875 0.890625
vt 0.046875 0.906250
vt 0.093750 0.890625
vt 0.109375 0.890625
vt 0.109375 0.906250
vt 0.093750 0.906250
vt 0.078125 0.921875
vt 0.062500 0.921875
vt 0.093750 0.906250
vt 0.078125 0.906250
vt 0.078125 0.921875
vt 0.093750 0.921875
vn -0.1309 0.3160 -0.9397
vn 0.9239 0.3827 -0.0000
vn 0.1309 -0.3160 0.9397
vn -0.9239 -0.3827 -0.0000
vn -0.3596 0.8682 0.3420
vn 0.3596 -0.8682 -0.3420
usemtl m_bad4dd6c-201a-bb09-0fd1-3e5ea776809f
s 1
f 9/17/7 10/18/7 11/19/7 12/20/7
f 13/21/8 9/17/8 12/20/8 14/22/8
f 15/23/9 13/24/9 14/25/9 16/26/9
f 10/18/10 15/23/10 16/26/10 11/19/10
f 16/27/11 14/28/11 12/20/11 11/19/11
f 10/29/12 9/30/12 13/31/12 15/32/12
o cube.118
v 0.625000 0.012500 0.297587
v 0.437500 0.012500 0.297587
v 0.437500 0.262500 0.297587
v 0.625000 0.262500 0.297587
v 0.625000 0.012500 0.485087
v 0.625000 0.262500 0.485087
v 0.437500 0.012500 0.485087
v 0.437500 0.262500 0.485087
vt 0.375000 0.734375
vt 0.421875 0.734375
vt 0.421875 0.796875
vt 0.375000 0.796875
vt 0.328125 0.734375
vt 0.328125 0.796875
vt 0.468750 0.734375
vt 0.515625 0.734375
vt 0.515625 0.796875
vt 0.468750 0.796875
vt 0.421875 0.843750
vt 0.375000 0.843750
vt 0.468750 0.796875
vt 0.421875 0.796875
vt 0.421875 0.843750
vt 0.468750 0.843750
vn 0.0000 0.0000 -1.0000
vn 1.0000 0.0000 0.0000
vn 0.0000 0.0000 1.0000
vn -1.0000 0.0000 0.0000
vn 0.0000 1.0000 -0.0000
vn 0.0000 -1.0000 0.0000
usemtl m_bad4dd6c-201a-bb09-0fd1-3e5ea776809f
s 1
f 17/33/13 18/34/13 19/35/13 20/36/13
f 21/37/14 17/33/14 20/36/14 22/38/14
f 23/39/15 21/40/15 22/41/15 24/42/15
f 18/34/16 23/39/16 24/42/16 19/35/16
f 24/43/17 22/44/17 20/36/17 19/35/17
f 18/45/18 17/46/18 21/47/18 23/48/18
o cube.119
v 0.546691 0.214545 0.332533
v 0.485812 0.223720 0.343296
v 0.498479 0.280248 0.366756
v 0.559358 0.271073 0.355992
v 0.552982 0.189513 0.389454
v 0.565649 0.246041 0.412913
v 0.492103 0.198687 0.400218
v 0.504770 0.255216 0.423677
vt 0.015625 0.906250
vt 0.031250 0.906250
vt 0.031250 0.921875
vt 0.015625 0.921875
vt 0.000000 0.906250
vt 0.000000 0.921875
vt 0.046875 0.906250
vt 0.062500 0.906250
vt 0.062500 0.921875
vt 0.046875 0.921875
vt 0.031250 0.937500
vt 0.015625 0.937500
vt 0.046875 0.921875
vt 0.031250 0.921875
vt 0.031250 0.937500
vt 0.046875 0.937500
vn -0.1007 0.4005 -0.9107
vn 0.9741 -0.1468 -0.1722
vn 0.1007 -0.4005 0.9107
vn -0.9741 0.1468 0.1722
vn 0.2027 0.9045 0.3754
vn -0.2027 -0.9045 -0.3754
usemtl m_bad4dd6c-201a-bb09-0fd1-3e5ea776809f
s 1
f 25/49/19 26/50/19 27/51/19 28/52/19
f 29/53/20 25/49/20 28/52/20 30/54/20
f 31/55/21 29/56/21 30/57/21 32/58/21
f 26/50/22 31/55/22 32/58/22 27/51/22
f 32/59/23 30/60/23 28/52/23 27/51/23
f 26/61/24 25/62/24 29/63/24 31/64/24
o cube.120
v 0.843750 0.012500 0.360087
v 0.656250 0.012500 0.360087
v 0.656250 0.262500 0.360087
v 0.843750 0.262500 0.360087
v 0.843750 0.012500 0.547587
v 0.843750 0.262500 0.547587
v 0.656250 0.012500 0.547587
v 0.656250 0.262500 0.547587
vt 0.234375 0.609375
vt 0.281250 0.609375
vt 0.281250 0.671875
vt 0.234375 0.671875
vt 0.187500 0.609375
vt 0.187500 0.671875
vt 0.328125 0.609375
vt 0.375000 0.609375
vt 0.375000 0.671875
vt 0.328125 0.671875
vt 0.281250 0.718750
vt 0.234375 0.718750
vt 0.328125 0.671875
vt 0.281250 0.671875
vt 0.281250 0.718750
vt 0.328125 0.718750
vn 0.0000 0.0000 -1.0000
vn 1.0000 0.0000 0.0000
vn 0.0000 0.0000 1.0000
vn -1.0000 0.0000 0.0000
vn 0.0000 1.0000 0.0000
vn 0.0000 -1.0000 0.0000
usemtl m_bad4dd6c-201a-bb09-0fd1-3e5ea776809f
s 1
f 33/65/25 34/66/25 35/67/25 36/68/25
f 37/69/26 33/65/26 36/68/26 38/70/26
f 39/71/27 37/72/27 38/73/27 40/74/27
f 34/66/28 39/71/28 40/74/28 35/67/28
f 40/75/29 38/76/29 36/68/29 35/67/29
f 34/77/30 33/78/30 37/79/30 39/80/30
o cube.121
v 0.759849 0.188334 0.438877
v 0.700337 0.205914 0.446328
v 0.714861 0.263425 0.426636
v 0.774373 0.245845 0.419186
v 0.772244 0.205353 0.497724
v 0.786767 0.262864 0.478033
v 0.712732 0.222933 0.505175
v 0.727255 0.280444 0.485483
vt 0.062500 0.921875
vt 0.078125 0.921875
vt 0.078125 0.937500
vt 0.062500 0.937500
vt 0.046875 0.921875
vt 0.046875 0.937500
vt 0.093750 0.921875
vt 0.109375 0.921875
vt 0.109375 0.937500
vt 0.093750 0.937500
vt 0.078125 0.953125
vt 0.062500 0.953125
vt 0.093750 0.937500
vt 0.078125 0.937500
vt 0.078125 0.953125
vt 0.093750 0.953125
vn -0.1983 -0.2723 -0.9416
vn 0.9522 -0.2813 -0.1192
vn 0.1983 0.2723 0.9416
vn -0.9522 0.2813 0.1192
vn 0.2324 0.9202 -0.3151
vn -0.2324 -0.9202 0.3151
usemtl m_bad4dd6c-201a-bb09-0fd1-3e5ea776809f
s 1
f 41/81/31 42/82/31 43/83/31 44/84/31
f 45/85/32 41/81/32 44/84/32 46/86/32
f 47/87/33 45/88/33 46/89/33 48/90/33
f 42/82/34 47/87/34 48/90/34 43/83/34
f 48/91/35 46/92/35 44/84/35 43/83/35
f 42/93/36 41/94/36 45/95/36 47/96/36
o cube.122
v 0.781250 0.012500 0.578837
v 0.593750 0.012500 0.578837
v 0.593750 0.262500 0.578837
v 0.781250 0.262500 0.578837
v 0.781250 0.012500 0.766337
v 0.781250 0.262500 0.766337
v 0.593750 0.012500 0.766337
v 0.593750 0.262500 0.766337
vt 0.046875 0.781250
vt 0.093750 0.781250
vt 0.093750 0.843750
vt 0.046875 0.843750
vt 0.000000 0.781250
vt 0.000000 0.843750
vt 0.140625 0.781250
vt 0.187500 0.781250
vt 0.187500 0.843750
vt 0.140625 0.843750
vt 0.093750 0.890625
vt 0.046875 0.890625
vt 0.140625 0.843750
vt 0.093750 0.843750
vt 0.093750 0.890625
vt 0.140625 0.890625
vn 0.0000 0.0000 -1.0000
vn 1.0000 0.0000 0.0000
vn 0.0000 0.0000 1.0000
vn -1.0000 0.0000 0.0000
vn 0.0000 1.0000 -0.0000
vn 0.0000 -1.0000 0.0000
usemtl m_bad4dd6c-201a-bb09-0fd1-3e5ea776809f
s 1
f 49/97/37 50/98/37 51/99/37 52/100/37
f 53/101/38 49/97/38 52/100/38 54/102/38
f 55/103/39 53/104/39 54/105/39 56/106/39
f 50/98/40 55/103/40 56/106/40 51/99/40
f 56/107/41 54/108/41 52/100/41 51/99/41
f 50/109/42 49/110/42 53/111/42 55/112/42
o cube.123
v 0.713161 0.225350 0.609330
v 0.651470 0.221406 0.618550
v 0.652480 0.276135 0.648717
v 0.714170 0.280079 0.639496
v 0.723138 0.195426 0.663286
v 0.724148 0.250154 0.693452
v 0.661448 0.191482 0.672506
v 0.662458 0.246210 0.702673
vt 0.062500 0.953125
vt 0.078125 0.953125
vt 0.078125 0.968750
vt 0.062500 0.968750
vt 0.046875 0.953125
vt 0.046875 0.968750
vt 0.093750 0.953125
vt 0.109375 0.953125
vt 0.109375 0.968750
vt 0.093750 0.968750
vt 0.078125 0.984375
vt 0.062500 0.984375
vt 0.093750 0.968750
vt 0.078125 0.968750
vt 0.078125 0.984375
vt 0.093750 0.984375
vn -0.1596 0.4788 -0.8633
vn 0.9870 0.0631 -0.1475
vn 0.1596 -0.4788 0.8633
vn -0.9870 -0.0631 0.1475
vn 0.0162 0.8757 0.4827
vn -0.0162 -0.8757 -0.4827
usemtl m_bad4dd6c-201a-bb09-0fd1-3e5ea776809f
s 1
f 57/113/43 58/114/43 59/115/43 60/116/43
f 61/117/44 57/113/44 60/116/44 62/118/44
f 63/119/45 61/120/45 62/121/45 64/122/45
f 58/114/46 63/119/46 64/122/46 59/115/46
f 64/123/47 62/124/47 60/116/47 59/115/47
f 58/125/48 57/126/48 61/127/48 63/128/48
o cube.124
v 0.562500 0.012500 0.516337
v 0.375000 0.012500 0.516337
v 0.375000 0.262500 0.516337
v 0.562500 0.262500 0.516337
v 0.562500 0.012500 0.703837
v 0.562500 0.262500 0.703837
v 0.375000 0.012500 0.703837
v 0.375000 0.262500 0.703837
vt 0.187500 0.718750
vt 0.234375 0.718750
vt 0.234375 0.781250
vt 0.187500 0.781250
vt 0.140625 0.718750
vt 0.140625 0.781250
vt 0.281250 0.718750
vt 0.328125 0.718750
vt 0.328125 0.781250
vt 0.281250 0.781250
vt 0.234375 0.828125
vt 0.187500 0.828125
vt 0.281250 0.781250
vt 0.234375 0.781250
vt 0.234375 0.828125
vt 0.281250 0.828125
vn 0.0000 0.0000 -1.0000
vn 1.0000 0.0000 0.0000
vn 0.0000 0.0000 1.0000
vn -1.0000 0.0000 0.0000
vn 0.0000 1.0000 -0.0000
vn 0.0000 -1.0000 0.0000
usemtl m_bad4dd6c-201a-bb09-0fd1-3e5ea776809f
s 1
f 65/129/49 66/130/49 67/131/49 68/132/49
f 69/133/50 65/129/50 68/132/50 70/134/50
f 71/135/51 69/136/51 70/137/51 72/138/51
f 66/130/52 71/135/52 72/138/52 67/131/52
f 72/139/53 70/140/53 68/132/53 67/131/53
f 66/141/54 65/142/54 69/143/54 71/144/54
o cube.125
v 0.520442 0.228444 0.563124
v 0.465573 0.198809 0.567300
v 0.437269 0.253028 0.580163
v 0.492138 0.282662 0.575987
v 0.530163 0.219042 0.624144
v 0.501859 0.273261 0.637007
v 0.475294 0.189408 0.628319
v 0.446990 0.243627 0.641182
vt 0.015625 0.937500
vt 0.031250 0.937500
vt 0.031250 0.953125
vt 0.015625 0.953125
vt 0.000000 0.937500
vt 0.000000 0.953125
vt 0.046875 0.937500
vt 0.062500 0.937500
vt 0.062500 0.953125
vt 0.046875 0.953125
vt 0.031250 0.968750
vt 0.015625 0.968750
vt 0.046875 0.953125
vt 0.031250 0.953125
vt 0.031250 0.968750
vt 0.046875 0.968750
vn -0.1555 0.1504 -0.9763
vn 0.8779 0.4741 -0.0668
vn 0.1555 -0.1504 0.9763
vn -0.8779 -0.4741 0.0668
vn -0.4529 0.8675 0.2058
vn 0.4529 -0.8675 -0.2058
usemtl m_bad4dd6c-201a-bb09-0fd1-3e5ea776809f
s 1
f 73/145/55 74/146/55 75/147/55 76/148/55
f 77/149/56 73/145/56 76/148/56 78/150/56
f 79/151/57 77/152/57 78/153/57 80/154/57
f 74/146/58 79/151/58 80/154/58 75/147/58
f 80/155/59 78/156/59 76/148/59 75/147/59
f 74/157/60 73/158/60 77/159/60 79/160/60
o cube.126
v 0.343750 0.012500 0.453837
v 0.156250 0.012500 0.453837
v 0.156250 0.262500 0.453837
v 0.343750 0.262500 0.453837
v 0.343750 0.012500 0.641337
v 0.343750 0.262500 0.641337
v 0.156250 0.012500 0.641337
v 0.156250 0.262500 0.641337
vt 0.046875 0.656250
vt 0.093750 0.656250
vt 0.093750 0.718750
vt 0.046875 0.718750
vt 0.000000 0.656250
vt 0.000000 0.718750
vt 0.140625 0.656250
vt 0.187500 0.656250
vt 0.187500 0.718750
vt 0.140625 0.718750
vt 0.093750 0.765625
vt 0.046875 0.765625
vt 0.140625 0.718750
vt 0.093750 0.718750
vt 0.093750 0.765625
vt 0.140625 0.765625
vn 0.0000 0.0000 -1.0000
vn 1.0000 0.0000 0.0000
vn 0.0000 0.0000 1.0000
vn -1.0000 0.0000 0.0000
vn 0.0000 1.0000 0.0000
vn 0.0000 -1.0000 0.0000
usemtl m_bad4dd6c-201a-bb09-0fd1-3e5ea776809f
s 1
f 81/161/61 82/162/61 83/163/61 84/164/61
f 85/165/62 81/161/62 84/164/62 86/166/62
f 87/167/63 85/168/63 86/169/63 88/170/63
f 82/162/64 87/167/64 88/170/64 83/163/64
f 88/171/65 86/172/65 84/164/65 83/163/65
f 82/173/66 81/174/66 85/175/66 87/176/66
o cube.127
v 0.276946 0.191352 0.541359
v 0.215462 0.195491 0.551792
v 0.214482 0.251384 0.523841
v 0.275966 0.247245 0.513408
v 0.288127 0.219012 0.596279
v 0.287146 0.274905 0.568328
v 0.226643 0.223151 0.606711
v 0.225662 0.279044 0.578761
vt 0.015625 0.968750
vt 0.031250 0.968750
vt 0.031250 0.984375
vt 0.015625 0.984375
vt 0.000000 0.968750
vt 0.000000 0.984375
vt 0.046875 0.968750
vt 0.062500 0.968750
vt 0.062500 0.984375
vt 0.046875 0.984375
vt 0.031250 1.000000
vt 0.015625 1.000000
vt 0.046875 0.984375
vt 0.031250 0.984375
vt 0.031250 1.000000
vt 0.046875 1.000000
vn -0.1789 -0.4426 -0.8787
vn 0.9837 -0.0662 -0.1669
vn 0.1789 0.4426 0.8787
vn -0.9837 0.0662 0.1669
vn -0.0157 0.8943 -0.4472
vn 0.0157 -0.8943 0.4472
usemtl m_bad4dd6c-201a-bb09-0fd1-3e5ea776809f
s 1
f 89/177/67 90/178/67 91/179/67 92/180/67
f 93/181/68 89/177/68 92/180/68 94/182/68
f 95/183/69 93/184/69 94/185/69 96/186/69
f 90/178/70 95/183/70 96/186/70 91/179/70
f 96/187/71 94/188/71 92/180/71 91/179/71
f 90/189/72 89/190/72 93/191/72 95/192/72
o cube.128
v 0.964258 0.006250 0.282836
v 0.171017 0.006250 0.106979
v 0.171017 0.006250 0.106979
v 0.964258 0.006250 0.282836
v 0.828983 0.006250 0.893021
v 0.828983 0.006250 0.893021
v 0.035742 0.006250 0.717164
v 0.035742 0.006250 0.717164
vt 0.156250 0.843750
vt 0.359375 0.843750
vt 0.359375 0.843750
vt 0.156250 0.843750
vt 0.000000 0.843750
vt 0.000000 0.843750
vt 0.515625 0.843750
vt 0.718750 0.843750
vt 0.718750 0.843750
vt 0.515625 0.843750
vt 0.359375 1.000000
vt 0.156250 1.000000
vt 0.562500 0.843750
vt 0.359375 0.843750
vt 0.359375 1.000000
vt 0.562500 1.000000
vn 0.2164 -0.0001 -0.9763
vn 0.0000 0.0000 -0.9763
vn 0.2164 0.0000 -0.9763
vn 0.9763 -0.0000 0.2164
vn 0.0000 0.0000 0.2164
vn 0.9763 -0.0003 0.2164
vn -0.2165 0.0001 0.9763
vn 0.0000 0.0000 0.9763
vn -0.2164 -0.0000 0.9763
vn -0.9763 0.0000 -0.2164
vn 0.0000 0.0000 -0.2164
vn -0.9763 0.0003 -0.2164
vn -0.0000 1.0000 -0.0000
vn 0.0000 -1.0000 0.0000
usemtl m_bad4dd6c-201a-bb09-0fd1-3e5ea776809f
s 1
f 97/193/73 98/194/74 99/195/75 100/196/74
f 101/197/76 97/193/77 100/196/78 102/198/77
f 103/199/79 101/200/80 102/201/81 104/202/80
f 98/194/82 103/199/83 104/202/84 99/195/83
f 104/203/85 102/204/85 100/196/85 99/195/85
f 98/205/86 97/206/86 101/207/86 103/208/86
