# Blender v2.83.4 OBJ File: ''
# www.blender.org
mtllib crock_pot_ultimate.mtl
o top
v 0.875000 1.000000 0.875000
v 0.875000 0.937500 0.875000
v 0.875000 1.000000 0.125000
v 0.875000 0.937500 0.125000
v 0.125000 1.000000 0.125000
v 0.125000 0.937500 0.125000
v 0.125000 1.000000 0.875000
v 0.125000 0.937500 0.875000
vt 0.000244 0.835815
vt 0.000244 0.828247
vt 0.187256 0.835815
vt 0.187256 0.828247
vt 0.375244 0.835815
vt 0.375244 0.828247
vt 0.562256 0.835815
vt 0.562256 0.828247
vt 0.374756 0.836060
vt 0.374756 0.929565
vt 0.187744 0.836060
vt 0.187744 0.929565
vt 0.562256 0.929565
vt 0.562256 0.836060
vt 0.375244 0.929565
vt 0.375244 0.836060
vt 0.562744 0.835815
vt 0.562744 0.828247
vt 0.749756 0.835815
vt 0.749756 0.828247
vt 0.187744 0.835815
vt 0.187744 0.828247
vt 0.374756 0.835815
vt 0.374756 0.828247
vn 1.0000 0.0000 0.0000
vn -1.0000 0.0000 0.0000
vn 0.0000 1.0000 0.0000
vn 0.0000 -1.0000 -0.0000
vn 0.0000 0.0000 1.0000
vn 0.0000 0.0000 -1.0000
usemtl 0
s 1
f 1/1/1 2/2/1 3/3/1
f 2/2/1 4/4/1 3/3/1
f 5/5/2 6/6/2 7/7/2
f 6/6/2 8/8/2 7/7/2
f 5/9/3 7/10/3 3/11/3
f 7/10/3 1/12/3 3/11/3
f 8/13/4 6/14/4 2/15/4
f 6/14/4 4/16/4 2/15/4
f 7/17/5 8/18/5 1/19/5
f 8/18/5 2/20/5 1/19/5
f 3/21/6 4/22/6 5/23/6
f 4/22/6 6/24/6 5/23/6
o top.000
v 0.750000 1.031250 0.750000
v 0.750000 0.968750 0.750000
v 0.750000 1.031250 0.250000
v 0.750000 0.968750 0.250000
v 0.250000 1.031250 0.250000
v 0.250000 0.968750 0.250000
v 0.250000 1.031250 0.750000
v 0.250000 0.968750 0.750000
vt 0.000244 0.937378
vt 0.000244 0.929810
vt 0.124756 0.937378
vt 0.124756 0.929810
vt 0.250244 0.937378
vt 0.250244 0.929810
vt 0.374756 0.937378
vt 0.374756 0.929810
vt 0.249756 0.937622
vt 0.249756 0.999878
vt 0.125244 0.937622
vt 0.125244 0.999878
vt 0.374756 0.999878
vt 0.374756 0.937622
vt 0.250244 0.999878
vt 0.250244 0.937622
vt 0.375244 0.937378
vt 0.375244 0.929810
vt 0.499756 0.937378
vt 0.499756 0.929810
vt 0.125244 0.937378
vt 0.125244 0.929810
vt 0.249756 0.937378
vt 0.249756 0.929810
vn 1.0000 0.0000 0.0000
vn -1.0000 0.0000 0.0000
vn 0.0000 1.0000 0.0000
vn 0.0000 -1.0000 0.0000
vn 0.0000 0.0000 1.0000
vn 0.0000 0.0000 -1.0000
usemtl 0
s 1
f 9/25/7 10/26/7 11/27/7
f 10/26/7 12/28/7 11/27/7
f 13/29/8 14/30/8 15/31/8
f 14/30/8 16/32/8 15/31/8
f 13/33/9 15/34/9 11/35/9
f 15/34/9 9/36/9 11/35/9
f 16/37/10 14/38/10 10/39/10
f 14/38/10 12/40/10 10/39/10
f 15/41/11 16/42/11 9/43/11
f 16/42/11 10/44/11 9/43/11
f 11/45/12 12/46/12 13/47/12
f 12/46/12 14/48/12 13/47/12
o top.001
v 0.531250 1.093750 0.531250
v 0.531250 1.031250 0.531250
v 0.531250 1.093750 0.468750
v 0.531250 1.031250 0.468750
v 0.468750 1.093750 0.468750
v 0.468750 1.031250 0.468750
v 0.468750 1.093750 0.531250
v 0.468750 1.031250 0.531250
vt 0.000244 0.992065
vt 0.000244 0.984497
vt 0.015381 0.992065
vt 0.015381 0.984497
vt 0.031494 0.992065
vt 0.031494 0.984497
vt 0.046631 0.992065
vt 0.046631 0.984497
vt 0.031006 0.992310
vt 0.031006 0.999878
vt 0.015869 0.992310
vt 0.015869 0.999878
vt 0.046631 0.999878
vt 0.046631 0.992310
vt 0.031494 0.999878
vt 0.031494 0.992310
vt 0.047119 0.992065
vt 0.047119 0.984497
vt 0.062256 0.992065
vt 0.062256 0.984497
vt 0.015869 0.992065
vt 0.015869 0.984497
vt 0.031006 0.992065
vt 0.031006 0.984497
vn 1.0000 0.0000 0.0000
vn -1.0000 0.0000 0.0000
vn 0.0000 1.0000 0.0000
vn 0.0000 -1.0000 0.0000
vn 0.0000 0.0000 1.0000
vn 0.0000 0.0000 -1.0000
usemtl 0
s 1
f 17/49/13 18/50/13 19/51/13
f 18/50/13 20/52/13 19/51/13
f 21/53/14 22/54/14 23/55/14
f 22/54/14 24/56/14 23/55/14
f 21/57/15 23/58/15 19/59/15
f 23/58/15 17/60/15 19/59/15
f 24/61/16 22/62/16 18/63/16
f 22/62/16 20/64/16 18/63/16
f 23/65/17 24/66/17 17/67/17
f 24/66/17 18/68/17 17/67/17
f 19/69/18 20/70/18 21/71/18
f 20/70/18 22/72/18 21/71/18
o center
v 0.937500 0.937500 0.875000
v 0.937500 0.500000 0.875000
v 0.937500 0.937500 0.125000
v 0.937500 0.500000 0.125000
v 0.062500 0.937500 0.125000
v 0.062500 0.500000 0.125000
v 0.062500 0.937500 0.875000
v 0.062500 0.500000 0.875000
vt 0.000244 0.734253
vt 0.000244 0.679810
vt 0.187256 0.734253
vt 0.187256 0.679810
vt 0.406494 0.734253
vt 0.406494 0.679810
vt 0.593506 0.734253
vt 0.593506 0.679810
vt 0.406006 0.734497
vt 0.406006 0.828003
vt 0.187744 0.734497
vt 0.187744 0.828003
vt 0.624756 0.828003
vt 0.624756 0.734497
vt 0.406494 0.828003
vt 0.406494 0.734497
vt 0.593994 0.734253
vt 0.593994 0.679810
vt 0.812256 0.734253
vt 0.812256 0.679810
vt 0.187744 0.734253
vt 0.187744 0.679810
vt 0.406006 0.734253
vt 0.406006 0.679810
vn 1.0000 0.0000 0.0000
vn -1.0000 -0.0000 0.0000
vn 0.0000 1.0000 0.0000
vn 0.0000 -1.0000 -0.0000
vn 0.0000 -0.0000 1.0000
vn 0.0000 0.0000 -1.0000
usemtl 0
s 1
f 25/73/19 26/74/19 27/75/19
f 26/74/19 28/76/19 27/75/19
f 29/77/20 30/78/20 31/79/20
f 30/78/20 32/80/20 31/79/20
f 29/81/21 31/82/21 27/83/21
f 31/82/21 25/84/21 27/83/21
f 32/85/22 30/86/22 26/87/22
f 30/86/22 28/88/22 26/87/22
f 31/89/23 32/90/23 25/91/23
f 32/90/23 26/92/23 25/91/23
f 27/93/24 28/94/24 29/95/24
f 28/94/24 30/96/24 29/95/24
o behind
v 0.875000 0.937500 0.937500
v 0.875000 0.500000 0.937500
v 0.875000 0.937500 0.875000
v 0.875000 0.500000 0.875000
v 0.125000 0.937500 0.875000
v 0.125000 0.500000 0.875000
v 0.125000 0.937500 0.937500
v 0.125000 0.500000 0.937500
vt 0.406494 0.671753
vt 0.406494 0.617310
vt 0.421631 0.671753
vt 0.421631 0.617310
vt 0.609619 0.671753
vt 0.609619 0.617310
vt 0.624756 0.671753
vt 0.624756 0.617310
vt 0.609131 0.671997
vt 0.609131 0.679565
vt 0.422119 0.671997
vt 0.422119 0.679565
vt 0.796631 0.679565
vt 0.796631 0.671997
vt 0.609619 0.679565
vt 0.609619 0.671997
vt 0.625244 0.671753
vt 0.625244 0.617310
vt 0.812256 0.671753
vt 0.812256 0.617310
vt 0.422119 0.671753
vt 0.422119 0.617310
vt 0.609131 0.671753
vt 0.609131 0.617310
vn 1.0000 0.0000 0.0000
vn -1.0000 0.0000 0.0000
vn 0.0000 1.0000 0.0000
vn 0.0000 -1.0000 0.0000
vn 0.0000 -0.0000 1.0000
vn 0.0000 0.0000 -1.0000
usemtl 0
s 1
f 33/97/25 34/98/25 35/99/25
f 34/98/25 36/100/25 35/99/25
f 37/101/26 38/102/26 39/103/26
f 38/102/26 40/104/26 39/103/26
f 37/105/27 39/106/27 35/107/27
f 39/106/27 33/108/27 35/107/27
f 40/109/28 38/110/28 34/111/28
f 38/110/28 36/112/28 34/111/28
f 39/113/29 40/114/29 33/115/29
f 40/114/29 34/116/29 33/115/29
f 35/117/30 36/118/30 37/119/30
f 36/118/30 38/120/30 37/119/30
o front
v 0.875000 0.937500 0.125000
v 0.875000 0.500000 0.125000
v 0.875000 0.937500 0.062500
v 0.875000 0.500000 0.062500
v 0.125000 0.937500 0.062500
v 0.125000 0.500000 0.062500
v 0.125000 0.937500 0.125000
v 0.125000 0.500000 0.125000
vt 0.000244 0.671753
vt 0.000244 0.617310
vt 0.015381 0.671753
vt 0.015381 0.617310
vt 0.203369 0.671753
vt 0.203369 0.617310
vt 0.218506 0.671753
vt 0.218506 0.617310
vt 0.202881 0.671997
vt 0.202881 0.679565
vt 0.015869 0.671997
vt 0.015869 0.679565
vt 0.390381 0.679565
vt 0.390381 0.671997
vt 0.203369 0.679565
vt 0.203369 0.671997
vt 0.218994 0.671753
vt 0.218994 0.617310
vt 0.406006 0.671753
vt 0.406006 0.617310
vt 0.015869 0.671753
vt 0.015869 0.617310
vt 0.202881 0.671753
vt 0.202881 0.617310
vn 1.0000 0.0000 0.0000
vn -1.0000 0.0000 0.0000
vn 0.0000 1.0000 0.0000
vn 0.0000 -1.0000 -0.0000
vn 0.0000 -0.0000 1.0000
vn 0.0000 0.0000 -1.0000
usemtl 0
s 1
f 41/121/31 42/122/31 43/123/31
f 42/122/31 44/124/31 43/123/31
f 45/125/32 46/126/32 47/127/32
f 46/126/32 48/128/32 47/127/32
f 45/129/33 47/130/33 43/131/33
f 47/130/33 41/132/33 43/131/33
f 48/133/34 46/134/34 42/135/34
f 46/134/34 44/136/34 42/135/34
f 47/137/35 48/138/35 41/139/35
f 48/138/35 42/140/35 41/139/35
f 43/141/36 44/142/36 45/143/36
f 44/142/36 46/144/36 45/143/36
o left
v 1.000000 0.812500 0.625000
v 1.000000 0.750000 0.625000
v 1.000000 0.812500 0.375000
v 1.000000 0.750000 0.375000
v 0.937500 0.812500 0.375000
v 0.937500 0.750000 0.375000
v 0.937500 0.812500 0.625000
v 0.937500 0.750000 0.625000
vt 0.500244 0.968628
vt 0.500244 0.961060
vt 0.562256 0.968628
vt 0.562256 0.961060
vt 0.578369 0.968628
vt 0.578369 0.961060
vt 0.640381 0.968628
vt 0.640381 0.961060
vt 0.577881 0.968872
vt 0.577881 0.999878
vt 0.562744 0.968872
vt 0.562744 0.999878
vt 0.593506 0.999878
vt 0.593506 0.968872
vt 0.578369 0.999878
vt 0.578369 0.968872
vt 0.640869 0.968628
vt 0.640869 0.961060
vt 0.656006 0.968628
vt 0.656006 0.961060
vt 0.562744 0.968628
vt 0.562744 0.961060
vt 0.577881 0.968628
vt 0.577881 0.961060
vn 1.0000 0.0000 0.0000
vn -1.0000 0.0000 0.0000
vn 0.0000 1.0000 0.0000
vn 0.0000 -1.0000 0.0000
vn 0.0000 0.0000 1.0000
vn 0.0000 0.0000 -1.0000
usemtl 0
s 1
f 49/145/37 50/146/37 51/147/37
f 50/146/37 52/148/37 51/147/37
f 53/149/38 54/150/38 55/151/38
f 54/150/38 56/152/38 55/151/38
f 53/153/39 55/154/39 51/155/39
f 55/154/39 49/156/39 51/155/39
f 56/157/40 54/158/40 50/159/40
f 54/158/40 52/160/40 50/159/40
f 55/161/41 56/162/41 49/163/41
f 56/162/41 50/164/41 49/163/41
f 51/165/42 52/166/42 53/167/42
f 52/166/42 54/168/42 53/167/42
o right
v 0.062500 0.812500 0.625000
v 0.062500 0.750000 0.625000
v 0.062500 0.812500 0.375000
v 0.062500 0.750000 0.375000
v 0.000000 0.812500 0.375000
v 0.000000 0.750000 0.375000
v 0.000000 0.812500 0.625000
v 0.000000 0.750000 0.625000
vt 0.656494 0.968628
vt 0.656494 0.961060
vt 0.718506 0.968628
vt 0.718506 0.961060
vt 0.734619 0.968628
vt 0.734619 0.961060
vt 0.796631 0.968628
vt 0.796631 0.961060
vt 0.734131 0.968872
vt 0.734131 0.999878
vt 0.718994 0.968872
vt 0.718994 0.999878
vt 0.749756 0.999878
vt 0.749756 0.968872
vt 0.734619 0.999878
vt 0.734619 0.968872
vt 0.797119 0.968628
vt 0.797119 0.961060
vt 0.812256 0.968628
vt 0.812256 0.961060
vt 0.718994 0.968628
vt 0.718994 0.961060
vt 0.734131 0.968628
vt 0.734131 0.961060
vn 1.0000 0.0000 0.0000
vn -1.0000 0.0000 0.0000
vn 0.0000 1.0000 0.0000
vn 0.0000 -1.0000 0.0000
vn 0.0000 0.0000 1.0000
vn 0.0000 0.0000 -1.0000
usemtl 0
s 1
f 57/169/43 58/170/43 59/171/43
f 58/170/43 60/172/43 59/171/43
f 61/173/44 62/174/44 63/175/44
f 62/174/44 64/176/44 63/175/44
f 61/177/45 63/178/45 59/179/45
f 63/178/45 57/180/45 59/179/45
f 64/181/46 62/182/46 58/183/46
f 62/182/46 60/184/46 58/183/46
f 63/185/47 64/186/47 57/187/47
f 64/186/47 58/188/47 57/187/47
f 59/189/48 60/190/48 61/191/48
f 60/190/48 62/192/48 61/191/48
o bottom
v 0.875000 0.500000 0.875000
v 0.875000 0.437500 0.875000
v 0.875000 0.500000 0.125000
v 0.875000 0.437500 0.125000
v 0.125000 0.500000 0.125000
v 0.125000 0.437500 0.125000
v 0.125000 0.500000 0.875000
v 0.125000 0.437500 0.875000
vt 0.000244 0.523315
vt 0.000244 0.515747
vt 0.187256 0.523315
vt 0.187256 0.515747
vt 0.375244 0.523315
vt 0.375244 0.515747
vt 0.562256 0.523315
vt 0.562256 0.515747
vt 0.374756 0.523560
vt 0.374756 0.617065
vt 0.187744 0.523560
vt 0.187744 0.617065
vt 0.562256 0.617065
vt 0.562256 0.523560
vt 0.375244 0.617065
vt 0.375244 0.523560
vt 0.562744 0.523315
vt 0.562744 0.515747
vt 0.749756 0.523315
vt 0.749756 0.515747
vt 0.187744 0.523315
vt 0.187744 0.515747
vt 0.374756 0.523315
vt 0.374756 0.515747
vn 1.0000 0.0000 0.0000
vn -1.0000 0.0000 0.0000
vn 0.0000 1.0000 0.0000
vn 0.0000 -1.0000 -0.0000
vn 0.0000 0.0000 1.0000
vn 0.0000 0.0000 -1.0000
usemtl 0
s 1
f 65/193/49 66/194/49 67/195/49
f 66/194/49 68/196/49 67/195/49
f 69/197/50 70/198/50 71/199/50
f 70/198/50 72/200/50 71/199/50
f 69/201/51 71/202/51 67/203/51
f 71/202/51 65/204/51 67/203/51
f 72/205/52 70/206/52 66/207/52
f 70/206/52 68/208/52 66/207/52
f 71/209/53 72/210/53 65/211/53
f 72/210/53 66/212/53 65/211/53
f 67/213/54 68/214/54 69/215/54
f 68/214/54 70/216/54 69/215/54
o bottom.000
v 0.812500 0.437500 0.812500
v 0.812500 0.375000 0.812500
v 0.812500 0.437500 0.187500
v 0.812500 0.375000 0.187500
v 0.187500 0.437500 0.187500
v 0.187500 0.375000 0.187500
v 0.187500 0.437500 0.812500
v 0.187500 0.375000 0.812500
vt 0.000244 0.437378
vt 0.000244 0.429810
vt 0.156006 0.437378
vt 0.156006 0.429810
vt 0.312744 0.437378
vt 0.312744 0.429810
vt 0.468506 0.437378
vt 0.468506 0.429810
vt 0.312256 0.437622
vt 0.312256 0.515503
vt 0.156494 0.437622
vt 0.156494 0.515503
vt 0.468506 0.515503
vt 0.468506 0.437622
vt 0.312744 0.515503
vt 0.312744 0.437622
vt 0.468994 0.437378
vt 0.468994 0.429810
vt 0.624756 0.437378
vt 0.624756 0.429810
vt 0.156494 0.437378
vt 0.156494 0.429810
vt 0.312256 0.437378
vt 0.312256 0.429810
vn 1.0000 0.0000 0.0000
vn -1.0000 0.0000 0.0000
vn 0.0000 1.0000 0.0000
vn 0.0000 -1.0000 -0.0000
vn 0.0000 0.0000 1.0000
vn 0.0000 0.0000 -1.0000
usemtl 0
s 1
f 73/217/55 74/218/55 75/219/55
f 74/218/55 76/220/55 75/219/55
f 77/221/56 78/222/56 79/223/56
f 78/222/56 80/224/56 79/223/56
f 77/225/57 79/226/57 75/227/57
f 79/226/57 73/228/57 75/227/57
f 80/229/58 78/230/58 74/231/58
f 78/230/58 76/232/58 74/231/58
f 79/233/59 80/234/59 73/235/59
f 80/234/59 74/236/59 73/235/59
f 75/237/60 76/238/60 77/239/60
f 76/238/60 78/240/60 77/239/60
o cube
v 0.938125 0.250625 0.062500
v 0.938125 0.125625 0.062500
v 0.625625 0.250625 0.062500
v 0.625625 0.125625 0.062500
v 0.625625 0.250625 0.937500
v 0.625625 0.125625 0.937500
v 0.938125 0.250625 0.937500
v 0.938125 0.125625 0.937500
vt 0.000244 0.390503
vt 0.000244 0.375122
vt 0.077881 0.390503
vt 0.077881 0.375122
vt 0.297119 0.390503
vt 0.297119 0.375122
vt 0.374756 0.390503
vt 0.374756 0.375122
vt 0.296631 0.390747
vt 0.296631 0.429565
vt 0.078369 0.390747
vt 0.078369 0.429565
vt 0.515381 0.429565
vt 0.515381 0.390747
vt 0.297119 0.429565
vt 0.297119 0.390747
vt 0.375244 0.390503
vt 0.375244 0.375122
vt 0.593506 0.390503
vt 0.593506 0.375122
vt 0.078369 0.390503
vt 0.078369 0.375122
vt 0.296631 0.390503
vt 0.296631 0.375122
vn 0.0000 0.0000 -1.0000
vn 0.0000 -0.0000 1.0000
vn 0.0000 1.0000 0.0000
vn 0.0000 -1.0000 -0.0000
vn 1.0000 0.0000 0.0000
vn -1.0000 -0.0000 0.0000
usemtl 0
s 1
f 81/241/61 82/242/61 83/243/61
f 82/242/61 84/244/61 83/243/61
f 85/245/62 86/246/62 87/247/62
f 86/246/62 88/248/62 87/247/62
f 85/249/63 87/250/63 83/251/63
f 87/250/63 81/252/63 83/251/63
f 88/253/64 86/254/64 82/255/64
f 86/254/64 84/256/64 82/255/64
f 87/257/65 88/258/65 81/259/65
f 88/258/65 82/260/65 81/259/65
f 83/261/66 84/262/66 85/263/66
f 84/262/66 86/264/66 85/263/66
o cube.000
v 0.374375 0.250625 0.062500
v 0.374375 0.125625 0.062500
v 0.061875 0.250625 0.062500
v 0.061875 0.125625 0.062500
v 0.061875 0.250625 0.937500
v 0.061875 0.125625 0.937500
v 0.374375 0.250625 0.937500
v 0.374375 0.125625 0.937500
vt 0.000244 0.335815
vt 0.000244 0.320435
vt 0.077881 0.335815
vt 0.077881 0.320435
vt 0.297119 0.335815
vt 0.297119 0.320435
vt 0.374756 0.335815
vt 0.374756 0.320435
vt 0.296631 0.336060
vt 0.296631 0.374878
vt 0.078369 0.336060
vt 0.078369 0.374878
vt 0.515381 0.374878
vt 0.515381 0.336060
vt 0.297119 0.374878
vt 0.297119 0.336060
vt 0.375244 0.335815
vt 0.375244 0.320435
vt 0.593506 0.335815
vt 0.593506 0.320435
vt 0.078369 0.335815
vt 0.078369 0.320435
vt 0.296631 0.335815
vt 0.296631 0.320435
vn 0.0000 0.0000 -1.0000
vn 0.0000 -0.0000 1.0000
vn 0.0000 1.0000 0.0000
vn 0.0000 -1.0000 -0.0000
vn 1.0000 0.0000 0.0000
vn -1.0000 0.0000 0.0000
usemtl 0
s 1
f 89/265/67 90/266/67 91/267/67
f 90/266/67 92/268/67 91/267/67
f 93/269/68 94/270/68 95/271/68
f 94/270/68 96/272/68 95/271/68
f 93/273/69 95/274/69 91/275/69
f 95/274/69 89/276/69 91/275/69
f 96/277/70 94/278/70 90/279/70
f 94/278/70 92/280/70 90/279/70
f 95/281/71 96/282/71 89/283/71
f 96/282/71 90/284/71 89/283/71
f 91/285/72 92/286/72 93/287/72
f 92/286/72 94/288/72 93/287/72
o cube.001
v 1.000000 0.125000 0.000000
v 1.000000 -0.000000 0.000000
v 0.625000 0.125000 0.000000
v 0.625000 0.000000 0.000000
v 0.625000 0.125000 1.000000
v 0.625000 -0.000000 1.000000
v 1.000000 0.125000 1.000000
v 1.000000 -0.000000 1.000000
vt 0.000244 0.273315
vt 0.000244 0.257935
vt 0.093506 0.273315
vt 0.093506 0.257935
vt 0.343994 0.273315
vt 0.343994 0.257935
vt 0.437256 0.273315
vt 0.437256 0.257935
vt 0.343506 0.273560
vt 0.343506 0.320190
vt 0.093994 0.273560
vt 0.093994 0.320190
vt 0.593506 0.320190
vt 0.593506 0.273560
vt 0.343994 0.320190
vt 0.343994 0.273560
vt 0.437744 0.273315
vt 0.437744 0.257935
vt 0.687256 0.273315
vt 0.687256 0.257935
vt 0.093994 0.273315
vt 0.093994 0.257935
vt 0.343506 0.273315
vt 0.343506 0.257935
vn 0.0000 0.0000 -1.0000
vn 0.0000 0.0000 1.0000
vn 0.0000 1.0000 0.0000
vn 0.0000 -1.0000 -0.0000
vn 1.0000 0.0000 0.0000
vn -1.0000 0.0000 0.0000
usemtl 0
s 1
f 97/289/73 98/290/73 99/291/73
f 98/290/73 100/292/73 99/291/73
f 101/293/74 102/294/74 103/295/74
f 102/294/74 104/296/74 103/295/74
f 101/297/75 103/298/75 99/299/75
f 103/298/75 97/300/75 99/299/75
f 104/301/76 102/302/76 98/303/76
f 102/302/76 100/304/76 98/303/76
f 103/305/77 104/306/77 97/307/77
f 104/306/77 98/308/77 97/307/77
f 99/309/78 100/310/78 101/311/78
f 100/310/78 102/312/78 101/311/78
o cube.002
v 0.375000 0.125000 0.000000
v 0.375000 0.000000 -0.000000
v 0.000000 0.125000 0.000000
v 0.000000 0.000000 -0.000000
v -0.000000 0.125000 1.000000
v -0.000000 -0.000000 1.000000
v 0.375000 0.125000 1.000000
v 0.375000 -0.000000 1.000000
vt 0.000244 0.210815
vt 0.000244 0.195435
vt 0.093506 0.210815
vt 0.093506 0.195435
vt 0.343994 0.210815
vt 0.343994 0.195435
vt 0.437256 0.210815
vt 0.437256 0.195435
vt 0.343506 0.211060
vt 0.343506 0.257690
vt 0.093994 0.211060
vt 0.093994 0.257690
vt 0.593506 0.257690
vt 0.593506 0.211060
vt 0.343994 0.257690
vt 0.343994 0.211060
vt 0.437744 0.210815
vt 0.437744 0.195435
vt 0.687256 0.210815
vt 0.687256 0.195435
vt 0.093994 0.210815
vt 0.093994 0.195435
vt 0.343506 0.210815
vt 0.343506 0.195435
vn 0.0000 0.0000 -1.0000
vn 0.0000 0.0000 1.0000
vn 0.0000 1.0000 0.0000
vn 0.0000 -1.0000 -0.0000
vn 1.0000 0.0000 0.0000
vn -1.0000 0.0000 -0.0000
usemtl 0
s 1
f 105/313/79 106/314/79 107/315/79
f 106/314/79 108/316/79 107/315/79
f 109/317/80 110/318/80 111/319/80
f 110/318/80 112/320/80 111/319/80
f 109/321/81 111/322/81 107/323/81
f 111/322/81 105/324/81 107/323/81
f 112/325/82 110/326/82 106/327/82
f 110/326/82 108/328/82 106/327/82
f 111/329/83 112/330/83 105/331/83
f 112/330/83 106/332/83 105/331/83
f 107/333/84 108/334/84 109/335/84
f 108/334/84 110/336/84 109/335/84
o cube.003
v 0.875000 0.376250 0.125000
v 0.875000 0.001250 0.125000
v 0.125000 0.376250 0.125000
v 0.125000 0.001250 0.125000
v 0.125000 0.376250 0.875000
v 0.125000 0.001250 0.875000
v 0.875000 0.376250 0.875000
v 0.875000 0.001250 0.875000
vt 0.000244 0.101440
vt 0.000244 0.054810
vt 0.187256 0.101440
vt 0.187256 0.054810
vt 0.375244 0.101440
vt 0.375244 0.054810
vt 0.562256 0.101440
vt 0.562256 0.054810
vt 0.374756 0.101685
vt 0.374756 0.195190
vt 0.187744 0.101685
vt 0.187744 0.195190
vt 0.562256 0.195190
vt 0.562256 0.101685
vt 0.375244 0.195190
vt 0.375244 0.101685
vt 0.562744 0.101440
vt 0.562744 0.054810
vt 0.749756 0.101440
vt 0.749756 0.054810
vt 0.187744 0.101440
vt 0.187744 0.054810
vt 0.374756 0.101440
vt 0.374756 0.054810
vn 0.0000 0.0000 -1.0000
vn 0.0000 -0.0000 1.0000
vn 0.0000 1.0000 0.0000
vn 0.0000 -1.0000 -0.0000
vn 1.0000 0.0000 0.0000
vn -1.0000 0.0000 0.0000
usemtl 0
s 1
f 113/337/85 114/338/85 115/339/85
f 114/338/85 116/340/85 115/339/85
f 117/341/86 118/342/86 119/343/86
f 118/342/86 120/344/86 119/343/86
f 117/345/87 119/346/87 115/347/87
f 119/346/87 113/348/87 115/347/87
f 120/349/88 118/350/88 114/351/88
f 118/350/88 116/352/88 114/351/88
f 119/353/89 120/354/89 113/355/89
f 120/354/89 114/356/89 113/355/89
f 115/357/90 116/358/90 117/359/90
f 116/358/90 118/360/90 117/359/90
