# Blender v3.6.1 OBJ File: ''
# www.blender.org
mtllib ice_cream.mtl
o cube.376
v 0.668459 0.062500 0.433536
v 0.433536 0.062500 0.519041
v 0.433536 0.312500 0.519041
v 0.668459 0.312500 0.433536
v 0.753964 0.062500 0.668459
v 0.753964 0.312500 0.668459
v 0.519041 0.062500 0.753964
v 0.519041 0.312500 0.753964
vt 0.062500 0.406250
vt 0.125000 0.406250
vt 0.125000 0.468750
vt 0.062500 0.468750
vt 0.000000 0.406250
vt 0.000000 0.468750
vt 0.187500 0.406250
vt 0.250000 0.406250
vt 0.250000 0.468750
vt 0.187500 0.468750
vt 0.125000 0.531250
vt 0.062500 0.531250
vt 0.187500 0.468750
vt 0.125000 0.468750
vt 0.125000 0.531250
vt 0.187500 0.531250
vn -0.3420 0.0000 -0.9397
vn 0.9397 -0.0000 -0.3420
vn 0.3420 0.0000 0.9397
vn -0.9397 0.0000 0.3420
vn 0.0000 1.0000 0.0000
vn 0.0000 -1.0000 0.0000
usemtl m_f0646927-f680-c7a7-baaf-d00189b3c48c
s 1
f 1/1/1 2/2/1 3/3/1 4/4/1
f 5/5/2 1/1/2 4/4/2 6/6/2
f 7/7/3 5/8/3 6/9/3 8/10/3
f 2/2/4 7/7/4 8/10/4 3/3/4
f 8/11/5 6/12/5 4/4/5 3/3/5
f 2/13/6 1/14/6 5/15/6 7/16/6
o cube.377
v 0.406250 0.156250 0.398223
v 0.229473 0.156250 0.575000
v 0.229473 0.406250 0.575000
v 0.406250 0.406250 0.398223
v 0.583027 0.156250 0.575000
v 0.583027 0.406250 0.575000
v 0.406250 0.156250 0.751777
v 0.406250 0.406250 0.751777
vt 0.453125 0.734375
vt 0.515625 0.734375
vt 0.515625 0.796875
vt 0.453125 0.796875
vt 0.390625 0.734375
vt 0.390625 0.796875
vt 0.578125 0.734375
vt 0.640625 0.734375
vt 0.640625 0.796875
vt 0.578125 0.796875
vt 0.515625 0.859375
vt 0.453125 0.859375
vt 0.578125 0.796875
vt 0.515625 0.796875
vt 0.515625 0.859375
vt 0.578125 0.859375
vn -0.7071 0.0000 -0.7071
vn 0.7071 0.0000 -0.7071
vn 0.7071 0.0000 0.7071
vn -0.7071 0.0000 0.7071
vn 0.0000 1.0000 0.0000
vn 0.0000 -1.0000 0.0000
usemtl m_f0646927-f680-c7a7-baaf-d00189b3c48c
s 1
f 9/17/7 10/18/7 11/19/7 12/20/7
f 13/21/8 9/17/8 12/20/8 14/22/8
f 15/23/9 13/24/9 14/25/9 16/26/9
f 10/18/10 15/23/10 16/26/10 11/19/10
f 16/27/11 14/28/11 12/20/11 11/19/11
f 10/29/12 9/30/12 13/31/12 15/32/12
o cube.378
v 0.468750 0.250000 0.281250
v 0.468750 0.250000 0.531250
v 0.468750 0.500000 0.531250
v 0.468750 0.500000 0.281250
v 0.718750 0.250000 0.281250
v 0.718750 0.500000 0.281250
v 0.718750 0.250000 0.531250
v 0.718750 0.500000 0.531250
vt 0.437500 0.875000
vt 0.500000 0.875000
vt 0.500000 0.937500
vt 0.437500 0.937500
vt 0.375000 0.875000
vt 0.375000 0.937500
vt 0.562500 0.875000
vt 0.625000 0.875000
vt 0.625000 0.937500
vt 0.562500 0.937500
vt 0.500000 1.000000
vt 0.437500 1.000000
vt 0.562500 0.937500
vt 0.500000 0.937500
vt 0.500000 1.000000
vt 0.562500 1.000000
vn -1.0000 0.0000 0.0000
vn 0.0000 -0.0000 -1.0000
vn 1.0000 0.0000 0.0000
vn 0.0000 0.0000 1.0000
vn 0.0000 1.0000 -0.0000
vn 0.0000 -1.0000 0.0000
usemtl m_f0646927-f680-c7a7-baaf-d00189b3c48c
s 1
f 17/33/13 18/34/13 19/35/13 20/36/13
f 21/37/14 17/33/14 20/36/14 22/38/14
f 23/39/15 21/40/15 22/41/15 24/42/15
f 18/34/16 23/39/16 24/42/16 19/35/16
f 24/43/17 22/44/17 20/36/17 19/35/17
f 18/45/18 17/46/18 21/47/18 23/48/18
o cube.379
v 0.271880 0.125000 0.325309
v 0.325990 0.125000 0.569383
v 0.325990 0.250000 0.569383
v 0.271880 0.250000 0.325309
v 0.699010 0.125000 0.230617
v 0.699010 0.250000 0.230617
v 0.753120 0.125000 0.474691
v 0.753120 0.250000 0.474691
vt 0.109375 0.718750
vt 0.171875 0.718750
vt 0.171875 0.750000
vt 0.109375 0.750000
vt 0.000000 0.718750
vt 0.000000 0.750000
vt 0.281250 0.718750
vt 0.343750 0.718750
vt 0.343750 0.750000
vt 0.281250 0.750000
vt 0.171875 0.859375
vt 0.109375 0.859375
vt 0.234375 0.750000
vt 0.171875 0.750000
vt 0.171875 0.859375
vt 0.234375 0.859375
vn -0.9763 0.0000 0.2164
vn -0.2164 -0.0000 -0.9763
vn 0.9763 0.0000 -0.2164
vn 0.2164 0.0000 0.9763
vn -0.0000 1.0000 -0.0000
vn 0.0000 -1.0000 0.0000
usemtl m_f0646927-f680-c7a7-baaf-d00189b3c48c
s 1
f 25/49/19 26/50/19 27/51/19 28/52/19
f 29/53/20 25/49/20 28/52/20 30/54/20
f 31/55/21 29/56/21 30/57/21 32/58/21
f 26/50/22 31/55/22 32/58/22 27/51/22
f 32/59/23 30/60/23 28/52/23 27/51/23
f 26/61/24 25/62/24 29/63/24 31/64/24
o cube.380
v 0.468750 0.506250 0.281250
v 0.468750 0.506250 0.531250
v 0.468750 0.506250 0.531250
v 0.468750 0.506250 0.281250
v 0.718750 0.506250 0.281250
v 0.718750 0.506250 0.281250
v 0.718750 0.506250 0.531250
v 0.718750 0.506250 0.531250
vt 0.343750 0.546875
vt 0.406250 0.546875
vt 0.406250 0.546875
vt 0.343750 0.546875
vt 0.281250 0.546875
vt 0.281250 0.546875
vt 0.468750 0.546875
vt 0.531250 0.546875
vt 0.531250 0.546875
vt 0.468750 0.546875
vt 0.406250 0.609375
vt 0.343750 0.609375
vt 0.468750 0.546875
vt 0.406250 0.546875
vt 0.406250 0.609375
vt 0.468750 0.609375
vn -0.9763 0.0000 0.2164
vn 0.0000 -0.0000 -1.0000
vn 0.9763 0.0000 -0.2164
vn 0.0000 0.0000 1.0000
vn 0.0000 1.0000 0.0000
vn 0.0000 -1.0000 0.0000
usemtl m_f0646927-f680-c7a7-baaf-d00189b3c48c
s 1
f 33/65/25 34/66/25 35/67/25 36/68/25
f 37/69/26 33/65/26 36/68/26 38/70/26
f 39/71/27 37/72/27 38/73/27 40/74/27
f 34/66/28 39/71/28 40/74/28 35/67/28
f 40/75/29 38/76/29 36/68/29 35/67/29
f 34/77/30 33/78/30 37/79/30 39/80/30
o cube.381
v 0.668459 0.318750 0.433536
v 0.433536 0.318750 0.519041
v 0.433536 0.318750 0.519041
v 0.668459 0.318750 0.433536
v 0.753964 0.318750 0.668459
v 0.753964 0.318750 0.668459
v 0.519041 0.318750 0.753964
v 0.519041 0.318750 0.753964
vt 0.343750 0.609375
vt 0.406250 0.609375
vt 0.406250 0.609375
vt 0.343750 0.609375
vt 0.281250 0.609375
vt 0.281250 0.609375
vt 0.468750 0.609375
vt 0.531250 0.609375
vt 0.531250 0.609375
vt 0.468750 0.609375
vt 0.406250 0.671875
vt 0.343750 0.671875
vt 0.468750 0.609375
vt 0.406250 0.609375
vt 0.406250 0.671875
vt 0.468750 0.671875
vn -0.3420 0.0000 -0.9397
vn 0.0000 0.0000 -0.9397
vn 0.9397 -0.0000 -0.3420
vn 0.0000 0.0000 -0.3420
vn 0.3420 -0.0000 0.9397
vn 0.0000 0.0000 0.9397
vn -0.9397 0.0000 0.3421
vn 0.0000 0.0000 0.3420
vn -0.9397 -0.0000 0.3420
vn 0.0000 0.0000 0.3421
vn 0.0000 1.0000 -0.0000
vn -0.0000 -1.0000 0.0000
usemtl m_f0646927-f680-c7a7-baaf-d00189b3c48c
s 1
f 41/81/31 42/82/32 43/83/31 44/84/32
f 45/85/33 41/81/34 44/84/33 46/86/34
f 47/87/35 45/88/36 46/89/35 48/90/36
f 42/82/37 47/87/38 48/90/39 43/83/40
f 48/91/41 46/92/41 44/84/41 43/83/41
f 42/93/42 41/94/42 45/95/42 47/96/42
o cube.382
v 0.271880 0.256250 0.325309
v 0.325990 0.256250 0.569383
v 0.325990 0.256250 0.569383
v 0.271880 0.256250 0.325309
v 0.699010 0.256250 0.230617
v 0.699010 0.256250 0.230617
v 0.753120 0.256250 0.474691
v 0.753120 0.256250 0.474691
vt 0.234375 0.750000
vt 0.296875 0.750000
vt 0.296875 0.750000
vt 0.234375 0.750000
vt 0.125000 0.750000
vt 0.125000 0.750000
vt 0.406250 0.750000
vt 0.468750 0.750000
vt 0.468750 0.750000
vt 0.406250 0.750000
vt 0.296875 0.859375
vt 0.234375 0.859375
vt 0.359375 0.750000
vt 0.296875 0.750000
vt 0.296875 0.859375
vt 0.359375 0.859375
vn -0.9763 0.0003 0.2164
vn 0.0000 0.0000 0.2164
vn -0.9763 0.0000 0.2164
vn -0.2164 0.0000 -0.9763
vn 0.0000 0.0000 -0.9763
vn 0.9763 -0.0003 -0.2164
vn 0.0000 0.0000 -0.2164
vn 0.9763 0.0000 -0.2164
vn 0.2164 0.0000 0.9763
vn 0.0000 0.0000 0.9763
vn 0.2165 -0.0000 0.9763
vn 0.0000 1.0000 -0.0000
vn -0.0000 -1.0000 0.0000
usemtl m_f0646927-f680-c7a7-baaf-d00189b3c48c
s 1
f 49/97/43 50/98/44 51/99/45 52/100/44
f 53/101/46 49/97/47 52/100/46 54/102/47
f 55/103/48 53/104/49 54/105/50 56/106/49
f 50/98/51 55/103/52 56/106/53 51/99/52
f 56/107/54 54/108/54 52/100/54 51/99/54
f 50/109/55 49/110/55 53/111/55 55/112/55
o cube.383
v 0.406250 0.412500 0.398223
v 0.229473 0.412500 0.575000
v 0.229473 0.412500 0.575000
v 0.406250 0.412500 0.398223
v 0.583027 0.412500 0.575000
v 0.583027 0.412500 0.575000
v 0.406250 0.412500 0.751777
v 0.406250 0.412500 0.751777
vt 0.156250 0.609375
vt 0.218750 0.609375
vt 0.218750 0.609375
vt 0.156250 0.609375
vt 0.093750 0.609375
vt 0.093750 0.609375
vt 0.281250 0.609375
vt 0.343750 0.609375
vt 0.343750 0.609375
vt 0.281250 0.609375
vt 0.218750 0.671875
vt 0.156250 0.671875
vt 0.281250 0.609375
vt 0.218750 0.609375
vt 0.218750 0.671875
vt 0.281250 0.671875
vn -0.7071 0.0000 -0.7071
vn 0.0000 0.0000 -0.7071
vn -0.7071 0.0003 -0.7071
vn 0.7071 -0.0003 -0.7071
vn 0.7071 0.0000 -0.7071
vn 0.7071 -0.0000 0.7071
vn 0.0000 0.0000 0.7071
vn 0.7071 -0.0003 0.7071
vn -0.7071 0.0003 0.7071
vn -0.7071 -0.0000 0.7071
vn 0.0000 1.0000 -0.0000
vn 0.0000 -1.0000 0.0000
usemtl m_f0646927-f680-c7a7-baaf-d00189b3c48c
s 1
f 57/113/56 58/114/57 59/115/58 60/116/57
f 61/117/59 57/113/57 60/116/60 62/118/57
f 63/119/61 61/120/62 62/121/63 64/122/62
f 58/114/64 63/119/62 64/122/65 59/115/62
f 64/123/66 62/124/66 60/116/66 59/115/66
f 58/125/67 57/126/67 61/127/67 63/128/67
o cube.384
v 0.593496 0.270273 0.515569
v 0.549302 0.314467 0.515569
v 0.844343 0.609508 0.647128
v 0.888537 0.565314 0.647128
v 0.566917 0.243694 0.634784
v 0.861958 0.538735 0.766343
v 0.522723 0.287888 0.634784
v 0.817764 0.582929 0.766343
vt 0.281250 0.328125
vt 0.296875 0.328125
vt 0.296875 0.437500
vt 0.281250 0.437500
vt 0.250000 0.328125
vt 0.250000 0.437500
vt 0.328125 0.328125
vt 0.343750 0.328125
vt 0.343750 0.437500
vt 0.328125 0.437500
vt 0.296875 0.468750
vt 0.281250 0.468750
vt 0.312500 0.437500
vt 0.296875 0.437500
vt 0.296875 0.468750
vt 0.312500 0.468750
vn 0.2126 0.2126 -0.9537
vn 0.7071 -0.7071 -0.0000
vn -0.2126 -0.2126 0.9537
vn -0.7071 0.7071 0.0000
vn 0.6744 0.6744 0.3007
vn -0.6744 -0.6744 -0.3007
usemtl m_f0646927-f680-c7a7-baaf-d00189b3c48c
s 1
f 65/129/68 66/130/68 67/131/68 68/132/68
f 69/133/69 65/129/69 68/132/69 70/134/69
f 71/135/70 69/136/70 70/137/70 72/138/70
f 66/130/71 71/135/71 72/138/71 67/131/71
f 72/139/72 70/140/72 68/132/72 67/131/72
f 66/141/73 65/142/73 69/143/73 71/144/73
o cube.385
v 0.750000 -0.000000 0.250000
v 0.250000 -0.000000 0.250000
v 0.250000 0.062500 0.250000
v 0.750000 0.062500 0.250000
v 0.750000 0.000000 0.750000
v 0.750000 0.062500 0.750000
v 0.250000 0.000000 0.750000
v 0.250000 0.062500 0.750000
vt 0.125000 0.859375
vt 0.250000 0.859375
vt 0.250000 0.875000
vt 0.125000 0.875000
vt 0.000000 0.859375
vt 0.000000 0.875000
vt 0.375000 0.859375
vt 0.500000 0.859375
vt 0.500000 0.875000
vt 0.375000 0.875000
vt 0.250000 1.000000
vt 0.125000 1.000000
vt 0.375000 0.875000
vt 0.250000 0.875000
vt 0.250000 1.000000
vt 0.375000 1.000000
vn 0.0000 0.0000 -1.0000
vn 1.0000 0.0000 0.0000
vn 0.0000 0.0000 1.0000
vn -1.0000 0.0000 0.0000
vn 0.0000 1.0000 -0.0000
vn 0.0000 -1.0000 0.0000
usemtl m_f0646927-f680-c7a7-baaf-d00189b3c48c
s 1
f 73/145/74 74/146/74 75/147/74 76/148/74
f 77/149/75 73/145/75 76/148/75 78/150/75
f 79/151/76 77/152/76 78/153/76 80/154/76
f 74/146/77 79/151/77 80/154/77 75/147/77
f 80/155/78 78/156/78 76/148/78 75/147/78
f 74/157/79 73/158/79 77/159/79 79/160/79
o cube.386
v 0.750000 0.000000 0.750000
v 0.250000 0.000000 0.750000
v 0.250000 0.044194 0.705806
v 0.750000 0.044194 0.705806
v 0.750000 0.088388 0.838388
v 0.750000 0.132583 0.794194
v 0.250000 0.088388 0.838388
v 0.250000 0.132583 0.794194
vt 0.515625 0.656250
vt 0.640625 0.656250
vt 0.640625 0.671875
vt 0.515625 0.671875
vt 0.484375 0.656250
vt 0.484375 0.671875
vt 0.671875 0.656250
vt 0.796875 0.656250
vt 0.796875 0.671875
vt 0.671875 0.671875
vt 0.640625 0.703125
vt 0.515625 0.703125
vt 0.765625 0.671875
vt 0.640625 0.671875
vt 0.640625 0.703125
vt 0.765625 0.703125
vn 0.0000 -0.7071 -0.7071
vn 1.0000 0.0000 0.0000
vn 0.0000 0.7071 0.7071
vn -1.0000 0.0000 0.0000
vn 0.0000 0.7071 -0.7071
vn 0.0000 -0.7071 0.7071
usemtl m_f0646927-f680-c7a7-baaf-d00189b3c48c
s 1
f 81/161/80 82/162/80 83/163/80 84/164/80
f 85/165/81 81/161/81 84/164/81 86/166/81
f 87/167/82 85/168/82 86/169/82 88/170/82
f 82/162/83 87/167/83 88/170/83 83/163/83
f 88/171/84 86/172/84 84/164/84 83/163/84
f 82/173/85 81/174/85 85/175/85 87/176/85
o cube.387
v 0.750000 0.088388 0.161612
v 0.250000 0.088388 0.161612
v 0.250000 0.132583 0.205806
v 0.750000 0.132583 0.205806
v 0.750000 -0.000000 0.250000
v 0.750000 0.044194 0.294194
v 0.250000 -0.000000 0.250000
v 0.250000 0.044194 0.294194
vt 0.218750 0.468750
vt 0.343750 0.468750
vt 0.343750 0.484375
vt 0.218750 0.484375
vt 0.187500 0.468750
vt 0.187500 0.484375
vt 0.375000 0.468750
vt 0.500000 0.468750
vt 0.500000 0.484375
vt 0.375000 0.484375
vt 0.343750 0.515625
vt 0.218750 0.515625
vt 0.468750 0.484375
vt 0.343750 0.484375
vt 0.343750 0.515625
vt 0.468750 0.515625
vn 0.0000 0.7071 -0.7071
vn 1.0000 0.0000 0.0000
vn 0.0000 -0.7071 0.7071
vn -1.0000 0.0000 0.0000
vn 0.0000 0.7071 0.7071
vn 0.0000 -0.7071 -0.7071
usemtl m_f0646927-f680-c7a7-baaf-d00189b3c48c
s 1
f 89/177/86 90/178/86 91/179/86 92/180/86
f 93/181/87 89/177/87 92/180/87 94/182/87
f 95/183/88 93/184/88 94/185/88 96/186/88
f 90/178/89 95/183/89 96/186/89 91/179/89
f 96/187/90 94/188/90 92/180/90 91/179/90
f 90/189/91 89/190/91 93/191/91 95/192/91
o cube.388
v 0.838388 0.088388 0.250000
v 0.750000 -0.000000 0.250000
v 0.705806 0.044194 0.250000
v 0.794194 0.132583 0.250000
v 0.838388 0.088388 0.750000
v 0.794194 0.132583 0.750000
v 0.750000 0.000000 0.750000
v 0.705806 0.044194 0.750000
vt 0.468750 0.515625
vt 0.500000 0.515625
vt 0.500000 0.531250
vt 0.468750 0.531250
vt 0.343750 0.515625
vt 0.343750 0.531250
vt 0.625000 0.515625
vt 0.656250 0.515625
vt 0.656250 0.531250
vt 0.625000 0.531250
vt 0.500000 0.656250
vt 0.468750 0.656250
vt 0.531250 0.531250
vt 0.500000 0.531250
vt 0.500000 0.656250
vt 0.531250 0.656250
vn -0.0000 0.0000 -1.0000
vn 0.7071 0.7071 -0.0000
vn 0.0000 0.0000 1.0000
vn -0.7071 -0.7071 0.0000
vn -0.7071 0.7071 -0.0000
vn 0.7071 -0.7071 0.0000
usemtl m_f0646927-f680-c7a7-baaf-d00189b3c48c
s 1
f 97/193/92 98/194/92 99/195/92 100/196/92
f 101/197/93 97/193/93 100/196/93 102/198/93
f 103/199/94 101/200/94 102/201/94 104/202/94
f 98/194/95 103/199/95 104/202/95 99/195/95
f 104/203/96 102/204/96 100/196/96 99/195/96
f 98/205/97 97/206/97 101/207/97 103/208/97
o cube.389
v 0.250000 -0.000000 0.250000
v 0.161612 0.088388 0.250000
v 0.205806 0.132583 0.250000
v 0.294194 0.044194 0.250000
v 0.250000 0.000000 0.750000
v 0.294194 0.044194 0.750000
v 0.161612 0.088388 0.750000
v 0.205806 0.132583 0.750000
vt 0.281250 0.531250
vt 0.312500 0.531250
vt 0.312500 0.546875
vt 0.281250 0.546875
vt 0.156250 0.531250
vt 0.156250 0.546875
vt 0.437500 0.531250
vt 0.468750 0.531250
vt 0.468750 0.546875
vt 0.437500 0.546875
vt 0.312500 0.671875
vt 0.281250 0.671875
vt 0.343750 0.546875
vt 0.312500 0.546875
vt 0.312500 0.671875
vt 0.343750 0.671875
vn -0.0000 0.0000 -1.0000
vn 0.7071 -0.7071 0.0000
vn -0.0000 0.0000 1.0000
vn -0.7071 0.7071 -0.0000
vn 0.7071 0.7071 -0.0000
vn -0.7071 -0.7071 0.0000
usemtl m_f0646927-f680-c7a7-baaf-d00189b3c48c
s 1
f 105/209/98 106/210/98 107/211/98 108/212/98
f 109/213/99 105/209/99 108/212/99 110/214/99
f 111/215/100 109/216/100 110/217/100 112/218/100
f 106/210/101 111/215/101 112/218/101 107/211/101
f 112/219/102 110/220/102 108/212/102 107/211/102
f 106/221/103 105/222/103 109/223/103 111/224/103
o cube.390
v 0.838388 0.088388 0.250000
v 0.775888 0.088388 0.250000
v 0.775888 0.275888 0.250000
v 0.838388 0.275888 0.250000
v 0.838388 0.088388 0.750000
v 0.838388 0.275888 0.750000
v 0.775888 0.088388 0.750000
v 0.775888 0.275888 0.750000
vt 0.125000 0.546875
vt 0.140625 0.546875
vt 0.140625 0.593750
vt 0.125000 0.593750
vt 0.000000 0.546875
vt 0.000000 0.593750
vt 0.265625 0.546875
vt 0.281250 0.546875
vt 0.281250 0.593750
vt 0.265625 0.593750
vt 0.140625 0.718750
vt 0.125000 0.718750
vt 0.156250 0.593750
vt 0.140625 0.593750
vt 0.140625 0.718750
vt 0.156250 0.718750
vn 0.0000 -0.0000 -1.0000
vn 1.0000 0.0000 0.0000
vn 0.0000 0.0000 1.0000
vn -1.0000 -0.0000 0.0000
vn 0.0000 1.0000 -0.0000
vn 0.0000 -1.0000 0.0000
usemtl m_f0646927-f680-c7a7-baaf-d00189b3c48c
s 1
f 113/225/104 114/226/104 115/227/104 116/228/104
f 117/229/105 113/225/105 116/228/105 118/230/105
f 119/231/106 117/232/106 118/233/106 120/234/106
f 114/226/107 119/231/107 120/234/107 115/227/107
f 120/235/108 118/236/108 116/228/108 115/227/108
f 114/237/109 113/238/109 117/239/109 119/240/109
o cube.391
v 0.224112 0.088388 0.250000
v 0.161612 0.088388 0.250000
v 0.161612 0.275888 0.250000
v 0.224112 0.275888 0.250000
v 0.224112 0.088388 0.750000
v 0.224112 0.275888 0.750000
v 0.161612 0.088388 0.750000
v 0.161612 0.275888 0.750000
vt 0.359375 0.671875
vt 0.375000 0.671875
vt 0.375000 0.718750
vt 0.359375 0.718750
vt 0.234375 0.671875
vt 0.234375 0.718750
vt 0.500000 0.671875
vt 0.515625 0.671875
vt 0.515625 0.718750
vt 0.500000 0.718750
vt 0.375000 0.843750
vt 0.359375 0.843750
vt 0.390625 0.718750
vt 0.375000 0.718750
vt 0.375000 0.843750
vt 0.390625 0.843750
vn 0.0000 -0.0000 -1.0000
vn 1.0000 0.0000 0.0000
vn 0.0000 0.0000 1.0000
vn -1.0000 -0.0000 0.0000
vn 0.0000 1.0000 -0.0000
vn 0.0000 -1.0000 0.0000
usemtl m_f0646927-f680-c7a7-baaf-d00189b3c48c
s 1
f 121/241/110 122/242/110 123/243/110 124/244/110
f 125/245/111 121/241/111 124/244/111 126/246/111
f 127/247/112 125/248/112 126/249/112 128/250/112
f 122/242/113 127/247/113 128/250/113 123/243/113
f 128/251/114 126/252/114 124/244/114 123/243/114
f 122/253/115 121/254/115 125/255/115 127/256/115
o cube.392
v 0.750000 0.088388 0.775888
v 0.250000 0.088388 0.775888
v 0.250000 0.275888 0.775888
v 0.750000 0.275888 0.775888
v 0.750000 0.088388 0.838388
v 0.750000 0.275888 0.838388
v 0.250000 0.088388 0.838388
v 0.250000 0.275888 0.838388
vt 0.546875 0.593750
vt 0.671875 0.593750
vt 0.671875 0.640625
vt 0.546875 0.640625
vt 0.531250 0.593750
vt 0.531250 0.640625
vt 0.687500 0.593750
vt 0.812500 0.593750
vt 0.812500 0.640625
vt 0.687500 0.640625
vt 0.671875 0.656250
vt 0.546875 0.656250
vt 0.796875 0.640625
vt 0.671875 0.640625
vt 0.671875 0.656250
vt 0.796875 0.656250
vn 0.0000 0.0000 -1.0000
vn 1.0000 0.0000 0.0000
vn 0.0000 0.0000 1.0000
vn -1.0000 0.0000 0.0000
vn 0.0000 1.0000 0.0000
vn 0.0000 -1.0000 0.0000
usemtl m_f0646927-f680-c7a7-baaf-d00189b3c48c
s 1
f 129/257/116 130/258/116 131/259/116 132/260/116
f 133/261/117 129/257/117 132/260/117 134/262/117
f 135/263/118 133/264/118 134/265/118 136/266/118
f 130/258/119 135/263/119 136/266/119 131/259/119
f 136/267/120 134/268/120 132/260/120 131/259/120
f 130/269/121 129/270/121 133/271/121 135/272/121
o cube.393
v 0.750000 0.088388 0.161612
v 0.250000 0.088388 0.161612
v 0.250000 0.275888 0.161612
v 0.750000 0.275888 0.161612
v 0.750000 0.088388 0.224112
v 0.750000 0.275888 0.224112
v 0.250000 0.088388 0.224112
v 0.250000 0.275888 0.224112
vt 0.515625 0.453125
vt 0.640625 0.453125
vt 0.640625 0.500000
vt 0.515625 0.500000
vt 0.500000 0.453125
vt 0.500000 0.500000
vt 0.656250 0.453125
vt 0.781250 0.453125
vt 0.781250 0.500000
vt 0.656250 0.500000
vt 0.640625 0.515625
vt 0.515625 0.515625
vt 0.765625 0.500000
vt 0.640625 0.500000
vt 0.640625 0.515625
vt 0.765625 0.515625
vn 0.0000 -0.0000 -1.0000
vn 1.0000 0.0000 0.0000
vn 0.0000 0.0000 1.0000
vn -1.0000 0.0000 0.0000
vn 0.0000 1.0000 0.0000
vn 0.0000 -1.0000 0.0000
usemtl m_f0646927-f680-c7a7-baaf-d00189b3c48c
s 1
f 137/273/122 138/274/122 139/275/122 140/276/122
f 141/277/123 137/273/123 140/276/123 142/278/123
f 143/279/124 141/280/124 142/281/124 144/282/124
f 138/274/125 143/279/125 144/282/125 139/275/125
f 144/283/126 142/284/126 140/276/126 139/275/126
f 138/285/127 137/286/127 141/287/127 143/288/127
o cube.394
v 0.838388 0.082138 0.250000
v 0.750000 0.082138 0.161612
v 0.750000 0.269638 0.161612
v 0.838388 0.269638 0.250000
v 0.794194 0.082138 0.294194
v 0.794194 0.269638 0.294194
v 0.705806 0.082138 0.205806
v 0.705806 0.269638 0.205806
vt 0.015625 0.656250
vt 0.046875 0.656250
vt 0.046875 0.703125
vt 0.015625 0.703125
vt 0.000000 0.656250
vt 0.000000 0.703125
vt 0.062500 0.656250
vt 0.093750 0.656250
vt 0.093750 0.703125
vt 0.062500 0.703125
vt 0.046875 0.718750
vt 0.015625 0.718750
vt 0.078125 0.703125
vt 0.046875 0.703125
vt 0.046875 0.718750
vt 0.078125 0.718750
vn 0.7071 0.0000 -0.7071
vn 0.7071 0.0000 0.7071
vn -0.7071 0.0000 0.7071
vn -0.7071 0.0000 -0.7071
vn 0.0000 1.0000 0.0000
vn -0.0000 -1.0000 0.0000
usemtl m_f0646927-f680-c7a7-baaf-d00189b3c48c
s 1
f 145/289/128 146/290/128 147/291/128 148/292/128
f 149/293/129 145/289/129 148/292/129 150/294/129
f 151/295/130 149/296/130 150/297/130 152/298/130
f 146/290/131 151/295/131 152/298/131 147/291/131
f 152/299/132 150/300/132 148/292/132 147/291/132
f 146/301/133 145/302/133 149/303/133 151/304/133
o cube.395
v 0.294194 0.082138 0.794194
v 0.205806 0.082138 0.705806
v 0.205806 0.269638 0.705806
v 0.294194 0.269638 0.794194
v 0.250000 0.082138 0.838388
v 0.250000 0.269638 0.838388
v 0.161612 0.082138 0.750000
v 0.161612 0.269638 0.750000
vt 0.015625 0.796875
vt 0.046875 0.796875
vt 0.046875 0.843750
vt 0.015625 0.843750
vt 0.000000 0.796875
vt 0.000000 0.843750
vt 0.062500 0.796875
vt 0.093750 0.796875
vt 0.093750 0.843750
vt 0.062500 0.843750
vt 0.046875 0.859375
vt 0.015625 0.859375
vt 0.078125 0.843750
vt 0.046875 0.843750
vt 0.046875 0.859375
vt 0.078125 0.859375
vn 0.7071 -0.0000 -0.7071
vn 0.7071 0.0000 0.7071
vn -0.7071 0.0000 0.7071
vn -0.7071 -0.0000 -0.7071
vn 0.0000 1.0000 0.0000
vn -0.0000 -1.0000 0.0000
usemtl m_f0646927-f680-c7a7-baaf-d00189b3c48c
s 1
f 153/305/134 154/306/134 155/307/134 156/308/134
f 157/309/135 153/305/135 156/308/135 158/310/135
f 159/311/136 157/312/136 158/313/136 160/314/136
f 154/306/137 159/311/137 160/314/137 155/307/137
f 160/315/138 158/316/138 156/308/138 155/307/138
f 154/317/139 153/318/139 157/319/139 159/320/139
o cube.396
v 0.794194 0.082138 0.705806
v 0.705806 0.082138 0.794194
v 0.705806 0.269638 0.794194
v 0.794194 0.269638 0.705806
v 0.838388 0.082138 0.750000
v 0.838388 0.269638 0.750000
v 0.750000 0.082138 0.838388
v 0.750000 0.269638 0.838388
vt 0.015625 0.875000
vt 0.046875 0.875000
vt 0.046875 0.921875
vt 0.015625 0.921875
vt 0.000000 0.875000
vt 0.000000 0.921875
vt 0.062500 0.875000
vt 0.093750 0.875000
vt 0.093750 0.921875
vt 0.062500 0.921875
vt 0.046875 0.937500
vt 0.015625 0.937500
vt 0.078125 0.921875
vt 0.046875 0.921875
vt 0.046875 0.937500
vt 0.078125 0.937500
vn -0.7071 0.0000 -0.7071
vn 0.7071 0.0000 -0.7071
vn 0.7071 0.0000 0.7071
vn -0.7071 0.0000 0.7071
vn 0.0000 1.0000 0.0000
vn 0.0000 -1.0000 0.0000
usemtl m_f0646927-f680-c7a7-baaf-d00189b3c48c
s 1
f 161/321/140 162/322/140 163/323/140 164/324/140
f 165/325/141 161/321/141 164/324/141 166/326/141
f 167/327/142 165/328/142 166/329/142 168/330/142
f 162/322/143 167/327/143 168/330/143 163/323/143
f 168/331/144 166/332/144 164/324/144 163/323/144
f 162/333/145 161/334/145 165/335/145 167/336/145
o cube.397
v 0.250000 0.082138 0.161612
v 0.161612 0.082138 0.250000
v 0.161612 0.269638 0.250000
v 0.250000 0.269638 0.161612
v 0.294194 0.082138 0.205806
v 0.294194 0.269638 0.205806
v 0.205806 0.082138 0.294194
v 0.205806 0.269638 0.294194
vt 0.015625 0.937500
vt 0.046875 0.937500
vt 0.046875 0.984375
vt 0.015625 0.984375
vt 0.000000 0.937500
vt 0.000000 0.984375
vt 0.062500 0.937500
vt 0.093750 0.937500
vt 0.093750 0.984375
vt 0.062500 0.984375
vt 0.046875 1.000000
vt 0.015625 1.000000
vt 0.078125 0.984375
vt 0.046875 0.984375
vt 0.046875 1.000000
vt 0.078125 1.000000
vn -0.7071 -0.0000 -0.7071
vn 0.7071 -0.0000 -0.7071
vn 0.7071 0.0000 0.7071
vn -0.7071 0.0000 0.7071
vn 0.0000 1.0000 0.0000
vn 0.0000 -1.0000 0.0000
usemtl m_f0646927-f680-c7a7-baaf-d00189b3c48c
s 1
f 169/337/146 170/338/146 171/339/146 172/340/146
f 173/341/147 169/337/147 172/340/147 174/342/147
f 175/343/148 173/344/148 174/345/148 176/346/148
f 170/338/149 175/343/149 176/346/149 171/339/149
f 176/347/150 174/348/150 172/340/150 171/339/150
f 170/349/151 169/350/151 173/351/151 175/352/151
