# Made in Blockbench 4.6.4
mtllib veg_stinger.mtl

o cube
v 0.21875 0.06874999999999998 0.21875
v 0.21875 0.06874999999999998 -0.21875
v 0.21875 0.006249999999999978 0.21875
v 0.21875 0.006249999999999978 -0.21875
v -0.21875 0.06874999999999998 -0.21875
v -0.21875 0.06874999999999998 0.21875
v -0.21875 0.006249999999999978 -0.21875
v -0.21875 0.006249999999999978 0.21875
vt 0.109375 0.890625
vt 0.21875 0.890625
vt 0.21875 0.875
vt 0.109375 0.875
vt 0 0.890625
vt 0.109375 0.890625
vt 0.109375 0.875
vt 0 0.875
vt 0.328125 0.890625
vt 0.4375 0.890625
vt 0.4375 0.875
vt 0.328125 0.875
vt 0.21875 0.890625
vt 0.328125 0.890625
vt 0.328125 0.875
vt 0.21875 0.875
vt 0.21875 0.890625
vt 0.109375 0.890625
vt 0.109375 1
vt 0.21875 1
vt 0.328125 1
vt 0.21875 1
vt 0.21875 0.890625
vt 0.328125 0.890625
vn 0 0 -1
vn 1 0 0
vn 0 0 1
vn -1 0 0
vn 0 1 0
vn 0 -1 0
usemtl m_8a6d0904-c0b6-8bad-11b9-26b8495cb6b9
f 4/4/1 7/3/1 5/2/1 2/1/1
f 3/8/2 4/7/2 2/6/2 1/5/2
f 8/12/3 3/11/3 1/10/3 6/9/3
f 7/16/4 8/15/4 6/14/4 5/13/4
f 6/20/5 1/19/5 2/18/5 5/17/5
f 7/24/6 4/23/6 3/22/6 8/21/6
o cube
v 0.15625 0.6312500000000001 0.21875
v 0.15625 0.6312500000000001 0.15625
v 0.15625 0.06874999999999998 0.21875
v 0.15625 0.06874999999999998 0.15625
v -0.15625 0.6312500000000001 0.15625
v -0.15625 0.6312500000000001 0.21875
v -0.15625 0.06874999999999998 0.15625
v -0.15625 0.06874999999999998 0.21875
vt 0.46875 0.71875
vt 0.546875 0.71875
vt 0.546875 0.578125
vt 0.46875 0.578125
vt 0.453125 0.71875
vt 0.46875 0.71875
vt 0.46875 0.578125
vt 0.453125 0.578125
vt 0.5625 0.71875
vt 0.640625 0.71875
vt 0.640625 0.578125
vt 0.5625 0.578125
vt 0.546875 0.71875
vt 0.5625 0.71875
vt 0.5625 0.578125
vt 0.546875 0.578125
vt 0.546875 0.71875
vt 0.46875 0.71875
vt 0.46875 0.734375
vt 0.546875 0.734375
vt 0.625 0.734375
vt 0.546875 0.734375
vt 0.546875 0.71875
vt 0.625 0.71875
vn 0 0 -1
vn 1 0 0
vn 0 0 1
vn -1 0 0
vn 0 1 0
vn 0 -1 0
usemtl m_8a6d0904-c0b6-8bad-11b9-26b8495cb6b9
f 12/28/7 15/27/7 13/26/7 10/25/7
f 11/32/8 12/31/8 10/30/8 9/29/8
f 16/36/9 11/35/9 9/34/9 14/33/9
f 15/40/10 16/39/10 14/38/10 13/37/10
f 14/44/11 9/43/11 10/42/11 13/41/11
f 15/48/12 12/47/12 11/46/12 16/45/12
o cube
v 0.15625 0.6312500000000001 -0.15625
v 0.15625 0.6312500000000001 -0.21875
v 0.15625 0.06874999999999998 -0.15625
v 0.15625 0.06874999999999998 -0.21875
v -0.15625 0.6312500000000001 -0.21875
v -0.15625 0.6312500000000001 -0.15625
v -0.15625 0.06874999999999998 -0.21875
v -0.15625 0.06874999999999998 -0.15625
vt 0.015625 0.65625
vt 0.09375 0.65625
vt 0.09375 0.515625
vt 0.015625 0.515625
vt 0 0.65625
vt 0.015625 0.65625
vt 0.015625 0.515625
vt 0 0.515625
vt 0.109375 0.65625
vt 0.1875 0.65625
vt 0.1875 0.515625
vt 0.109375 0.515625
vt 0.09375 0.65625
vt 0.109375 0.65625
vt 0.109375 0.515625
vt 0.09375 0.515625
vt 0.09375 0.65625
vt 0.015625 0.65625
vt 0.015625 0.671875
vt 0.09375 0.671875
vt 0.171875 0.671875
vt 0.09375 0.671875
vt 0.09375 0.65625
vt 0.171875 0.65625
vn 0 0 -1
vn 1 0 0
vn 0 0 1
vn -1 0 0
vn 0 1 0
vn 0 -1 0
usemtl m_8a6d0904-c0b6-8bad-11b9-26b8495cb6b9
f 20/52/13 23/51/13 21/50/13 18/49/13
f 19/56/14 20/55/14 18/54/14 17/53/14
f 24/60/15 19/59/15 17/58/15 22/57/15
f 23/64/16 24/63/16 22/62/16 21/61/16
f 22/68/17 17/67/17 18/66/17 21/65/17
f 23/72/18 20/71/18 19/70/18 24/69/18
o cube
v -0.15625 0.6312500000000001 0.21875
v -0.15625 0.6312500000000001 -0.21875
v -0.15625 0.06874999999999998 0.21875
v -0.15625 0.06874999999999998 -0.21875
v -0.21875 0.6312500000000001 -0.21875
v -0.21875 0.6312500000000001 0.21875
v -0.21875 0.06874999999999998 -0.21875
v -0.21875 0.06874999999999998 0.21875
vt 0.453125 0.875
vt 0.46875 0.875
vt 0.46875 0.734375
vt 0.453125 0.734375
vt 0.34375 0.875
vt 0.453125 0.875
vt 0.453125 0.734375
vt 0.34375 0.734375
vt 0.578125 0.875
vt 0.59375 0.875
vt 0.59375 0.734375
vt 0.578125 0.734375
vt 0.46875 0.875
vt 0.578125 0.875
vt 0.578125 0.734375
vt 0.46875 0.734375
vt 0.46875 0.875
vt 0.453125 0.875
vt 0.453125 0.984375
vt 0.46875 0.984375
vt 0.484375 0.984375
vt 0.46875 0.984375
vt 0.46875 0.875
vt 0.484375 0.875
vn 0 0 -1
vn 1 0 0
vn 0 0 1
vn -1 0 0
vn 0 1 0
vn 0 -1 0
usemtl m_8a6d0904-c0b6-8bad-11b9-26b8495cb6b9
f 28/76/19 31/75/19 29/74/19 26/73/19
f 27/80/20 28/79/20 26/78/20 25/77/20
f 32/84/21 27/83/21 25/82/21 30/81/21
f 31/88/22 32/87/22 30/86/22 29/85/22
f 30/92/23 25/91/23 26/90/23 29/89/23
f 31/96/24 28/95/24 27/94/24 32/93/24
o cube
v 0.21875 0.6312500000000001 0.21875
v 0.21875 0.6312500000000001 -0.21875
v 0.21875 0.06874999999999998 0.21875
v 0.21875 0.06874999999999998 -0.21875
v 0.15625 0.6312500000000001 -0.21875
v 0.15625 0.6312500000000001 0.21875
v 0.15625 0.06874999999999998 -0.21875
v 0.15625 0.06874999999999998 0.21875
vt 0.3125 0.671875
vt 0.328125 0.671875
vt 0.328125 0.53125
vt 0.3125 0.53125
vt 0.203125 0.671875
vt 0.3125 0.671875
vt 0.3125 0.53125
vt 0.203125 0.53125
vt 0.4375 0.671875
vt 0.453125 0.671875
vt 0.453125 0.53125
vt 0.4375 0.53125
vt 0.328125 0.671875
vt 0.4375 0.671875
vt 0.4375 0.53125
vt 0.328125 0.53125
vt 0.328125 0.671875
vt 0.3125 0.671875
vt 0.3125 0.78125
vt 0.328125 0.78125
vt 0.34375 0.78125
vt 0.328125 0.78125
vt 0.328125 0.671875
vt 0.34375 0.671875
vn 0 0 -1
vn 1 0 0
vn 0 0 1
vn -1 0 0
vn 0 1 0
vn 0 -1 0
usemtl m_8a6d0904-c0b6-8bad-11b9-26b8495cb6b9
f 36/100/25 39/99/25 37/98/25 34/97/25
f 35/104/26 36/103/26 34/102/26 33/101/26
f 40/108/27 35/107/27 33/106/27 38/105/27
f 39/112/28 40/111/28 38/110/28 37/109/28
f 38/116/29 33/115/29 34/114/29 37/113/29
f 39/120/30 36/119/30 35/118/30 40/117/30
o cube
v 0.1875 0.7562500000000001 -0.125
v 0.1875 0.7562500000000001 -0.1875
v 0.1875 0.6312500000000001 -0.125
v 0.1875 0.6312500000000001 -0.1875
v -0.1875 0.7562500000000001 -0.1875
v -0.1875 0.7562500000000001 -0.125
v -0.1875 0.6312500000000001 -0.1875
v -0.1875 0.6312500000000001 -0.125
vt 0.5 0.984375
vt 0.59375 0.984375
vt 0.59375 0.953125
vt 0.5 0.953125
vt 0.484375 0.984375
vt 0.5 0.984375
vt 0.5 0.953125
vt 0.484375 0.953125
vt 0.609375 0.984375
vt 0.703125 0.984375
vt 0.703125 0.953125
vt 0.609375 0.953125
vt 0.59375 0.984375
vt 0.609375 0.984375
vt 0.609375 0.953125
vt 0.59375 0.953125
vt 0.59375 0.984375
vt 0.5 0.984375
vt 0.5 1
vt 0.59375 1
vt 0.6875 1
vt 0.59375 1
vt 0.59375 0.984375
vt 0.6875 0.984375
vn 0 0 -1
vn 1 0 0
vn 0 0 1
vn -1 0 0
vn 0 1 0
vn 0 -1 0
usemtl m_8a6d0904-c0b6-8bad-11b9-26b8495cb6b9
f 44/124/31 47/123/31 45/122/31 42/121/31
f 43/128/32 44/127/32 42/126/32 41/125/32
f 48/132/33 43/131/33 41/130/33 46/129/33
f 47/136/34 48/135/34 46/134/34 45/133/34
f 46/140/35 41/139/35 42/138/35 45/137/35
f 47/144/36 44/143/36 43/142/36 48/141/36
o cube
v 0.1875 0.7562500000000001 0.1875
v 0.1875 0.7562500000000001 0.125
v 0.1875 0.6312500000000001 0.1875
v 0.1875 0.6312500000000001 0.125
v -0.1875 0.7562500000000001 0.125
v -0.1875 0.7562500000000001 0.1875
v -0.1875 0.6312500000000001 0.125
v -0.1875 0.6312500000000001 0.1875
vt 0.1875 0.515625
vt 0.28125 0.515625
vt 0.28125 0.484375
vt 0.1875 0.484375
vt 0.171875 0.515625
vt 0.1875 0.515625
vt 0.1875 0.484375
vt 0.171875 0.484375
vt 0.296875 0.515625
vt 0.390625 0.515625
vt 0.390625 0.484375
vt 0.296875 0.484375
vt 0.28125 0.515625
vt 0.296875 0.515625
vt 0.296875 0.484375
vt 0.28125 0.484375
vt 0.28125 0.515625
vt 0.1875 0.515625
vt 0.1875 0.53125
vt 0.28125 0.53125
vt 0.375 0.53125
vt 0.28125 0.53125
vt 0.28125 0.515625
vt 0.375 0.515625
vn 0 0 -1
vn 1 0 0
vn 0 0 1
vn -1 0 0
vn 0 1 0
vn 0 -1 0
usemtl m_8a6d0904-c0b6-8bad-11b9-26b8495cb6b9
f 52/148/37 55/147/37 53/146/37 50/145/37
f 51/152/38 52/151/38 50/150/38 49/149/38
f 56/156/39 51/155/39 49/154/39 54/153/39
f 55/160/40 56/159/40 54/158/40 53/157/40
f 54/164/41 49/163/41 50/162/41 53/161/41
f 55/168/42 52/167/42 51/166/42 56/165/42
o cube
v 0.1875 0.7562500000000001 0.125
v 0.1875 0.7562500000000001 -0.125
v 0.1875 0.6312500000000001 0.125
v 0.1875 0.6312500000000001 -0.125
v 0.125 0.7562500000000001 -0.125
v 0.125 0.7562500000000001 0.125
v 0.125 0.6312500000000001 -0.125
v 0.125 0.6312500000000001 0.125
vt 0.15625 0.421875
vt 0.171875 0.421875
vt 0.171875 0.390625
vt 0.15625 0.390625
vt 0.09375 0.421875
vt 0.15625 0.421875
vt 0.15625 0.390625
vt 0.09375 0.390625
vt 0.234375 0.421875
vt 0.25 0.421875
vt 0.25 0.390625
vt 0.234375 0.390625
vt 0.171875 0.421875
vt 0.234375 0.421875
vt 0.234375 0.390625
vt 0.171875 0.390625
vt 0.171875 0.421875
vt 0.15625 0.421875
vt 0.15625 0.484375
vt 0.171875 0.484375
vt 0.1875 0.484375
vt 0.171875 0.484375
vt 0.171875 0.421875
vt 0.1875 0.421875
vn 0 0 -1
vn 1 0 0
vn 0 0 1
vn -1 0 0
vn 0 1 0
vn 0 -1 0
usemtl m_8a6d0904-c0b6-8bad-11b9-26b8495cb6b9
f 60/172/43 63/171/43 61/170/43 58/169/43
f 59/176/44 60/175/44 58/174/44 57/173/44
f 64/180/45 59/179/45 57/178/45 62/177/45
f 63/184/46 64/183/46 62/182/46 61/181/46
f 62/188/47 57/187/47 58/186/47 61/185/47
f 63/192/48 60/191/48 59/190/48 64/189/48
o cube
v -0.125 0.7562500000000001 0.125
v -0.125 0.7562500000000001 -0.125
v -0.125 0.6312500000000001 0.125
v -0.125 0.6312500000000001 -0.125
v -0.1875 0.7562500000000001 -0.125
v -0.1875 0.7562500000000001 0.125
v -0.1875 0.6312500000000001 -0.125
v -0.1875 0.6312500000000001 0.125
vt 0.0625 0.453125
vt 0.078125 0.453125
vt 0.078125 0.421875
vt 0.0625 0.421875
vt 0 0.453125
vt 0.0625 0.453125
vt 0.0625 0.421875
vt 0 0.421875
vt 0.140625 0.453125
vt 0.15625 0.453125
vt 0.15625 0.421875
vt 0.140625 0.421875
vt 0.078125 0.453125
vt 0.140625 0.453125
vt 0.140625 0.421875
vt 0.078125 0.421875
vt 0.078125 0.453125
vt 0.0625 0.453125
vt 0.0625 0.515625
vt 0.078125 0.515625
vt 0.09375 0.515625
vt 0.078125 0.515625
vt 0.078125 0.453125
vt 0.09375 0.453125
vn 0 0 -1
vn 1 0 0
vn 0 0 1
vn -1 0 0
vn 0 1 0
vn 0 -1 0
usemtl m_8a6d0904-c0b6-8bad-11b9-26b8495cb6b9
f 68/196/49 71/195/49 69/194/49 66/193/49
f 67/200/50 68/199/50 66/198/50 65/197/50
f 72/204/51 67/203/51 65/202/51 70/201/51
f 71/208/52 72/207/52 70/206/52 69/205/52
f 70/212/53 65/211/53 66/210/53 69/209/53
f 71/216/54 68/215/54 67/214/54 72/213/54
o cube
v 0.15625 0.5687500000000001 0.15625
v 0.15625 0.5687500000000001 -0.15625
v 0.15625 0.06874999999999998 0.15625
v 0.15625 0.06874999999999998 -0.15625
v -0.15625 0.5687500000000001 -0.15625
v -0.15625 0.5687500000000001 0.15625
v -0.15625 0.06874999999999998 -0.15625
v -0.15625 0.06874999999999998 0.15625
vt 0.078125 0.796875
vt 0.15625 0.796875
vt 0.15625 0.671875
vt 0.078125 0.671875
vt 0 0.796875
vt 0.078125 0.796875
vt 0.078125 0.671875
vt 0 0.671875
vt 0.234375 0.796875
vt 0.3125 0.796875
vt 0.3125 0.671875
vt 0.234375 0.671875
vt 0.15625 0.796875
vt 0.234375 0.796875
vt 0.234375 0.671875
vt 0.15625 0.671875
vt 0.15625 0.796875
vt 0.078125 0.796875
vt 0.078125 0.875
vt 0.15625 0.875
vt 0.234375 0.875
vt 0.15625 0.875
vt 0.15625 0.796875
vt 0.234375 0.796875
vn 0 0 -1
vn 1 0 0
vn 0 0 1
vn -1 0 0
vn 0 1 0
vn 0 -1 0
usemtl m_8a6d0904-c0b6-8bad-11b9-26b8495cb6b9
f 76/220/55 79/219/55 77/218/55 74/217/55
f 75/224/56 76/223/56 74/222/56 73/221/56
f 80/228/57 75/227/57 73/226/57 78/225/57
f 79/232/58 80/231/58 78/230/58 77/229/58
f 78/236/59 73/235/59 74/234/59 77/233/59
f 79/240/60 76/239/60 75/238/60 80/237/60
o cube
v -0.03227725521911817 0.6059749723065 -0.03144316298922961
v -0.03227725521911817 0.587180859837483 -0.09105047241099379
v -0.04845344553802566 0.5483987327004143 -0.013289444373224601
v -0.04845344553802566 0.5296046202313973 -0.07289675379498883
v -0.09264761936218491 0.6026083667431545 -0.0959147466537742
v -0.09264761936218491 0.6214024792121715 -0.036307437232009965
v -0.10882380968109245 0.5450321271370686 -0.07776102803776919
v -0.10882380968109245 0.5638262396060858 -0.01815371861600501
vt 0.0625 0.90625
vt 0.078125 0.90625
vt 0.078125 0.890625
vt 0.0625 0.890625
vt 0.046875 0.90625
vt 0.0625 0.90625
vt 0.0625 0.890625
vt 0.046875 0.890625
vt 0.09375 0.90625
vt 0.109375 0.90625
vt 0.109375 0.890625
vt 0.09375 0.890625
vt 0.078125 0.90625
vt 0.09375 0.90625
vt 0.09375 0.890625
vt 0.078125 0.890625
vt 0.078125 0.90625
vt 0.0625 0.90625
vt 0.0625 0.921875
vt 0.078125 0.921875
vt 0.09375 0.921875
vt 0.078125 0.921875
vt 0.078125 0.90625
vt 0.09375 0.90625
vn 0 -0.3007057995042731 -0.953716950748227
vn 0.9659258262890683 -0.2468401104907439 0.07782838788448602
vn 0 0.3007057995042731 0.953716950748227
vn -0.9659258262890683 0.2468401104907439 -0.07782838788448602
vn 0.25881904510252074 0.9212198336973718 -0.2904594978560799
vn -0.25881904510252074 -0.9212198336973718 0.2904594978560799
usemtl m_8a6d0904-c0b6-8bad-11b9-26b8495cb6b9
f 84/244/61 87/243/61 85/242/61 82/241/61
f 83/248/62 84/247/62 82/246/62 81/245/62
f 88/252/63 83/251/63 81/250/63 86/249/63
f 87/256/64 88/255/64 86/254/64 85/253/64
f 86/260/65 81/259/65 82/258/65 85/257/65
f 87/264/66 84/263/66 83/262/66 88/261/66
o cube
v -0.008373412263472602 0.6236715431318567 0.08305058608599014
v -0.008373412263472546 0.6048774306628397 0.023443276664225965
v 0.022876587736527454 0.5720500989213693 0.09932676492574077
v 0.022876587736527454 0.5532559864523523 0.0397194555039766
v -0.0625 0.5750737759519575 0.03284033289873456
v -0.0625 0.5938678884209745 0.09244764232049874
v -0.03125 0.5234523317414701 0.04911651173848519
v -0.03125 0.5422464442104873 0.10872382116024937
vt 0.015625 0.984375
vt 0.03125 0.984375
vt 0.03125 0.96875
vt 0.015625 0.96875
vt 0 0.984375
vt 0.015625 0.984375
vt 0.015625 0.96875
vt 0 0.96875
vt 0.046875 0.984375
vt 0.0625 0.984375
vt 0.0625 0.96875
vt 0.046875 0.96875
vt 0.03125 0.984375
vt 0.046875 0.984375
vt 0.046875 0.96875
vt 0.03125 0.96875
vt 0.03125 0.984375
vt 0.015625 0.984375
vt 0.015625 1
vt 0.03125 1
vt 0.046875 1
vt 0.03125 1
vt 0.03125 0.984375
vt 0.046875 0.984375
vn 1.2490009027033014e-16 -0.30070579950427295 -0.953716950748227
vn 0.8660254037844386 0.47685847537411347 -0.15035289975213628
vn -1.2490009027033014e-16 0.30070579950427295 0.953716950748227
vn -0.8660254037844386 -0.47685847537411347 0.15035289975213628
vn -0.5 0.825943107367797 -0.2604188614360105
vn 0.5 -0.825943107367797 0.2604188614360105
usemtl m_8a6d0904-c0b6-8bad-11b9-26b8495cb6b9
f 92/268/67 95/267/67 93/266/67 90/265/67
f 91/272/68 92/271/68 90/270/68 89/269/68
f 96/276/69 91/275/69 89/274/69 94/273/69
f 95/280/70 96/279/70 94/278/70 93/277/70
f 94/284/71 89/283/71 90/282/71 93/281/71
f 95/288/72 92/287/72 91/286/72 96/285/72
o cube
v 0.1754883074140473 0.9808705276888354 0.046875
v 0.1754883074140473 0.9808705276888354 -0.015625
v 0.06726850044499577 0.49272252412886863 0.046875
v 0.06726850044499577 0.49272252412886863 -0.015625
v 0.11446980696905151 0.9943980035599669 -0.015625
v 0.11446980696905151 0.9943980035599669 0.046875
v 0.006249999999999978 0.5062500000000001 -0.015625
v 0.006249999999999978 0.5062500000000001 0.046875
vt 0.40625 0.515625
vt 0.421875 0.515625
vt 0.421875 0.390625
vt 0.40625 0.390625
vt 0.390625 0.515625
vt 0.40625 0.515625
vt 0.40625 0.390625
vt 0.390625 0.390625
vt 0.4375 0.515625
vt 0.453125 0.515625
vt 0.453125 0.390625
vt 0.4375 0.390625
vt 0.421875 0.515625
vt 0.4375 0.515625
vt 0.4375 0.390625
vt 0.421875 0.390625
vt 0.421875 0.515625
vt 0.40625 0.515625
vt 0.40625 0.53125
vt 0.421875 0.53125
vt 0.4375 0.53125
vt 0.421875 0.53125
vt 0.421875 0.515625
vt 0.4375 0.515625
vn 0 0 -1
vn 0.9762960071199334 -0.21643961393810288 0
vn 0 0 1
vn -0.9762960071199334 0.21643961393810288 0
vn 0.21643961393810288 0.9762960071199334 0
vn -0.21643961393810288 -0.9762960071199334 0
usemtl m_8a6d0904-c0b6-8bad-11b9-26b8495cb6b9
f 100/292/73 103/291/73 101/290/73 98/289/73
f 99/296/74 100/295/74 98/294/74 97/293/74
f 104/300/75 99/299/75 97/298/75 102/297/75
f 103/304/76 104/303/76 102/302/76 101/301/76
f 102/308/77 97/307/77 98/306/77 101/305/77
f 103/312/78 100/311/78 99/310/78 104/309/78
o cube
v 0.15776578328517865 1.041889028133831 0.078125
v 0.15776578328517865 1.041889028133831 -0.046875
v 0.10365587980065294 0.7978150263538477 0.078125
v 0.10365587980065294 0.7978150263538477 -0.046875
v 0.15776578328517865 1.041889028133831 -0.046875
v 0.15776578328517865 1.041889028133831 0.078125
v 0.10365587980065294 0.7978150263538477 -0.046875
v 0.10365587980065294 0.7978150263538477 0.078125
vt 0.03125 0.96875
vt 0.03125 0.96875
vt 0.03125 0.90625
vt 0.03125 0.90625
vt 0 0.96875
vt 0.03125 0.96875
vt 0.03125 0.90625
vt 0 0.90625
vt 0.0625 0.96875
vt 0.0625 0.96875
vt 0.0625 0.90625
vt 0.0625 0.90625
vt 0.03125 0.96875
vt 0.0625 0.96875
vt 0.0625 0.90625
vt 0.03125 0.90625
vt 0.03125 0.96875
vt 0.03125 0.96875
vt 0.03125 1
vt 0.03125 1
vt 0.03125 1
vt 0.03125 1
vt 0.03125 0.96875
vt 0.03125 0.96875
vn 0 0 -1
vn 0.9762960071199334 -0.21643961393810288 0
vn 0 0 1
vn -0.9762960071199334 0.21643961393810288 0
vn 0.21643961393810288 0.9762960071199334 0
vn -0.21643961393810288 -0.9762960071199334 0
usemtl m_8a6d0904-c0b6-8bad-11b9-26b8495cb6b9
f 108/316/79 111/315/79 109/314/79 106/313/79
f 107/320/80 108/319/80 106/318/80 105/317/80
f 112/324/81 107/323/81 105/322/81 110/321/81
f 111/328/82 112/327/82 110/326/82 109/325/82
f 110/332/83 105/331/83 106/330/83 109/329/83
f 111/336/84 108/335/84 107/334/84 112/333/84
o cube
v 0.21878428373017456 1.0283615522626999 0.015625
v 0.21878428373017456 1.0283615522626999 0.015625
v 0.16467438024564884 0.7842875504827163 0.015625
v 0.16467438024564884 0.7842875504827163 0.015625
v 0.09674728284018286 1.0554165040049626 0.015625
v 0.09674728284018286 1.0554165040049626 0.015625
v 0.042637379355657146 0.8113425022249792 0.015625
v 0.042637379355657146 0.8113425022249792 0.015625
vt 0.234375 0.875
vt 0.265625 0.875
vt 0.265625 0.8125
vt 0.234375 0.8125
vt 0.234375 0.875
vt 0.234375 0.875
vt 0.234375 0.8125
vt 0.234375 0.8125
vt 0.265625 0.875
vt 0.296875 0.875
vt 0.296875 0.8125
vt 0.265625 0.8125
vt 0.265625 0.875
vt 0.265625 0.875
vt 0.265625 0.8125
vt 0.265625 0.8125
vt 0.265625 0.875
vt 0.234375 0.875
vt 0.234375 0.875
vt 0.265625 0.875
vt 0.296875 0.875
vt 0.265625 0.875
vt 0.265625 0.875
vt 0.296875 0.875
vn 0 0 -1
vn 0.9762960071199334 -0.21643961393810288 0
vn 0 0 1
vn -0.9762960071199334 0.21643961393810288 0
vn 0.21643961393810288 0.9762960071199334 0
vn -0.21643961393810288 -0.9762960071199334 0
usemtl m_8a6d0904-c0b6-8bad-11b9-26b8495cb6b9
f 116/340/85 119/339/85 117/338/85 114/337/85
f 115/344/86 116/343/86 114/342/86 113/341/86
f 120/348/87 115/347/87 113/346/87 118/345/87
f 119/352/88 120/351/88 118/350/88 117/349/88
f 118/356/89 113/355/89 114/354/89 117/353/89
f 119/360/90 116/359/90 115/358/90 120/357/90
o cube
v 0.10624999999999996 0.8748336460303578 -0.06195714416503867
v 0.12242619031890756 0.8669537322758254 -0.1218110314739479
v 0.10624999999999996 0.13124999999999998 0.035937499999999956
v 0.12242619031890756 0.12337008624546753 -0.02391638730890927
v 0.06205582617584082 0.8648423157488714 -0.1378488322422336
v 0.04587963585693322 0.8727222295034038 -0.07799494493332432
v 0.06205582617584082 0.12125866971851373 -0.03995418807719492
v 0.04587963585693322 0.12913858347304608 0.019899699231714307
vt 0.46875 0.5625
vt 0.484375 0.5625
vt 0.484375 0.375
vt 0.46875 0.375
vt 0.453125 0.5625
vt 0.46875 0.5625
vt 0.46875 0.375
vt 0.453125 0.375
vt 0.5 0.5625
vt 0.515625 0.5625
vt 0.515625 0.375
vt 0.5 0.375
vt 0.484375 0.5625
vt 0.5 0.5625
vt 0.5 0.375
vt 0.484375 0.375
vt 0.484375 0.5625
vt 0.46875 0.5625
vt 0.46875 0.578125
vt 0.484375 0.578125
vt 0.5 0.578125
vt 0.484375 0.578125
vt 0.484375 0.5625
vt 0.5 0.5625
vn 0.25881904510252074 -0.12607862007251905 -0.9576621969425486
vn 0.9659258262890683 0.033782664431261815 0.2566048122925706
vn -0.25881904510252074 0.12607862007251905 0.9576621969425486
vn -0.9659258262890683 -0.033782664431261815 -0.2566048122925706
vn -2.7755575615628914e-17 0.9914448613738104 -0.13052619222005155
vn 2.7755575615628914e-17 -0.9914448613738104 0.13052619222005155
usemtl m_8a6d0904-c0b6-8bad-11b9-26b8495cb6b9
f 124/364/91 127/363/91 125/362/91 122/361/91
f 123/368/92 124/367/92 122/366/92 121/365/92
f 128/372/93 123/371/93 121/370/93 126/369/93
f 127/376/94 128/375/94 126/374/94 125/373/94
f 126/380/95 121/379/95 122/378/95 125/377/95
f 127/384/96 124/383/96 123/382/96 128/381/96
o cube
v 0.16489242900245116 0.9510178132241043 -0.29273200889187057
v 0.1717287824366146 0.8915279803779623 -0.3106337981784557
v 0.10624999999999984 0.8748336460303576 -0.061957144165038336
v 0.11308635343416329 0.8153438131842157 -0.07985893345162343
v 0.11135841829354787 0.8894165638510085 -0.32667159894674147
v 0.10452206485938442 0.9489063966971505 -0.3087698096601563
v 0.052715989291096554 0.8132323966572619 -0.09589673421990913
v 0.04587963585693311 0.8727222295034038 -0.07799494493332404
vt 0.015625 0.859375
vt 0.03125 0.859375
vt 0.03125 0.796875
vt 0.015625 0.796875
vt 0 0.859375
vt 0.015625 0.859375
vt 0.015625 0.796875
vt 0 0.796875
vt 0.046875 0.859375
vt 0.0625 0.859375
vt 0.0625 0.796875
vt 0.046875 0.796875
vt 0.03125 0.859375
vt 0.046875 0.859375
vt 0.046875 0.796875
vt 0.03125 0.796875
vt 0.03125 0.859375
vt 0.015625 0.859375
vt 0.015625 0.875
vt 0.03125 0.875
vt 0.046875 0.875
vt 0.03125 0.875
vt 0.03125 0.859375
vt 0.046875 0.859375
vn 0.1093816549466147 -0.9518373255382712 -0.2864286285853619
vn 0.9659258262890683 0.033782664431261836 0.2566048122925711
vn -0.1093816549466147 0.9518373255382712 0.2864286285853619
vn -0.9659258262890683 -0.033782664431261836 -0.2566048122925711
vn 0.23456971600980506 0.3047366687749872 -0.9230994589073288
vn -0.23456971600980506 -0.3047366687749872 0.9230994589073288
usemtl m_8a6d0904-c0b6-8bad-11b9-26b8495cb6b9
f 132/388/97 135/387/97 133/386/97 130/385/97
f 131/392/98 132/391/98 130/390/98 129/389/98
f 136/396/99 131/395/99 129/394/99 134/393/99
f 135/400/100 136/399/100 134/398/100 133/397/100
f 134/404/101 129/403/101 130/402/101 133/401/101
f 135/408/102 132/407/102 131/406/102 136/405/102
o cube
v -0.06306713585693324 0.8039151145835977 0.13400595159453765
v -0.06306713585693324 0.8039151145835977 0.13400595159453765
v -0.06306713585693324 0.5020632938682636 0.05312499999999998
v -0.06306713585693324 0.5020632938682636 0.05312499999999998
v -0.12343749999999998 0.8081018207153339 0.11838095159453765
v -0.12343749999999998 0.8081018207153339 0.11838095159453765
v -0.12343749999999998 0.5062500000000001 0.03749999999999998
v -0.12343749999999998 0.5062500000000001 0.03749999999999998
vt 0.0625 1
vt 0.078125 1
vt 0.078125 0.921875
vt 0.0625 0.921875
vt 0.0625 1
vt 0.0625 1
vt 0.0625 0.921875
vt 0.0625 0.921875
vt 0.078125 1
vt 0.09375 1
vt 0.09375 0.921875
vt 0.078125 0.921875
vt 0.078125 1
vt 0.078125 1
vt 0.078125 0.921875
vt 0.078125 0.921875
vt 0.078125 1
vt 0.0625 1
vt 0.0625 1
vt 0.078125 1
vt 0.09375 1
vt 0.078125 1
vt 0.078125 1
vt 0.09375 1
vn 0.25881904510252063 0.24999999999999972 -0.9330127018922194
vn 0.9659258262890683 -0.06698729810778055 0.2499999999999999
vn -0.25881904510252063 -0.24999999999999972 0.9330127018922194
vn -0.9659258262890683 0.06698729810778055 -0.2499999999999999
vn 0 0.9659258262890684 0.25881904510252046
vn 0 -0.9659258262890684 -0.25881904510252046
usemtl m_8a6d0904-c0b6-8bad-11b9-26b8495cb6b9
f 140/412/103 143/411/103 141/410/103 138/409/103
f 139/416/104 140/415/104 138/414/104 137/413/104
f 144/420/105 139/419/105 137/418/105 142/417/105
f 143/424/106 144/423/106 142/422/106 141/421/106
f 142/428/107 137/427/107 138/426/107 141/425/107
f 143/432/108 140/431/108 139/430/108 144/429/108
o cube
v 0.05767359242920023 1.0370231588923922 0.22996071287016773
v 0.05767359242920023 1.0370231588923922 0.22996071287016773
v 0.05767359242920023 0.795541702320125 0.16525595159453754
v 0.05767359242920023 0.795541702320125 0.16525595159453754
v -0.24417822828613356 1.0579566895510735 0.15183571287016773
v -0.24417822828613356 1.0579566895510735 0.15183571287016773
v -0.2441782282861335 0.8164752329788063 0.08713095159453765
v -0.2441782282861335 0.8164752329788063 0.08713095159453765
vt 0.484375 0.953125
vt 0.5625 0.953125
vt 0.5625 0.890625
vt 0.484375 0.890625
vt 0.484375 0.953125
vt 0.484375 0.953125
vt 0.484375 0.890625
vt 0.484375 0.890625
vt 0.5625 0.953125
vt 0.640625 0.953125
vt 0.640625 0.890625
vt 0.5625 0.890625
vt 0.5625 0.953125
vt 0.5625 0.953125
vt 0.5625 0.890625
vt 0.5625 0.890625
vt 0.5625 0.953125
vt 0.484375 0.953125
vt 0.484375 0.953125
vt 0.5625 0.953125
vt 0.640625 0.953125
vt 0.5625 0.953125
vt 0.5625 0.953125
vt 0.640625 0.953125
vn 0.25881904510252063 0.24999999999999972 -0.9330127018922194
vn 0.9659258262890683 -0.06698729810778055 0.2499999999999999
vn -0.25881904510252063 -0.24999999999999972 0.9330127018922194
vn -0.9659258262890683 0.06698729810778055 -0.2499999999999999
vn 0 0.9659258262890684 0.25881904510252046
vn 0 -0.9659258262890684 -0.25881904510252046
usemtl m_8a6d0904-c0b6-8bad-11b9-26b8495cb6b9
f 148/436/109 151/435/109 149/434/109 146/433/109
f 147/440/110 148/439/110 146/438/110 145/437/110
f 152/444/111 147/443/111 145/442/111 150/441/111
f 151/448/112 152/447/112 150/446/112 149/445/112
f 150/452/113 145/451/113 146/450/113 149/449/113
f 151/456/114 148/455/114 147/454/114 152/453/114