# Made in Blockbench 4.6.4
mtllib bacon_eggs.mtl

o cube
v 0.43442097400467694 0.004687499999999956 0.30418484075447916
v 0.30418484075447916 0.004687499999999956 -0.4344209740046769
v 0.43442097400467694 0.004687499999999956 0.30418484075447916
v 0.30418484075447916 0.004687499999999956 -0.4344209740046769
v -0.4344209740046769 0.004687499999999956 -0.3041848407544791
v -0.3041848407544791 0.004687499999999956 0.43442097400467694
v -0.4344209740046769 0.004687499999999956 -0.3041848407544791
v -0.3041848407544791 0.004687499999999956 0.43442097400467694
vt 0.1875 0.8125
vt 0.375 0.8125
vt 0.375 0.8125
vt 0.1875 0.8125
vt 0 0.8125
vt 0.1875 0.8125
vt 0.1875 0.8125
vt 0 0.8125
vt 0.5625 0.8125
vt 0.75 0.8125
vt 0.75 0.8125
vt 0.5625 0.8125
vt 0.375 0.8125
vt 0.5625 0.8125
vt 0.5625 0.8125
vt 0.375 0.8125
vt 0.375 0.8125
vt 0.1875 0.8125
vt 0.1875 1
vt 0.375 1
vt 0.5625 1
vt 0.375 1
vt 0.375 0.8125
vt 0.5625 0.8125
vn -0.17364817766693033 0 -0.984807753012208
vn 0.984807753012208 0 -0.17364817766693033
vn 0.17364817766693033 0 0.984807753012208
vn -0.984807753012208 0 0.17364817766693033
vn 0 1 0
vn 0 -1 0
usemtl m_dfd08898-a927-c634-02c1-f958d2ae8f9e
f 4/4/1 7/3/1 5/2/1 2/1/1
f 3/8/2 4/7/2 2/6/2 1/5/2
f 8/12/3 3/11/3 1/10/3 6/9/3
f 7/16/4 8/15/4 6/14/4 5/13/4
f 6/20/5 1/19/5 2/18/5 5/17/5
f 7/24/6 4/23/6 3/22/6 8/21/6
o cube
v 0.3125 0.010937500000000044 0.0625
v 0.3125 0.010937500000000044 -0.3125
v 0.3125 0.010937500000000044 0.0625
v 0.3125 0.010937500000000044 -0.3125
v -0.0625 0.010937500000000044 -0.3125
v -0.0625 0.010937500000000044 0.0625
v -0.0625 0.010937500000000044 -0.3125
v -0.0625 0.010937500000000044 0.0625
vt 0.09375 0.515625
vt 0.1875 0.515625
vt 0.1875 0.515625
vt 0.09375 0.515625
vt 0 0.515625
vt 0.09375 0.515625
vt 0.09375 0.515625
vt 0 0.515625
vt 0.28125 0.515625
vt 0.375 0.515625
vt 0.375 0.515625
vt 0.28125 0.515625
vt 0.1875 0.515625
vt 0.28125 0.515625
vt 0.28125 0.515625
vt 0.1875 0.515625
vt 0.1875 0.515625
vt 0.09375 0.515625
vt 0.09375 0.609375
vt 0.1875 0.609375
vt 0.28125 0.609375
vt 0.1875 0.609375
vt 0.1875 0.515625
vt 0.28125 0.515625
vn 0 0 -1
vn 1 0 0
vn 0 0 1
vn -1 0 0
vn 0 1 0
vn 0 -1 0
usemtl m_dfd08898-a927-c634-02c1-f958d2ae8f9e
f 12/28/7 15/27/7 13/26/7 10/25/7
f 11/32/8 12/31/8 10/30/8 9/29/8
f 16/36/9 11/35/9 9/34/9 14/33/9
f 15/40/10 16/39/10 14/38/10 13/37/10
f 14/44/11 9/43/11 10/42/11 13/41/11
f 15/48/12 12/47/12 11/46/12 16/45/12
o cube
v 0.1875 0.07499999999999996 -0.125
v 0.1875 0.07499999999999996 -0.25
v 0.1875 0.012499999999999956 -0.125
v 0.1875 0.012499999999999956 -0.25
v 0.0625 0.07499999999999996 -0.25
v 0.0625 0.07499999999999996 -0.125
v 0.0625 0.012499999999999956 -0.25
v 0.0625 0.012499999999999956 -0.125
vt 0.03125 0.90625
vt 0.0625 0.90625
vt 0.0625 0.890625
vt 0.03125 0.890625
vt 0 0.90625
vt 0.03125 0.90625
vt 0.03125 0.890625
vt 0 0.890625
vt 0.09375 0.90625
vt 0.125 0.90625
vt 0.125 0.890625
vt 0.09375 0.890625
vt 0.0625 0.90625
vt 0.09375 0.90625
vt 0.09375 0.890625
vt 0.0625 0.890625
vt 0.0625 0.90625
vt 0.03125 0.90625
vt 0.03125 0.9375
vt 0.0625 0.9375
vt 0.09375 0.9375
vt 0.0625 0.9375
vt 0.0625 0.90625
vt 0.09375 0.90625
vn 0 0 -1
vn 1 0 0
vn 0 0 1
vn -1 0 0
vn 0 1 0
vn 0 -1 0
usemtl m_dfd08898-a927-c634-02c1-f958d2ae8f9e
f 20/52/13 23/51/13 21/50/13 18/49/13
f 19/56/14 20/55/14 18/54/14 17/53/14
f 24/60/15 19/59/15 17/58/15 22/57/15
f 23/64/16 24/63/16 22/62/16 21/61/16
f 22/68/17 17/67/17 18/66/17 21/65/17
f 23/72/18 20/71/18 19/70/18 24/69/18
o cube
v 0.36020426567234376 0.017187500000000022 0.2474395908582414
v 0.2474395908582414 0.017187500000000022 -0.11020426567234376
v 0.36020426567234376 0.017187500000000022 0.2474395908582414
v 0.2474395908582414 0.017187500000000022 -0.11020426567234376
v -0.11020426567234376 0.017187500000000022 0.0025604091417585906
v 0.0025604091417585906 0.017187500000000022 0.36020426567234376
v -0.11020426567234376 0.017187500000000022 0.0025604091417585906
v 0.0025604091417585906 0.017187500000000022 0.36020426567234376
vt 0.453125 0.546875
vt 0.546875 0.546875
vt 0.546875 0.546875
vt 0.453125 0.546875
vt 0.359375 0.546875
vt 0.453125 0.546875
vt 0.453125 0.546875
vt 0.359375 0.546875
vt 0.640625 0.546875
vt 0.734375 0.546875
vt 0.734375 0.546875
vt 0.640625 0.546875
vt 0.546875 0.546875
vt 0.640625 0.546875
vt 0.640625 0.546875
vt 0.546875 0.546875
vt 0.546875 0.546875
vt 0.453125 0.546875
vt 0.453125 0.640625
vt 0.546875 0.640625
vt 0.640625 0.640625
vt 0.546875 0.640625
vt 0.546875 0.546875
vt 0.640625 0.546875
vn -0.30070579950427306 0 -0.9537169507482269
vn 0.9537169507482269 0 -0.30070579950427306
vn 0.30070579950427306 0 0.9537169507482269
vn -0.9537169507482269 0 0.30070579950427306
vn 0 1 0
vn 0 -1 0
usemtl m_dfd08898-a927-c634-02c1-f958d2ae8f9e
f 28/76/19 31/75/19 29/74/19 26/73/19
f 27/80/20 28/79/20 26/78/20 25/77/20
f 32/84/21 27/83/21 25/82/21 30/81/21
f 31/88/22 32/87/22 30/86/22 29/85/22
f 30/92/23 25/91/23 26/90/23 29/89/23
f 31/96/24 28/95/24 27/94/24 32/93/24
o cube
v 0.20340142189078125 0.08124999999999993 0.1658131969527471
v 0.1658131969527471 0.08124999999999993 0.04659857810921875
v 0.20340142189078125 0.018750000000000044 0.1658131969527471
v 0.1658131969527471 0.018750000000000044 0.04659857810921875
v 0.04659857810921875 0.08124999999999993 0.0841868030472529
v 0.0841868030472529 0.08124999999999993 0.20340142189078125
v 0.04659857810921875 0.018750000000000044 0.0841868030472529
v 0.0841868030472529 0.018750000000000044 0.20340142189078125
vt 0.03125 0.96875
vt 0.0625 0.96875
vt 0.0625 0.953125
vt 0.03125 0.953125
vt 0 0.96875
vt 0.03125 0.96875
vt 0.03125 0.953125
vt 0 0.953125
vt 0.09375 0.96875
vt 0.125 0.96875
vt 0.125 0.953125
vt 0.09375 0.953125
vt 0.0625 0.96875
vt 0.09375 0.96875
vt 0.09375 0.953125
vt 0.0625 0.953125
vt 0.0625 0.96875
vt 0.03125 0.96875
vt 0.03125 1
vt 0.0625 1
vt 0.09375 1
vt 0.0625 1
vt 0.0625 0.96875
vt 0.09375 0.96875
vn -0.30070579950427306 0 -0.9537169507482269
vn 0.9537169507482269 0 -0.30070579950427306
vn 0.30070579950427306 0 0.9537169507482269
vn -0.9537169507482269 0 0.30070579950427306
vn 0 1 0
vn 0 -1 0
usemtl m_dfd08898-a927-c634-02c1-f958d2ae8f9e
f 36/100/25 39/99/25 37/98/25 34/97/25
f 35/104/26 36/103/26 34/102/26 33/101/26
f 40/108/27 35/107/27 33/106/27 38/105/27
f 39/112/28 40/111/28 38/110/28 37/109/28
f 38/116/29 33/115/29 34/114/29 37/113/29
f 39/120/30 36/119/30 35/118/30 40/117/30
o cube
v -0.0692763389587403 0.03281250000000002 0.31089591150758944
v -0.14269732208251934 0.03281250000000002 -0.24679182301517888
v -0.0692763389587403 0.03281250000000002 0.31089591150758944
v -0.14269732208251934 0.03281250000000002 -0.24679182301517888
v -0.3285932335901088 0.03281250000000002 -0.22231816197391918
v -0.25517225046632974 0.03281250000000002 0.33536957254884914
v -0.3285932335901088 0.03281250000000002 -0.22231816197391918
v -0.25517225046632974 0.03281250000000002 0.33536957254884914
vt 0.421875 0.65625
vt 0.46875 0.65625
vt 0.46875 0.65625
vt 0.421875 0.65625
vt 0.28125 0.65625
vt 0.421875 0.65625
vt 0.421875 0.65625
vt 0.28125 0.65625
vt 0.609375 0.65625
vt 0.65625 0.65625
vt 0.65625 0.65625
vt 0.609375 0.65625
vt 0.46875 0.65625
vt 0.609375 0.65625
vt 0.609375 0.65625
vt 0.46875 0.65625
vt 0.46875 0.65625
vt 0.421875 0.65625
vt 0.421875 0.796875
vt 0.46875 0.796875
vt 0.515625 0.796875
vt 0.46875 0.796875
vt 0.46875 0.65625
vt 0.515625 0.65625
vn -0.13052619222005157 0 -0.9914448613738104
vn 0.9914448613738104 0 -0.13052619222005157
vn 0.13052619222005157 0 0.9914448613738104
vn -0.9914448613738104 0 0.13052619222005157
vn 0 1 0
vn 0 -1 0
usemtl m_dfd08898-a927-c634-02c1-f958d2ae8f9e
f 44/124/31 47/123/31 45/122/31 42/121/31
f 43/128/32 44/127/32 42/126/32 41/125/32
f 48/132/33 43/131/33 41/130/33 46/129/33
f 47/136/34 48/135/34 46/134/34 45/133/34
f 46/140/35 41/139/35 42/138/35 45/137/35
f 47/144/36 44/143/36 43/142/36 48/141/36
o cube
v -0.0692763389587403 0.017187500000000022 0.37339591150758944
v -0.1590130961100258 0.017187500000000022 -0.3082224306869052
v -0.0692763389587403 0.017187500000000022 0.37339591150758944
v -0.1590130961100258 0.017187500000000022 -0.3082224306869052
v -0.3449090076176152 0.017187500000000022 -0.28374876964564555
v -0.25517225046632974 0.017187500000000022 0.39786957254884914
v -0.3449090076176152 0.017187500000000022 -0.28374876964564555
v -0.25517225046632974 0.017187500000000022 0.39786957254884914
vt 0.171875 0.625
vt 0.21875 0.625
vt 0.21875 0.625
vt 0.171875 0.625
vt 0 0.625
vt 0.171875 0.625
vt 0.171875 0.625
vt 0 0.625
vt 0.390625 0.625
vt 0.4375 0.625
vt 0.4375 0.625
vt 0.390625 0.625
vt 0.21875 0.625
vt 0.390625 0.625
vt 0.390625 0.625
vt 0.21875 0.625
vt 0.21875 0.625
vt 0.171875 0.625
vt 0.171875 0.796875
vt 0.21875 0.796875
vt 0.265625 0.796875
vt 0.21875 0.796875
vt 0.21875 0.625
vt 0.265625 0.625
vn -0.13052619222005157 0 -0.9914448613738104
vn 0.9914448613738104 0 -0.13052619222005157
vn 0.13052619222005157 0 0.9914448613738104
vn -0.9914448613738104 0 0.13052619222005157
vn 0 1 0
vn 0 -1 0
usemtl m_dfd08898-a927-c634-02c1-f958d2ae8f9e
f 52/148/37 55/147/37 53/146/37 50/145/37
f 51/152/38 52/151/38 50/150/38 49/149/38
f 56/156/39 51/155/39 49/154/39 54/153/39
f 55/160/40 56/159/40 54/158/40 53/157/40
f 54/164/41 49/163/41 50/162/41 53/161/41
f 55/168/42 52/167/42 51/166/42 56/165/42