# Blender v3.6.1 OBJ File: ''
# www.blender.org
mtllib iced_tea.mtl
o cube.365
v 0.687500 -0.000000 0.312500
v 0.312500 -0.000000 0.312500
v 0.312500 0.062500 0.312500
v 0.687500 0.062500 0.312500
v 0.687500 0.000000 0.687500
v 0.687500 0.062500 0.687500
v 0.312500 0.000000 0.687500
v 0.312500 0.062500 0.687500
vt 0.406250 0.890625
vt 0.500000 0.890625
vt 0.500000 0.906250
vt 0.406250 0.906250
vt 0.312500 0.890625
vt 0.312500 0.906250
vt 0.593750 0.890625
vt 0.687500 0.890625
vt 0.687500 0.906250
vt 0.593750 0.906250
vt 0.500000 1.000000
vt 0.406250 1.000000
vt 0.593750 0.906250
vt 0.500000 0.906250
vt 0.500000 1.000000
vt 0.593750 1.000000
vn 0.0000 0.0000 -1.0000
vn 1.0000 0.0000 0.0000
vn 0.0000 0.0000 1.0000
vn -1.0000 0.0000 0.0000
vn 0.0000 1.0000 -0.0000
vn 0.0000 -1.0000 0.0000
usemtl m_35046330-28f5-eaf3-5170-4fb9350adf6f
s 1
f 1/1/1 2/2/1 3/3/1 4/4/1
f 5/5/2 1/1/2 4/4/2 6/6/2
f 7/7/3 5/8/3 6/9/3 8/10/3
f 2/2/4 7/7/4 8/10/4 3/3/4
f 8/11/5 6/12/5 4/4/5 3/3/5
f 2/13/6 1/14/6 5/15/6 7/16/6
o cube.366
v 0.718750 0.062500 0.656250
v 0.343750 0.062500 0.656250
v 0.343750 0.812500 0.656250
v 0.718750 0.812500 0.656250
v 0.718750 0.062500 0.718750
v 0.718750 0.812500 0.718750
v 0.343750 0.062500 0.718750
v 0.343750 0.812500 0.718750
vt 0.453125 0.687500
vt 0.546875 0.687500
vt 0.546875 0.875000
vt 0.453125 0.875000
vt 0.437500 0.687500
vt 0.437500 0.875000
vt 0.562500 0.687500
vt 0.656250 0.687500
vt 0.656250 0.875000
vt 0.562500 0.875000
vt 0.546875 0.890625
vt 0.453125 0.890625
vt 0.640625 0.875000
vt 0.546875 0.875000
vt 0.546875 0.890625
vt 0.640625 0.890625
vn 0.0000 -0.0000 -1.0000
vn 1.0000 0.0000 0.0000
vn 0.0000 0.0000 1.0000
vn -1.0000 0.0000 0.0000
vn 0.0000 1.0000 0.0000
vn 0.0000 -1.0000 0.0000
usemtl m_35046330-28f5-eaf3-5170-4fb9350adf6f
s 1
f 9/17/7 10/18/7 11/19/7 12/20/7
f 13/21/8 9/17/8 12/20/8 14/22/8
f 15/23/9 13/24/9 14/25/9 16/26/9
f 10/18/10 15/23/10 16/26/10 11/19/10
f 16/27/11 14/28/11 12/20/11 11/19/11
f 10/29/12 9/30/12 13/31/12 15/32/12
o cube.367
v 0.656250 0.062500 0.281250
v 0.281250 0.062500 0.281250
v 0.281250 0.812500 0.281250
v 0.656250 0.812500 0.281250
v 0.656250 0.062500 0.343750
v 0.656250 0.812500 0.343750
v 0.281250 0.062500 0.343750
v 0.281250 0.812500 0.343750
vt 0.234375 0.375000
vt 0.328125 0.375000
vt 0.328125 0.562500
vt 0.234375 0.562500
vt 0.218750 0.375000
vt 0.218750 0.562500
vt 0.343750 0.375000
vt 0.437500 0.375000
vt 0.437500 0.562500
vt 0.343750 0.562500
vt 0.328125 0.578125
vt 0.234375 0.578125
vt 0.421875 0.562500
vt 0.328125 0.562500
vt 0.328125 0.578125
vt 0.421875 0.578125
vn 0.0000 -0.0000 -1.0000
vn 1.0000 0.0000 0.0000
vn 0.0000 0.0000 1.0000
vn -1.0000 0.0000 0.0000
vn 0.0000 1.0000 0.0000
vn 0.0000 -1.0000 0.0000
usemtl m_35046330-28f5-eaf3-5170-4fb9350adf6f
s 1
f 17/33/13 18/34/13 19/35/13 20/36/13
f 21/37/14 17/33/14 20/36/14 22/38/14
f 23/39/15 21/40/15 22/41/15 24/42/15
f 18/34/16 23/39/16 24/42/16 19/35/16
f 24/43/17 22/44/17 20/36/17 19/35/17
f 18/45/18 17/46/18 21/47/18 23/48/18
o cube.368
v 0.343750 0.062500 0.343750
v 0.281250 0.062500 0.343750
v 0.281250 0.812500 0.343750
v 0.343750 0.812500 0.343750
v 0.343750 0.062500 0.718750
v 0.343750 0.812500 0.718750
v 0.281250 0.062500 0.718750
v 0.281250 0.812500 0.718750
vt 0.093750 0.484375
vt 0.109375 0.484375
vt 0.109375 0.671875
vt 0.093750 0.671875
vt 0.000000 0.484375
vt 0.000000 0.671875
vt 0.203125 0.484375
vt 0.218750 0.484375
vt 0.218750 0.671875
vt 0.203125 0.671875
vt 0.109375 0.765625
vt 0.093750 0.765625
vt 0.125000 0.671875
vt 0.109375 0.671875
vt 0.109375 0.765625
vt 0.125000 0.765625
vn 0.0000 -0.0000 -1.0000
vn 1.0000 0.0000 0.0000
vn 0.0000 0.0000 1.0000
vn -1.0000 0.0000 0.0000
vn 0.0000 1.0000 0.0000
vn 0.0000 -1.0000 0.0000
usemtl m_35046330-28f5-eaf3-5170-4fb9350adf6f
s 1
f 25/49/19 26/50/19 27/51/19 28/52/19
f 29/53/20 25/49/20 28/52/20 30/54/20
f 31/55/21 29/56/21 30/57/21 32/58/21
f 26/50/22 31/55/22 32/58/22 27/51/22
f 32/59/23 30/60/23 28/52/23 27/51/23
f 26/61/24 25/62/24 29/63/24 31/64/24
o cube.369
v 0.718750 0.062500 0.281250
v 0.656250 0.062500 0.281250
v 0.656250 0.812500 0.281250
v 0.718750 0.812500 0.281250
v 0.718750 0.062500 0.656250
v 0.718750 0.812500 0.656250
v 0.656250 0.062500 0.656250
v 0.656250 0.812500 0.656250
vt 0.312500 0.578125
vt 0.328125 0.578125
vt 0.328125 0.765625
vt 0.312500 0.765625
vt 0.218750 0.578125
vt 0.218750 0.765625
vt 0.421875 0.578125
vt 0.437500 0.578125
vt 0.437500 0.765625
vt 0.421875 0.765625
vt 0.328125 0.859375
vt 0.312500 0.859375
vt 0.343750 0.765625
vt 0.328125 0.765625
vt 0.328125 0.859375
vt 0.343750 0.859375
vn 0.0000 -0.0000 -1.0000
vn 1.0000 0.0000 0.0000
vn 0.0000 0.0000 1.0000
vn -1.0000 0.0000 0.0000
vn 0.0000 1.0000 0.0000
vn 0.0000 -1.0000 0.0000
usemtl m_35046330-28f5-eaf3-5170-4fb9350adf6f
s 1
f 33/65/25 34/66/25 35/67/25 36/68/25
f 37/69/26 33/65/26 36/68/26 38/70/26
f 39/71/27 37/72/27 38/73/27 40/74/27
f 34/66/28 39/71/28 40/74/28 35/67/28
f 40/75/29 38/76/29 36/68/29 35/67/29
f 34/77/30 33/78/30 37/79/30 39/80/30
o cube.370
v 0.566241 0.180185 0.485315
v 0.505745 0.188343 0.498726
v 0.609283 0.993892 0.475772
v 0.669780 0.985734 0.462361
v 0.579769 0.180185 0.546333
v 0.683307 0.985734 0.523379
v 0.519272 0.188343 0.559745
v 0.622811 0.993892 0.536791
vt 0.453125 0.468750
vt 0.468750 0.468750
vt 0.468750 0.671875
vt 0.453125 0.671875
vt 0.437500 0.468750
vt 0.437500 0.671875
vt 0.484375 0.468750
vt 0.500000 0.468750
vt 0.500000 0.671875
vt 0.484375 0.671875
vt 0.468750 0.687500
vt 0.453125 0.687500
vt 0.484375 0.671875
vt 0.468750 0.671875
vt 0.468750 0.687500
vt 0.484375 0.687500
vn -0.2164 -0.0000 -0.9763
vn 0.9679 -0.1305 -0.2146
vn 0.2164 0.0000 0.9763
vn -0.9679 0.1305 0.2146
vn 0.1274 0.9914 -0.0283
vn -0.1274 -0.9914 0.0283
usemtl m_35046330-28f5-eaf3-5170-4fb9350adf6f
s 1
f 41/81/31 42/82/31 43/83/31 44/84/31
f 45/85/32 41/81/32 44/84/32 46/86/32
f 47/87/33 45/88/33 46/89/33 48/90/33
f 42/82/34 47/87/34 48/90/34 43/83/34
f 48/91/35 46/92/35 44/84/35 43/83/35
f 42/93/36 41/94/36 45/95/36 47/96/36
o cube.371
v 0.648505 0.946014 0.467077
v 0.609283 0.993892 0.475772
v 0.656026 1.034066 0.465410
v 0.695248 0.986189 0.456714
v 0.662033 0.946014 0.528096
v 0.708776 0.986189 0.517733
v 0.622811 0.993892 0.536791
v 0.669554 1.034066 0.526428
vt 0.015625 0.734375
vt 0.031250 0.734375
vt 0.031250 0.750000
vt 0.015625 0.750000
vt 0.000000 0.734375
vt 0.000000 0.750000
vt 0.046875 0.734375
vt 0.062500 0.734375
vt 0.062500 0.750000
vt 0.046875 0.750000
vt 0.031250 0.765625
vt 0.015625 0.765625
vt 0.046875 0.750000
vt 0.031250 0.750000
vt 0.031250 0.765625
vt 0.046875 0.765625
vn -0.2164 -0.0000 -0.9763
vn 0.6276 -0.7660 -0.1391
vn 0.2164 -0.0000 0.9763
vn -0.6276 0.7660 0.1391
vn 0.7479 0.6428 -0.1658
vn -0.7479 -0.6428 0.1658
usemtl m_35046330-28f5-eaf3-5170-4fb9350adf6f
s 1
f 49/97/37 50/98/37 51/99/37 52/100/37
f 53/101/38 49/97/38 52/100/38 54/102/38
f 55/103/39 53/104/39 54/105/39 56/106/39
f 50/98/40 55/103/40 56/106/40 51/99/40
f 56/107/41 54/108/41 52/100/41 51/99/41
f 50/109/42 49/110/42 53/111/42 55/112/42
o cube.372
v 0.661344 0.971804 0.464231
v 0.656026 1.034066 0.465410
v 0.838385 1.050408 0.424982
v 0.843703 0.988146 0.423803
v 0.674872 0.971804 0.525249
v 0.857231 0.988146 0.484821
v 0.669554 1.034066 0.526428
v 0.851912 1.050408 0.486000
vt 0.015625 0.937500
vt 0.031250 0.937500
vt 0.031250 0.984375
vt 0.015625 0.984375
vt 0.000000 0.937500
vt 0.000000 0.984375
vt 0.046875 0.937500
vt 0.062500 0.937500
vt 0.062500 0.984375
vt 0.046875 0.984375
vt 0.031250 1.000000
vt 0.015625 1.000000
vt 0.046875 0.984375
vt 0.031250 0.984375
vt 0.031250 1.000000
vt 0.046875 1.000000
vn -0.2164 0.0000 -0.9763
vn 0.0851 -0.9962 -0.0189
vn 0.2164 -0.0000 0.9763
vn -0.0851 0.9962 0.0189
vn 0.9726 0.0872 -0.2156
vn -0.9726 -0.0872 0.2156
usemtl m_35046330-28f5-eaf3-5170-4fb9350adf6f
s 1
f 57/113/43 58/114/43 59/115/43 60/116/43
f 61/117/44 57/113/44 60/116/44 62/118/44
f 63/119/45 61/120/45 62/121/45 64/122/45
f 58/114/46 63/119/46 64/122/46 59/115/46
f 64/123/47 62/124/47 60/116/47 59/115/47
f 58/125/48 57/126/48 61/127/48 63/128/48
o cube.373
v 0.485713 0.900521 0.458363
v 0.370276 0.678768 0.458363
v 0.150420 0.793218 0.490995
v 0.265857 1.014971 0.490995
v 0.485713 0.900521 0.458363
v 0.265857 1.014971 0.490995
v 0.370276 0.678768 0.458363
v 0.150420 0.793218 0.490995
vt 0.500000 0.625000
vt 0.562500 0.625000
vt 0.562500 0.687500
vt 0.500000 0.687500
vt 0.500000 0.625000
vt 0.500000 0.687500
vt 0.562500 0.625000
vt 0.625000 0.625000
vt 0.625000 0.687500
vt 0.562500 0.687500
vt 0.625000 0.687500
vt 0.562500 0.687500
vt 0.562500 0.687500
vt 0.625000 0.687500
vn -0.1158 0.0603 -0.9914
vn 0.0000 0.0000 -0.0000
vn 0.4617 0.8870 -0.0000
vn 0.1158 -0.0603 0.9914
vn -0.4617 -0.8870 -0.0000
vn -0.8794 0.4578 0.1305
vn 0.0000 0.0000 0.1305
vn 0.8794 -0.4578 -0.1305
vn 0.0000 0.0000 -0.1305
usemtl m_35046330-28f5-eaf3-5170-4fb9350adf6f
s 1
f 65/129/49 66/130/49 67/131/49 68/132/49
f 69/133/50 65/129/51 68/132/50 70/134/51
f 71/135/52 69/136/52 70/137/52 72/138/52
f 66/130/50 71/135/53 72/138/50 67/131/53
f 72/138/54 70/134/55 68/132/54 67/131/55
f 66/139/56 65/140/57 69/141/56 71/142/57
o cube.374
v 0.486082 0.889112 0.500865
v 0.367372 0.673345 0.457824
v 0.147517 0.787795 0.490456
v 0.266226 1.003562 0.533496
v 0.486082 0.889112 0.500865
v 0.266226 1.003562 0.533496
v 0.367372 0.673345 0.457824
v 0.147517 0.787795 0.490456
vt 0.234375 0.937500
vt 0.296875 0.937500
vt 0.296875 1.000000
vt 0.234375 1.000000
vt 0.234375 0.937500
vt 0.234375 1.000000
vt 0.296875 0.937500
vt 0.359375 0.937500
vt 0.359375 1.000000
vt 0.296875 1.000000
vt 0.359375 1.000000
vt 0.296875 1.000000
vt 0.296875 1.000000
vt 0.359375 1.000000
vn -0.0338 0.2134 -0.9764
vn 0.0000 0.0000 0.1722
vn 0.4748 0.8631 0.1722
vn 0.0338 -0.2134 0.9764
vn 0.0000 0.0000 -0.1721
vn -0.4748 -0.8631 -0.1721
vn 0.0000 0.0000 -0.1722
vn -0.4748 -0.8631 -0.1722
vn -0.8794 0.4578 0.1305
vn 0.0000 0.0000 0.1305
vn 0.8795 -0.4578 -0.1305
vn 0.0000 0.0000 -0.1305
vn 0.8794 -0.4578 -0.1305
usemtl m_35046330-28f5-eaf3-5170-4fb9350adf6f
s 1
f 73/143/58 74/144/58 75/145/58 76/146/58
f 77/147/59 73/143/60 76/146/59 78/148/60
f 79/149/61 77/150/61 78/151/61 80/152/61
f 74/144/62 79/149/63 80/152/64 75/145/65
f 80/152/66 78/148/67 76/146/66 75/145/67
f 74/153/68 73/154/69 77/155/70 79/156/69
o cube.375
v 0.656250 0.062500 0.343750
v 0.343750 0.062500 0.343750
v 0.343750 0.687500 0.343750
v 0.656250 0.687500 0.343750
v 0.656250 0.062500 0.656250
v 0.656250 0.687500 0.656250
v 0.343750 0.062500 0.656250
v 0.343750 0.687500 0.656250
vt 0.078125 0.765625
vt 0.156250 0.765625
vt 0.156250 0.921875
vt 0.078125 0.921875
vt 0.000000 0.765625
vt 0.000000 0.921875
vt 0.234375 0.765625
vt 0.312500 0.765625
vt 0.312500 0.921875
vt 0.234375 0.921875
vt 0.156250 1.000000
vt 0.078125 1.000000
vt 0.234375 0.921875
vt 0.156250 0.921875
vt 0.156250 1.000000
vt 0.234375 1.000000
vn 0.0000 -0.0000 -1.0000
vn 1.0000 0.0000 0.0000
vn 0.0000 0.0000 1.0000
vn -1.0000 0.0000 0.0000
vn 0.0000 1.0000 0.0000
vn 0.0000 -1.0000 0.0000
usemtl m_35046330-28f5-eaf3-5170-4fb9350adf6f
s 1
f 81/157/71 82/158/71 83/159/71 84/160/71
f 85/161/72 81/157/72 84/160/72 86/162/72
f 87/163/73 85/164/73 86/165/73 88/166/73
f 82/158/74 87/163/74 88/166/74 83/159/74
f 88/167/75 86/168/75 84/160/75 83/159/75
f 82/169/76 81/170/76 85/171/76 87/172/76
