# Blender v3.6.1 OBJ File: ''
# www.blender.org
mtllib taffy.mtl
o cube.706
v 0.470342 0.014114 0.105151
v 0.354895 0.011770 0.326886
v 0.357077 0.261732 0.330665
v 0.472524 0.264076 0.108930
v 0.747513 0.009514 0.249413
v 0.749695 0.259476 0.253191
v 0.632066 0.007170 0.471148
v 0.634247 0.257132 0.474926
vt 0.078125 0.718750
vt 0.140625 0.718750
vt 0.140625 0.781250
vt 0.078125 0.781250
vt 0.000000 0.718750
vt 0.000000 0.781250
vt 0.218750 0.718750
vt 0.281250 0.718750
vt 0.281250 0.781250
vt 0.218750 0.781250
vt 0.140625 0.859375
vt 0.078125 0.859375
vt 0.203125 0.781250
vt 0.140625 0.781250
vt 0.140625 0.859375
vt 0.203125 0.859375
vn -0.8869 0.0147 -0.4616
vn 0.4618 0.0094 -0.8869
vn 0.8869 -0.0147 0.4616
vn -0.4618 -0.0094 0.8869
vn 0.0087 0.9998 0.0151
vn -0.0087 -0.9998 -0.0151
usemtl m_51f8cd56-f876-8a0a-695a-6330ef33daaa.001
s 1
f 1/1/1 2/2/1 3/3/1 4/4/1
f 5/5/2 1/1/2 4/4/2 6/6/2
f 7/7/3 5/8/3 6/9/3 8/10/3
f 2/2/4 7/7/4 8/10/4 3/3/4
f 8/11/5 6/12/5 4/4/5 3/3/5
f 2/13/6 1/14/6 5/15/6 7/16/6
o cube.707
v 0.280189 0.284128 0.229564
v 0.280189 0.284128 0.229564
v 0.291517 0.099937 0.060906
v 0.291517 0.099937 0.060906
v 0.480235 0.189748 0.346072
v 0.491562 0.005557 0.177414
v 0.480235 0.189748 0.346072
v 0.491562 0.005557 0.177414
vt 0.437500 0.609375
vt 0.437500 0.609375
vt 0.437500 0.671875
vt 0.437500 0.671875
vt 0.375000 0.609375
vt 0.375000 0.671875
vt 0.500000 0.609375
vt 0.500000 0.609375
vt 0.500000 0.671875
vt 0.500000 0.671875
vt 0.437500 0.734375
vt 0.437500 0.734375
vt 0.437500 0.671875
vt 0.437500 0.671875
vt 0.437500 0.734375
vt 0.437500 0.734375
vn 0.0000 0.0000 -0.4661
vn -0.8001 0.3775 -0.4661
vn 0.0000 0.0000 -0.4660
vn -0.8002 0.3775 -0.4660
vn -0.5980 -0.5609 0.5724
vn 0.0000 0.0000 0.4660
vn 0.8002 -0.3775 0.4660
vn 0.8002 -0.3776 0.4660
vn 0.5980 0.5609 -0.5724
vn 0.0000 0.0000 -0.6746
vn 0.0453 -0.7368 -0.6746
vn 0.0000 0.0000 0.6746
vn -0.0453 0.7368 0.6746
usemtl m_51f8cd56-f876-8a0a-695a-6330ef33daaa.001
s 1
f 9/17/7 10/18/8 11/19/9 12/20/10
f 13/21/11 9/17/11 12/20/11 14/22/11
f 15/23/12 13/24/13 14/25/12 16/26/14
f 10/18/15 15/23/15 16/26/15 11/19/15
f 16/27/16 14/28/17 12/20/16 11/19/17
f 10/29/18 9/30/19 13/31/18 15/32/19
o cube.708
v 0.210874 0.090099 0.120442
v 0.210874 0.090099 0.120442
v 0.347591 0.297164 0.089907
v 0.347591 0.297164 0.089907
v 0.390583 -0.007334 0.264358
v 0.527300 0.199731 0.233822
v 0.390583 -0.007334 0.264358
v 0.527300 0.199731 0.233822
vt 0.187500 0.484375
vt 0.187500 0.484375
vt 0.187500 0.546875
vt 0.187500 0.546875
vt 0.125000 0.484375
vt 0.125000 0.546875
vt 0.250000 0.484375
vt 0.250000 0.484375
vt 0.250000 0.546875
vt 0.250000 0.546875
vt 0.187500 0.609375
vt 0.187500 0.609375
vt 0.187500 0.546875
vt 0.187500 0.546875
vt 0.187500 0.609375
vt 0.187500 0.609375
vn 0.0000 0.0000 -0.5756
vn -0.7188 0.3898 -0.5756
vn 0.0000 0.0000 -0.5757
vn -0.7188 0.3897 -0.5757
vn 0.4292 -0.4026 -0.8085
vn 0.0000 0.0000 0.5757
vn 0.7188 -0.3897 0.5757
vn -0.4292 0.4026 0.8085
vn 0.0000 0.0000 -0.1221
vn 0.5469 0.8282 -0.1221
vn 0.0000 0.0000 -0.1222
vn 0.5469 0.8282 -0.1222
vn 0.0000 0.0000 0.1221
vn -0.5469 -0.8282 0.1221
vn 0.0000 0.0000 0.1222
vn -0.5469 -0.8282 0.1222
usemtl m_51f8cd56-f876-8a0a-695a-6330ef33daaa.001
s 1
f 17/33/20 18/34/21 19/35/22 20/36/23
f 21/37/24 17/33/24 20/36/24 22/38/24
f 23/39/25 21/40/26 22/41/25 24/42/26
f 18/34/27 23/39/27 24/42/27 19/35/27
f 24/43/28 22/44/29 20/36/30 19/35/31
f 18/45/32 17/46/33 21/47/34 23/48/35
o cube.709
v 0.223597 0.102653 0.259486
v 0.223597 0.102653 0.259486
v 0.339044 0.104998 0.037751
v 0.339044 0.104998 0.037751
v 0.432707 0.184687 0.369228
v 0.548155 0.187032 0.147493
v 0.432707 0.184687 0.369228
v 0.548155 0.187032 0.147493
vt 0.437500 0.546875
vt 0.437500 0.546875
vt 0.437500 0.609375
vt 0.437500 0.609375
vt 0.375000 0.546875
vt 0.375000 0.609375
vt 0.500000 0.546875
vt 0.500000 0.546875
vt 0.500000 0.609375
vt 0.500000 0.609375
vt 0.437500 0.671875
vt 0.437500 0.671875
vt 0.437500 0.609375
vt 0.437500 0.609375
vt 0.437500 0.671875
vt 0.437500 0.671875
vn 0.0000 0.0000 -0.4390
vn -0.8364 -0.3282 -0.4390
vn -0.8364 -0.3281 -0.4390
vn 0.2952 -0.9446 0.1437
vn 0.0000 0.0000 0.4390
vn 0.8364 0.3281 0.4390
vn 0.8364 0.3282 0.4390
vn -0.2952 0.9446 -0.1437
vn 0.0000 0.0000 -0.8869
vn 0.4618 0.0094 -0.8869
vn 0.0000 0.0000 0.8869
vn -0.4618 -0.0094 0.8869
usemtl m_51f8cd56-f876-8a0a-695a-6330ef33daaa.001
s 1
f 25/49/36 26/50/37 27/51/36 28/52/38
f 29/53/39 25/49/39 28/52/39 30/54/39
f 31/55/40 29/56/41 30/57/40 32/58/42
f 26/50/43 31/55/43 32/58/43 27/51/43
f 32/59/44 30/60/45 28/52/44 27/51/45
f 26/61/46 25/62/47 29/63/46 31/64/47
o cube.710
v 0.567661 0.201380 0.372300
v 0.567661 0.201380 0.372300
v 0.694471 0.015273 0.263748
v 0.694471 0.015273 0.263748
v 0.770900 0.262901 0.504245
v 0.897709 0.076794 0.395692
v 0.770900 0.262901 0.504245
v 0.897709 0.076794 0.395692
vt 0.437500 0.750000
vt 0.437500 0.750000
vt 0.437500 0.812500
vt 0.437500 0.812500
vt 0.375000 0.750000
vt 0.375000 0.812500
vt 0.500000 0.750000
vt 0.500000 0.750000
vt 0.500000 0.812500
vt 0.500000 0.812500
vt 0.437500 0.875000
vt 0.437500 0.875000
vt 0.437500 0.812500
vt 0.437500 0.812500
vt 0.437500 0.875000
vt 0.437500 0.875000
vn 0.0000 0.0000 -0.5278
vn -0.8129 -0.2461 -0.5278
vn -0.2860 -0.6207 0.7300
vn 0.0000 0.0000 0.5278
vn 0.8129 0.2461 0.5278
vn 0.2860 0.6207 -0.7300
vn 0.0000 0.0000 -0.4342
vn 0.5072 -0.7444 -0.4342
vn 0.0000 0.0000 -0.4341
vn 0.5073 -0.7444 -0.4341
vn 0.0000 0.0000 0.4342
vn -0.5072 0.7444 0.4342
vn -0.5073 0.7444 0.4342
usemtl m_51f8cd56-f876-8a0a-695a-6330ef33daaa.001
s 1
f 33/65/48 34/66/49 35/67/48 36/68/49
f 37/69/50 33/65/50 36/68/50 38/70/50
f 39/71/51 37/72/52 38/73/51 40/74/52
f 34/66/53 39/71/53 40/74/53 35/67/53
f 40/75/54 38/76/55 36/68/56 35/67/57
f 34/77/58 33/78/59 37/79/58 39/80/60
o cube.711
v 0.643274 -0.013273 0.377504
v 0.643274 -0.013273 0.377504
v 0.621319 0.209464 0.266121
v 0.621319 0.209464 0.266121
v 0.844052 0.068710 0.501872
v 0.822096 0.291447 0.390488
v 0.844052 0.068710 0.501872
v 0.822096 0.291447 0.390488
vt 0.437500 0.875000
vt 0.437500 0.875000
vt 0.437500 0.937500
vt 0.437500 0.937500
vt 0.375000 0.875000
vt 0.375000 0.937500
vt 0.500000 0.875000
vt 0.500000 0.875000
vt 0.500000 0.937500
vt 0.500000 0.937500
vt 0.437500 1.000000
vt 0.437500 1.000000
vt 0.437500 0.937500
vt 0.437500 0.937500
vt 0.437500 1.000000
vt 0.437500 1.000000
vn 0.0000 0.0000 -0.4975
vn -0.8031 -0.3279 -0.4975
vn 0.5893 -0.3141 -0.7443
vn 0.0000 0.0000 0.4975
vn 0.8031 0.3279 0.4975
vn -0.5893 0.3141 0.7443
vn 0.0000 0.0000 -0.4456
vn -0.0878 0.8909 -0.4456
vn 0.0000 0.0000 -0.4455
vn -0.0878 0.8910 -0.4455
vn 0.0000 0.0000 0.4455
vn 0.0878 -0.8909 0.4455
usemtl m_51f8cd56-f876-8a0a-695a-6330ef33daaa.001
s 1
f 41/81/61 42/82/62 43/83/61 44/84/62
f 45/85/63 41/81/63 44/84/63 46/86/63
f 47/87/64 45/88/65 46/89/64 48/90/65
f 42/82/66 47/87/66 48/90/66 43/83/66
f 48/91/67 46/92/68 44/84/69 43/83/70
f 42/93/71 41/94/72 45/95/71 47/96/72
o cube.712
v 0.564151 0.134301 0.437132
v 0.564151 0.134301 0.437132
v 0.679598 0.136646 0.215397
v 0.679598 0.136646 0.215397
v 0.785772 0.141528 0.552596
v 0.901219 0.143873 0.330861
v 0.785772 0.141528 0.552596
v 0.901219 0.143873 0.330861
vt 0.062500 0.531250
vt 0.062500 0.531250
vt 0.062500 0.593750
vt 0.062500 0.593750
vt 0.000000 0.531250
vt 0.000000 0.593750
vt 0.125000 0.531250
vt 0.125000 0.531250
vt 0.125000 0.593750
vt 0.125000 0.593750
vt 0.062500 0.656250
vt 0.062500 0.656250
vt 0.062500 0.593750
vt 0.062500 0.593750
vt 0.062500 0.656250
vt 0.062500 0.656250
vn 0.0000 0.0000 -0.4619
vn -0.8865 -0.0289 -0.4619
vn -0.8867 -0.0180 -0.4619
vn 0.0300 -0.9995 0.0050
vn 0.0000 0.0000 0.4619
vn 0.8868 0.0180 0.4619
vn 0.0000 0.0000 0.4618
vn 0.8865 0.0289 0.4618
vn -0.0300 0.9995 -0.0050
vn 0.0000 0.0000 -0.8869
vn 0.4618 0.0094 -0.8869
vn 0.0000 0.0000 -0.8870
vn 0.4616 0.0151 -0.8870
vn 0.0000 0.0000 0.8869
vn -0.4618 -0.0094 0.8869
vn -0.4617 -0.0151 0.8869
usemtl m_51f8cd56-f876-8a0a-695a-6330ef33daaa.001
s 1
f 49/97/73 50/98/74 51/99/73 52/100/75
f 53/101/76 49/97/76 52/100/76 54/102/76
f 55/103/77 53/104/78 54/105/79 56/106/80
f 50/98/81 55/103/81 56/106/81 51/99/81
f 56/107/82 54/108/83 52/100/84 51/99/85
f 50/109/86 49/110/87 53/111/86 55/112/88
o cube.713
v 0.511618 0.044146 0.162193
v 0.425033 0.042388 0.328494
v 0.426669 0.229859 0.331328
v 0.513255 0.231618 0.165026
v 0.677921 0.041386 0.248750
v 0.679557 0.228858 0.251583
v 0.591335 0.039628 0.415051
v 0.592971 0.227100 0.417885
vt 0.281250 0.671875
vt 0.328125 0.671875
vt 0.328125 0.718750
vt 0.281250 0.718750
vt 0.234375 0.671875
vt 0.234375 0.718750
vt 0.375000 0.671875
vt 0.421875 0.671875
vt 0.421875 0.718750
vt 0.375000 0.718750
vt 0.328125 0.765625
vt 0.281250 0.765625
vt 0.375000 0.718750
vt 0.328125 0.718750
vt 0.328125 0.765625
vt 0.375000 0.765625
vn -0.8869 0.0147 -0.4616
vn 0.4618 0.0094 -0.8869
vn 0.8869 -0.0147 0.4616
vn -0.4618 -0.0094 0.8869
vn 0.0087 0.9998 0.0151
vn -0.0087 -0.9998 -0.0151
usemtl m_51f8cd56-f876-8a0a-695a-6330ef33daaa.001
s 1
f 57/113/89 58/114/89 59/115/89 60/116/89
f 61/117/90 57/113/90 60/116/90 62/118/90
f 63/119/91 61/120/91 62/121/91 64/122/91
f 58/114/92 63/119/92 64/122/92 59/115/92
f 64/123/93 62/124/93 60/116/93 59/115/93
f 58/125/94 57/126/94 61/127/94 63/128/94
o cube.714
v 0.625388 0.006773 0.794170
v 0.539874 0.010234 0.559276
v 0.538562 0.260196 0.563437
v 0.624076 0.256735 0.798331
v 0.331743 0.003453 0.901024
v 0.330431 0.253414 0.905185
v 0.246229 0.006914 0.666129
v 0.244917 0.256876 0.670290
vt 0.078125 0.859375
vt 0.140625 0.859375
vt 0.140625 0.921875
vt 0.078125 0.921875
vt 0.000000 0.859375
vt 0.000000 0.921875
vt 0.218750 0.859375
vt 0.281250 0.859375
vt 0.281250 0.921875
vt 0.218750 0.921875
vt 0.140625 1.000000
vt 0.078125 1.000000
vt 0.203125 0.921875
vt 0.140625 0.921875
vt 0.140625 1.000000
vt 0.203125 1.000000
vn 0.9397 0.0106 -0.3419
vn 0.3421 -0.0138 0.9396
vn -0.9397 -0.0106 0.3419
vn -0.3421 0.0138 -0.9396
vn -0.0052 0.9998 0.0166
vn 0.0052 -0.9998 -0.0166
usemtl m_51f8cd56-f876-8a0a-695a-6330ef33daaa.001
s 1
f 65/129/95 66/130/95 67/131/95 68/132/95
f 69/133/96 65/129/96 68/132/96 70/134/96
f 71/135/97 69/136/97 70/137/97 72/138/97
f 66/130/98 71/135/98 72/138/98 67/131/98
f 72/139/99 70/140/99 68/132/99 67/131/99
f 66/141/100 65/142/100 69/143/100 71/144/100
o cube.715
v 0.679767 0.276189 0.578073
v 0.679767 0.276189 0.578073
v 0.774489 0.080773 0.701929
v 0.774489 0.080773 0.701929
v 0.448489 0.199777 0.634388
v 0.543211 0.004361 0.758245
v 0.448489 0.199777 0.634388
v 0.543211 0.004361 0.758245
vt 0.312500 0.546875
vt 0.312500 0.546875
vt 0.312500 0.609375
vt 0.312500 0.609375
vt 0.250000 0.546875
vt 0.250000 0.609375
vt 0.375000 0.546875
vt 0.375000 0.546875
vt 0.375000 0.609375
vt 0.375000 0.609375
vt 0.312500 0.671875
vt 0.312500 0.671875
vt 0.312500 0.609375
vt 0.312500 0.609375
vt 0.312500 0.671875
vt 0.312500 0.671875
vn 0.0000 0.0000 -0.2253
vn 0.9251 0.3056 -0.2253
vn -0.0247 -0.5437 -0.8389
vn 0.0000 0.0000 0.2252
vn -0.9251 -0.3056 0.2252
vn 0.0000 0.0000 0.2253
vn -0.9251 -0.3056 0.2253
vn 0.0247 0.5437 0.8389
vn 0.0000 0.0000 0.4954
vn 0.3789 -0.7817 0.4954
vn 0.3789 -0.7816 0.4954
vn 0.0000 0.0000 -0.4955
vn -0.3788 0.7817 -0.4955
vn -0.3789 0.7816 -0.4955
usemtl m_51f8cd56-f876-8a0a-695a-6330ef33daaa.001
s 1
f 73/145/101 74/146/102 75/147/101 76/148/102
f 77/149/103 73/145/103 76/148/103 78/150/103
f 79/151/104 77/152/105 78/153/106 80/154/107
f 74/146/108 79/151/108 80/154/108 75/147/108
f 80/155/109 78/156/110 76/148/109 75/147/111
f 74/157/112 73/158/113 77/159/112 79/160/114
o cube.716
v 0.734452 0.068421 0.563434
v 0.734452 0.068421 0.563434
v 0.704005 0.290815 0.673499
v 0.704005 0.290815 0.673499
v 0.518973 -0.010264 0.662819
v 0.488526 0.212129 0.772883
v 0.518973 -0.010264 0.662819
v 0.488526 0.212129 0.772883
vt 0.187500 0.546875
vt 0.187500 0.546875
vt 0.187500 0.609375
vt 0.187500 0.609375
vt 0.125000 0.546875
vt 0.125000 0.609375
vt 0.250000 0.546875
vt 0.250000 0.546875
vt 0.250000 0.609375
vt 0.250000 0.609375
vt 0.187500 0.671875
vt 0.187500 0.671875
vt 0.187500 0.609375
vt 0.187500 0.609375
vt 0.187500 0.671875
vt 0.187500 0.671875
vn 0.0000 0.0000 -0.3975
vn 0.8619 0.3147 -0.3975
vn 0.0000 0.0000 -0.3976
vn 0.8619 0.3147 -0.3976
vn 0.4922 -0.3311 0.8051
vn 0.0000 0.0000 0.3975
vn -0.8619 -0.3147 0.3975
vn -0.4922 0.3311 -0.8051
vn 0.0000 0.0000 0.4403
vn -0.1218 0.8896 0.4403
vn 0.0000 0.0000 0.4402
vn -0.1218 0.8896 0.4402
vn 0.0000 0.0000 -0.4402
vn 0.1218 -0.8896 -0.4402
vn 0.0000 0.0000 -0.4403
vn 0.1218 -0.8896 -0.4403
usemtl m_51f8cd56-f876-8a0a-695a-6330ef33daaa.001
s 1
f 81/161/115 82/162/116 83/163/117 84/164/118
f 85/165/119 81/161/119 84/164/119 86/166/119
f 87/167/120 85/168/121 86/169/120 88/170/121
f 82/162/122 87/167/122 88/170/122 83/163/122
f 88/171/123 86/172/124 84/164/125 83/163/126
f 82/173/127 81/174/128 85/175/129 87/176/130
o cube.717
v 0.686190 0.143334 0.507970
v 0.686190 0.143334 0.507970
v 0.771704 0.139873 0.742865
v 0.771704 0.139873 0.742865
v 0.451274 0.140678 0.593453
v 0.536788 0.137216 0.828347
v 0.451274 0.140678 0.593453
v 0.536788 0.137216 0.828347
vt 0.062500 0.593750
vt 0.062500 0.593750
vt 0.062500 0.656250
vt 0.062500 0.656250
vt 0.000000 0.593750
vt 0.000000 0.656250
vt 0.125000 0.593750
vt 0.125000 0.593750
vt 0.125000 0.656250
vt 0.125000 0.656250
vt 0.062500 0.718750
vt 0.062500 0.718750
vt 0.062500 0.656250
vt 0.062500 0.656250
vt 0.062500 0.718750
vt 0.062500 0.718750
vn 0.0000 0.0000 -0.3419
vn 0.9397 0.0106 -0.3419
vn 0.0052 -0.9998 -0.0166
vn 0.0000 0.0000 0.3419
vn -0.9397 -0.0106 0.3419
vn 0.0000 0.0000 0.3420
vn -0.9397 -0.0106 0.3420
vn -0.0052 0.9998 0.0166
vn 0.0000 0.0000 0.9396
vn 0.3421 -0.0138 0.9396
vn 0.3420 -0.0139 0.9396
vn 0.0000 0.0000 -0.9396
vn -0.3420 0.0138 -0.9396
vn -0.3421 0.0139 -0.9396
usemtl m_51f8cd56-f876-8a0a-695a-6330ef33daaa.001
s 1
f 89/177/131 90/178/132 91/179/131 92/180/132
f 93/181/133 89/177/133 92/180/133 94/182/133
f 95/183/134 93/184/135 94/185/136 96/186/137
f 90/178/138 95/183/138 96/186/138 91/179/138
f 96/187/139 94/188/140 92/180/139 91/179/141
f 90/189/142 89/190/143 93/191/142 95/192/144
o cube.718
v 0.371660 0.216340 0.709476
v 0.371660 0.216340 0.709476
v 0.363833 0.026944 0.872473
v 0.363833 0.026944 0.872473
v 0.124299 0.245298 0.731246
v 0.116472 0.055902 0.894242
v 0.124299 0.245298 0.731246
v 0.116472 0.055902 0.894242
vt 0.312500 0.609375
vt 0.312500 0.609375
vt 0.312500 0.671875
vt 0.312500 0.671875
vt 0.250000 0.609375
vt 0.250000 0.671875
vt 0.375000 0.609375
vt 0.375000 0.609375
vt 0.375000 0.671875
vt 0.375000 0.671875
vt 0.312500 0.734375
vt 0.312500 0.734375
vt 0.312500 0.671875
vt 0.312500 0.671875
vt 0.312500 0.734375
vt 0.312500 0.734375
vn 0.0000 0.0000 -0.0871
vn 0.9894 -0.1158 -0.0871
vn 0.9895 -0.1158 -0.0871
vn -0.1415 -0.6424 -0.7532
vn 0.0000 0.0000 0.0871
vn -0.9894 0.1158 0.0871
vn 0.1415 0.6424 0.7532
vn 0.0000 0.0000 0.6520
vn -0.0313 -0.7576 0.6520
vn 0.0000 0.0000 -0.6519
vn 0.0313 0.7576 -0.6519
usemtl m_51f8cd56-f876-8a0a-695a-6330ef33daaa.001
s 1
f 97/193/145 98/194/146 99/195/145 100/196/147
f 101/197/148 97/193/148 100/196/148 102/198/148
f 103/199/149 101/200/150 102/201/149 104/202/150
f 98/194/151 103/199/151 104/202/151 99/195/151
f 104/203/152 102/204/153 100/196/152 99/195/153
f 98/205/154 97/206/155 101/207/154 103/208/155
o cube.719
v 0.380444 0.038881 0.745331
v 0.380444 0.038881 0.745331
v 0.353503 0.271355 0.833250
v 0.353503 0.271355 0.833250
v 0.134630 0.000887 0.770468
v 0.107689 0.233361 0.858388
v 0.134630 0.000887 0.770468
v 0.107689 0.233361 0.858388
vt 0.187500 0.609375
vt 0.187500 0.609375
vt 0.187500 0.671875
vt 0.187500 0.671875
vt 0.125000 0.609375
vt 0.125000 0.671875
vt 0.250000 0.609375
vt 0.250000 0.609375
vt 0.250000 0.671875
vt 0.250000 0.671875
vt 0.187500 0.734375
vt 0.187500 0.734375
vt 0.187500 0.671875
vt 0.187500 0.671875
vt 0.187500 0.734375
vt 0.187500 0.734375
vn 0.0000 0.0000 -0.1005
vn 0.9833 0.1520 -0.1005
vn 0.0000 0.0000 -0.1006
vn 0.9833 0.1520 -0.1006
vn 0.1469 -0.3350 0.9307
vn 0.0000 0.0000 0.1005
vn -0.9833 -0.1520 0.1005
vn 0.0000 0.0000 0.1006
vn -0.9832 -0.1520 0.1006
vn -0.1469 0.3350 -0.9307
vn 0.0000 0.0000 0.3517
vn -0.1078 0.9299 0.3517
vn 0.0000 0.0000 -0.3517
vn 0.1078 -0.9299 -0.3517
usemtl m_51f8cd56-f876-8a0a-695a-6330ef33daaa.001
s 1
f 105/209/156 106/210/157 107/211/158 108/212/159
f 109/213/160 105/209/160 108/212/160 110/214/160
f 111/215/161 109/216/162 110/217/163 112/218/164
f 106/210/165 111/215/165 112/218/165 107/211/165
f 112/219/166 110/220/167 108/212/166 107/211/167
f 106/221/168 105/222/169 109/223/168 111/224/169
o cube.720
v 0.356749 0.094701 0.672102
v 0.356749 0.094701 0.672102
v 0.380268 0.168677 0.909745
v 0.380268 0.168677 0.909745
v 0.107865 0.103565 0.693973
v 0.131384 0.177541 0.931617
v 0.107865 0.103565 0.693973
v 0.131384 0.177541 0.931617
vt 0.062500 0.656250
vt 0.062500 0.656250
vt 0.062500 0.718750
vt 0.062500 0.718750
vt 0.000000 0.656250
vt 0.000000 0.718750
vt 0.125000 0.656250
vt 0.125000 0.656250
vt 0.125000 0.718750
vt 0.125000 0.718750
vt 0.062500 0.781250
vt 0.062500 0.781250
vt 0.062500 0.718750
vt 0.062500 0.718750
vt 0.062500 0.781250
vt 0.062500 0.781250
vn 0.0000 0.0000 -0.0874
vn 0.9955 -0.0354 -0.0874
vn 0.0000 0.0000 -0.0875
vn 0.9955 -0.0354 -0.0875
vn -0.0078 -0.9546 0.2979
vn 0.0000 0.0000 0.0875
vn -0.9955 0.0354 0.0875
vn 0.0078 0.9546 -0.2979
vn 0.0000 0.0000 0.9506
vn 0.0941 0.2959 0.9506
vn 0.0000 0.0000 -0.9506
vn -0.0941 -0.2960 -0.9506
vn -0.0940 -0.2958 -0.9506
usemtl m_51f8cd56-f876-8a0a-695a-6330ef33daaa.001
s 1
f 113/225/170 114/226/171 115/227/172 116/228/173
f 117/229/174 113/225/174 116/228/174 118/230/174
f 119/231/175 117/232/176 118/233/175 120/234/176
f 114/226/177 119/231/177 120/234/177 115/227/177
f 120/235/178 118/236/179 116/228/178 115/227/179
f 114/237/180 113/238/181 117/239/180 119/240/182
o cube.721
v 0.555806 0.037787 0.786699
v 0.491670 0.040383 0.610528
v 0.490686 0.227854 0.613649
v 0.554822 0.225258 0.789820
v 0.379619 0.035795 0.850811
v 0.378635 0.223266 0.853932
v 0.315483 0.038391 0.674640
v 0.314499 0.225862 0.677761
vt 0.281250 0.812500
vt 0.328125 0.812500
vt 0.328125 0.859375
vt 0.281250 0.859375
vt 0.234375 0.812500
vt 0.234375 0.859375
vt 0.375000 0.812500
vt 0.421875 0.812500
vt 0.421875 0.859375
vt 0.375000 0.859375
vt 0.328125 0.906250
vt 0.281250 0.906250
vt 0.375000 0.859375
vt 0.328125 0.859375
vt 0.328125 0.906250
vt 0.375000 0.906250
vn 0.9397 0.0106 -0.3419
vn 0.3421 -0.0138 0.9396
vn -0.9397 -0.0106 0.3419
vn -0.3421 0.0138 -0.9396
vn -0.0052 0.9998 0.0166
vn 0.0052 -0.9998 -0.0166
usemtl m_51f8cd56-f876-8a0a-695a-6330ef33daaa.001
s 1
f 121/241/183 122/242/183 123/243/183 124/244/183
f 125/245/184 121/241/184 124/244/184 126/246/184
f 127/247/185 125/248/185 126/249/185 128/250/185
f 122/242/186 127/247/186 128/250/186 123/243/186
f 128/251/187 126/252/187 124/244/187 123/243/187
f 122/253/188 121/254/188 125/255/188 127/256/188
