# Blender 3.6.1
# www.blender.org
mtllib tea.mtl
o cube
v 0.875000 0.003125 0.875000
v 0.875000 0.003125 0.125000
v 0.875000 0.003125 0.875000
v 0.875000 0.003125 0.125000
v 0.125000 0.003125 0.125000
v 0.125000 0.003125 0.875000
v 0.125000 0.003125 0.125000
v 0.125000 0.003125 0.875000
vn -0.0000 -0.0000 -1.0000
vn -0.0000 -0.0000 -0.0000
vn -0.0000 -0.0000 1.0000
vn -0.0000 1.0000 -0.0000
vn -0.0000 -1.0000 -0.0000
vt 0.187500 0.812500
vt 0.375000 0.812500
vt 0.000000 0.812500
vt 0.562500 0.812500
vt 0.750000 0.812500
vt 0.375000 1.000000
vt 0.187500 1.000000
vt 0.562500 1.000000
s 0
usemtl m_f1f8d152-942f-8397-3421-3b5633149edf
f 4/1/1 7/2/1 5/2/1 2/1/1
f 3/3/2 4/1/2 2/1/2 1/3/2
f 8/4/3 3/5/3 1/5/3 6/4/3
f 7/2/2 8/4/2 6/4/2 5/2/2
f 6/6/4 1/7/4 2/1/4 5/2/4
f 7/4/5 4/2/5 3/6/5 8/8/5
o cube.001
v 0.192862 0.466513 0.531250
v 0.192862 0.466513 0.468750
v 0.192862 0.279013 0.531250
v 0.192862 0.279013 0.468750
v 0.130362 0.466513 0.468750
v 0.130362 0.466513 0.531250
v 0.130362 0.279013 0.468750
v 0.130362 0.279013 0.531250
vn -0.0000 -0.0000 -1.0000
vn 1.0000 -0.0000 -0.0000
vn -0.0000 -0.0000 1.0000
vn -1.0000 -0.0000 -0.0000
vn -0.0000 1.0000 -0.0000
vn -0.0000 -1.0000 -0.0000
vt 0.125000 0.937500
vt 0.140625 0.937500
vt 0.140625 0.984375
vt 0.125000 0.984375
vt 0.109375 0.937500
vt 0.109375 0.984375
vt 0.156250 0.937500
vt 0.171875 0.937500
vt 0.171875 0.984375
vt 0.156250 0.984375
vt 0.140625 1.000000
vt 0.125000 1.000000
vt 0.156250 1.000000
s 0
usemtl m_f1f8d152-942f-8397-3421-3b5633149edf
f 12/9/6 15/10/6 13/11/6 10/12/6
f 11/13/7 12/9/7 10/12/7 9/14/7
f 16/15/8 11/16/8 9/17/8 14/18/8
f 15/10/9 16/15/9 14/18/9 13/11/9
f 14/19/10 9/20/10 10/12/10 13/11/10
f 15/18/11 12/11/11 11/19/11 16/21/11
o cube.002
v 0.255362 0.466513 0.531250
v 0.255362 0.466513 0.468750
v 0.255362 0.404013 0.531250
v 0.255362 0.404013 0.468750
v 0.192862 0.466513 0.468750
v 0.192862 0.466513 0.531250
v 0.192862 0.404013 0.468750
v 0.192862 0.404013 0.531250
vn -0.0000 -0.0000 -1.0000
vn 1.0000 -0.0000 -0.0000
vn -0.0000 -0.0000 1.0000
vn -1.0000 -0.0000 -0.0000
vn -0.0000 1.0000 -0.0000
vn -0.0000 -1.0000 -0.0000
vt 0.125000 0.890625
vt 0.140625 0.890625
vt 0.140625 0.906250
vt 0.125000 0.906250
vt 0.109375 0.890625
vt 0.109375 0.906250
vt 0.156250 0.890625
vt 0.171875 0.890625
vt 0.171875 0.906250
vt 0.156250 0.906250
vt 0.140625 0.921875
vt 0.125000 0.921875
vt 0.156250 0.921875
s 0
usemtl m_f1f8d152-942f-8397-3421-3b5633149edf
f 20/22/12 23/23/12 21/24/12 18/25/12
f 19/26/13 20/22/13 18/25/13 17/27/13
f 24/28/14 19/29/14 17/30/14 22/31/14
f 23/23/15 24/28/15 22/31/15 21/24/15
f 22/32/16 17/33/16 18/25/16 21/24/16
f 23/31/17 20/24/17 19/32/17 24/34/17
o cube.003
v 0.307138 0.190625 0.531250
v 0.307138 0.190625 0.468750
v 0.262944 0.146431 0.531250
v 0.262944 0.146431 0.468750
v 0.174556 0.323208 0.468750
v 0.174556 0.323208 0.531250
v 0.130362 0.279013 0.468750
v 0.130362 0.279013 0.531250
vn -0.0000 -0.0000 -1.0000
vn 0.7071 -0.7071 -0.0000
vn -0.0000 -0.0000 1.0000
vn -0.7071 0.7071 -0.0000
vn 0.7071 0.7071 -0.0000
vn -0.7071 -0.7071 -0.0000
vt 0.015625 0.828125
vt 0.062500 0.828125
vt 0.062500 0.843750
vt 0.015625 0.843750
vt 0.000000 0.828125
vt 0.000000 0.843750
vt 0.078125 0.828125
vt 0.125000 0.828125
vt 0.125000 0.843750
vt 0.078125 0.843750
vt 0.062500 0.859375
vt 0.015625 0.859375
vt 0.109375 0.843750
vt 0.109375 0.859375
s 0
usemtl m_f1f8d152-942f-8397-3421-3b5633149edf
f 28/35/18 31/36/18 29/37/18 26/38/18
f 27/39/19 28/35/19 26/38/19 25/40/19
f 32/41/20 27/42/20 25/43/20 30/44/20
f 31/36/21 32/41/21 30/44/21 29/37/21
f 30/45/22 25/46/22 26/38/22 29/37/22
f 31/47/23 28/37/23 27/45/23 32/48/23
o cube.004
v 0.625000 0.081250 0.625000
v 0.625000 0.081250 0.375000
v 0.625000 0.018750 0.625000
v 0.625000 0.018750 0.375000
v 0.375000 0.081250 0.375000
v 0.375000 0.081250 0.625000
v 0.375000 0.018750 0.375000
v 0.375000 0.018750 0.625000
vn -0.0000 -0.0000 -1.0000
vn 1.0000 -0.0000 -0.0000
vn -0.0000 -0.0000 1.0000
vn -1.0000 -0.0000 -0.0000
vn -0.0000 1.0000 -0.0000
vn -0.0000 -1.0000 -0.0000
vt 0.359375 0.718750
vt 0.421875 0.718750
vt 0.421875 0.734375
vt 0.359375 0.734375
vt 0.296875 0.718750
vt 0.296875 0.734375
vt 0.484375 0.718750
vt 0.546875 0.718750
vt 0.546875 0.734375
vt 0.484375 0.734375
vt 0.421875 0.796875
vt 0.359375 0.796875
vt 0.484375 0.796875
s 0
usemtl m_f1f8d152-942f-8397-3421-3b5633149edf
f 36/49/24 39/50/24 37/51/24 34/52/24
f 35/53/25 36/49/25 34/52/25 33/54/25
f 40/55/26 35/56/26 33/57/26 38/58/26
f 39/50/27 40/55/27 38/58/27 37/51/27
f 38/59/28 33/60/28 34/52/28 37/51/28
f 39/58/29 36/51/29 35/59/29 40/61/29
o cube.005
v 0.656250 0.135708 0.700444
v 0.656250 0.047319 0.612056
v 0.656250 0.091513 0.744638
v 0.656250 0.003125 0.656250
v 0.343750 0.047319 0.612056
v 0.343750 0.135708 0.700444
v 0.343750 0.003125 0.656250
v 0.343750 0.091513 0.744638
vn -0.0000 -0.7071 -0.7071
vn 1.0000 -0.0000 -0.0000
vn -0.0000 0.7071 0.7071
vn -1.0000 -0.0000 -0.0000
vn -0.0000 0.7071 -0.7071
vn -0.0000 -0.7071 0.7071
vt 0.609375 0.953125
vt 0.687500 0.953125
vt 0.687500 0.968750
vt 0.609375 0.968750
vt 0.578125 0.953125
vt 0.578125 0.968750
vt 0.718750 0.953125
vt 0.796875 0.953125
vt 0.796875 0.968750
vt 0.718750 0.968750
vt 0.687500 1.000000
vt 0.609375 1.000000
vt 0.765625 0.968750
vt 0.765625 1.000000
s 0
usemtl m_f1f8d152-942f-8397-3421-3b5633149edf
f 44/62/30 47/63/30 45/64/30 42/65/30
f 43/66/31 44/62/31 42/65/31 41/67/31
f 48/68/32 43/69/32 41/70/32 46/71/32
f 47/63/33 48/68/33 46/71/33 45/64/33
f 46/72/34 41/73/34 42/65/34 45/64/34
f 47/74/35 44/64/35 43/72/35 48/75/35
o cube.006
v 0.656250 0.047319 0.387944
v 0.656250 0.135708 0.299556
v 0.656250 0.003125 0.343750
v 0.656250 0.091513 0.255362
v 0.343750 0.135708 0.299556
v 0.343750 0.047319 0.387944
v 0.343750 0.091513 0.255362
v 0.343750 0.003125 0.343750
vn -0.0000 0.7071 -0.7071
vn 1.0000 -0.0000 -0.0000
vn -0.0000 -0.7071 0.7071
vn -1.0000 -0.0000 -0.0000
vn -0.0000 0.7071 0.7071
vn -0.0000 -0.7071 -0.7071
vt 0.531250 0.750000
vt 0.609375 0.750000
vt 0.609375 0.765625
vt 0.531250 0.765625
vt 0.500000 0.750000
vt 0.500000 0.765625
vt 0.640625 0.750000
vt 0.718750 0.750000
vt 0.718750 0.765625
vt 0.640625 0.765625
vt 0.609375 0.796875
vt 0.531250 0.796875
vt 0.687500 0.765625
vt 0.687500 0.796875
s 0
usemtl m_f1f8d152-942f-8397-3421-3b5633149edf
f 52/76/36 55/77/36 53/78/36 50/79/36
f 51/80/37 52/76/37 50/79/37 49/81/37
f 56/82/38 51/83/38 49/84/38 54/85/38
f 55/77/39 56/82/39 54/85/39 53/78/39
f 54/86/40 49/87/40 50/79/40 53/78/40
f 55/88/41 52/78/41 51/86/41 56/89/41
o cube.007
v 0.387944 0.047319 0.656250
v 0.387944 0.047319 0.343750
v 0.343750 0.003125 0.656250
v 0.343750 0.003125 0.343750
v 0.299556 0.135708 0.343750
v 0.299556 0.135708 0.656250
v 0.255362 0.091513 0.343750
v 0.255362 0.091513 0.656250
vn -0.0000 -0.0000 -1.0000
vn 0.7071 -0.7071 -0.0000
vn -0.0000 -0.0000 1.0000
vn -0.7071 0.7071 -0.0000
vn 0.7071 0.7071 -0.0000
vn -0.7071 -0.7071 -0.0000
vt 0.312500 0.390625
vt 0.343750 0.390625
vt 0.343750 0.406250
vt 0.312500 0.406250
vt 0.234375 0.390625
vt 0.234375 0.406250
vt 0.421875 0.390625
vt 0.453125 0.390625
vt 0.453125 0.406250
vt 0.421875 0.406250
vt 0.343750 0.484375
vt 0.312500 0.484375
vt 0.375000 0.406250
vt 0.375000 0.484375
s 0
usemtl m_f1f8d152-942f-8397-3421-3b5633149edf
f 60/90/42 63/91/42 61/92/42 58/93/42
f 59/94/43 60/90/43 58/93/43 57/95/43
f 64/96/44 59/97/44 57/98/44 62/99/44
f 63/91/45 64/96/45 62/99/45 61/92/45
f 62/100/46 57/101/46 58/93/46 61/92/46
f 63/102/47 60/92/47 59/100/47 64/103/47
o cube.008
v 0.700444 0.135708 0.656250
v 0.700444 0.135708 0.343750
v 0.744638 0.091513 0.656250
v 0.744638 0.091513 0.343750
v 0.612056 0.047319 0.343750
v 0.612056 0.047319 0.656250
v 0.656250 0.003125 0.343750
v 0.656250 0.003125 0.656250
vn -0.0000 -0.0000 -1.0000
vn 0.7071 0.7071 -0.0000
vn -0.0000 -0.0000 1.0000
vn -0.7071 -0.7071 -0.0000
vn -0.7071 0.7071 -0.0000
vn 0.7071 -0.7071 -0.0000
vt 0.078125 0.390625
vt 0.109375 0.390625
vt 0.109375 0.406250
vt 0.078125 0.406250
vt 0.000000 0.390625
vt 0.000000 0.406250
vt 0.187500 0.390625
vt 0.218750 0.390625
vt 0.218750 0.406250
vt 0.187500 0.406250
vt 0.109375 0.484375
vt 0.078125 0.484375
vt 0.140625 0.406250
vt 0.140625 0.484375
s 0
usemtl m_f1f8d152-942f-8397-3421-3b5633149edf
f 68/104/48 71/105/48 69/106/48 66/107/48
f 67/108/49 68/104/49 66/107/49 65/109/49
f 72/110/50 67/111/50 65/112/50 70/113/50
f 71/105/51 72/110/51 70/113/51 69/106/51
f 70/114/52 65/115/52 66/107/52 69/106/52
f 71/116/53 68/106/53 67/114/53 72/117/53
o cube.009
v 0.317862 0.529013 0.656250
v 0.317862 0.529013 0.343750
v 0.317862 0.091513 0.656250
v 0.317862 0.091513 0.343750
v 0.255362 0.529013 0.343750
v 0.255362 0.529013 0.656250
v 0.255362 0.091513 0.343750
v 0.255362 0.091513 0.656250
vn -0.0000 -0.0000 -1.0000
vn 1.0000 -0.0000 -0.0000
vn -0.0000 -0.0000 1.0000
vn -1.0000 -0.0000 -0.0000
vn -0.0000 1.0000 -0.0000
vn -0.0000 -1.0000 -0.0000
vt 0.281250 0.500000
vt 0.296875 0.500000
vt 0.296875 0.609375
vt 0.281250 0.609375
vt 0.203125 0.500000
vt 0.203125 0.609375
vt 0.375000 0.500000
vt 0.390625 0.500000
vt 0.390625 0.609375
vt 0.375000 0.609375
vt 0.296875 0.687500
vt 0.281250 0.687500
vt 0.312500 0.609375
vt 0.312500 0.687500
s 0
usemtl m_f1f8d152-942f-8397-3421-3b5633149edf
f 76/118/54 79/119/54 77/120/54 74/121/54
f 75/122/55 76/118/55 74/121/55 73/123/55
f 80/124/56 75/125/56 73/126/56 78/127/56
f 79/119/57 80/124/57 78/127/57 77/120/57
f 78/128/58 73/129/58 74/121/58 77/120/58
f 79/130/59 76/120/59 75/128/59 80/131/59
o cube.010
v 0.744638 0.529013 0.656250
v 0.744638 0.529013 0.343750
v 0.744638 0.091513 0.656250
v 0.744638 0.091513 0.343750
v 0.682138 0.529013 0.343750
v 0.682138 0.529013 0.656250
v 0.682138 0.091513 0.343750
v 0.682138 0.091513 0.656250
vn -0.0000 -0.0000 -1.0000
vn 1.0000 -0.0000 -0.0000
vn -0.0000 -0.0000 1.0000
vn -1.0000 -0.0000 -0.0000
vn -0.0000 1.0000 -0.0000
vn -0.0000 -1.0000 -0.0000
vt 0.078125 0.500000
vt 0.093750 0.500000
vt 0.093750 0.609375
vt 0.078125 0.609375
vt 0.000000 0.500000
vt 0.000000 0.609375
vt 0.171875 0.500000
vt 0.187500 0.500000
vt 0.187500 0.609375
vt 0.171875 0.609375
vt 0.093750 0.687500
vt 0.078125 0.687500
vt 0.109375 0.609375
vt 0.109375 0.687500
s 0
usemtl m_f1f8d152-942f-8397-3421-3b5633149edf
f 84/132/60 87/133/60 85/134/60 82/135/60
f 83/136/61 84/132/61 82/135/61 81/137/61
f 88/138/62 83/139/62 81/140/62 86/141/62
f 87/133/63 88/138/63 86/141/63 85/134/63
f 86/142/64 81/143/64 82/135/64 85/134/64
f 87/144/65 84/134/65 83/142/65 88/145/65
o cube.011
v 0.656250 0.529013 0.317862
v 0.656250 0.529013 0.255362
v 0.656250 0.091513 0.317862
v 0.656250 0.091513 0.255362
v 0.343750 0.529013 0.255362
v 0.343750 0.529013 0.317862
v 0.343750 0.091513 0.255362
v 0.343750 0.091513 0.317862
vn -0.0000 -0.0000 -1.0000
vn 1.0000 -0.0000 -0.0000
vn -0.0000 -0.0000 1.0000
vn -1.0000 -0.0000 -0.0000
vn -0.0000 1.0000 -0.0000
vn -0.0000 -1.0000 -0.0000
vt 0.421875 0.437500
vt 0.500000 0.437500
vt 0.500000 0.546875
vt 0.421875 0.546875
vt 0.406250 0.437500
vt 0.406250 0.546875
vt 0.515625 0.437500
vt 0.593750 0.437500
vt 0.593750 0.546875
vt 0.515625 0.546875
vt 0.500000 0.562500
vt 0.421875 0.562500
vt 0.578125 0.546875
vt 0.578125 0.562500
s 0
usemtl m_f1f8d152-942f-8397-3421-3b5633149edf
f 92/146/66 95/147/66 93/148/66 90/149/66
f 91/150/67 92/146/67 90/149/67 89/151/67
f 96/152/68 91/153/68 89/154/68 94/155/68
f 95/147/69 96/152/69 94/155/69 93/148/69
f 94/156/70 89/157/70 90/149/70 93/148/70
f 95/158/71 92/148/71 91/156/71 96/159/71
o cube.012
v 0.656250 0.529013 0.744638
v 0.656250 0.529013 0.682138
v 0.656250 0.091513 0.744638
v 0.656250 0.091513 0.682138
v 0.343750 0.529013 0.682138
v 0.343750 0.529013 0.744638
v 0.343750 0.091513 0.682138
v 0.343750 0.091513 0.744638
vn -0.0000 -0.0000 -1.0000
vn 1.0000 -0.0000 -0.0000
vn -0.0000 -0.0000 1.0000
vn -1.0000 -0.0000 -0.0000
vn -0.0000 1.0000 -0.0000
vn -0.0000 -1.0000 -0.0000
vt 0.421875 0.578125
vt 0.500000 0.578125
vt 0.500000 0.687500
vt 0.421875 0.687500
vt 0.406250 0.578125
vt 0.406250 0.687500
vt 0.515625 0.578125
vt 0.593750 0.578125
vt 0.593750 0.687500
vt 0.515625 0.687500
vt 0.500000 0.703125
vt 0.421875 0.703125
vt 0.578125 0.687500
vt 0.578125 0.703125
s 0
usemtl m_f1f8d152-942f-8397-3421-3b5633149edf
f 100/160/72 103/161/72 101/162/72 98/163/72
f 99/164/73 100/160/73 98/163/73 97/165/73
f 104/166/74 99/167/74 97/168/74 102/169/74
f 103/161/75 104/166/75 102/169/75 101/162/75
f 102/170/76 97/171/76 98/163/76 101/162/76
f 103/172/77 100/162/77 99/170/77 104/173/77
o cube.013
v 0.343750 0.527451 0.744638
v 0.387944 0.527451 0.700444
v 0.343750 0.089951 0.744638
v 0.387944 0.089951 0.700444
v 0.299556 0.527451 0.612056
v 0.255362 0.527451 0.656250
v 0.299556 0.089951 0.612056
v 0.255362 0.089951 0.656250
vn 0.7071 -0.0000 -0.7071
vn 0.7071 -0.0000 0.7071
vn -0.7071 -0.0000 0.7071
vn -0.7071 -0.0000 -0.7071
vn -0.0000 1.0000 -0.0000
vn -0.0000 -1.0000 -0.0000
vt 0.625000 0.609375
vt 0.656250 0.609375
vt 0.656250 0.718750
vt 0.625000 0.718750
vt 0.609375 0.609375
vt 0.609375 0.718750
vt 0.671875 0.609375
vt 0.703125 0.609375
vt 0.703125 0.718750
vt 0.671875 0.718750
vt 0.656250 0.734375
vt 0.625000 0.734375
vt 0.687500 0.718750
vt 0.687500 0.734375
s 0
usemtl m_f1f8d152-942f-8397-3421-3b5633149edf
f 108/174/78 111/175/78 109/176/78 106/177/78
f 107/178/79 108/174/79 106/177/79 105/179/79
f 112/180/80 107/181/80 105/182/80 110/183/80
f 111/175/81 112/180/81 110/183/81 109/176/81
f 110/184/82 105/185/82 106/177/82 109/176/82
f 111/186/83 108/176/83 107/184/83 112/187/83
o cube.014
v 0.700444 0.527451 0.387944
v 0.744638 0.527451 0.343750
v 0.700444 0.089951 0.387944
v 0.744638 0.089951 0.343750
v 0.656250 0.527451 0.255362
v 0.612056 0.527451 0.299556
v 0.656250 0.089951 0.255362
v 0.612056 0.089951 0.299556
vn 0.7071 -0.0000 -0.7071
vn 0.7071 -0.0000 0.7071
vn -0.7071 -0.0000 0.7071
vn -0.7071 -0.0000 -0.7071
vn -0.0000 1.0000 -0.0000
vn -0.0000 -1.0000 -0.0000
vt 0.593750 0.296875
vt 0.625000 0.296875
vt 0.625000 0.406250
vt 0.593750 0.406250
vt 0.578125 0.296875
vt 0.578125 0.406250
vt 0.640625 0.296875
vt 0.671875 0.296875
vt 0.671875 0.406250
vt 0.640625 0.406250
vt 0.625000 0.421875
vt 0.593750 0.421875
vt 0.656250 0.406250
vt 0.656250 0.421875
s 0
usemtl m_f1f8d152-942f-8397-3421-3b5633149edf
f 116/188/84 119/189/84 117/190/84 114/191/84
f 115/192/85 116/188/85 114/191/85 113/193/85
f 120/194/86 115/195/86 113/196/86 118/197/86
f 119/189/87 120/194/87 118/197/87 117/190/87
f 118/198/88 113/199/88 114/191/88 117/190/88
f 119/200/89 116/190/89 115/198/89 120/201/89
o cube.015
v 0.387944 0.527451 0.299556
v 0.343750 0.527451 0.255362
v 0.387944 0.089951 0.299556
v 0.343750 0.089951 0.255362
v 0.255362 0.527451 0.343750
v 0.299556 0.527451 0.387944
v 0.255362 0.089951 0.343750
v 0.299556 0.089951 0.387944
vn -0.7071 -0.0000 -0.7071
vn 0.7071 -0.0000 -0.7071
vn 0.7071 -0.0000 0.7071
vn -0.7071 -0.0000 0.7071
vn -0.0000 1.0000 -0.0000
vn -0.0000 -1.0000 -0.0000
vt 0.484375 0.296875
vt 0.515625 0.296875
vt 0.515625 0.406250
vt 0.484375 0.406250
vt 0.468750 0.296875
vt 0.468750 0.406250
vt 0.531250 0.296875
vt 0.562500 0.296875
vt 0.562500 0.406250
vt 0.531250 0.406250
vt 0.515625 0.421875
vt 0.484375 0.421875
vt 0.546875 0.406250
vt 0.546875 0.421875
s 0
usemtl m_f1f8d152-942f-8397-3421-3b5633149edf
f 124/202/90 127/203/90 125/204/90 122/205/90
f 123/206/91 124/202/91 122/205/91 121/207/91
f 128/208/92 123/209/92 121/210/92 126/211/92
f 127/203/93 128/208/93 126/211/93 125/204/93
f 126/212/94 121/213/94 122/205/94 125/204/94
f 127/214/95 124/204/95 123/212/95 128/215/95
o cube.016
v 0.744638 0.527451 0.656250
v 0.700444 0.527451 0.612056
v 0.744638 0.089951 0.656250
v 0.700444 0.089951 0.612056
v 0.612056 0.527451 0.700444
v 0.656250 0.527451 0.744638
v 0.612056 0.089951 0.700444
v 0.656250 0.089951 0.744638
vn -0.7071 -0.0000 -0.7071
vn 0.7071 -0.0000 -0.7071
vn 0.7071 -0.0000 0.7071
vn -0.7071 -0.0000 0.7071
vn -0.0000 1.0000 -0.0000
vn -0.0000 -1.0000 -0.0000
vt 0.015625 0.875000
vt 0.046875 0.875000
vt 0.046875 0.984375
vt 0.015625 0.984375
vt 0.000000 0.875000
vt 0.000000 0.984375
vt 0.062500 0.875000
vt 0.093750 0.875000
vt 0.093750 0.984375
vt 0.062500 0.984375
vt 0.046875 1.000000
vt 0.015625 1.000000
vt 0.078125 0.984375
vt 0.078125 1.000000
s 0
usemtl m_f1f8d152-942f-8397-3421-3b5633149edf
f 132/216/96 135/217/96 133/218/96 130/219/96
f 131/220/97 132/216/97 130/219/97 129/221/97
f 136/222/98 131/223/98 129/224/98 134/225/98
f 135/217/99 136/222/99 134/225/99 133/218/99
f 134/226/100 129/227/100 130/219/100 133/218/100
f 135/228/101 132/218/101 131/226/101 136/229/101
o liquid
v 0.687500 0.456250 0.687500
v 0.687500 0.456250 0.312500
v 0.687500 0.456250 0.687500
v 0.687500 0.456250 0.312500
v 0.312500 0.456250 0.312500
v 0.312500 0.456250 0.687500
v 0.312500 0.456250 0.312500
v 0.312500 0.456250 0.687500
vn -0.0000 -0.0000 -1.0000
vn 0.7071 -0.0000 -0.7071
vn -0.0000 -0.0000 1.0000
vn -0.7071 -0.0000 0.7071
vn -0.0000 1.0000 -0.0000
vn -0.0000 -1.0000 -0.0000
vt 0.093750 0.703125
vt 0.187500 0.703125
vt 0.000000 0.703125
vt 0.281250 0.703125
vt 0.375000 0.703125
vt 0.187500 0.796875
vt 0.093750 0.796875
vt 0.281250 0.796875
s 0
usemtl m_f1f8d152-942f-8397-3421-3b5633149edf
f 140/230/102 143/231/102 141/231/102 138/230/102
f 139/232/103 140/230/103 138/230/103 137/232/103
f 144/233/104 139/234/104 137/234/104 142/233/104
f 143/231/105 144/233/105 142/233/105 141/231/105
f 142/235/106 137/236/106 138/230/106 141/231/106
f 143/233/107 140/231/107 139/235/107 144/237/107
