# Blender v3.6.1 OBJ File: ''
# www.blender.org
mtllib pepper_popper.mtl
o cube.524
v 0.843750 -0.000000 0.156250
v 0.156250 -0.000000 0.156250
v 0.156250 0.062500 0.156250
v 0.843750 0.062500 0.156250
v 0.843750 0.000000 0.843750
v 0.843750 0.062500 0.843750
v 0.156250 0.000000 0.843750
v 0.156250 0.062500 0.843750
vt 0.171875 0.812500
vt 0.343750 0.812500
vt 0.343750 0.828125
vt 0.171875 0.828125
vt 0.000000 0.812500
vt 0.000000 0.828125
vt 0.515625 0.812500
vt 0.687500 0.812500
vt 0.687500 0.828125
vt 0.515625 0.828125
vt 0.343750 1.000000
vt 0.171875 1.000000
vt 0.515625 0.828125
vt 0.343750 0.828125
vt 0.343750 1.000000
vt 0.515625 1.000000
vn 0.0000 0.0000 -1.0000
vn 1.0000 0.0000 0.0000
vn 0.0000 0.0000 1.0000
vn -1.0000 0.0000 0.0000
vn 0.0000 1.0000 -0.0000
vn 0.0000 -1.0000 0.0000
usemtl m_434dfa97-6c23-cfdf-d0e8-4193e6355629
s 1
f 1/1/1 2/2/1 3/3/1 4/4/1
f 5/5/2 1/1/2 4/4/2 6/6/2
f 7/7/3 5/8/3 6/9/3 8/10/3
f 2/2/4 7/7/4 8/10/4 3/3/4
f 8/11/5 6/12/5 4/4/5 3/3/5
f 2/13/6 1/14/6 5/15/6 7/16/6
o cube.525
v 0.415732 0.171875 0.338154
v 0.229836 0.171875 0.362628
v 0.229836 0.234375 0.362628
v 0.415732 0.234375 0.338154
v 0.456522 0.171875 0.647981
v 0.456522 0.234375 0.647981
v 0.270626 0.171875 0.672454
v 0.270626 0.234375 0.672454
vt 0.250000 0.562500
vt 0.296875 0.562500
vt 0.296875 0.578125
vt 0.250000 0.578125
vt 0.171875 0.562500
vt 0.171875 0.578125
vt 0.375000 0.562500
vt 0.421875 0.562500
vt 0.421875 0.578125
vt 0.375000 0.578125
vt 0.296875 0.656250
vt 0.250000 0.656250
vt 0.343750 0.578125
vt 0.296875 0.578125
vt 0.296875 0.656250
vt 0.343750 0.656250
vn -0.1305 0.0000 -0.9914
vn 0.9914 0.0000 -0.1305
vn 0.1305 0.0000 0.9914
vn -0.9914 0.0000 0.1305
vn -0.0000 1.0000 -0.0000
vn 0.0000 -1.0000 0.0000
usemtl m_434dfa97-6c23-cfdf-d0e8-4193e6355629
s 1
f 9/17/7 10/18/7 11/19/7 12/20/7
f 13/21/8 9/17/8 12/20/8 14/22/8
f 15/23/9 13/24/9 14/25/9 16/26/9
f 10/18/10 15/23/10 16/26/10 11/19/10
f 16/27/11 14/28/11 12/20/11 11/19/11
f 10/29/12 9/30/12 13/31/12 15/32/12
o cube.526
v 0.415732 0.240625 0.338154
v 0.229836 0.240625 0.362628
v 0.229836 0.240625 0.362628
v 0.415732 0.240625 0.338154
v 0.456522 0.240625 0.647981
v 0.456522 0.240625 0.647981
v 0.270626 0.240625 0.672454
v 0.270626 0.240625 0.672454
vt 0.078125 0.843750
vt 0.125000 0.843750
vt 0.125000 0.843750
vt 0.078125 0.843750
vt 0.000000 0.843750
vt 0.000000 0.843750
vt 0.203125 0.843750
vt 0.250000 0.843750
vt 0.250000 0.843750
vt 0.203125 0.843750
vt 0.125000 0.921875
vt 0.078125 0.921875
vt 0.171875 0.843750
vt 0.125000 0.843750
vt 0.125000 0.921875
vt 0.171875 0.921875
vn -0.1305 0.0000 -0.9914
vn 0.0000 0.0000 -0.9915
vn -0.1305 0.0000 -0.9915
vn 0.0000 0.0000 -0.9914
vn 0.9914 -0.0000 -0.1305
vn 0.0000 0.0000 -0.1305
vn 0.1305 0.0000 0.9914
vn 0.0000 0.0000 0.9914
vn -0.9914 0.0000 0.1305
vn 0.0000 0.0000 0.1306
vn -0.9914 -0.0000 0.1306
vn 0.0000 0.0000 0.1305
vn -0.0000 1.0000 -0.0000
vn 0.0000 -1.0000 0.0000
usemtl m_434dfa97-6c23-cfdf-d0e8-4193e6355629
s 1
f 17/33/13 18/34/14 19/35/15 20/36/16
f 21/37/17 17/33/18 20/36/17 22/38/18
f 23/39/19 21/40/20 22/41/19 24/42/20
f 18/34/21 23/39/22 24/42/23 19/35/24
f 24/43/25 22/44/25 20/36/25 19/35/25
f 18/45/26 17/46/26 21/47/26 23/48/26
o cube.527
v 0.442636 0.062500 0.303093
v 0.194775 0.062500 0.335724
v 0.194775 0.187500 0.335724
v 0.442636 0.187500 0.303093
v 0.491583 0.062500 0.674885
v 0.491583 0.187500 0.674885
v 0.243722 0.062500 0.707516
v 0.243722 0.187500 0.707516
vt 0.312500 0.656250
vt 0.375000 0.656250
vt 0.375000 0.687500
vt 0.312500 0.687500
vt 0.218750 0.656250
vt 0.218750 0.687500
vt 0.468750 0.656250
vt 0.531250 0.656250
vt 0.531250 0.687500
vt 0.468750 0.687500
vt 0.375000 0.781250
vt 0.312500 0.781250
vt 0.437500 0.687500
vt 0.375000 0.687500
vt 0.375000 0.781250
vt 0.437500 0.781250
vn -0.1305 -0.0000 -0.9914
vn 0.9914 0.0000 -0.1305
vn 0.1305 0.0000 0.9914
vn -0.9914 0.0000 0.1305
vn -0.0000 1.0000 -0.0000
vn 0.0000 -1.0000 0.0000
usemtl m_434dfa97-6c23-cfdf-d0e8-4193e6355629
s 1
f 25/49/27 26/50/27 27/51/27 28/52/27
f 29/53/28 25/49/28 28/52/28 30/54/28
f 31/55/29 29/56/29 30/57/29 32/58/29
f 26/50/30 31/55/30 32/58/30 27/51/30
f 32/59/31 30/60/31 28/52/31 27/51/31
f 26/61/32 25/62/32 29/63/32 31/64/32
o cube.528
v 0.367653 0.129187 0.691200
v 0.367653 0.129187 0.691200
v 0.363574 0.183313 0.660218
v 0.363574 0.183313 0.660218
v 0.372565 0.222580 0.853711
v 0.368486 0.276707 0.822729
v 0.372565 0.222580 0.853711
v 0.368486 0.276707 0.822729
vt 0.046875 0.796875
vt 0.046875 0.796875
vt 0.046875 0.812500
vt 0.046875 0.812500
vt 0.000000 0.796875
vt 0.000000 0.812500
vt 0.093750 0.796875
vt 0.093750 0.796875
vt 0.093750 0.812500
vt 0.093750 0.812500
vt 0.046875 0.859375
vt 0.046875 0.859375
vt 0.046875 0.812500
vt 0.046875 0.812500
vt 0.046875 0.859375
vt 0.046875 0.859375
vn 0.0000 0.0000 -0.8667
vn -0.0262 -0.4981 -0.8667
vn 0.9975 0.0436 -0.0552
vn 0.0000 0.0000 0.8667
vn 0.0262 0.4981 0.8667
vn -0.9975 -0.0436 0.0552
vn 0.0000 0.0000 -0.4957
vn -0.0653 0.8660 -0.4957
vn 0.0000 0.0000 0.4958
vn 0.0653 -0.8660 0.4958
vn 0.0000 0.0000 0.4957
vn 0.0653 -0.8660 0.4957
usemtl m_434dfa97-6c23-cfdf-d0e8-4193e6355629
s 1
f 33/65/33 34/66/34 35/67/33 36/68/34
f 37/69/35 33/65/35 36/68/35 38/70/35
f 39/71/36 37/72/37 38/73/36 40/74/37
f 34/66/38 39/71/38 40/74/38 35/67/38
f 40/75/39 38/76/40 36/68/39 35/67/40
f 34/77/41 33/78/42 37/79/43 39/80/44
o cube.529
v 0.398233 0.187381 0.725800
v 0.335888 0.184657 0.729250
v 0.335888 0.184657 0.729250
v 0.398233 0.187381 0.725800
v 0.401508 0.249643 0.834141
v 0.401508 0.249643 0.834141
v 0.339163 0.246920 0.837591
v 0.339163 0.246920 0.837591
vt 0.031250 0.921875
vt 0.046875 0.921875
vt 0.046875 0.921875
vt 0.031250 0.921875
vt 0.000000 0.921875
vt 0.000000 0.921875
vt 0.078125 0.921875
vt 0.093750 0.921875
vt 0.093750 0.921875
vt 0.078125 0.921875
vt 0.046875 0.953125
vt 0.031250 0.953125
vt 0.062500 0.921875
vt 0.046875 0.921875
vt 0.046875 0.953125
vt 0.062500 0.953125
vn -0.0262 -0.4981 -0.8667
vn 0.0000 0.0000 -0.8667
vn 0.9975 0.0436 -0.0552
vn 0.0000 0.0000 -0.0552
vn 0.0262 0.4981 0.8667
vn 0.0000 0.0000 0.8667
vn -0.9975 -0.0436 0.0552
vn 0.0000 0.0000 0.0552
vn -0.0653 0.8660 -0.4957
vn 0.0653 -0.8660 0.4957
usemtl m_434dfa97-6c23-cfdf-d0e8-4193e6355629
s 1
f 41/81/45 42/82/46 43/83/45 44/84/46
f 45/85/47 41/81/48 44/84/47 46/86/48
f 47/87/49 45/88/50 46/89/49 48/90/50
f 42/82/51 47/87/52 48/90/51 43/83/52
f 48/91/53 46/92/53 44/84/53 43/83/53
f 42/93/54 41/94/54 45/95/54 47/96/54
o cube.530
v 0.427768 0.157612 0.669905
v 0.303078 0.152165 0.676805
v 0.303078 0.152165 0.676805
v 0.427768 0.157612 0.669905
v 0.429406 0.188743 0.724075
v 0.429406 0.188743 0.724075
v 0.304715 0.183296 0.730975
v 0.304715 0.183296 0.730975
vt 0.015625 0.890625
vt 0.046875 0.890625
vt 0.046875 0.890625
vt 0.015625 0.890625
vt 0.000000 0.890625
vt 0.000000 0.890625
vt 0.062500 0.890625
vt 0.093750 0.890625
vt 0.093750 0.890625
vt 0.062500 0.890625
vt 0.046875 0.906250
vt 0.015625 0.906250
vt 0.078125 0.890625
vt 0.046875 0.890625
vt 0.046875 0.906250
vt 0.078125 0.906250
vn -0.0262 -0.4981 -0.8667
vn 0.0000 0.0000 -0.8667
vn 0.9975 0.0436 -0.0552
vn 0.0000 0.0000 -0.0552
vn 0.0262 0.4981 0.8667
vn 0.0000 0.0000 0.8667
vn -0.9975 -0.0436 0.0552
vn 0.0000 0.0000 0.0552
vn -0.0653 0.8660 -0.4957
vn 0.0653 -0.8660 0.4957
usemtl m_434dfa97-6c23-cfdf-d0e8-4193e6355629
s 1
f 49/97/55 50/98/56 51/99/55 52/100/56
f 53/101/57 49/97/58 52/100/57 54/102/58
f 55/103/59 53/104/60 54/105/59 56/106/60
f 50/98/61 55/103/62 56/106/61 51/99/62
f 56/107/63 54/108/63 52/100/63 51/99/63
f 50/109/64 49/110/64 53/111/64 55/112/64
o cube.531
v 0.753678 0.171875 0.323510
v 0.566892 0.171875 0.307168
v 0.566892 0.234375 0.307168
v 0.753678 0.234375 0.323510
v 0.726442 0.171875 0.634821
v 0.726442 0.234375 0.634821
v 0.539655 0.171875 0.618479
v 0.539655 0.234375 0.618479
vt 0.078125 0.593750
vt 0.125000 0.593750
vt 0.125000 0.609375
vt 0.078125 0.609375
vt 0.000000 0.593750
vt 0.000000 0.609375
vt 0.203125 0.593750
vt 0.250000 0.593750
vt 0.250000 0.609375
vt 0.203125 0.609375
vt 0.125000 0.687500
vt 0.078125 0.687500
vt 0.171875 0.609375
vt 0.125000 0.609375
vt 0.125000 0.687500
vt 0.171875 0.687500
vn 0.0872 0.0000 -0.9962
vn 0.9962 0.0000 0.0872
vn -0.0872 0.0000 0.9962
vn -0.9962 0.0000 -0.0872
vn 0.0000 1.0000 -0.0000
vn -0.0000 -1.0000 0.0000
usemtl m_434dfa97-6c23-cfdf-d0e8-4193e6355629
s 1
f 57/113/65 58/114/65 59/115/65 60/116/65
f 61/117/66 57/113/66 60/116/66 62/118/66
f 63/119/67 61/120/67 62/121/67 64/122/67
f 58/114/68 63/119/68 64/122/68 59/115/68
f 64/123/69 62/124/69 60/116/69 59/115/69
f 58/125/70 57/126/70 61/127/70 63/128/70
o cube.532
v 0.753678 0.240625 0.323510
v 0.566892 0.240625 0.307168
v 0.566892 0.240625 0.307168
v 0.753678 0.240625 0.323510
v 0.726442 0.240625 0.634821
v 0.726442 0.240625 0.634821
v 0.539655 0.240625 0.618479
v 0.539655 0.240625 0.618479
vt 0.078125 0.921875
vt 0.125000 0.921875
vt 0.125000 0.921875
vt 0.078125 0.921875
vt 0.000000 0.921875
vt 0.000000 0.921875
vt 0.203125 0.921875
vt 0.250000 0.921875
vt 0.250000 0.921875
vt 0.203125 0.921875
vt 0.125000 1.000000
vt 0.078125 1.000000
vt 0.171875 0.921875
vt 0.125000 0.921875
vt 0.125000 1.000000
vt 0.171875 1.000000
vn 0.0871 -0.0000 -0.9962
vn 0.0000 0.0000 -0.9962
vn 0.9962 -0.0000 0.0872
vn 0.0000 0.0000 0.0872
vn -0.0871 0.0000 0.9962
vn 0.0000 0.0000 0.9962
vn -0.9962 0.0000 -0.0872
vn 0.0000 0.0000 -0.0871
vn -0.9962 0.0000 -0.0871
vn 0.0000 0.0000 -0.0872
vn 0.0000 1.0000 -0.0000
vn -0.0000 -1.0000 0.0000
usemtl m_434dfa97-6c23-cfdf-d0e8-4193e6355629
s 1
f 65/129/71 66/130/72 67/131/71 68/132/72
f 69/133/73 65/129/74 68/132/73 70/134/74
f 71/135/75 69/136/76 70/137/75 72/138/76
f 66/130/77 71/135/78 72/138/79 67/131/80
f 72/139/81 70/140/81 68/132/81 67/131/81
f 66/141/82 65/142/82 69/143/82 71/144/82
o cube.533
v 0.787533 0.062500 0.295103
v 0.538484 0.062500 0.273314
v 0.538484 0.187500 0.273314
v 0.787533 0.187500 0.295103
v 0.754849 0.062500 0.668676
v 0.754849 0.187500 0.668676
v 0.505801 0.062500 0.646887
v 0.505801 0.187500 0.646887
vt 0.093750 0.687500
vt 0.156250 0.687500
vt 0.156250 0.718750
vt 0.093750 0.718750
vt 0.000000 0.687500
vt 0.000000 0.718750
vt 0.250000 0.687500
vt 0.312500 0.687500
vt 0.312500 0.718750
vt 0.250000 0.718750
vt 0.156250 0.812500
vt 0.093750 0.812500
vt 0.218750 0.718750
vt 0.156250 0.718750
vt 0.156250 0.812500
vt 0.218750 0.812500
vn 0.0872 0.0000 -0.9962
vn 0.9962 0.0000 0.0872
vn -0.0872 0.0000 0.9962
vn -0.9962 0.0000 -0.0872
vn 0.0000 1.0000 -0.0000
vn 0.0000 -1.0000 0.0000
usemtl m_434dfa97-6c23-cfdf-d0e8-4193e6355629
s 1
f 73/145/83 74/146/83 75/147/83 76/148/83
f 77/149/84 73/145/84 76/148/84 78/150/84
f 79/151/85 77/152/85 78/153/85 80/154/85
f 74/146/86 79/151/86 80/154/86 75/147/86
f 80/155/87 78/156/87 76/148/87 75/147/87
f 74/157/88 73/158/88 77/159/88 79/160/88
o cube.534
v 0.630325 0.129187 0.657781
v 0.630325 0.129187 0.657781
v 0.633049 0.183313 0.626650
v 0.633049 0.183313 0.626650
v 0.664999 0.219742 0.818261
v 0.667723 0.273869 0.787130
v 0.664999 0.219742 0.818261
v 0.667723 0.273869 0.787130
vt 0.046875 0.828125
vt 0.046875 0.828125
vt 0.046875 0.843750
vt 0.046875 0.843750
vt 0.000000 0.828125
vt 0.000000 0.843750
vt 0.093750 0.828125
vt 0.093750 0.828125
vt 0.093750 0.843750
vt 0.093750 0.843750
vt 0.046875 0.890625
vt 0.046875 0.890625
vt 0.046875 0.843750
vt 0.046875 0.843750
vt 0.046875 0.890625
vt 0.046875 0.890625
vn 0.0000 0.0000 -0.8559
vn -0.1850 -0.4830 -0.8559
vn -0.1849 -0.4830 -0.8559
vn 0.9818 -0.1294 -0.1391
vn 0.0000 0.0000 0.8559
vn 0.1849 0.4830 0.8559
vn -0.9818 0.1294 0.1391
vn 0.0000 0.0000 -0.4981
vn 0.0436 0.8660 -0.4981
vn 0.0000 0.0000 0.4981
vn -0.0436 -0.8660 0.4981
usemtl m_434dfa97-6c23-cfdf-d0e8-4193e6355629
s 1
f 81/161/89 82/162/90 83/163/89 84/164/91
f 85/165/92 81/161/92 84/164/92 86/166/92
f 87/167/93 85/168/94 86/169/93 88/170/94
f 82/162/95 87/167/95 88/170/95 83/163/95
f 88/171/96 86/172/97 84/164/96 83/163/97
f 82/173/98 81/174/99 85/175/98 87/176/99
o cube.535
v 0.662818 0.156250 0.644939
v 0.601456 0.164338 0.653633
v 0.601456 0.164338 0.653633
v 0.662818 0.156250 0.644939
v 0.697492 0.246806 0.805419
v 0.697492 0.246806 0.805419
v 0.636130 0.254894 0.814113
v 0.636130 0.254894 0.814113
vt 0.046875 0.953125
vt 0.062500 0.953125
vt 0.062500 0.953125
vt 0.046875 0.953125
vt 0.000000 0.953125
vt 0.000000 0.953125
vt 0.109375 0.953125
vt 0.125000 0.953125
vt 0.125000 0.953125
vt 0.109375 0.953125
vt 0.062500 1.000000
vt 0.046875 1.000000
vt 0.078125 0.953125
vt 0.062500 0.953125
vt 0.062500 1.000000
vt 0.078125 1.000000
vn -0.1849 -0.4830 -0.8559
vn 0.0000 0.0000 -0.8559
vn -0.1849 -0.4829 -0.8559
vn 0.9818 -0.1295 -0.1391
vn 0.0000 0.0000 -0.1390
vn 0.9818 -0.1294 -0.1390
vn 0.0000 0.0000 -0.1391
vn 0.1849 0.4830 0.8559
vn 0.0000 0.0000 0.8559
vn -0.9818 0.1295 0.1392
vn 0.0000 0.0000 0.1391
vn -0.9818 0.1294 0.1391
vn 0.0000 0.0000 0.1392
vn 0.0436 0.8660 -0.4981
vn -0.0436 -0.8660 0.4981
usemtl m_434dfa97-6c23-cfdf-d0e8-4193e6355629
s 1
f 89/177/100 90/178/101 91/179/102 92/180/101
f 93/181/103 89/177/104 92/180/105 94/182/106
f 95/183/107 93/184/108 94/185/107 96/186/108
f 90/178/109 95/183/110 96/186/111 91/179/112
f 96/187/113 94/188/113 92/180/113 91/179/113
f 90/189/114 89/190/114 93/191/114 95/192/114
o cube.536
v 0.693949 0.156250 0.647663
v 0.569425 0.156250 0.636768
v 0.569425 0.156250 0.636768
v 0.693949 0.156250 0.647663
v 0.689117 0.185109 0.702890
v 0.689117 0.185109 0.702890
v 0.564593 0.185109 0.691996
v 0.564593 0.185109 0.691996
vt 0.015625 0.906250
vt 0.046875 0.906250
vt 0.046875 0.906250
vt 0.015625 0.906250
vt 0.000000 0.906250
vt 0.000000 0.906250
vt 0.062500 0.906250
vt 0.093750 0.906250
vt 0.093750 0.906250
vt 0.062500 0.906250
vt 0.046875 0.921875
vt 0.015625 0.921875
vt 0.078125 0.906250
vt 0.046875 0.906250
vt 0.046875 0.921875
vt 0.078125 0.921875
vn 0.0773 -0.4617 -0.8837
vn 0.0000 0.0000 -0.8836
vn 0.0773 -0.4617 -0.8836
vn 0.0000 0.0000 -0.8837
vn 0.9962 0.0000 0.0872
vn 0.0000 0.0000 0.0871
vn 0.9962 -0.0000 0.0871
vn 0.0000 0.0000 0.0872
vn -0.0773 0.4618 0.8836
vn 0.0000 0.0000 0.8836
vn -0.9962 -0.0000 -0.0872
vn 0.0000 0.0000 -0.0871
vn -0.9962 0.0000 -0.0871
vn 0.0000 0.0000 -0.0872
vn 0.0402 0.8870 -0.4600
vn -0.0402 -0.8870 0.4600
usemtl m_434dfa97-6c23-cfdf-d0e8-4193e6355629
s 1
f 97/193/115 98/194/116 99/195/117 100/196/118
f 101/197/119 97/193/120 100/196/121 102/198/122
f 103/199/123 101/200/124 102/201/123 104/202/124
f 98/194/125 103/199/126 104/202/127 99/195/128
f 104/203/129 102/204/129 100/196/129 99/195/129
f 98/205/130 97/206/130 101/207/130 103/208/130
