# Blender v3.6.1 OBJ File: ''
# www.blender.org
mtllib monster_tartare.mtl
o cube.469
v 0.875000 -0.000000 0.125000
v 0.125000 -0.000000 0.125000
v 0.125000 0.062500 0.125000
v 0.875000 0.062500 0.125000
v 0.875000 0.000000 0.875000
v 0.875000 0.062500 0.875000
v 0.125000 0.000000 0.875000
v 0.125000 0.062500 0.875000
vt 0.187500 0.796875
vt 0.375000 0.796875
vt 0.375000 0.812500
vt 0.187500 0.812500
vt 0.000000 0.796875
vt 0.000000 0.812500
vt 0.562500 0.796875
vt 0.750000 0.796875
vt 0.750000 0.812500
vt 0.562500 0.812500
vt 0.375000 1.000000
vt 0.187500 1.000000
vt 0.562500 0.812500
vt 0.375000 0.812500
vt 0.375000 1.000000
vt 0.562500 1.000000
vn 0.0000 0.0000 -1.0000
vn 1.0000 0.0000 0.0000
vn 0.0000 0.0000 1.0000
vn -1.0000 0.0000 0.0000
vn 0.0000 1.0000 -0.0000
vn 0.0000 -1.0000 0.0000
usemtl m_08f3b57a-08fb-91df-1df4-3bd7d28968af
s 1
f 1/1/1 2/2/1 3/3/1 4/4/1
f 5/5/2 1/1/2 4/4/2 6/6/2
f 7/7/3 5/8/3 6/9/3 8/10/3
f 2/2/4 7/7/4 8/10/4 3/3/4
f 8/11/5 6/12/5 4/4/5 3/3/5
f 2/13/6 1/14/6 5/15/6 7/16/6
o cube.470
v 0.187500 0.062500 0.125000
v 0.125000 0.062500 0.125000
v 0.125000 0.125000 0.125000
v 0.187500 0.125000 0.125000
v 0.187500 0.062500 0.812500
v 0.187500 0.125000 0.812500
v 0.125000 0.062500 0.812500
v 0.125000 0.125000 0.812500
vt 0.375000 0.593750
vt 0.390625 0.593750
vt 0.390625 0.609375
vt 0.375000 0.609375
vt 0.203125 0.593750
vt 0.203125 0.609375
vt 0.562500 0.593750
vt 0.578125 0.593750
vt 0.578125 0.609375
vt 0.562500 0.609375
vt 0.390625 0.781250
vt 0.375000 0.781250
vt 0.406250 0.609375
vt 0.390625 0.609375
vt 0.390625 0.781250
vt 0.406250 0.781250
vn 0.0000 0.0000 -1.0000
vn 1.0000 0.0000 0.0000
vn 0.0000 0.0000 1.0000
vn -1.0000 0.0000 0.0000
vn 0.0000 1.0000 -0.0000
vn 0.0000 -1.0000 0.0000
usemtl m_08f3b57a-08fb-91df-1df4-3bd7d28968af
s 1
f 9/17/7 10/18/7 11/19/7 12/20/7
f 13/21/8 9/17/8 12/20/8 14/22/8
f 15/23/9 13/24/9 14/25/9 16/26/9
f 10/18/10 15/23/10 16/26/10 11/19/10
f 16/27/11 14/28/11 12/20/11 11/19/11
f 10/29/12 9/30/12 13/31/12 15/32/12
o cube.471
v 0.875000 0.062500 0.187500
v 0.812500 0.062500 0.187500
v 0.812500 0.125000 0.187500
v 0.875000 0.125000 0.187500
v 0.875000 0.062500 0.875000
v 0.875000 0.125000 0.875000
v 0.812500 0.062500 0.875000
v 0.812500 0.125000 0.875000
vt 0.171875 0.609375
vt 0.187500 0.609375
vt 0.187500 0.625000
vt 0.171875 0.625000
vt 0.000000 0.609375
vt 0.000000 0.625000
vt 0.359375 0.609375
vt 0.375000 0.609375
vt 0.375000 0.625000
vt 0.359375 0.625000
vt 0.187500 0.796875
vt 0.171875 0.796875
vt 0.203125 0.625000
vt 0.187500 0.625000
vt 0.187500 0.796875
vt 0.203125 0.796875
vn 0.0000 0.0000 -1.0000
vn 1.0000 0.0000 0.0000
vn 0.0000 0.0000 1.0000
vn -1.0000 0.0000 0.0000
vn 0.0000 1.0000 -0.0000
vn 0.0000 -1.0000 0.0000
usemtl m_08f3b57a-08fb-91df-1df4-3bd7d28968af
s 1
f 17/33/13 18/34/13 19/35/13 20/36/13
f 21/37/14 17/33/14 20/36/14 22/38/14
f 23/39/15 21/40/15 22/41/15 24/42/15
f 18/34/16 23/39/16 24/42/16 19/35/16
f 24/43/17 22/44/17 20/36/17 19/35/17
f 18/45/18 17/46/18 21/47/18 23/48/18
o cube.472
v 0.875000 0.062500 0.125000
v 0.187500 0.062500 0.125000
v 0.187500 0.125000 0.125000
v 0.875000 0.125000 0.125000
v 0.875000 0.062500 0.187500
v 0.875000 0.125000 0.187500
v 0.187500 0.062500 0.187500
v 0.187500 0.125000 0.187500
vt 0.421875 0.625000
vt 0.593750 0.625000
vt 0.593750 0.640625
vt 0.421875 0.640625
vt 0.406250 0.625000
vt 0.406250 0.640625
vt 0.609375 0.625000
vt 0.781250 0.625000
vt 0.781250 0.640625
vt 0.609375 0.640625
vt 0.593750 0.656250
vt 0.421875 0.656250
vt 0.765625 0.640625
vt 0.593750 0.640625
vt 0.593750 0.656250
vt 0.765625 0.656250
vn 0.0000 0.0000 -1.0000
vn 1.0000 0.0000 0.0000
vn 0.0000 0.0000 1.0000
vn -1.0000 0.0000 0.0000
vn 0.0000 1.0000 -0.0000
vn 0.0000 -1.0000 0.0000
usemtl m_08f3b57a-08fb-91df-1df4-3bd7d28968af
s 1
f 25/49/19 26/50/19 27/51/19 28/52/19
f 29/53/20 25/49/20 28/52/20 30/54/20
f 31/55/21 29/56/21 30/57/21 32/58/21
f 26/50/22 31/55/22 32/58/22 27/51/22
f 32/59/23 30/60/23 28/52/23 27/51/23
f 26/61/24 25/62/24 29/63/24 31/64/24
o cube.473
v 0.812500 0.062500 0.812500
v 0.125000 0.062500 0.812500
v 0.125000 0.125000 0.812500
v 0.812500 0.125000 0.812500
v 0.812500 0.062500 0.875000
v 0.812500 0.125000 0.875000
v 0.125000 0.062500 0.875000
v 0.125000 0.125000 0.875000
vt 0.421875 0.656250
vt 0.593750 0.656250
vt 0.593750 0.671875
vt 0.421875 0.671875
vt 0.406250 0.656250
vt 0.406250 0.671875
vt 0.609375 0.656250
vt 0.781250 0.656250
vt 0.781250 0.671875
vt 0.609375 0.671875
vt 0.593750 0.687500
vt 0.421875 0.687500
vt 0.765625 0.671875
vt 0.593750 0.671875
vt 0.593750 0.687500
vt 0.765625 0.687500
vn 0.0000 0.0000 -1.0000
vn 1.0000 0.0000 0.0000
vn 0.0000 0.0000 1.0000
vn -1.0000 0.0000 0.0000
vn 0.0000 1.0000 0.0000
vn 0.0000 -1.0000 0.0000
usemtl m_08f3b57a-08fb-91df-1df4-3bd7d28968af
s 1
f 33/65/25 34/66/25 35/67/25 36/68/25
f 37/69/26 33/65/26 36/68/26 38/70/26
f 39/71/27 37/72/27 38/73/27 40/74/27
f 34/66/28 39/71/28 40/74/28 35/67/28
f 40/75/29 38/76/29 36/68/29 35/67/29
f 34/77/30 33/78/30 37/79/30 39/80/30
o cube.474
v 0.687500 0.062500 0.437500
v 0.312500 0.062500 0.437500
v 0.312500 0.375000 0.437500
v 0.687500 0.375000 0.437500
v 0.687500 0.062500 0.812500
v 0.687500 0.375000 0.812500
v 0.312500 0.062500 0.812500
v 0.312500 0.375000 0.812500
vt 0.093750 0.421875
vt 0.187500 0.421875
vt 0.187500 0.500000
vt 0.093750 0.500000
vt 0.000000 0.421875
vt 0.000000 0.500000
vt 0.281250 0.421875
vt 0.375000 0.421875
vt 0.375000 0.500000
vt 0.281250 0.500000
vt 0.187500 0.593750
vt 0.093750 0.593750
vt 0.281250 0.500000
vt 0.187500 0.500000
vt 0.187500 0.593750
vt 0.281250 0.593750
vn 0.0000 -0.0000 -1.0000
vn 1.0000 0.0000 0.0000
vn 0.0000 0.0000 1.0000
vn -1.0000 0.0000 0.0000
vn 0.0000 1.0000 -0.0000
vn 0.0000 -1.0000 0.0000
usemtl m_08f3b57a-08fb-91df-1df4-3bd7d28968af
s 1
f 41/81/31 42/82/31 43/83/31 44/84/31
f 45/85/32 41/81/32 44/84/32 46/86/32
f 47/87/33 45/88/33 46/89/33 48/90/33
f 42/82/34 47/87/34 48/90/34 43/83/34
f 48/91/35 46/92/35 44/84/35 43/83/35
f 42/93/36 41/94/36 45/95/36 47/96/36
o cube.475
v 0.656250 0.296875 0.468750
v 0.343750 0.296875 0.468750
v 0.343750 0.421875 0.468750
v 0.656250 0.421875 0.468750
v 0.656250 0.296875 0.781250
v 0.656250 0.421875 0.781250
v 0.343750 0.296875 0.781250
v 0.343750 0.421875 0.781250
vt 0.484375 0.687500
vt 0.562500 0.687500
vt 0.562500 0.718750
vt 0.484375 0.718750
vt 0.406250 0.687500
vt 0.406250 0.718750
vt 0.640625 0.687500
vt 0.718750 0.687500
vt 0.718750 0.718750
vt 0.640625 0.718750
vt 0.562500 0.796875
vt 0.484375 0.796875
vt 0.640625 0.718750
vt 0.562500 0.718750
vt 0.562500 0.796875
vt 0.640625 0.796875
vn 0.0000 0.0000 -1.0000
vn 1.0000 0.0000 0.0000
vn 0.0000 0.0000 1.0000
vn -1.0000 0.0000 0.0000
vn 0.0000 1.0000 -0.0000
vn 0.0000 -1.0000 0.0000
usemtl m_08f3b57a-08fb-91df-1df4-3bd7d28968af
s 1
f 49/97/37 50/98/37 51/99/37 52/100/37
f 53/101/38 49/97/38 52/100/38 54/102/38
f 55/103/39 53/104/39 54/105/39 56/106/39
f 50/98/40 55/103/40 56/106/40 51/99/40
f 56/107/41 54/108/41 52/100/41 51/99/41
f 50/109/42 49/110/42 53/111/42 55/112/42
o cube.476
v 0.656250 0.428125 0.468750
v 0.343750 0.428125 0.468750
v 0.343750 0.428125 0.468750
v 0.656250 0.428125 0.468750
v 0.656250 0.428125 0.781250
v 0.656250 0.428125 0.781250
v 0.343750 0.428125 0.781250
v 0.343750 0.428125 0.781250
vt 0.203125 0.718750
vt 0.281250 0.718750
vt 0.281250 0.718750
vt 0.203125 0.718750
vt 0.125000 0.718750
vt 0.125000 0.718750
vt 0.359375 0.718750
vt 0.437500 0.718750
vt 0.437500 0.718750
vt 0.359375 0.718750
vt 0.281250 0.796875
vt 0.203125 0.796875
vt 0.359375 0.718750
vt 0.281250 0.718750
vt 0.281250 0.796875
vt 0.359375 0.796875
vn 0.0000 -0.0000 -1.0000
vn 1.0000 0.0000 0.0000
vn 0.0000 0.0000 1.0000
vn -1.0000 0.0000 0.0000
vn 0.0000 1.0000 0.0000
vn 0.0000 -1.0000 0.0000
usemtl m_08f3b57a-08fb-91df-1df4-3bd7d28968af
s 1
f 57/113/43 58/114/43 59/115/43 60/116/43
f 61/117/44 57/113/44 60/116/44 62/118/44
f 63/119/45 61/120/45 62/121/45 64/122/45
f 58/114/46 63/119/46 64/122/46 59/115/46
f 64/123/47 62/124/47 60/116/47 59/115/47
f 58/125/48 57/126/48 61/127/48 63/128/48
o cube.477
v 0.687500 0.062500 0.250000
v 0.562500 0.062500 0.250000
v 0.562500 0.125000 0.250000
v 0.687500 0.125000 0.250000
v 0.687500 0.062500 0.375000
v 0.687500 0.125000 0.375000
v 0.562500 0.062500 0.375000
v 0.562500 0.125000 0.375000
vt 0.031250 0.953125
vt 0.062500 0.953125
vt 0.062500 0.968750
vt 0.031250 0.968750
vt 0.000000 0.953125
vt 0.000000 0.968750
vt 0.093750 0.953125
vt 0.125000 0.953125
vt 0.125000 0.968750
vt 0.093750 0.968750
vt 0.062500 1.000000
vt 0.031250 1.000000
vt 0.093750 0.968750
vt 0.062500 0.968750
vt 0.062500 1.000000
vt 0.093750 1.000000
vn 0.0000 0.0000 -1.0000
vn 1.0000 0.0000 0.0000
vn 0.0000 0.0000 1.0000
vn -1.0000 0.0000 0.0000
vn 0.0000 1.0000 -0.0000
vn 0.0000 -1.0000 0.0000
usemtl m_08f3b57a-08fb-91df-1df4-3bd7d28968af
s 1
f 65/129/49 66/130/49 67/131/49 68/132/49
f 69/133/50 65/129/50 68/132/50 70/134/50
f 71/135/51 69/136/51 70/137/51 72/138/51
f 66/130/52 71/135/52 72/138/52 67/131/52
f 72/139/53 70/140/53 68/132/53 67/131/53
f 66/141/54 65/142/54 69/143/54 71/144/54
o cube.478
v 0.625000 0.068750 0.187500
v 0.250000 0.068750 0.187500
v 0.250000 0.068750 0.187500
v 0.625000 0.068750 0.187500
v 0.625000 0.068750 0.437500
v 0.625000 0.068750 0.437500
v 0.250000 0.068750 0.437500
v 0.250000 0.068750 0.437500
vt 0.281250 0.500000
vt 0.375000 0.500000
vt 0.375000 0.500000
vt 0.281250 0.500000
vt 0.218750 0.500000
vt 0.218750 0.500000
vt 0.437500 0.500000
vt 0.531250 0.500000
vt 0.531250 0.500000
vt 0.437500 0.500000
vt 0.375000 0.562500
vt 0.281250 0.562500
vt 0.468750 0.500000
vt 0.375000 0.500000
vt 0.375000 0.562500
vt 0.468750 0.562500
vn 0.0000 -0.0000 -1.0000
vn 1.0000 0.0000 0.0000
vn 0.0000 0.0000 1.0000
vn -1.0000 0.0000 0.0000
vn 0.0000 1.0000 -0.0000
vn 0.0000 -1.0000 0.0000
usemtl m_08f3b57a-08fb-91df-1df4-3bd7d28968af
s 1
f 73/145/55 74/146/55 75/147/55 76/148/55
f 77/149/56 73/145/56 76/148/56 78/150/56
f 79/151/57 77/152/57 78/153/57 80/154/57
f 74/146/58 79/151/58 80/154/58 75/147/58
f 80/155/59 78/156/59 76/148/59 75/147/59
f 74/157/60 73/158/60 77/159/60 79/160/60
o cube.479
v 0.364399 0.047926 0.326932
v 0.364399 0.047926 0.326932
v 0.323383 0.163009 0.300498
v 0.323383 0.163009 0.300498
v 0.223101 0.077074 0.673068
v 0.182086 0.192157 0.646634
v 0.223101 0.077074 0.673068
v 0.182086 0.192157 0.646634
vt 0.093750 0.875000
vt 0.093750 0.875000
vt 0.093750 0.906250
vt 0.093750 0.906250
vt 0.000000 0.875000
vt 0.000000 0.906250
vt 0.187500 0.875000
vt 0.187500 0.875000
vt 0.187500 0.906250
vt 0.187500 0.906250
vt 0.093750 1.000000
vt 0.093750 1.000000
vt 0.093750 0.906250
vt 0.093750 0.906250
vt 0.093750 1.000000
vt 0.093750 1.000000
vn 0.0000 0.0000 -0.9231
vn 0.3767 -0.0777 -0.9231
vn 0.0000 0.0000 -0.9230
vn 0.3768 -0.0777 -0.9230
vn 0.8662 0.3825 0.3214
vn 0.0000 0.0000 0.9230
vn -0.3768 0.0777 0.9230
vn -0.8662 -0.3825 -0.3214
vn 0.0000 0.0000 -0.2115
vn -0.3281 0.9207 -0.2115
vn 0.0000 0.0000 0.2115
vn 0.3281 -0.9207 0.2115
vn 0.3281 -0.9206 0.2115
usemtl m_08f3b57a-08fb-91df-1df4-3bd7d28968af
s 1
f 81/161/61 82/162/62 83/163/63 84/164/64
f 85/165/65 81/161/65 84/164/65 86/166/65
f 87/167/66 85/168/67 86/169/66 88/170/67
f 82/162/68 87/167/68 88/170/68 83/163/68
f 88/171/69 86/172/70 84/164/69 83/163/70
f 82/173/71 81/174/72 85/175/71 87/176/73
o cube.480
v 0.213024 0.064934 0.567543
v 0.213024 0.064934 0.567543
v 0.177244 0.182981 0.587786
v 0.177244 0.182981 0.587786
v 0.310927 0.055199 0.797370
v 0.275147 0.173245 0.817612
v 0.310927 0.055199 0.797370
v 0.275147 0.173245 0.817612
vt 0.062500 0.906250
vt 0.062500 0.906250
vt 0.062500 0.937500
vt 0.062500 0.937500
vt 0.000000 0.906250
vt 0.000000 0.937500
vt 0.125000 0.906250
vt 0.125000 0.906250
vt 0.125000 0.937500
vt 0.125000 0.937500
vt 0.062500 1.000000
vt 0.062500 1.000000
vt 0.062500 0.937500
vt 0.062500 0.937500
vt 0.062500 1.000000
vt 0.062500 1.000000
vn 0.0000 0.0000 -0.9193
vn -0.3916 0.0389 -0.9193
vn 0.8745 0.3266 -0.3587
vn 0.0000 0.0000 0.9193
vn 0.3916 -0.0389 0.9193
vn -0.8745 -0.3266 0.3587
vn 0.0000 0.0000 0.1620
vn -0.2862 0.9444 0.1620
vn 0.0000 0.0000 0.1619
vn -0.2863 0.9444 0.1619
vn 0.0000 0.0000 -0.1620
vn 0.2862 -0.9444 -0.1620
vn 0.0000 0.0000 -0.1619
vn 0.2863 -0.9444 -0.1619
usemtl m_08f3b57a-08fb-91df-1df4-3bd7d28968af
s 1
f 89/177/74 90/178/75 91/179/74 92/180/75
f 93/181/76 89/177/76 92/180/76 94/182/76
f 95/183/77 93/184/78 94/185/77 96/186/78
f 90/178/79 95/183/79 96/186/79 91/179/79
f 96/187/80 94/188/81 92/180/82 91/179/83
f 90/189/84 89/190/85 93/191/86 95/192/87
o cube.481
v 0.729597 0.091210 0.404384
v 0.729597 0.091210 0.404384
v 0.716992 0.211046 0.371135
v 0.716992 0.211046 0.371135
v 0.232242 0.045274 0.427370
v 0.219637 0.165110 0.394121
v 0.232242 0.045274 0.427370
v 0.219637 0.165110 0.394121
vt 0.406250 0.562500
vt 0.406250 0.562500
vt 0.406250 0.593750
vt 0.406250 0.593750
vt 0.281250 0.562500
vt 0.281250 0.593750
vt 0.531250 0.562500
vt 0.531250 0.562500
vt 0.531250 0.593750
vt 0.531250 0.593750
vt 0.406250 0.718750
vt 0.406250 0.718750
vt 0.406250 0.593750
vt 0.406250 0.593750
vt 0.406250 0.718750
vt 0.406250 0.718750
vn 0.0000 0.0000 -0.0460
vn 0.9947 0.0918 -0.0460
vn 0.9947 0.0919 -0.0460
vn 0.0196 0.2692 0.9629
vn 0.0000 0.0000 0.0460
vn -0.9947 -0.0919 0.0460
vn -0.9947 -0.0918 0.0460
vn -0.0196 -0.2692 -0.9629
vn 0.0000 0.0000 -0.2660
vn -0.1008 0.9587 -0.2660
vn 0.0000 0.0000 0.2660
vn 0.1008 -0.9587 0.2660
usemtl m_08f3b57a-08fb-91df-1df4-3bd7d28968af
s 1
f 97/193/88 98/194/89 99/195/88 100/196/90
f 101/197/91 97/193/91 100/196/91 102/198/91
f 103/199/92 101/200/93 102/201/92 104/202/94
f 98/194/95 103/199/95 104/202/95 99/195/95
f 104/203/96 102/204/97 100/196/96 99/195/97
f 98/205/98 97/206/99 101/207/98 103/208/99
o cube.482
v 0.745598 0.064779 0.460428
v 0.745598 0.064779 0.460428
v 0.745863 0.189098 0.447398
v 0.745863 0.189098 0.447398
v 0.571304 0.057942 0.391645
v 0.571570 0.182261 0.378615
v 0.571304 0.057942 0.391645
v 0.571570 0.182261 0.378615
vt 0.046875 0.765625
vt 0.046875 0.765625
vt 0.046875 0.796875
vt 0.046875 0.796875
vt 0.000000 0.765625
vt 0.000000 0.796875
vt 0.093750 0.765625
vt 0.093750 0.765625
vt 0.093750 0.796875
vt 0.093750 0.796875
vt 0.046875 0.843750
vt 0.046875 0.843750
vt 0.046875 0.796875
vt 0.046875 0.796875
vt 0.046875 0.843750
vt 0.046875 0.843750
vn 0.0000 0.0000 0.3668
vn 0.9296 0.0364 0.3668
vn -0.3686 0.0977 0.9244
vn 0.0000 0.0000 -0.3669
vn -0.9296 -0.0364 -0.3669
vn 0.0000 0.0000 -0.3668
vn -0.9296 -0.0364 -0.3668
vn 0.3686 -0.0977 -0.9244
vn 0.0000 0.0000 -0.1042
vn 0.0021 0.9946 -0.1042
vn 0.0022 0.9946 -0.1042
vn 0.0000 0.0000 0.1042
vn -0.0021 -0.9946 0.1042
vn -0.0022 -0.9946 0.1042
usemtl m_08f3b57a-08fb-91df-1df4-3bd7d28968af
s 1
f 105/209/100 106/210/101 107/211/100 108/212/101
f 109/213/102 105/209/102 108/212/102 110/214/102
f 111/215/103 109/216/104 110/217/105 112/218/106
f 106/210/107 111/215/107 112/218/107 107/211/107
f 112/219/108 110/220/109 108/212/108 107/211/110
f 106/221/111 105/222/112 109/223/111 111/224/113
o cube.483
v 0.744309 0.088369 0.797341
v 0.744309 0.088369 0.797341
v 0.744574 0.212688 0.784311
v 0.744574 0.212688 0.784311
v 0.699581 0.043098 0.364494
v 0.699846 0.167417 0.351465
v 0.699581 0.043098 0.364494
v 0.699846 0.167417 0.351465
vt 0.484375 0.468750
vt 0.484375 0.468750
vt 0.484375 0.500000
vt 0.484375 0.500000
vt 0.375000 0.468750
vt 0.375000 0.500000
vt 0.593750 0.468750
vt 0.593750 0.468750
vt 0.593750 0.500000
vt 0.593750 0.500000
vt 0.484375 0.609375
vt 0.484375 0.609375
vt 0.484375 0.500000
vt 0.484375 0.500000
vt 0.484375 0.609375
vt 0.484375 0.609375
vn 0.0000 0.0000 0.9894
vn 0.1022 0.1035 0.9894
vn -0.9948 0.0128 0.1015
vn 0.0000 0.0000 -0.9894
vn -0.1022 -0.1035 -0.9894
vn 0.9948 -0.0128 -0.1015
vn 0.0000 0.0000 -0.1043
vn 0.0021 0.9945 -0.1043
vn 0.0000 0.0000 0.1043
vn -0.0021 -0.9945 0.1043
usemtl m_08f3b57a-08fb-91df-1df4-3bd7d28968af
s 1
f 113/225/114 114/226/115 115/227/114 116/228/115
f 117/229/116 113/225/116 116/228/116 118/230/116
f 119/231/117 117/232/118 118/233/117 120/234/118
f 114/226/119 119/231/119 120/234/119 115/227/119
f 120/235/120 118/236/121 116/228/120 115/227/121
f 114/237/122 113/238/123 117/239/122 119/240/123
o cube.484
v 0.500000 0.403541 0.537601
v 0.500000 0.403541 0.537601
v 0.500000 0.589437 0.513127
v 0.500000 0.589437 0.513127
v 0.500000 0.444331 0.847428
v 0.500000 0.630227 0.822954
v 0.500000 0.444331 0.847428
v 0.500000 0.630227 0.822954
vt 0.078125 0.828125
vt 0.078125 0.828125
vt 0.078125 0.875000
vt 0.078125 0.875000
vt 0.000000 0.828125
vt 0.000000 0.875000
vt 0.156250 0.828125
vt 0.156250 0.828125
vt 0.156250 0.875000
vt 0.156250 0.875000
vt 0.078125 0.953125
vt 0.078125 0.953125
vt 0.078125 0.875000
vt 0.078125 0.875000
vt 0.078125 0.953125
vt 0.078125 0.953125
vn 0.0000 0.0000 -0.9915
vn -0.0000 -0.1305 -0.9915
vn 0.0000 0.0000 -0.9914
vn 0.0000 -0.1305 -0.9914
vn 1.0000 0.0000 0.0000
vn 0.0000 0.0000 0.9914
vn 0.0000 0.1305 0.9914
vn -1.0000 0.0000 0.0000
vn 0.0000 0.0000 -0.1305
vn 0.0000 0.9914 -0.1305
vn 0.0000 0.0000 0.1305
vn -0.0000 -0.9914 0.1305
vn 0.0000 0.0000 0.1306
vn 0.0000 -0.9914 0.1306
usemtl m_08f3b57a-08fb-91df-1df4-3bd7d28968af
s 1
f 121/241/124 122/242/125 123/243/126 124/244/127
f 125/245/128 121/241/128 124/244/128 126/246/128
f 127/247/129 125/248/130 126/249/129 128/250/130
f 122/242/131 127/247/131 128/250/131 123/243/131
f 128/251/132 126/252/133 124/244/132 123/243/133
f 122/253/134 121/254/135 125/255/136 127/256/137
o cube.485
v 0.215819 0.074115 0.567543
v 0.215819 0.074115 0.567543
v 0.227937 0.196868 0.587786
v 0.227937 0.196868 0.587786
v 0.302544 0.027655 0.797370
v 0.314662 0.150408 0.817612
v 0.302544 0.027655 0.797370
v 0.314662 0.150408 0.817612
vt 0.062500 0.906250
vt 0.062500 0.906250
vt 0.062500 0.937500
vt 0.062500 0.937500
vt 0.000000 0.906250
vt 0.000000 0.937500
vt 0.125000 0.906250
vt 0.125000 0.906250
vt 0.125000 0.937500
vt 0.125000 0.937500
vt 0.062500 1.000000
vt 0.062500 1.000000
vt 0.062500 0.937500
vt 0.062500 0.937500
vt 0.062500 1.000000
vt 0.062500 1.000000
vn 0.0000 0.0000 -0.9193
vn -0.3469 0.1859 -0.9193
vn -0.3469 0.1858 -0.9193
vn 0.9329 -0.0329 -0.3587
vn 0.0000 0.0000 0.9193
vn 0.3469 -0.1858 0.9193
vn -0.9329 0.0329 0.3587
vn 0.0000 0.0000 0.1620
vn 0.0970 0.9820 0.1620
vn 0.0000 0.0000 0.1619
vn 0.0969 0.9820 0.1619
vn 0.0000 0.0000 -0.1620
vn -0.0970 -0.9820 -0.1620
vn 0.0000 0.0000 -0.1619
vn -0.0969 -0.9820 -0.1619
usemtl m_08f3b57a-08fb-91df-1df4-3bd7d28968af
s 1
f 129/257/138 130/258/139 131/259/138 132/260/140
f 133/261/141 129/257/141 132/260/141 134/262/141
f 135/263/142 133/264/143 134/265/142 136/266/143
f 130/258/144 135/263/144 136/266/144 131/259/144
f 136/267/145 134/268/146 132/260/147 131/259/148
f 130/269/149 129/270/150 133/271/151 135/272/152
o cube.486
v 0.356746 0.027356 0.326932
v 0.356746 0.027356 0.326932
v 0.352235 0.149446 0.300498
v 0.352235 0.149446 0.300498
v 0.230754 0.097644 0.673068
v 0.226243 0.219734 0.646634
v 0.230754 0.097644 0.673068
v 0.226243 0.219734 0.646634
vt 0.093750 0.875000
vt 0.093750 0.875000
vt 0.093750 0.906250
vt 0.093750 0.906250
vt 0.000000 0.875000
vt 0.000000 0.906250
vt 0.187500 0.875000
vt 0.187500 0.875000
vt 0.187500 0.906250
vt 0.187500 0.906250
vt 0.093750 1.000000
vt 0.093750 1.000000
vt 0.093750 0.906250
vt 0.093750 0.906250
vt 0.093750 1.000000
vt 0.093750 1.000000
vn 0.0000 0.0000 -0.9231
vn 0.3359 -0.1874 -0.9231
vn 0.0000 0.0000 -0.9230
vn 0.3360 -0.1874 -0.9230
vn 0.9412 0.1044 0.3214
vn 0.0000 0.0000 0.9230
vn -0.3360 0.1874 0.9230
vn -0.9412 -0.1044 -0.3214
vn 0.0000 0.0000 -0.2115
vn -0.0361 0.9767 -0.2115
vn 0.0000 0.0000 0.2115
vn 0.0361 -0.9767 0.2115
usemtl m_08f3b57a-08fb-91df-1df4-3bd7d28968af
s 1
f 137/273/153 138/274/154 139/275/155 140/276/156
f 141/277/157 137/273/157 140/276/157 142/278/157
f 143/279/158 141/280/159 142/281/158 144/282/159
f 138/274/160 143/279/160 144/282/160 139/275/160
f 144/283/161 142/284/162 140/276/161 139/275/162
f 138/285/163 137/286/164 141/287/163 143/288/164
o cube.487
v 0.729597 0.083527 0.394490
v 0.729597 0.083527 0.394490
v 0.716992 0.181517 0.317913
v 0.716992 0.181517 0.317913
v 0.232242 0.049884 0.433306
v 0.219637 0.147874 0.356729
v 0.232242 0.049884 0.433306
v 0.219637 0.147874 0.356729
vt 0.406250 0.562500
vt 0.406250 0.562500
vt 0.406250 0.593750
vt 0.406250 0.593750
vt 0.281250 0.562500
vt 0.281250 0.593750
vt 0.531250 0.562500
vt 0.531250 0.562500
vt 0.531250 0.593750
vt 0.531250 0.593750
vt 0.406250 0.718750
vt 0.406250 0.718750
vt 0.406250 0.593750
vt 0.406250 0.593750
vt 0.406250 0.718750
vt 0.406250 0.718750
vn 0.0000 0.0000 -0.0777
vn 0.9947 0.0673 -0.0777
vn 0.0196 0.6172 0.7866
vn 0.0000 0.0000 0.0776
vn -0.9947 -0.0673 0.0776
vn -0.0196 -0.6172 -0.7866
vn 0.0000 0.0000 -0.6127
vn -0.1008 0.7839 -0.6127
vn 0.0000 0.0000 -0.6126
vn -0.1009 0.7839 -0.6126
vn 0.0000 0.0000 0.6126
vn 0.1008 -0.7839 0.6126
vn 0.1009 -0.7839 0.6126
usemtl m_08f3b57a-08fb-91df-1df4-3bd7d28968af
s 1
f 145/289/165 146/290/166 147/291/165 148/292/166
f 149/293/167 145/289/167 148/292/167 150/294/167
f 151/295/168 149/296/169 150/297/168 152/298/169
f 146/290/170 151/295/170 152/298/170 147/291/170
f 152/299/171 150/300/172 148/292/173 147/291/174
f 146/301/175 145/302/176 149/303/175 151/304/177
o cube.488
v 0.753819 0.072124 0.797341
v 0.753819 0.072124 0.797341
v 0.816208 0.179654 0.784311
v 0.816208 0.179654 0.784311
v 0.692448 0.055282 0.364494
v 0.754838 0.162813 0.351465
v 0.692448 0.055282 0.364494
v 0.754838 0.162813 0.351465
vt 0.484375 0.468750
vt 0.484375 0.468750
vt 0.484375 0.500000
vt 0.484375 0.500000
vt 0.375000 0.468750
vt 0.375000 0.500000
vt 0.593750 0.468750
vt 0.593750 0.468750
vt 0.593750 0.500000
vt 0.593750 0.500000
vt 0.484375 0.609375
vt 0.484375 0.609375
vt 0.484375 0.500000
vt 0.484375 0.500000
vt 0.484375 0.609375
vt 0.484375 0.609375
vn 0.0000 0.0000 0.9894
vn 0.1403 0.0385 0.9894
vn -0.8551 0.5084 0.1015
vn 0.0000 0.0000 -0.9894
vn -0.1403 -0.0385 -0.9894
vn -0.1402 -0.0385 -0.9894
vn 0.8551 -0.5084 -0.1015
vn 0.0000 0.0000 -0.1043
vn 0.4991 0.8602 -0.1043
vn 0.4991 0.8603 -0.1043
vn 0.0000 0.0000 0.1043
vn -0.4991 -0.8602 0.1043
vn -0.4991 -0.8603 0.1043
usemtl m_08f3b57a-08fb-91df-1df4-3bd7d28968af
s 1
f 153/305/178 154/306/179 155/307/178 156/308/179
f 157/309/180 153/305/180 156/308/180 158/310/180
f 159/311/181 157/312/182 158/313/181 160/314/183
f 154/306/184 159/311/184 160/314/184 155/307/184
f 160/315/185 158/316/186 156/308/185 155/307/187
f 154/317/188 153/318/189 157/319/188 159/320/190
