# Blender v3.6.1 OBJ File: ''
# www.blender.org
mtllib honey_nuggets.mtl
o cube.292
v 0.593750 0.062500 0.737500
v 0.406250 0.062500 0.737500
v 0.406250 0.187500 0.737500
v 0.593750 0.187500 0.737500
v 0.593750 0.062500 0.737500
v 0.593750 0.187500 0.737500
v 0.406250 0.062500 0.737500
v 0.406250 0.187500 0.737500
vt 0.375000 0.890625
vt 0.421875 0.890625
vt 0.421875 0.921875
vt 0.375000 0.921875
vt 0.375000 0.890625
vt 0.375000 0.921875
vt 0.421875 0.890625
vt 0.468750 0.890625
vt 0.468750 0.921875
vt 0.421875 0.921875
vt 0.468750 0.921875
vt 0.421875 0.921875
vt 0.421875 0.921875
vt 0.468750 0.921875
vn 0.0000 -0.0000 -1.0000
vn 0.0000 0.0000 -0.0000
vn 1.0000 0.0000 -0.0000
vn 0.0000 0.0000 1.0000
vn -1.0000 -0.0000 -0.0000
vn -0.0000 1.0000 -0.0000
vn 0.0000 -1.0000 -0.0000
usemtl m_a494ddfc-cbae-9f56-3acf-8ac424c4c54e
s 1
f 1/1/1 2/2/1 3/3/1 4/4/1
f 5/5/2 1/1/3 4/4/2 6/6/3
f 7/7/4 5/8/4 6/9/4 8/10/4
f 2/2/2 7/7/5 8/10/2 3/3/5
f 8/10/6 6/6/2 4/4/6 3/3/2
f 2/11/7 1/12/2 5/13/7 7/14/2
o cube.293
v 0.593750 0.062500 0.537500
v 0.406250 0.062500 0.537500
v 0.406250 0.187500 0.537500
v 0.593750 0.187500 0.537500
v 0.593750 0.062500 0.537500
v 0.593750 0.187500 0.537500
v 0.406250 0.062500 0.537500
v 0.406250 0.187500 0.537500
vt 0.000000 0.968750
vt 0.046875 0.968750
vt 0.046875 1.000000
vt 0.000000 1.000000
vt 0.000000 0.968750
vt 0.000000 1.000000
vt 0.046875 0.968750
vt 0.093750 0.968750
vt 0.093750 1.000000
vt 0.046875 1.000000
vt 0.093750 1.000000
vt 0.046875 1.000000
vt 0.046875 1.000000
vt 0.093750 1.000000
vn 0.0000 -0.0000 -1.0000
vn 0.0000 0.0000 -0.0000
vn 1.0000 0.0000 -0.0000
vn 0.0000 0.0000 1.0000
vn -1.0000 -0.0000 -0.0000
vn -0.0000 1.0000 -0.0000
vn 0.0000 -1.0000 -0.0000
usemtl m_a494ddfc-cbae-9f56-3acf-8ac424c4c54e
s 1
f 9/15/8 10/16/8 11/17/8 12/18/8
f 13/19/9 9/15/10 12/18/9 14/20/10
f 15/21/11 13/22/11 14/23/11 16/24/11
f 10/16/9 15/21/12 16/24/9 11/17/12
f 16/24/13 14/20/9 12/18/13 11/17/9
f 10/25/14 9/26/9 13/27/14 15/28/9
o cube.294
v 0.400000 0.062500 0.543750
v 0.400000 0.062500 0.543750
v 0.400000 0.187500 0.543750
v 0.400000 0.187500 0.543750
v 0.400000 0.062500 0.731250
v 0.400000 0.187500 0.731250
v 0.400000 0.062500 0.731250
v 0.400000 0.187500 0.731250
vt 0.046875 0.890625
vt 0.046875 0.890625
vt 0.046875 0.921875
vt 0.046875 0.921875
vt 0.000000 0.890625
vt 0.000000 0.921875
vt 0.093750 0.890625
vt 0.093750 0.890625
vt 0.093750 0.921875
vt 0.093750 0.921875
vt 0.046875 0.968750
vt 0.046875 0.968750
vt 0.046875 0.921875
vt 0.046875 0.921875
vt 0.046875 0.968750
vt 0.046875 0.968750
vn 0.0000 0.0000 -1.0000
vn 1.0000 0.0000 0.0000
vn 0.0000 0.0000 1.0000
vn -1.0000 0.0000 0.0000
vn 0.0000 0.0000 0.0000
usemtl m_a494ddfc-cbae-9f56-3acf-8ac424c4c54e
s 1
f 17/29/15 18/30/15 19/31/15 20/32/15
f 21/33/16 17/29/16 20/32/16 22/34/16
f 23/35/17 21/36/17 22/37/17 24/38/17
f 18/30/18 23/35/18 24/38/18 19/31/18
f 24/39/19 22/40/19 20/32/19 19/31/19
f 18/41/19 17/42/19 21/43/19 23/44/19
o cube.295
v 0.600000 0.062500 0.543750
v 0.600000 0.062500 0.543750
v 0.600000 0.187500 0.543750
v 0.600000 0.187500 0.543750
v 0.600000 0.062500 0.731250
v 0.600000 0.187500 0.731250
v 0.600000 0.062500 0.731250
v 0.600000 0.187500 0.731250
vt 0.046875 0.921875
vt 0.046875 0.921875
vt 0.046875 0.953125
vt 0.046875 0.953125
vt 0.000000 0.921875
vt 0.000000 0.953125
vt 0.093750 0.921875
vt 0.093750 0.921875
vt 0.093750 0.953125
vt 0.093750 0.953125
vt 0.046875 1.000000
vt 0.046875 1.000000
vt 0.046875 0.953125
vt 0.046875 0.953125
vt 0.046875 1.000000
vt 0.046875 1.000000
vn 0.0000 0.0000 -1.0000
vn 1.0000 0.0000 0.0000
vn 0.0000 0.0000 1.0000
vn -1.0000 0.0000 0.0000
vn 0.0000 0.0000 0.0000
usemtl m_a494ddfc-cbae-9f56-3acf-8ac424c4c54e
s 1
f 25/45/20 26/46/20 27/47/20 28/48/20
f 29/49/21 25/45/21 28/48/21 30/50/21
f 31/51/22 29/52/22 30/53/22 32/54/22
f 26/46/23 31/51/23 32/54/23 27/47/23
f 32/55/24 30/56/24 28/48/24 27/47/24
f 26/57/24 25/58/24 29/59/24 31/60/24
o cube.296
v 0.750000 -0.000000 0.250000
v 0.250000 -0.000000 0.250000
v 0.250000 0.062500 0.250000
v 0.750000 0.062500 0.250000
v 0.750000 0.000000 0.750000
v 0.750000 0.062500 0.750000
v 0.250000 0.000000 0.750000
v 0.250000 0.062500 0.750000
vt 0.125000 0.859375
vt 0.250000 0.859375
vt 0.250000 0.875000
vt 0.125000 0.875000
vt 0.000000 0.859375
vt 0.000000 0.875000
vt 0.375000 0.859375
vt 0.500000 0.859375
vt 0.500000 0.875000
vt 0.375000 0.875000
vt 0.250000 1.000000
vt 0.125000 1.000000
vt 0.375000 0.875000
vt 0.250000 0.875000
vt 0.250000 1.000000
vt 0.375000 1.000000
vn 0.0000 0.0000 -1.0000
vn 1.0000 0.0000 0.0000
vn 0.0000 0.0000 1.0000
vn -1.0000 0.0000 0.0000
vn 0.0000 1.0000 -0.0000
vn 0.0000 -1.0000 0.0000
usemtl m_a494ddfc-cbae-9f56-3acf-8ac424c4c54e
s 1
f 33/61/25 34/62/25 35/63/25 36/64/25
f 37/65/26 33/61/26 36/64/26 38/66/26
f 39/67/27 37/68/27 38/69/27 40/70/27
f 34/62/28 39/67/28 40/70/28 35/63/28
f 40/71/29 38/72/29 36/64/29 35/63/29
f 34/73/30 33/74/30 37/75/30 39/76/30
o cube.297
v 0.875000 0.032352 0.129259
v 0.125000 0.032352 0.129259
v 0.125000 0.092723 0.145435
v 0.875000 0.092723 0.145435
v 0.875000 -0.000000 0.250000
v 0.875000 0.060370 0.266176
v 0.125000 -0.000000 0.250000
v 0.125000 0.060370 0.266176
vt 0.031250 0.578125
vt 0.218750 0.578125
vt 0.218750 0.593750
vt 0.031250 0.593750
vt 0.000000 0.578125
vt 0.000000 0.593750
vt 0.250000 0.578125
vt 0.437500 0.578125
vt 0.437500 0.593750
vt 0.250000 0.593750
vt 0.218750 0.625000
vt 0.031250 0.625000
vt 0.406250 0.593750
vt 0.218750 0.593750
vt 0.218750 0.625000
vt 0.406250 0.625000
vn 0.0000 0.2588 -0.9659
vn 1.0000 0.0000 0.0000
vn 0.0000 -0.2588 0.9659
vn -1.0000 0.0000 0.0000
vn 0.0000 0.9659 0.2588
vn 0.0000 -0.9659 -0.2588
usemtl m_a494ddfc-cbae-9f56-3acf-8ac424c4c54e
s 1
f 41/77/31 42/78/31 43/79/31 44/80/31
f 45/81/32 41/77/32 44/80/32 46/82/32
f 47/83/33 45/84/33 46/85/33 48/86/33
f 42/78/34 47/83/34 48/86/34 43/79/34
f 48/87/35 46/88/35 44/80/35 43/79/35
f 42/89/36 41/90/36 45/91/36 47/92/36
o cube.298
v 0.870741 0.032352 0.187500
v 0.750000 -0.000000 0.187500
v 0.733824 0.060370 0.187500
v 0.854565 0.092723 0.187500
v 0.870741 0.032352 0.812500
v 0.854565 0.092723 0.812500
v 0.750000 0.000000 0.812500
v 0.733824 0.060370 0.812500
vt 0.375000 0.671875
vt 0.406250 0.671875
vt 0.406250 0.687500
vt 0.375000 0.687500
vt 0.218750 0.671875
vt 0.218750 0.687500
vt 0.562500 0.671875
vt 0.593750 0.671875
vt 0.593750 0.687500
vt 0.562500 0.687500
vt 0.406250 0.843750
vt 0.375000 0.843750
vt 0.437500 0.687500
vt 0.406250 0.687500
vt 0.406250 0.843750
vt 0.437500 0.843750
vn -0.0000 0.0000 -1.0000
vn 0.9659 0.2588 -0.0000
vn 0.0000 0.0000 1.0000
vn -0.9659 -0.2588 0.0000
vn -0.2588 0.9659 -0.0000
vn 0.2588 -0.9659 0.0000
usemtl m_a494ddfc-cbae-9f56-3acf-8ac424c4c54e
s 1
f 49/93/37 50/94/37 51/95/37 52/96/37
f 53/97/38 49/93/38 52/96/38 54/98/38
f 55/99/39 53/100/39 54/101/39 56/102/39
f 50/94/40 55/99/40 56/102/40 51/95/40
f 56/103/41 54/104/41 52/96/41 51/95/41
f 50/105/42 49/106/42 53/107/42 55/108/42
o cube.299
v 0.250000 -0.000000 0.187500
v 0.129259 0.032352 0.187500
v 0.145435 0.092723 0.187500
v 0.266176 0.060370 0.187500
v 0.250000 0.000000 0.812500
v 0.266176 0.060370 0.812500
v 0.129259 0.032352 0.812500
v 0.145435 0.092723 0.812500
vt 0.156250 0.687500
vt 0.187500 0.687500
vt 0.187500 0.703125
vt 0.156250 0.703125
vt 0.000000 0.687500
vt 0.000000 0.703125
vt 0.343750 0.687500
vt 0.375000 0.687500
vt 0.375000 0.703125
vt 0.343750 0.703125
vt 0.187500 0.859375
vt 0.156250 0.859375
vt 0.218750 0.703125
vt 0.187500 0.703125
vt 0.187500 0.859375
vt 0.218750 0.859375
vn 0.0000 0.0000 -1.0000
vn 0.9659 -0.2588 0.0000
vn 0.0000 0.0000 1.0000
vn -0.9659 0.2588 -0.0000
vn 0.2588 0.9659 -0.0000
vn -0.2588 -0.9659 0.0000
usemtl m_a494ddfc-cbae-9f56-3acf-8ac424c4c54e
s 1
f 57/109/43 58/110/43 59/111/43 60/112/43
f 61/113/44 57/109/44 60/112/44 62/114/44
f 63/115/45 61/116/45 62/117/45 64/118/45
f 58/110/46 63/115/46 64/118/46 59/111/46
f 64/119/47 62/120/47 60/112/47 59/111/47
f 58/121/48 57/122/48 61/123/48 63/124/48
o cube.300
v 0.875000 0.000000 0.750000
v 0.125000 0.000000 0.750000
v 0.125000 0.060370 0.733824
v 0.875000 0.060370 0.733824
v 0.875000 0.032352 0.870741
v 0.875000 0.092723 0.854565
v 0.125000 0.032352 0.870741
v 0.125000 0.092723 0.854565
vt 0.031250 0.625000
vt 0.218750 0.625000
vt 0.218750 0.640625
vt 0.031250 0.640625
vt 0.000000 0.625000
vt 0.000000 0.640625
vt 0.250000 0.625000
vt 0.437500 0.625000
vt 0.437500 0.640625
vt 0.250000 0.640625
vt 0.218750 0.671875
vt 0.031250 0.671875
vt 0.406250 0.640625
vt 0.218750 0.640625
vt 0.218750 0.671875
vt 0.406250 0.671875
vn 0.0000 -0.2588 -0.9659
vn 1.0000 0.0000 0.0000
vn 0.0000 0.2588 0.9659
vn -1.0000 0.0000 0.0000
vn 0.0000 0.9659 -0.2588
vn 0.0000 -0.9659 0.2588
usemtl m_a494ddfc-cbae-9f56-3acf-8ac424c4c54e
s 1
f 65/125/49 66/126/49 67/127/49 68/128/49
f 69/129/50 65/125/50 68/128/50 70/130/50
f 71/131/51 69/132/51 70/133/51 72/134/51
f 66/126/52 71/131/52 72/134/52 67/127/52
f 72/135/53 70/136/53 68/128/53 67/127/53
f 66/137/54 65/138/54 69/139/54 71/140/54
o cube.301
v 0.697877 0.062500 0.346771
v 0.589623 0.062500 0.284271
v 0.589623 0.187500 0.284271
v 0.697877 0.187500 0.346771
v 0.604127 0.062500 0.509151
v 0.604127 0.187500 0.509151
v 0.495873 0.062500 0.446651
v 0.495873 0.187500 0.446651
vt 0.484375 0.781250
vt 0.515625 0.781250
vt 0.515625 0.812500
vt 0.484375 0.812500
vt 0.437500 0.781250
vt 0.437500 0.812500
vt 0.562500 0.781250
vt 0.593750 0.781250
vt 0.593750 0.812500
vt 0.562500 0.812500
vt 0.515625 0.859375
vt 0.484375 0.859375
vt 0.546875 0.812500
vt 0.515625 0.812500
vt 0.515625 0.859375
vt 0.546875 0.859375
vn 0.5000 -0.0000 -0.8660
vn 0.8660 0.0000 0.5000
vn -0.5000 0.0000 0.8660
vn -0.8660 0.0000 -0.5000
vn 0.0000 1.0000 -0.0000
vn -0.0000 -1.0000 0.0000
usemtl m_a494ddfc-cbae-9f56-3acf-8ac424c4c54e
s 1
f 73/141/55 74/142/55 75/143/55 76/144/55
f 77/145/56 73/141/56 76/144/56 78/146/56
f 79/147/57 77/148/57 78/149/57 80/150/57
f 74/142/58 79/147/58 80/150/58 75/143/58
f 80/151/59 78/152/59 76/144/59 75/143/59
f 74/153/60 73/154/60 77/155/60 79/156/60
o cube.302
v 0.826612 0.094110 0.491163
v 0.742163 0.094110 0.399004
v 0.726160 0.217210 0.413668
v 0.810609 0.217210 0.505828
v 0.690473 0.061550 0.615912
v 0.674469 0.184651 0.630576
v 0.606024 0.061550 0.523752
v 0.590021 0.184651 0.538417
vt 0.203125 0.500000
vt 0.234375 0.500000
vt 0.234375 0.531250
vt 0.203125 0.531250
vt 0.156250 0.500000
vt 0.156250 0.531250
vt 0.281250 0.500000
vt 0.312500 0.500000
vt 0.312500 0.531250
vt 0.281250 0.531250
vt 0.234375 0.578125
vt 0.203125 0.578125
vt 0.265625 0.531250
vt 0.234375 0.531250
vt 0.234375 0.578125
vt 0.265625 0.578125
vn 0.7261 0.1736 -0.6653
vn 0.6756 0.0000 0.7373
vn -0.7261 -0.1736 0.6653
vn -0.6756 0.0000 -0.7373
vn -0.1280 0.9848 0.1173
vn 0.1280 -0.9848 -0.1173
usemtl m_a494ddfc-cbae-9f56-3acf-8ac424c4c54e
s 1
f 81/157/61 82/158/61 83/159/61 84/160/61
f 85/161/62 81/157/62 84/160/62 86/162/62
f 87/163/63 85/164/63 86/165/63 88/166/63
f 82/158/64 87/163/64 88/166/64 83/159/64
f 88/167/65 86/168/65 84/160/65 83/159/65
f 82/169/66 81/170/66 85/171/66 87/172/66
o cube.303
v 0.803032 0.049615 0.631195
v 0.688948 0.013873 0.594693
v 0.658302 0.133211 0.573619
v 0.772386 0.168953 0.610122
v 0.741719 0.065040 0.807715
v 0.711073 0.184379 0.786641
v 0.627635 0.029298 0.771212
v 0.596990 0.148637 0.750139
vt 0.046875 0.500000
vt 0.078125 0.500000
vt 0.078125 0.531250
vt 0.046875 0.531250
vt 0.000000 0.500000
vt 0.000000 0.531250
vt 0.125000 0.500000
vt 0.156250 0.500000
vt 0.156250 0.531250
vt 0.125000 0.531250
vt 0.078125 0.578125
vt 0.046875 0.578125
vt 0.109375 0.531250
vt 0.078125 0.531250
vt 0.078125 0.578125
vt 0.109375 0.578125
vn 0.3270 -0.0823 -0.9414
vn 0.9127 0.2859 0.2920
vn -0.3270 0.0823 0.9414
vn -0.9127 -0.2859 -0.2920
vn -0.2452 0.9547 -0.1686
vn 0.2452 -0.9547 0.1686
usemtl m_a494ddfc-cbae-9f56-3acf-8ac424c4c54e
s 1
f 89/173/67 90/174/67 91/175/67 92/176/67
f 93/177/68 89/173/68 92/176/68 94/178/68
f 95/179/69 93/180/69 94/181/69 96/182/69
f 90/174/70 95/179/70 96/182/70 91/175/70
f 96/183/71 94/184/71 92/176/71 91/175/71
f 90/185/72 89/186/72 93/187/72 95/188/72
o cube.304
v 0.722139 0.080461 0.163276
v 0.612615 0.059494 0.219755
v 0.596612 0.182595 0.234420
v 0.706136 0.203562 0.177940
v 0.809260 0.072034 0.329093
v 0.793257 0.195135 0.343757
v 0.699736 0.051067 0.385572
v 0.683733 0.174168 0.400236
vt 0.437500 0.546875
vt 0.468750 0.546875
vt 0.468750 0.578125
vt 0.437500 0.578125
vt 0.390625 0.546875
vt 0.390625 0.578125
vt 0.515625 0.546875
vt 0.546875 0.546875
vt 0.546875 0.578125
vt 0.515625 0.578125
vt 0.468750 0.625000
vt 0.437500 0.625000
vt 0.500000 0.578125
vt 0.468750 0.578125
vt 0.468750 0.625000
vt 0.500000 0.625000
vn -0.4646 0.0449 -0.8844
vn 0.8762 0.1677 -0.4518
vn 0.4646 -0.0449 0.8844
vn -0.8762 -0.1677 0.4518
vn -0.1280 0.9848 0.1173
vn 0.1280 -0.9848 -0.1173
usemtl m_a494ddfc-cbae-9f56-3acf-8ac424c4c54e
s 1
f 97/189/73 98/190/73 99/191/73 100/192/73
f 101/193/74 97/189/74 100/192/74 102/194/74
f 103/195/75 101/196/75 102/197/75 104/198/75
f 98/190/76 103/195/76 104/198/76 99/191/76
f 104/199/77 102/200/77 100/192/77 99/191/77
f 98/201/78 97/202/78 101/203/78 103/204/78
o cube.305
v 0.251516 0.075523 0.361668
v 0.168662 0.080728 0.455120
v 0.180043 0.205169 0.458279
v 0.262897 0.199964 0.364828
v 0.390868 0.059618 0.486104
v 0.402249 0.184058 0.489264
v 0.308014 0.064823 0.579555
v 0.319395 0.189263 0.582715
vt 0.265625 0.703125
vt 0.296875 0.703125
vt 0.296875 0.734375
vt 0.265625 0.734375
vt 0.218750 0.703125
vt 0.218750 0.734375
vt 0.343750 0.703125
vt 0.375000 0.703125
vt 0.375000 0.734375
vt 0.343750 0.734375
vt 0.296875 0.781250
vt 0.265625 0.781250
vt 0.328125 0.734375
vt 0.296875 0.734375
vt 0.296875 0.781250
vt 0.328125 0.781250
vn -0.7432 0.0848 -0.6637
vn 0.6628 -0.0416 -0.7476
vn 0.7432 -0.0848 0.6637
vn -0.6628 0.0416 0.7476
vn 0.0911 0.9955 0.0253
vn -0.0911 -0.9955 -0.0253
usemtl m_a494ddfc-cbae-9f56-3acf-8ac424c4c54e
s 1
f 105/205/79 106/206/79 107/207/79 108/208/79
f 109/209/80 105/205/80 108/208/80 110/210/80
f 111/211/81 109/212/81 110/213/81 112/214/81
f 106/206/82 111/211/82 112/214/82 107/207/82
f 112/215/83 110/216/83 108/208/83 107/207/83
f 106/217/84 105/218/84 109/219/84 111/220/84
o cube.306
v 0.351423 0.076547 0.156842
v 0.310127 0.044194 0.270301
v 0.299062 0.164935 0.300703
v 0.340358 0.197287 0.187244
v 0.527615 0.076547 0.220971
v 0.516550 0.197287 0.251372
v 0.486320 0.044194 0.334430
v 0.475254 0.164935 0.364832
vt 0.265625 0.781250
vt 0.296875 0.781250
vt 0.296875 0.812500
vt 0.265625 0.812500
vt 0.218750 0.781250
vt 0.218750 0.812500
vt 0.343750 0.781250
vt 0.375000 0.781250
vt 0.375000 0.812500
vt 0.343750 0.812500
vt 0.296875 0.859375
vt 0.265625 0.859375
vt 0.328125 0.812500
vt 0.296875 0.812500
vt 0.296875 0.859375
vt 0.328125 0.859375
vn -0.9397 0.0000 -0.3420
vn 0.3304 0.2588 -0.9077
vn 0.9397 0.0000 0.3420
vn -0.3304 -0.2588 0.9077
vn -0.0885 0.9659 0.2432
vn 0.0885 -0.9659 -0.2432
usemtl m_a494ddfc-cbae-9f56-3acf-8ac424c4c54e
s 1
f 113/221/85 114/222/85 115/223/85 116/224/85
f 117/225/86 113/221/86 116/224/86 118/226/86
f 119/227/87 117/228/87 118/229/87 120/230/87
f 114/222/88 119/227/88 120/230/88 115/223/88
f 120/231/89 118/232/89 116/224/89 115/223/89
f 114/233/90 113/234/90 117/235/90 119/236/90
o cube.307
v 0.348553 0.043655 0.420333
v 0.406634 0.038037 0.530878
v 0.390631 0.161138 0.545542
v 0.332550 0.166756 0.434998
v 0.512839 0.075105 0.335614
v 0.496836 0.198206 0.350279
v 0.570920 0.069487 0.446159
v 0.554916 0.192588 0.460823
vt 0.046875 0.703125
vt 0.078125 0.703125
vt 0.078125 0.734375
vt 0.046875 0.734375
vt 0.000000 0.703125
vt 0.000000 0.734375
vt 0.125000 0.703125
vt 0.156250 0.703125
vt 0.156250 0.734375
vt 0.125000 0.734375
vt 0.078125 0.781250
vt 0.046875 0.781250
vt 0.109375 0.734375
vt 0.078125 0.734375
vt 0.078125 0.781250
vt 0.109375 0.781250
vn -0.8762 -0.1677 0.4518
vn -0.4646 0.0449 -0.8844
vn 0.8762 0.1677 -0.4518
vn 0.4646 -0.0449 0.8844
vn -0.1280 0.9848 0.1173
vn 0.1280 -0.9848 -0.1173
usemtl m_a494ddfc-cbae-9f56-3acf-8ac424c4c54e
s 1
f 121/237/91 122/238/91 123/239/91 124/240/91
f 125/241/92 121/237/92 124/240/92 126/242/92
f 127/243/93 125/244/93 126/245/93 128/246/93
f 122/238/94 127/243/94 128/246/94 123/239/94
f 128/247/95 126/248/95 124/240/95 123/239/95
f 122/249/96 121/250/96 125/251/96 127/252/96
o cube.308
v 0.253015 0.055286 0.780367
v 0.377461 0.056291 0.768661
v 0.377191 0.181045 0.776500
v 0.252744 0.180039 0.788206
v 0.235395 0.066955 0.594061
v 0.235125 0.191709 0.601901
v 0.359842 0.067960 0.582355
v 0.359572 0.192714 0.590195
vt 0.046875 0.781250
vt 0.078125 0.781250
vt 0.078125 0.812500
vt 0.046875 0.812500
vt 0.000000 0.781250
vt 0.000000 0.812500
vt 0.125000 0.781250
vt 0.156250 0.781250
vt 0.156250 0.812500
vt 0.125000 0.812500
vt 0.078125 0.859375
vt 0.046875 0.859375
vt 0.109375 0.812500
vt 0.078125 0.812500
vt 0.078125 0.859375
vt 0.109375 0.859375
vn 0.0940 -0.0622 0.9936
vn -0.9956 -0.0080 0.0936
vn -0.0940 0.0622 -0.9936
vn 0.9956 0.0080 -0.0936
vn -0.0022 0.9980 0.0627
vn 0.0022 -0.9980 -0.0627
usemtl m_a494ddfc-cbae-9f56-3acf-8ac424c4c54e
s 1
f 129/253/97 130/254/97 131/255/97 132/256/97
f 133/257/98 129/253/98 132/256/98 134/258/98
f 135/259/99 133/260/99 134/261/99 136/262/99
f 130/254/100 135/259/100 136/262/100 131/255/100
f 136/263/101 134/264/101 132/256/101 131/255/101
f 130/265/102 129/266/102 133/267/102 135/268/102
o cube.309
v 0.593750 0.046875 0.543750
v 0.406250 0.046875 0.543750
v 0.406250 0.171875 0.543750
v 0.593750 0.171875 0.543750
v 0.593750 0.046875 0.731250
v 0.593750 0.171875 0.731250
v 0.406250 0.046875 0.731250
v 0.406250 0.171875 0.731250
vt 0.421875 0.921875
vt 0.468750 0.921875
vt 0.468750 0.953125
vt 0.421875 0.953125
vt 0.375000 0.921875
vt 0.375000 0.953125
vt 0.515625 0.921875
vt 0.562500 0.921875
vt 0.562500 0.953125
vt 0.515625 0.953125
vt 0.468750 1.000000
vt 0.421875 1.000000
vt 0.515625 0.953125
vt 0.468750 0.953125
vt 0.468750 1.000000
vt 0.515625 1.000000
vn 0.0000 0.0000 -1.0000
vn 1.0000 0.0000 0.0000
vn 0.0000 0.0000 1.0000
vn -1.0000 0.0000 0.0000
vn 0.0000 1.0000 -0.0000
vn 0.0000 -1.0000 0.0000
usemtl m_a494ddfc-cbae-9f56-3acf-8ac424c4c54e
s 1
f 137/269/103 138/270/103 139/271/103 140/272/103
f 141/273/104 137/269/104 140/272/104 142/274/104
f 143/275/105 141/276/105 142/277/105 144/278/105
f 138/270/106 143/275/106 144/278/106 139/271/106
f 144/279/107 142/280/107 140/272/107 139/271/107
f 138/281/108 137/282/108 141/283/108 143/284/108
